%TF.GenerationSoftware,KiCad,Pcbnew,(5.1.9)-1*%
%TF.CreationDate,2021-05-25T19:19:13-07:00*%
%TF.ProjectId,VacuumSensor,56616375-756d-4536-956e-736f722e6b69,rev?*%
%TF.SameCoordinates,Original*%
%TF.FileFunction,Paste,Top*%
%TF.FilePolarity,Positive*%
%FSLAX46Y46*%
G04 Gerber Fmt 4.6, Leading zero omitted, Abs format (unit mm)*
G04 Created by KiCad (PCBNEW (5.1.9)-1) date 2021-05-25 19:19:13*
%MOMM*%
%LPD*%
G01*
G04 APERTURE LIST*
%ADD10R,0.600000X0.550000*%
%ADD11R,1.475000X0.450000*%
G04 APERTURE END LIST*
D10*
%TO.C,RT1*%
X89475000Y-88120000D03*
X89475000Y-89420000D03*
%TD*%
%TO.C,R6*%
G36*
G01*
X89930000Y-92050000D02*
X89380000Y-92050000D01*
G75*
G02*
X89180000Y-91850000I0J200000D01*
G01*
X89180000Y-91450000D01*
G75*
G02*
X89380000Y-91250000I200000J0D01*
G01*
X89930000Y-91250000D01*
G75*
G02*
X90130000Y-91450000I0J-200000D01*
G01*
X90130000Y-91850000D01*
G75*
G02*
X89930000Y-92050000I-200000J0D01*
G01*
G37*
G36*
G01*
X89930000Y-93700000D02*
X89380000Y-93700000D01*
G75*
G02*
X89180000Y-93500000I0J200000D01*
G01*
X89180000Y-93100000D01*
G75*
G02*
X89380000Y-92900000I200000J0D01*
G01*
X89930000Y-92900000D01*
G75*
G02*
X90130000Y-93100000I0J-200000D01*
G01*
X90130000Y-93500000D01*
G75*
G02*
X89930000Y-93700000I-200000J0D01*
G01*
G37*
%TD*%
D11*
%TO.C,IC5*%
X109618000Y-85355000D03*
X109618000Y-86005000D03*
X109618000Y-86655000D03*
X109618000Y-87305000D03*
X109618000Y-87955000D03*
X109618000Y-88605000D03*
X109618000Y-89255000D03*
X109618000Y-89905000D03*
X103742000Y-89905000D03*
X103742000Y-89255000D03*
X103742000Y-88605000D03*
X103742000Y-87955000D03*
X103742000Y-87305000D03*
X103742000Y-86655000D03*
X103742000Y-86005000D03*
X103742000Y-85355000D03*
%TD*%
%TO.C,R4*%
G36*
G01*
X101875000Y-98190000D02*
X101325000Y-98190000D01*
G75*
G02*
X101125000Y-97990000I0J200000D01*
G01*
X101125000Y-97590000D01*
G75*
G02*
X101325000Y-97390000I200000J0D01*
G01*
X101875000Y-97390000D01*
G75*
G02*
X102075000Y-97590000I0J-200000D01*
G01*
X102075000Y-97990000D01*
G75*
G02*
X101875000Y-98190000I-200000J0D01*
G01*
G37*
G36*
G01*
X101875000Y-96540000D02*
X101325000Y-96540000D01*
G75*
G02*
X101125000Y-96340000I0J200000D01*
G01*
X101125000Y-95940000D01*
G75*
G02*
X101325000Y-95740000I200000J0D01*
G01*
X101875000Y-95740000D01*
G75*
G02*
X102075000Y-95940000I0J-200000D01*
G01*
X102075000Y-96340000D01*
G75*
G02*
X101875000Y-96540000I-200000J0D01*
G01*
G37*
%TD*%
%TO.C,R1*%
G36*
G01*
X110445000Y-114025000D02*
X110445000Y-114575000D01*
G75*
G02*
X110245000Y-114775000I-200000J0D01*
G01*
X109845000Y-114775000D01*
G75*
G02*
X109645000Y-114575000I0J200000D01*
G01*
X109645000Y-114025000D01*
G75*
G02*
X109845000Y-113825000I200000J0D01*
G01*
X110245000Y-113825000D01*
G75*
G02*
X110445000Y-114025000I0J-200000D01*
G01*
G37*
G36*
G01*
X108795000Y-114025000D02*
X108795000Y-114575000D01*
G75*
G02*
X108595000Y-114775000I-200000J0D01*
G01*
X108195000Y-114775000D01*
G75*
G02*
X107995000Y-114575000I0J200000D01*
G01*
X107995000Y-114025000D01*
G75*
G02*
X108195000Y-113825000I200000J0D01*
G01*
X108595000Y-113825000D01*
G75*
G02*
X108795000Y-114025000I0J-200000D01*
G01*
G37*
%TD*%
%TO.C,R2*%
G36*
G01*
X118065000Y-106405000D02*
X118065000Y-106955000D01*
G75*
G02*
X117865000Y-107155000I-200000J0D01*
G01*
X117465000Y-107155000D01*
G75*
G02*
X117265000Y-106955000I0J200000D01*
G01*
X117265000Y-106405000D01*
G75*
G02*
X117465000Y-106205000I200000J0D01*
G01*
X117865000Y-106205000D01*
G75*
G02*
X118065000Y-106405000I0J-200000D01*
G01*
G37*
G36*
G01*
X116415000Y-106405000D02*
X116415000Y-106955000D01*
G75*
G02*
X116215000Y-107155000I-200000J0D01*
G01*
X115815000Y-107155000D01*
G75*
G02*
X115615000Y-106955000I0J200000D01*
G01*
X115615000Y-106405000D01*
G75*
G02*
X115815000Y-106205000I200000J0D01*
G01*
X116215000Y-106205000D01*
G75*
G02*
X116415000Y-106405000I0J-200000D01*
G01*
G37*
%TD*%
M02*
