%TF.GenerationSoftware,KiCad,Pcbnew,(5.1.9)-1*%
%TF.CreationDate,2021-05-25T19:19:14-07:00*%
%TF.ProjectId,VacuumSensor,56616375-756d-4536-956e-736f722e6b69,rev?*%
%TF.SameCoordinates,Original*%
%TF.FileFunction,Legend,Bot*%
%TF.FilePolarity,Positive*%
%FSLAX46Y46*%
G04 Gerber Fmt 4.6, Leading zero omitted, Abs format (unit mm)*
G04 Created by KiCad (PCBNEW (5.1.9)-1) date 2021-05-25 19:19:14*
%MOMM*%
%LPD*%
G01*
G04 APERTURE LIST*
%ADD10C,0.300000*%
%ADD11C,0.200000*%
%ADD12C,0.120000*%
%ADD13C,0.254000*%
%ADD14C,0.150000*%
G04 APERTURE END LIST*
D10*
X130235476Y-125850952D02*
X131505476Y-125850952D01*
X130235476Y-125306666D02*
X130900714Y-125306666D01*
X131021666Y-125367142D01*
X131082142Y-125488095D01*
X131082142Y-125669523D01*
X131021666Y-125790476D01*
X130961190Y-125850952D01*
X131082142Y-124883333D02*
X131082142Y-124399523D01*
X131505476Y-124701904D02*
X130416904Y-124701904D01*
X130295952Y-124641428D01*
X130235476Y-124520476D01*
X130235476Y-124399523D01*
X131082142Y-124157619D02*
X131082142Y-123673809D01*
X131505476Y-123976190D02*
X130416904Y-123976190D01*
X130295952Y-123915714D01*
X130235476Y-123794761D01*
X130235476Y-123673809D01*
X131082142Y-123250476D02*
X129812142Y-123250476D01*
X131021666Y-123250476D02*
X131082142Y-123129523D01*
X131082142Y-122887619D01*
X131021666Y-122766666D01*
X130961190Y-122706190D01*
X130840238Y-122645714D01*
X130477380Y-122645714D01*
X130356428Y-122706190D01*
X130295952Y-122766666D01*
X130235476Y-122887619D01*
X130235476Y-123129523D01*
X130295952Y-123250476D01*
X130295952Y-122161904D02*
X130235476Y-122040952D01*
X130235476Y-121799047D01*
X130295952Y-121678095D01*
X130416904Y-121617619D01*
X130477380Y-121617619D01*
X130598333Y-121678095D01*
X130658809Y-121799047D01*
X130658809Y-121980476D01*
X130719285Y-122101428D01*
X130840238Y-122161904D01*
X130900714Y-122161904D01*
X131021666Y-122101428D01*
X131082142Y-121980476D01*
X131082142Y-121799047D01*
X131021666Y-121678095D01*
X130356428Y-121073333D02*
X130295952Y-121012857D01*
X130235476Y-121073333D01*
X130295952Y-121133809D01*
X130356428Y-121073333D01*
X130235476Y-121073333D01*
X131021666Y-121073333D02*
X130961190Y-121012857D01*
X130900714Y-121073333D01*
X130961190Y-121133809D01*
X131021666Y-121073333D01*
X130900714Y-121073333D01*
X131565952Y-119561428D02*
X129933095Y-120650000D01*
X131565952Y-118230952D02*
X129933095Y-119319523D01*
X131082142Y-117263333D02*
X130054047Y-117263333D01*
X129933095Y-117323809D01*
X129872619Y-117384285D01*
X129812142Y-117505238D01*
X129812142Y-117686666D01*
X129872619Y-117807619D01*
X130295952Y-117263333D02*
X130235476Y-117384285D01*
X130235476Y-117626190D01*
X130295952Y-117747142D01*
X130356428Y-117807619D01*
X130477380Y-117868095D01*
X130840238Y-117868095D01*
X130961190Y-117807619D01*
X131021666Y-117747142D01*
X131082142Y-117626190D01*
X131082142Y-117384285D01*
X131021666Y-117263333D01*
X130235476Y-116658571D02*
X131082142Y-116658571D01*
X131505476Y-116658571D02*
X131445000Y-116719047D01*
X131384523Y-116658571D01*
X131445000Y-116598095D01*
X131505476Y-116658571D01*
X131384523Y-116658571D01*
X131082142Y-116235238D02*
X131082142Y-115751428D01*
X131505476Y-116053809D02*
X130416904Y-116053809D01*
X130295952Y-115993333D01*
X130235476Y-115872380D01*
X130235476Y-115751428D01*
X130235476Y-115328095D02*
X131505476Y-115328095D01*
X130235476Y-114783809D02*
X130900714Y-114783809D01*
X131021666Y-114844285D01*
X131082142Y-114965238D01*
X131082142Y-115146666D01*
X131021666Y-115267619D01*
X130961190Y-115328095D01*
X131082142Y-113634761D02*
X130235476Y-113634761D01*
X131082142Y-114179047D02*
X130416904Y-114179047D01*
X130295952Y-114118571D01*
X130235476Y-113997619D01*
X130235476Y-113816190D01*
X130295952Y-113695238D01*
X130356428Y-113634761D01*
X130235476Y-113030000D02*
X131505476Y-113030000D01*
X131021666Y-113030000D02*
X131082142Y-112909047D01*
X131082142Y-112667142D01*
X131021666Y-112546190D01*
X130961190Y-112485714D01*
X130840238Y-112425238D01*
X130477380Y-112425238D01*
X130356428Y-112485714D01*
X130295952Y-112546190D01*
X130235476Y-112667142D01*
X130235476Y-112909047D01*
X130295952Y-113030000D01*
X130356428Y-111880952D02*
X130295952Y-111820476D01*
X130235476Y-111880952D01*
X130295952Y-111941428D01*
X130356428Y-111880952D01*
X130235476Y-111880952D01*
X130295952Y-110731904D02*
X130235476Y-110852857D01*
X130235476Y-111094761D01*
X130295952Y-111215714D01*
X130356428Y-111276190D01*
X130477380Y-111336666D01*
X130840238Y-111336666D01*
X130961190Y-111276190D01*
X131021666Y-111215714D01*
X131082142Y-111094761D01*
X131082142Y-110852857D01*
X131021666Y-110731904D01*
X130235476Y-110006190D02*
X130295952Y-110127142D01*
X130356428Y-110187619D01*
X130477380Y-110248095D01*
X130840238Y-110248095D01*
X130961190Y-110187619D01*
X131021666Y-110127142D01*
X131082142Y-110006190D01*
X131082142Y-109824761D01*
X131021666Y-109703809D01*
X130961190Y-109643333D01*
X130840238Y-109582857D01*
X130477380Y-109582857D01*
X130356428Y-109643333D01*
X130295952Y-109703809D01*
X130235476Y-109824761D01*
X130235476Y-110006190D01*
X130235476Y-109038571D02*
X131082142Y-109038571D01*
X130961190Y-109038571D02*
X131021666Y-108978095D01*
X131082142Y-108857142D01*
X131082142Y-108675714D01*
X131021666Y-108554761D01*
X130900714Y-108494285D01*
X130235476Y-108494285D01*
X130900714Y-108494285D02*
X131021666Y-108433809D01*
X131082142Y-108312857D01*
X131082142Y-108131428D01*
X131021666Y-108010476D01*
X130900714Y-107950000D01*
X130235476Y-107950000D01*
X131565952Y-106438095D02*
X129933095Y-107526666D01*
X131505476Y-106196190D02*
X131505476Y-105470476D01*
X130235476Y-105833333D02*
X131505476Y-105833333D01*
X131505476Y-104684285D02*
X130598333Y-104684285D01*
X130416904Y-104744761D01*
X130295952Y-104865714D01*
X130235476Y-105047142D01*
X130235476Y-105168095D01*
X130235476Y-103474761D02*
X130235476Y-104079523D01*
X131505476Y-104079523D01*
X131505476Y-103232857D02*
X131505476Y-102507142D01*
X130235476Y-102870000D02*
X131505476Y-102870000D01*
X130235476Y-102083809D02*
X131505476Y-102083809D01*
X130598333Y-101660476D01*
X131505476Y-101237142D01*
X130235476Y-101237142D01*
X131565952Y-99725238D02*
X129933095Y-100813809D01*
X131505476Y-99483333D02*
X130235476Y-99060000D01*
X131505476Y-98636666D01*
X130235476Y-97669047D02*
X130900714Y-97669047D01*
X131021666Y-97729523D01*
X131082142Y-97850476D01*
X131082142Y-98092380D01*
X131021666Y-98213333D01*
X130295952Y-97669047D02*
X130235476Y-97790000D01*
X130235476Y-98092380D01*
X130295952Y-98213333D01*
X130416904Y-98273809D01*
X130537857Y-98273809D01*
X130658809Y-98213333D01*
X130719285Y-98092380D01*
X130719285Y-97790000D01*
X130779761Y-97669047D01*
X130295952Y-96520000D02*
X130235476Y-96640952D01*
X130235476Y-96882857D01*
X130295952Y-97003809D01*
X130356428Y-97064285D01*
X130477380Y-97124761D01*
X130840238Y-97124761D01*
X130961190Y-97064285D01*
X131021666Y-97003809D01*
X131082142Y-96882857D01*
X131082142Y-96640952D01*
X131021666Y-96520000D01*
X131082142Y-95431428D02*
X130235476Y-95431428D01*
X131082142Y-95975714D02*
X130416904Y-95975714D01*
X130295952Y-95915238D01*
X130235476Y-95794285D01*
X130235476Y-95612857D01*
X130295952Y-95491904D01*
X130356428Y-95431428D01*
X131082142Y-94282380D02*
X130235476Y-94282380D01*
X131082142Y-94826666D02*
X130416904Y-94826666D01*
X130295952Y-94766190D01*
X130235476Y-94645238D01*
X130235476Y-94463809D01*
X130295952Y-94342857D01*
X130356428Y-94282380D01*
X130235476Y-93677619D02*
X131082142Y-93677619D01*
X130961190Y-93677619D02*
X131021666Y-93617142D01*
X131082142Y-93496190D01*
X131082142Y-93314761D01*
X131021666Y-93193809D01*
X130900714Y-93133333D01*
X130235476Y-93133333D01*
X130900714Y-93133333D02*
X131021666Y-93072857D01*
X131082142Y-92951904D01*
X131082142Y-92770476D01*
X131021666Y-92649523D01*
X130900714Y-92589047D01*
X130235476Y-92589047D01*
X130295952Y-92044761D02*
X130235476Y-91863333D01*
X130235476Y-91560952D01*
X130295952Y-91440000D01*
X130356428Y-91379523D01*
X130477380Y-91319047D01*
X130598333Y-91319047D01*
X130719285Y-91379523D01*
X130779761Y-91440000D01*
X130840238Y-91560952D01*
X130900714Y-91802857D01*
X130961190Y-91923809D01*
X131021666Y-91984285D01*
X131142619Y-92044761D01*
X131263571Y-92044761D01*
X131384523Y-91984285D01*
X131445000Y-91923809D01*
X131505476Y-91802857D01*
X131505476Y-91500476D01*
X131445000Y-91319047D01*
X130295952Y-90290952D02*
X130235476Y-90411904D01*
X130235476Y-90653809D01*
X130295952Y-90774761D01*
X130416904Y-90835238D01*
X130900714Y-90835238D01*
X131021666Y-90774761D01*
X131082142Y-90653809D01*
X131082142Y-90411904D01*
X131021666Y-90290952D01*
X130900714Y-90230476D01*
X130779761Y-90230476D01*
X130658809Y-90835238D01*
X131082142Y-89686190D02*
X130235476Y-89686190D01*
X130961190Y-89686190D02*
X131021666Y-89625714D01*
X131082142Y-89504761D01*
X131082142Y-89323333D01*
X131021666Y-89202380D01*
X130900714Y-89141904D01*
X130235476Y-89141904D01*
X130295952Y-88597619D02*
X130235476Y-88476666D01*
X130235476Y-88234761D01*
X130295952Y-88113809D01*
X130416904Y-88053333D01*
X130477380Y-88053333D01*
X130598333Y-88113809D01*
X130658809Y-88234761D01*
X130658809Y-88416190D01*
X130719285Y-88537142D01*
X130840238Y-88597619D01*
X130900714Y-88597619D01*
X131021666Y-88537142D01*
X131082142Y-88416190D01*
X131082142Y-88234761D01*
X131021666Y-88113809D01*
X130235476Y-87327619D02*
X130295952Y-87448571D01*
X130356428Y-87509047D01*
X130477380Y-87569523D01*
X130840238Y-87569523D01*
X130961190Y-87509047D01*
X131021666Y-87448571D01*
X131082142Y-87327619D01*
X131082142Y-87146190D01*
X131021666Y-87025238D01*
X130961190Y-86964761D01*
X130840238Y-86904285D01*
X130477380Y-86904285D01*
X130356428Y-86964761D01*
X130295952Y-87025238D01*
X130235476Y-87146190D01*
X130235476Y-87327619D01*
X130235476Y-86360000D02*
X131082142Y-86360000D01*
X130840238Y-86360000D02*
X130961190Y-86299523D01*
X131021666Y-86239047D01*
X131082142Y-86118095D01*
X131082142Y-85997142D01*
X130235476Y-85573809D02*
X131505476Y-85573809D01*
X131505476Y-85271428D01*
X131445000Y-85090000D01*
X131324047Y-84969047D01*
X131203095Y-84908571D01*
X130961190Y-84848095D01*
X130779761Y-84848095D01*
X130537857Y-84908571D01*
X130416904Y-84969047D01*
X130295952Y-85090000D01*
X130235476Y-85271428D01*
X130235476Y-85573809D01*
X130295952Y-83820000D02*
X130235476Y-83940952D01*
X130235476Y-84182857D01*
X130295952Y-84303809D01*
X130416904Y-84364285D01*
X130900714Y-84364285D01*
X131021666Y-84303809D01*
X131082142Y-84182857D01*
X131082142Y-83940952D01*
X131021666Y-83820000D01*
X130900714Y-83759523D01*
X130779761Y-83759523D01*
X130658809Y-84364285D01*
X130295952Y-83275714D02*
X130235476Y-83154761D01*
X130235476Y-82912857D01*
X130295952Y-82791904D01*
X130416904Y-82731428D01*
X130477380Y-82731428D01*
X130598333Y-82791904D01*
X130658809Y-82912857D01*
X130658809Y-83094285D01*
X130719285Y-83215238D01*
X130840238Y-83275714D01*
X130900714Y-83275714D01*
X131021666Y-83215238D01*
X131082142Y-83094285D01*
X131082142Y-82912857D01*
X131021666Y-82791904D01*
X130235476Y-82187142D02*
X131082142Y-82187142D01*
X131505476Y-82187142D02*
X131445000Y-82247619D01*
X131384523Y-82187142D01*
X131445000Y-82126666D01*
X131505476Y-82187142D01*
X131384523Y-82187142D01*
X131082142Y-81038095D02*
X130054047Y-81038095D01*
X129933095Y-81098571D01*
X129872619Y-81159047D01*
X129812142Y-81280000D01*
X129812142Y-81461428D01*
X129872619Y-81582380D01*
X130295952Y-81038095D02*
X130235476Y-81159047D01*
X130235476Y-81400952D01*
X130295952Y-81521904D01*
X130356428Y-81582380D01*
X130477380Y-81642857D01*
X130840238Y-81642857D01*
X130961190Y-81582380D01*
X131021666Y-81521904D01*
X131082142Y-81400952D01*
X131082142Y-81159047D01*
X131021666Y-81038095D01*
X131082142Y-80433333D02*
X130235476Y-80433333D01*
X130961190Y-80433333D02*
X131021666Y-80372857D01*
X131082142Y-80251904D01*
X131082142Y-80070476D01*
X131021666Y-79949523D01*
X130900714Y-79889047D01*
X130235476Y-79889047D01*
X114891428Y-115816071D02*
X116391428Y-115628571D01*
X116391428Y-115271428D01*
X116320000Y-115066071D01*
X116177142Y-114941071D01*
X116034285Y-114887500D01*
X115748571Y-114851785D01*
X115534285Y-114878571D01*
X115248571Y-114985714D01*
X115105714Y-115075000D01*
X114962857Y-115235714D01*
X114891428Y-115458928D01*
X114891428Y-115816071D01*
X114962857Y-113735714D02*
X114891428Y-113887500D01*
X114891428Y-114173214D01*
X114962857Y-114307142D01*
X115105714Y-114360714D01*
X115677142Y-114289285D01*
X115820000Y-114200000D01*
X115891428Y-114048214D01*
X115891428Y-113762500D01*
X115820000Y-113628571D01*
X115677142Y-113575000D01*
X115534285Y-113592857D01*
X115391428Y-114325000D01*
X114962857Y-113092857D02*
X114891428Y-112958928D01*
X114891428Y-112673214D01*
X114962857Y-112521428D01*
X115105714Y-112432142D01*
X115177142Y-112423214D01*
X115320000Y-112476785D01*
X115391428Y-112610714D01*
X115391428Y-112825000D01*
X115462857Y-112958928D01*
X115605714Y-113012500D01*
X115677142Y-113003571D01*
X115820000Y-112914285D01*
X115891428Y-112762500D01*
X115891428Y-112548214D01*
X115820000Y-112414285D01*
X114891428Y-111816071D02*
X115891428Y-111691071D01*
X116391428Y-111628571D02*
X116320000Y-111708928D01*
X116248571Y-111646428D01*
X116320000Y-111566071D01*
X116391428Y-111628571D01*
X116248571Y-111646428D01*
X115891428Y-110333928D02*
X114677142Y-110485714D01*
X114534285Y-110575000D01*
X114462857Y-110655357D01*
X114391428Y-110807142D01*
X114391428Y-111021428D01*
X114462857Y-111155357D01*
X114962857Y-110450000D02*
X114891428Y-110601785D01*
X114891428Y-110887500D01*
X114962857Y-111021428D01*
X115034285Y-111083928D01*
X115177142Y-111137500D01*
X115605714Y-111083928D01*
X115748571Y-110994642D01*
X115820000Y-110914285D01*
X115891428Y-110762500D01*
X115891428Y-110476785D01*
X115820000Y-110342857D01*
X115891428Y-109619642D02*
X114891428Y-109744642D01*
X115748571Y-109637500D02*
X115820000Y-109557142D01*
X115891428Y-109405357D01*
X115891428Y-109191071D01*
X115820000Y-109057142D01*
X115677142Y-109003571D01*
X114891428Y-109101785D01*
X114962857Y-107807142D02*
X114891428Y-107958928D01*
X114891428Y-108244642D01*
X114962857Y-108378571D01*
X115105714Y-108432142D01*
X115677142Y-108360714D01*
X115820000Y-108271428D01*
X115891428Y-108119642D01*
X115891428Y-107833928D01*
X115820000Y-107700000D01*
X115677142Y-107646428D01*
X115534285Y-107664285D01*
X115391428Y-108396428D01*
X114891428Y-106458928D02*
X116391428Y-106271428D01*
X114962857Y-106450000D02*
X114891428Y-106601785D01*
X114891428Y-106887500D01*
X114962857Y-107021428D01*
X115034285Y-107083928D01*
X115177142Y-107137500D01*
X115605714Y-107083928D01*
X115748571Y-106994642D01*
X115820000Y-106914285D01*
X115891428Y-106762500D01*
X115891428Y-106476785D01*
X115820000Y-106342857D01*
X114891428Y-104601785D02*
X116391428Y-104414285D01*
X115820000Y-104485714D02*
X115891428Y-104333928D01*
X115891428Y-104048214D01*
X115820000Y-103914285D01*
X115748571Y-103851785D01*
X115605714Y-103798214D01*
X115177142Y-103851785D01*
X115034285Y-103941071D01*
X114962857Y-104021428D01*
X114891428Y-104173214D01*
X114891428Y-104458928D01*
X114962857Y-104592857D01*
X115891428Y-103262500D02*
X114891428Y-103030357D01*
X115891428Y-102548214D02*
X114891428Y-103030357D01*
X114534285Y-103217857D01*
X114462857Y-103298214D01*
X114391428Y-103450000D01*
X116391428Y-100985714D02*
X116391428Y-100128571D01*
X114891428Y-100744642D02*
X116391428Y-100557142D01*
X116391428Y-99200000D02*
X115320000Y-99333928D01*
X115105714Y-99432142D01*
X114962857Y-99592857D01*
X114891428Y-99816071D01*
X114891428Y-99958928D01*
X114891428Y-97958928D02*
X114891428Y-98673214D01*
X116391428Y-98485714D01*
X116391428Y-97485714D02*
X116391428Y-96628571D01*
X114891428Y-97244642D02*
X116391428Y-97057142D01*
X114891428Y-96316071D02*
X116391428Y-96128571D01*
X115320000Y-95762500D01*
X116391428Y-95128571D01*
X114891428Y-95316071D01*
X123885476Y-116930714D02*
X123885476Y-116144523D01*
X123401666Y-116567857D01*
X123401666Y-116386428D01*
X123341190Y-116265476D01*
X123280714Y-116205000D01*
X123159761Y-116144523D01*
X122857380Y-116144523D01*
X122736428Y-116205000D01*
X122675952Y-116265476D01*
X122615476Y-116386428D01*
X122615476Y-116749285D01*
X122675952Y-116870238D01*
X122736428Y-116930714D01*
X123885476Y-115358333D02*
X123885476Y-115237380D01*
X123825000Y-115116428D01*
X123764523Y-115055952D01*
X123643571Y-114995476D01*
X123401666Y-114935000D01*
X123099285Y-114935000D01*
X122857380Y-114995476D01*
X122736428Y-115055952D01*
X122675952Y-115116428D01*
X122615476Y-115237380D01*
X122615476Y-115358333D01*
X122675952Y-115479285D01*
X122736428Y-115539761D01*
X122857380Y-115600238D01*
X123099285Y-115660714D01*
X123401666Y-115660714D01*
X123643571Y-115600238D01*
X123764523Y-115539761D01*
X123825000Y-115479285D01*
X123885476Y-115358333D01*
X123462142Y-114390714D02*
X122192142Y-114390714D01*
X123401666Y-114390714D02*
X123462142Y-114269761D01*
X123462142Y-114027857D01*
X123401666Y-113906904D01*
X123341190Y-113846428D01*
X123220238Y-113785952D01*
X122857380Y-113785952D01*
X122736428Y-113846428D01*
X122675952Y-113906904D01*
X122615476Y-114027857D01*
X122615476Y-114269761D01*
X122675952Y-114390714D01*
X122675952Y-113302142D02*
X122615476Y-113181190D01*
X122615476Y-112939285D01*
X122675952Y-112818333D01*
X122796904Y-112757857D01*
X122857380Y-112757857D01*
X122978333Y-112818333D01*
X123038809Y-112939285D01*
X123038809Y-113120714D01*
X123099285Y-113241666D01*
X123220238Y-113302142D01*
X123280714Y-113302142D01*
X123401666Y-113241666D01*
X123462142Y-113120714D01*
X123462142Y-112939285D01*
X123401666Y-112818333D01*
X122615476Y-112213571D02*
X123462142Y-112213571D01*
X123885476Y-112213571D02*
X123825000Y-112274047D01*
X123764523Y-112213571D01*
X123825000Y-112153095D01*
X123885476Y-112213571D01*
X123764523Y-112213571D01*
X123099285Y-110641190D02*
X123099285Y-109673571D01*
X122615476Y-110157380D02*
X123583095Y-110157380D01*
X123945952Y-108161666D02*
X122313095Y-109250238D01*
X123099285Y-107738333D02*
X123099285Y-106770714D01*
X122675952Y-105258809D02*
X122615476Y-105077380D01*
X122615476Y-104775000D01*
X122675952Y-104654047D01*
X122736428Y-104593571D01*
X122857380Y-104533095D01*
X122978333Y-104533095D01*
X123099285Y-104593571D01*
X123159761Y-104654047D01*
X123220238Y-104775000D01*
X123280714Y-105016904D01*
X123341190Y-105137857D01*
X123401666Y-105198333D01*
X123522619Y-105258809D01*
X123643571Y-105258809D01*
X123764523Y-105198333D01*
X123825000Y-105137857D01*
X123885476Y-105016904D01*
X123885476Y-104714523D01*
X123825000Y-104533095D01*
X122675952Y-103505000D02*
X122615476Y-103625952D01*
X122615476Y-103867857D01*
X122675952Y-103988809D01*
X122796904Y-104049285D01*
X123280714Y-104049285D01*
X123401666Y-103988809D01*
X123462142Y-103867857D01*
X123462142Y-103625952D01*
X123401666Y-103505000D01*
X123280714Y-103444523D01*
X123159761Y-103444523D01*
X123038809Y-104049285D01*
X123462142Y-102900238D02*
X122615476Y-102900238D01*
X123341190Y-102900238D02*
X123401666Y-102839761D01*
X123462142Y-102718809D01*
X123462142Y-102537380D01*
X123401666Y-102416428D01*
X123280714Y-102355952D01*
X122615476Y-102355952D01*
X122675952Y-101811666D02*
X122615476Y-101690714D01*
X122615476Y-101448809D01*
X122675952Y-101327857D01*
X122796904Y-101267380D01*
X122857380Y-101267380D01*
X122978333Y-101327857D01*
X123038809Y-101448809D01*
X123038809Y-101630238D01*
X123099285Y-101751190D01*
X123220238Y-101811666D01*
X123280714Y-101811666D01*
X123401666Y-101751190D01*
X123462142Y-101630238D01*
X123462142Y-101448809D01*
X123401666Y-101327857D01*
X122615476Y-100541666D02*
X122675952Y-100662619D01*
X122736428Y-100723095D01*
X122857380Y-100783571D01*
X123220238Y-100783571D01*
X123341190Y-100723095D01*
X123401666Y-100662619D01*
X123462142Y-100541666D01*
X123462142Y-100360238D01*
X123401666Y-100239285D01*
X123341190Y-100178809D01*
X123220238Y-100118333D01*
X122857380Y-100118333D01*
X122736428Y-100178809D01*
X122675952Y-100239285D01*
X122615476Y-100360238D01*
X122615476Y-100541666D01*
X122615476Y-99574047D02*
X123462142Y-99574047D01*
X123220238Y-99574047D02*
X123341190Y-99513571D01*
X123401666Y-99453095D01*
X123462142Y-99332142D01*
X123462142Y-99211190D01*
X123462142Y-97941190D02*
X122615476Y-97638809D01*
X123462142Y-97336428D01*
X122675952Y-96368809D02*
X122615476Y-96489761D01*
X122615476Y-96731666D01*
X122675952Y-96852619D01*
X122796904Y-96913095D01*
X123280714Y-96913095D01*
X123401666Y-96852619D01*
X123462142Y-96731666D01*
X123462142Y-96489761D01*
X123401666Y-96368809D01*
X123280714Y-96308333D01*
X123159761Y-96308333D01*
X123038809Y-96913095D01*
X122615476Y-95764047D02*
X123462142Y-95764047D01*
X123220238Y-95764047D02*
X123341190Y-95703571D01*
X123401666Y-95643095D01*
X123462142Y-95522142D01*
X123462142Y-95401190D01*
X122736428Y-94977857D02*
X122675952Y-94917380D01*
X122615476Y-94977857D01*
X122675952Y-95038333D01*
X122736428Y-94977857D01*
X122615476Y-94977857D01*
X122615476Y-92740238D02*
X122615476Y-93465952D01*
X122615476Y-93103095D02*
X123885476Y-93103095D01*
X123704047Y-93224047D01*
X123583095Y-93344999D01*
X123522619Y-93465952D01*
X122736428Y-92195952D02*
X122675952Y-92135476D01*
X122615476Y-92195952D01*
X122675952Y-92256428D01*
X122736428Y-92195952D01*
X122615476Y-92195952D01*
X123885476Y-91349285D02*
X123885476Y-91228333D01*
X123825000Y-91107380D01*
X123764523Y-91046904D01*
X123643571Y-90986428D01*
X123401666Y-90925952D01*
X123099285Y-90925952D01*
X122857380Y-90986428D01*
X122736428Y-91046904D01*
X122675952Y-91107380D01*
X122615476Y-91228333D01*
X122615476Y-91349285D01*
X122675952Y-91470238D01*
X122736428Y-91530714D01*
X122857380Y-91591190D01*
X123099285Y-91651666D01*
X123401666Y-91651666D01*
X123643571Y-91591190D01*
X123764523Y-91530714D01*
X123825000Y-91470238D01*
X123885476Y-91349285D01*
X123764523Y-90442142D02*
X123825000Y-90381666D01*
X123885476Y-90260714D01*
X123885476Y-89958333D01*
X123825000Y-89837380D01*
X123764523Y-89776904D01*
X123643571Y-89716428D01*
X123522619Y-89716428D01*
X123341190Y-89776904D01*
X122615476Y-90502619D01*
X122615476Y-89716428D01*
X123885476Y-87660238D02*
X123885476Y-87902142D01*
X123825000Y-88023095D01*
X123764523Y-88083571D01*
X123583095Y-88204523D01*
X123341190Y-88264999D01*
X122857380Y-88264999D01*
X122736428Y-88204523D01*
X122675952Y-88144047D01*
X122615476Y-88023095D01*
X122615476Y-87781190D01*
X122675952Y-87660238D01*
X122736428Y-87599761D01*
X122857380Y-87539285D01*
X123159761Y-87539285D01*
X123280714Y-87599761D01*
X123341190Y-87660238D01*
X123401666Y-87781190D01*
X123401666Y-88023095D01*
X123341190Y-88144047D01*
X123280714Y-88204523D01*
X123159761Y-88264999D01*
X123945952Y-86087857D02*
X122313095Y-87176428D01*
X123764523Y-85724999D02*
X123825000Y-85664523D01*
X123885476Y-85543571D01*
X123885476Y-85241190D01*
X123825000Y-85120238D01*
X123764523Y-85059761D01*
X123643571Y-84999285D01*
X123522619Y-84999285D01*
X123341190Y-85059761D01*
X122615476Y-85785476D01*
X122615476Y-84999285D01*
X122615476Y-83789761D02*
X122615476Y-84515476D01*
X122615476Y-84152619D02*
X123885476Y-84152619D01*
X123704047Y-84273571D01*
X123583095Y-84394523D01*
X123522619Y-84515476D01*
D11*
%TO.C,RG1*%
X77590000Y-102390000D02*
X77590000Y-108690000D01*
X77590000Y-108690000D02*
X79890000Y-108690000D01*
X79890000Y-108690000D02*
X79890000Y-102390000D01*
X79890000Y-102390000D02*
X77590000Y-102390000D01*
X78740000Y-98740000D02*
X78740000Y-102390000D01*
X78740000Y-108690000D02*
X78740000Y-112340000D01*
D12*
%TO.C,C10*%
X103720000Y-92190000D02*
G75*
G03*
X103720000Y-92190000I-2120000J0D01*
G01*
X102440000Y-92190000D02*
X103680000Y-92190000D01*
X99520000Y-92190000D02*
X100760000Y-92190000D01*
X102440000Y-92230000D02*
X103680000Y-92230000D01*
X99520000Y-92230000D02*
X100760000Y-92230000D01*
X102440000Y-92270000D02*
X103679000Y-92270000D01*
X99521000Y-92270000D02*
X100760000Y-92270000D01*
X99523000Y-92310000D02*
X100760000Y-92310000D01*
X102440000Y-92310000D02*
X103677000Y-92310000D01*
X99526000Y-92350000D02*
X100760000Y-92350000D01*
X102440000Y-92350000D02*
X103674000Y-92350000D01*
X99529000Y-92390000D02*
X100760000Y-92390000D01*
X102440000Y-92390000D02*
X103671000Y-92390000D01*
X99533000Y-92430000D02*
X100760000Y-92430000D01*
X102440000Y-92430000D02*
X103667000Y-92430000D01*
X99538000Y-92470000D02*
X100760000Y-92470000D01*
X102440000Y-92470000D02*
X103662000Y-92470000D01*
X99544000Y-92510000D02*
X100760000Y-92510000D01*
X102440000Y-92510000D02*
X103656000Y-92510000D01*
X99550000Y-92550000D02*
X100760000Y-92550000D01*
X102440000Y-92550000D02*
X103650000Y-92550000D01*
X99558000Y-92590000D02*
X100760000Y-92590000D01*
X102440000Y-92590000D02*
X103642000Y-92590000D01*
X99566000Y-92630000D02*
X100760000Y-92630000D01*
X102440000Y-92630000D02*
X103634000Y-92630000D01*
X99575000Y-92670000D02*
X100760000Y-92670000D01*
X102440000Y-92670000D02*
X103625000Y-92670000D01*
X99584000Y-92710000D02*
X100760000Y-92710000D01*
X102440000Y-92710000D02*
X103616000Y-92710000D01*
X99595000Y-92750000D02*
X100760000Y-92750000D01*
X102440000Y-92750000D02*
X103605000Y-92750000D01*
X99606000Y-92790000D02*
X100760000Y-92790000D01*
X102440000Y-92790000D02*
X103594000Y-92790000D01*
X99618000Y-92830000D02*
X100760000Y-92830000D01*
X102440000Y-92830000D02*
X103582000Y-92830000D01*
X99632000Y-92870000D02*
X100760000Y-92870000D01*
X102440000Y-92870000D02*
X103568000Y-92870000D01*
X99646000Y-92911000D02*
X100760000Y-92911000D01*
X102440000Y-92911000D02*
X103554000Y-92911000D01*
X99660000Y-92951000D02*
X100760000Y-92951000D01*
X102440000Y-92951000D02*
X103540000Y-92951000D01*
X99676000Y-92991000D02*
X100760000Y-92991000D01*
X102440000Y-92991000D02*
X103524000Y-92991000D01*
X99693000Y-93031000D02*
X100760000Y-93031000D01*
X102440000Y-93031000D02*
X103507000Y-93031000D01*
X99711000Y-93071000D02*
X100760000Y-93071000D01*
X102440000Y-93071000D02*
X103489000Y-93071000D01*
X99730000Y-93111000D02*
X100760000Y-93111000D01*
X102440000Y-93111000D02*
X103470000Y-93111000D01*
X99749000Y-93151000D02*
X100760000Y-93151000D01*
X102440000Y-93151000D02*
X103451000Y-93151000D01*
X99770000Y-93191000D02*
X100760000Y-93191000D01*
X102440000Y-93191000D02*
X103430000Y-93191000D01*
X99792000Y-93231000D02*
X100760000Y-93231000D01*
X102440000Y-93231000D02*
X103408000Y-93231000D01*
X99815000Y-93271000D02*
X100760000Y-93271000D01*
X102440000Y-93271000D02*
X103385000Y-93271000D01*
X99840000Y-93311000D02*
X100760000Y-93311000D01*
X102440000Y-93311000D02*
X103360000Y-93311000D01*
X99865000Y-93351000D02*
X100760000Y-93351000D01*
X102440000Y-93351000D02*
X103335000Y-93351000D01*
X99892000Y-93391000D02*
X100760000Y-93391000D01*
X102440000Y-93391000D02*
X103308000Y-93391000D01*
X99920000Y-93431000D02*
X100760000Y-93431000D01*
X102440000Y-93431000D02*
X103280000Y-93431000D01*
X99950000Y-93471000D02*
X100760000Y-93471000D01*
X102440000Y-93471000D02*
X103250000Y-93471000D01*
X99981000Y-93511000D02*
X100760000Y-93511000D01*
X102440000Y-93511000D02*
X103219000Y-93511000D01*
X100013000Y-93551000D02*
X100760000Y-93551000D01*
X102440000Y-93551000D02*
X103187000Y-93551000D01*
X100048000Y-93591000D02*
X100760000Y-93591000D01*
X102440000Y-93591000D02*
X103152000Y-93591000D01*
X100084000Y-93631000D02*
X100760000Y-93631000D01*
X102440000Y-93631000D02*
X103116000Y-93631000D01*
X100122000Y-93671000D02*
X100760000Y-93671000D01*
X102440000Y-93671000D02*
X103078000Y-93671000D01*
X100162000Y-93711000D02*
X100760000Y-93711000D01*
X102440000Y-93711000D02*
X103038000Y-93711000D01*
X100204000Y-93751000D02*
X100760000Y-93751000D01*
X102440000Y-93751000D02*
X102996000Y-93751000D01*
X100249000Y-93791000D02*
X102951000Y-93791000D01*
X100296000Y-93831000D02*
X102904000Y-93831000D01*
X100346000Y-93871000D02*
X102854000Y-93871000D01*
X100400000Y-93911000D02*
X102800000Y-93911000D01*
X100458000Y-93951000D02*
X102742000Y-93951000D01*
X100520000Y-93991000D02*
X102680000Y-93991000D01*
X100587000Y-94031000D02*
X102613000Y-94031000D01*
X100660000Y-94071000D02*
X102540000Y-94071000D01*
X100741000Y-94111000D02*
X102459000Y-94111000D01*
X100832000Y-94151000D02*
X102368000Y-94151000D01*
X100936000Y-94191000D02*
X102264000Y-94191000D01*
X101063000Y-94231000D02*
X102137000Y-94231000D01*
X101230000Y-94271000D02*
X101970000Y-94271000D01*
X100405000Y-89920199D02*
X100405000Y-90320199D01*
X100205000Y-90120199D02*
X100605000Y-90120199D01*
%TO.C,C9*%
X103720000Y-87110000D02*
G75*
G03*
X103720000Y-87110000I-2120000J0D01*
G01*
X102440000Y-87110000D02*
X103680000Y-87110000D01*
X99520000Y-87110000D02*
X100760000Y-87110000D01*
X102440000Y-87150000D02*
X103680000Y-87150000D01*
X99520000Y-87150000D02*
X100760000Y-87150000D01*
X102440000Y-87190000D02*
X103679000Y-87190000D01*
X99521000Y-87190000D02*
X100760000Y-87190000D01*
X99523000Y-87230000D02*
X100760000Y-87230000D01*
X102440000Y-87230000D02*
X103677000Y-87230000D01*
X99526000Y-87270000D02*
X100760000Y-87270000D01*
X102440000Y-87270000D02*
X103674000Y-87270000D01*
X99529000Y-87310000D02*
X100760000Y-87310000D01*
X102440000Y-87310000D02*
X103671000Y-87310000D01*
X99533000Y-87350000D02*
X100760000Y-87350000D01*
X102440000Y-87350000D02*
X103667000Y-87350000D01*
X99538000Y-87390000D02*
X100760000Y-87390000D01*
X102440000Y-87390000D02*
X103662000Y-87390000D01*
X99544000Y-87430000D02*
X100760000Y-87430000D01*
X102440000Y-87430000D02*
X103656000Y-87430000D01*
X99550000Y-87470000D02*
X100760000Y-87470000D01*
X102440000Y-87470000D02*
X103650000Y-87470000D01*
X99558000Y-87510000D02*
X100760000Y-87510000D01*
X102440000Y-87510000D02*
X103642000Y-87510000D01*
X99566000Y-87550000D02*
X100760000Y-87550000D01*
X102440000Y-87550000D02*
X103634000Y-87550000D01*
X99575000Y-87590000D02*
X100760000Y-87590000D01*
X102440000Y-87590000D02*
X103625000Y-87590000D01*
X99584000Y-87630000D02*
X100760000Y-87630000D01*
X102440000Y-87630000D02*
X103616000Y-87630000D01*
X99595000Y-87670000D02*
X100760000Y-87670000D01*
X102440000Y-87670000D02*
X103605000Y-87670000D01*
X99606000Y-87710000D02*
X100760000Y-87710000D01*
X102440000Y-87710000D02*
X103594000Y-87710000D01*
X99618000Y-87750000D02*
X100760000Y-87750000D01*
X102440000Y-87750000D02*
X103582000Y-87750000D01*
X99632000Y-87790000D02*
X100760000Y-87790000D01*
X102440000Y-87790000D02*
X103568000Y-87790000D01*
X99646000Y-87831000D02*
X100760000Y-87831000D01*
X102440000Y-87831000D02*
X103554000Y-87831000D01*
X99660000Y-87871000D02*
X100760000Y-87871000D01*
X102440000Y-87871000D02*
X103540000Y-87871000D01*
X99676000Y-87911000D02*
X100760000Y-87911000D01*
X102440000Y-87911000D02*
X103524000Y-87911000D01*
X99693000Y-87951000D02*
X100760000Y-87951000D01*
X102440000Y-87951000D02*
X103507000Y-87951000D01*
X99711000Y-87991000D02*
X100760000Y-87991000D01*
X102440000Y-87991000D02*
X103489000Y-87991000D01*
X99730000Y-88031000D02*
X100760000Y-88031000D01*
X102440000Y-88031000D02*
X103470000Y-88031000D01*
X99749000Y-88071000D02*
X100760000Y-88071000D01*
X102440000Y-88071000D02*
X103451000Y-88071000D01*
X99770000Y-88111000D02*
X100760000Y-88111000D01*
X102440000Y-88111000D02*
X103430000Y-88111000D01*
X99792000Y-88151000D02*
X100760000Y-88151000D01*
X102440000Y-88151000D02*
X103408000Y-88151000D01*
X99815000Y-88191000D02*
X100760000Y-88191000D01*
X102440000Y-88191000D02*
X103385000Y-88191000D01*
X99840000Y-88231000D02*
X100760000Y-88231000D01*
X102440000Y-88231000D02*
X103360000Y-88231000D01*
X99865000Y-88271000D02*
X100760000Y-88271000D01*
X102440000Y-88271000D02*
X103335000Y-88271000D01*
X99892000Y-88311000D02*
X100760000Y-88311000D01*
X102440000Y-88311000D02*
X103308000Y-88311000D01*
X99920000Y-88351000D02*
X100760000Y-88351000D01*
X102440000Y-88351000D02*
X103280000Y-88351000D01*
X99950000Y-88391000D02*
X100760000Y-88391000D01*
X102440000Y-88391000D02*
X103250000Y-88391000D01*
X99981000Y-88431000D02*
X100760000Y-88431000D01*
X102440000Y-88431000D02*
X103219000Y-88431000D01*
X100013000Y-88471000D02*
X100760000Y-88471000D01*
X102440000Y-88471000D02*
X103187000Y-88471000D01*
X100048000Y-88511000D02*
X100760000Y-88511000D01*
X102440000Y-88511000D02*
X103152000Y-88511000D01*
X100084000Y-88551000D02*
X100760000Y-88551000D01*
X102440000Y-88551000D02*
X103116000Y-88551000D01*
X100122000Y-88591000D02*
X100760000Y-88591000D01*
X102440000Y-88591000D02*
X103078000Y-88591000D01*
X100162000Y-88631000D02*
X100760000Y-88631000D01*
X102440000Y-88631000D02*
X103038000Y-88631000D01*
X100204000Y-88671000D02*
X100760000Y-88671000D01*
X102440000Y-88671000D02*
X102996000Y-88671000D01*
X100249000Y-88711000D02*
X102951000Y-88711000D01*
X100296000Y-88751000D02*
X102904000Y-88751000D01*
X100346000Y-88791000D02*
X102854000Y-88791000D01*
X100400000Y-88831000D02*
X102800000Y-88831000D01*
X100458000Y-88871000D02*
X102742000Y-88871000D01*
X100520000Y-88911000D02*
X102680000Y-88911000D01*
X100587000Y-88951000D02*
X102613000Y-88951000D01*
X100660000Y-88991000D02*
X102540000Y-88991000D01*
X100741000Y-89031000D02*
X102459000Y-89031000D01*
X100832000Y-89071000D02*
X102368000Y-89071000D01*
X100936000Y-89111000D02*
X102264000Y-89111000D01*
X101063000Y-89151000D02*
X102137000Y-89151000D01*
X101230000Y-89191000D02*
X101970000Y-89191000D01*
X100405000Y-84840199D02*
X100405000Y-85240199D01*
X100205000Y-85040199D02*
X100605000Y-85040199D01*
%TO.C,C8*%
X110070000Y-93460000D02*
G75*
G03*
X110070000Y-93460000I-2120000J0D01*
G01*
X108790000Y-93460000D02*
X110030000Y-93460000D01*
X105870000Y-93460000D02*
X107110000Y-93460000D01*
X108790000Y-93500000D02*
X110030000Y-93500000D01*
X105870000Y-93500000D02*
X107110000Y-93500000D01*
X108790000Y-93540000D02*
X110029000Y-93540000D01*
X105871000Y-93540000D02*
X107110000Y-93540000D01*
X105873000Y-93580000D02*
X107110000Y-93580000D01*
X108790000Y-93580000D02*
X110027000Y-93580000D01*
X105876000Y-93620000D02*
X107110000Y-93620000D01*
X108790000Y-93620000D02*
X110024000Y-93620000D01*
X105879000Y-93660000D02*
X107110000Y-93660000D01*
X108790000Y-93660000D02*
X110021000Y-93660000D01*
X105883000Y-93700000D02*
X107110000Y-93700000D01*
X108790000Y-93700000D02*
X110017000Y-93700000D01*
X105888000Y-93740000D02*
X107110000Y-93740000D01*
X108790000Y-93740000D02*
X110012000Y-93740000D01*
X105894000Y-93780000D02*
X107110000Y-93780000D01*
X108790000Y-93780000D02*
X110006000Y-93780000D01*
X105900000Y-93820000D02*
X107110000Y-93820000D01*
X108790000Y-93820000D02*
X110000000Y-93820000D01*
X105908000Y-93860000D02*
X107110000Y-93860000D01*
X108790000Y-93860000D02*
X109992000Y-93860000D01*
X105916000Y-93900000D02*
X107110000Y-93900000D01*
X108790000Y-93900000D02*
X109984000Y-93900000D01*
X105925000Y-93940000D02*
X107110000Y-93940000D01*
X108790000Y-93940000D02*
X109975000Y-93940000D01*
X105934000Y-93980000D02*
X107110000Y-93980000D01*
X108790000Y-93980000D02*
X109966000Y-93980000D01*
X105945000Y-94020000D02*
X107110000Y-94020000D01*
X108790000Y-94020000D02*
X109955000Y-94020000D01*
X105956000Y-94060000D02*
X107110000Y-94060000D01*
X108790000Y-94060000D02*
X109944000Y-94060000D01*
X105968000Y-94100000D02*
X107110000Y-94100000D01*
X108790000Y-94100000D02*
X109932000Y-94100000D01*
X105982000Y-94140000D02*
X107110000Y-94140000D01*
X108790000Y-94140000D02*
X109918000Y-94140000D01*
X105996000Y-94181000D02*
X107110000Y-94181000D01*
X108790000Y-94181000D02*
X109904000Y-94181000D01*
X106010000Y-94221000D02*
X107110000Y-94221000D01*
X108790000Y-94221000D02*
X109890000Y-94221000D01*
X106026000Y-94261000D02*
X107110000Y-94261000D01*
X108790000Y-94261000D02*
X109874000Y-94261000D01*
X106043000Y-94301000D02*
X107110000Y-94301000D01*
X108790000Y-94301000D02*
X109857000Y-94301000D01*
X106061000Y-94341000D02*
X107110000Y-94341000D01*
X108790000Y-94341000D02*
X109839000Y-94341000D01*
X106080000Y-94381000D02*
X107110000Y-94381000D01*
X108790000Y-94381000D02*
X109820000Y-94381000D01*
X106099000Y-94421000D02*
X107110000Y-94421000D01*
X108790000Y-94421000D02*
X109801000Y-94421000D01*
X106120000Y-94461000D02*
X107110000Y-94461000D01*
X108790000Y-94461000D02*
X109780000Y-94461000D01*
X106142000Y-94501000D02*
X107110000Y-94501000D01*
X108790000Y-94501000D02*
X109758000Y-94501000D01*
X106165000Y-94541000D02*
X107110000Y-94541000D01*
X108790000Y-94541000D02*
X109735000Y-94541000D01*
X106190000Y-94581000D02*
X107110000Y-94581000D01*
X108790000Y-94581000D02*
X109710000Y-94581000D01*
X106215000Y-94621000D02*
X107110000Y-94621000D01*
X108790000Y-94621000D02*
X109685000Y-94621000D01*
X106242000Y-94661000D02*
X107110000Y-94661000D01*
X108790000Y-94661000D02*
X109658000Y-94661000D01*
X106270000Y-94701000D02*
X107110000Y-94701000D01*
X108790000Y-94701000D02*
X109630000Y-94701000D01*
X106300000Y-94741000D02*
X107110000Y-94741000D01*
X108790000Y-94741000D02*
X109600000Y-94741000D01*
X106331000Y-94781000D02*
X107110000Y-94781000D01*
X108790000Y-94781000D02*
X109569000Y-94781000D01*
X106363000Y-94821000D02*
X107110000Y-94821000D01*
X108790000Y-94821000D02*
X109537000Y-94821000D01*
X106398000Y-94861000D02*
X107110000Y-94861000D01*
X108790000Y-94861000D02*
X109502000Y-94861000D01*
X106434000Y-94901000D02*
X107110000Y-94901000D01*
X108790000Y-94901000D02*
X109466000Y-94901000D01*
X106472000Y-94941000D02*
X107110000Y-94941000D01*
X108790000Y-94941000D02*
X109428000Y-94941000D01*
X106512000Y-94981000D02*
X107110000Y-94981000D01*
X108790000Y-94981000D02*
X109388000Y-94981000D01*
X106554000Y-95021000D02*
X107110000Y-95021000D01*
X108790000Y-95021000D02*
X109346000Y-95021000D01*
X106599000Y-95061000D02*
X109301000Y-95061000D01*
X106646000Y-95101000D02*
X109254000Y-95101000D01*
X106696000Y-95141000D02*
X109204000Y-95141000D01*
X106750000Y-95181000D02*
X109150000Y-95181000D01*
X106808000Y-95221000D02*
X109092000Y-95221000D01*
X106870000Y-95261000D02*
X109030000Y-95261000D01*
X106937000Y-95301000D02*
X108963000Y-95301000D01*
X107010000Y-95341000D02*
X108890000Y-95341000D01*
X107091000Y-95381000D02*
X108809000Y-95381000D01*
X107182000Y-95421000D02*
X108718000Y-95421000D01*
X107286000Y-95461000D02*
X108614000Y-95461000D01*
X107413000Y-95501000D02*
X108487000Y-95501000D01*
X107580000Y-95541000D02*
X108320000Y-95541000D01*
X106755000Y-91190199D02*
X106755000Y-91590199D01*
X106555000Y-91390199D02*
X106955000Y-91390199D01*
%TO.C,C11*%
X84485241Y-81666000D02*
X84485241Y-82296000D01*
X84800241Y-81981000D02*
X84170241Y-81981000D01*
X78059000Y-83418000D02*
X78059000Y-84222000D01*
X78099000Y-83187000D02*
X78099000Y-84453000D01*
X78139000Y-83018000D02*
X78139000Y-84622000D01*
X78179000Y-82880000D02*
X78179000Y-84760000D01*
X78219000Y-82761000D02*
X78219000Y-84879000D01*
X78259000Y-82655000D02*
X78259000Y-84985000D01*
X78299000Y-82558000D02*
X78299000Y-85082000D01*
X78339000Y-82470000D02*
X78339000Y-85170000D01*
X78379000Y-82388000D02*
X78379000Y-85252000D01*
X78419000Y-82311000D02*
X78419000Y-85329000D01*
X78459000Y-82239000D02*
X78459000Y-85401000D01*
X78499000Y-82170000D02*
X78499000Y-85470000D01*
X78539000Y-82106000D02*
X78539000Y-85534000D01*
X78579000Y-82044000D02*
X78579000Y-85596000D01*
X78619000Y-81986000D02*
X78619000Y-85654000D01*
X78659000Y-81930000D02*
X78659000Y-85710000D01*
X78699000Y-81876000D02*
X78699000Y-85764000D01*
X78739000Y-81825000D02*
X78739000Y-85815000D01*
X78779000Y-81776000D02*
X78779000Y-85864000D01*
X78819000Y-81728000D02*
X78819000Y-85912000D01*
X78859000Y-81683000D02*
X78859000Y-85957000D01*
X78899000Y-81638000D02*
X78899000Y-86002000D01*
X78939000Y-81596000D02*
X78939000Y-86044000D01*
X78979000Y-81555000D02*
X78979000Y-86085000D01*
X79019000Y-84860000D02*
X79019000Y-86125000D01*
X79019000Y-81515000D02*
X79019000Y-82780000D01*
X79059000Y-84860000D02*
X79059000Y-86163000D01*
X79059000Y-81477000D02*
X79059000Y-82780000D01*
X79099000Y-84860000D02*
X79099000Y-86200000D01*
X79099000Y-81440000D02*
X79099000Y-82780000D01*
X79139000Y-84860000D02*
X79139000Y-86236000D01*
X79139000Y-81404000D02*
X79139000Y-82780000D01*
X79179000Y-84860000D02*
X79179000Y-86270000D01*
X79179000Y-81370000D02*
X79179000Y-82780000D01*
X79219000Y-84860000D02*
X79219000Y-86304000D01*
X79219000Y-81336000D02*
X79219000Y-82780000D01*
X79259000Y-84860000D02*
X79259000Y-86336000D01*
X79259000Y-81304000D02*
X79259000Y-82780000D01*
X79299000Y-84860000D02*
X79299000Y-86368000D01*
X79299000Y-81272000D02*
X79299000Y-82780000D01*
X79339000Y-84860000D02*
X79339000Y-86398000D01*
X79339000Y-81242000D02*
X79339000Y-82780000D01*
X79379000Y-84860000D02*
X79379000Y-86427000D01*
X79379000Y-81213000D02*
X79379000Y-82780000D01*
X79419000Y-84860000D02*
X79419000Y-86456000D01*
X79419000Y-81184000D02*
X79419000Y-82780000D01*
X79459000Y-84860000D02*
X79459000Y-86484000D01*
X79459000Y-81156000D02*
X79459000Y-82780000D01*
X79499000Y-84860000D02*
X79499000Y-86510000D01*
X79499000Y-81130000D02*
X79499000Y-82780000D01*
X79539000Y-84860000D02*
X79539000Y-86536000D01*
X79539000Y-81104000D02*
X79539000Y-82780000D01*
X79579000Y-84860000D02*
X79579000Y-86562000D01*
X79579000Y-81078000D02*
X79579000Y-82780000D01*
X79619000Y-84860000D02*
X79619000Y-86586000D01*
X79619000Y-81054000D02*
X79619000Y-82780000D01*
X79659000Y-84860000D02*
X79659000Y-86610000D01*
X79659000Y-81030000D02*
X79659000Y-82780000D01*
X79699000Y-84860000D02*
X79699000Y-86632000D01*
X79699000Y-81008000D02*
X79699000Y-82780000D01*
X79739000Y-84860000D02*
X79739000Y-86654000D01*
X79739000Y-80986000D02*
X79739000Y-82780000D01*
X79779000Y-84860000D02*
X79779000Y-86676000D01*
X79779000Y-80964000D02*
X79779000Y-82780000D01*
X79819000Y-84860000D02*
X79819000Y-86696000D01*
X79819000Y-80944000D02*
X79819000Y-82780000D01*
X79859000Y-84860000D02*
X79859000Y-86716000D01*
X79859000Y-80924000D02*
X79859000Y-82780000D01*
X79899000Y-84860000D02*
X79899000Y-86736000D01*
X79899000Y-80904000D02*
X79899000Y-82780000D01*
X79939000Y-84860000D02*
X79939000Y-86754000D01*
X79939000Y-80886000D02*
X79939000Y-82780000D01*
X79979000Y-84860000D02*
X79979000Y-86772000D01*
X79979000Y-80868000D02*
X79979000Y-82780000D01*
X80019000Y-84860000D02*
X80019000Y-86790000D01*
X80019000Y-80850000D02*
X80019000Y-82780000D01*
X80059000Y-84860000D02*
X80059000Y-86806000D01*
X80059000Y-80834000D02*
X80059000Y-82780000D01*
X80099000Y-84860000D02*
X80099000Y-86822000D01*
X80099000Y-80818000D02*
X80099000Y-82780000D01*
X80139000Y-84860000D02*
X80139000Y-86838000D01*
X80139000Y-80802000D02*
X80139000Y-82780000D01*
X80179000Y-84860000D02*
X80179000Y-86853000D01*
X80179000Y-80787000D02*
X80179000Y-82780000D01*
X80219000Y-84860000D02*
X80219000Y-86867000D01*
X80219000Y-80773000D02*
X80219000Y-82780000D01*
X80259000Y-84860000D02*
X80259000Y-86881000D01*
X80259000Y-80759000D02*
X80259000Y-82780000D01*
X80299000Y-84860000D02*
X80299000Y-86894000D01*
X80299000Y-80746000D02*
X80299000Y-82780000D01*
X80339000Y-84860000D02*
X80339000Y-86906000D01*
X80339000Y-80734000D02*
X80339000Y-82780000D01*
X80379000Y-84860000D02*
X80379000Y-86918000D01*
X80379000Y-80722000D02*
X80379000Y-82780000D01*
X80419000Y-84860000D02*
X80419000Y-86930000D01*
X80419000Y-80710000D02*
X80419000Y-82780000D01*
X80459000Y-84860000D02*
X80459000Y-86941000D01*
X80459000Y-80699000D02*
X80459000Y-82780000D01*
X80499000Y-84860000D02*
X80499000Y-86951000D01*
X80499000Y-80689000D02*
X80499000Y-82780000D01*
X80539000Y-84860000D02*
X80539000Y-86961000D01*
X80539000Y-80679000D02*
X80539000Y-82780000D01*
X80579000Y-84860000D02*
X80579000Y-86970000D01*
X80579000Y-80670000D02*
X80579000Y-82780000D01*
X80620000Y-84860000D02*
X80620000Y-86979000D01*
X80620000Y-80661000D02*
X80620000Y-82780000D01*
X80660000Y-84860000D02*
X80660000Y-86987000D01*
X80660000Y-80653000D02*
X80660000Y-82780000D01*
X80700000Y-84860000D02*
X80700000Y-86995000D01*
X80700000Y-80645000D02*
X80700000Y-82780000D01*
X80740000Y-84860000D02*
X80740000Y-87002000D01*
X80740000Y-80638000D02*
X80740000Y-82780000D01*
X80780000Y-84860000D02*
X80780000Y-87009000D01*
X80780000Y-80631000D02*
X80780000Y-82780000D01*
X80820000Y-84860000D02*
X80820000Y-87015000D01*
X80820000Y-80625000D02*
X80820000Y-82780000D01*
X80860000Y-84860000D02*
X80860000Y-87021000D01*
X80860000Y-80619000D02*
X80860000Y-82780000D01*
X80900000Y-84860000D02*
X80900000Y-87026000D01*
X80900000Y-80614000D02*
X80900000Y-82780000D01*
X80940000Y-84860000D02*
X80940000Y-87031000D01*
X80940000Y-80609000D02*
X80940000Y-82780000D01*
X80980000Y-84860000D02*
X80980000Y-87035000D01*
X80980000Y-80605000D02*
X80980000Y-82780000D01*
X81020000Y-84860000D02*
X81020000Y-87038000D01*
X81020000Y-80602000D02*
X81020000Y-82780000D01*
X81060000Y-84860000D02*
X81060000Y-87042000D01*
X81060000Y-80598000D02*
X81060000Y-82780000D01*
X81100000Y-80596000D02*
X81100000Y-87044000D01*
X81140000Y-80593000D02*
X81140000Y-87047000D01*
X81180000Y-80592000D02*
X81180000Y-87048000D01*
X81220000Y-80590000D02*
X81220000Y-87050000D01*
X81260000Y-80590000D02*
X81260000Y-87050000D01*
X81300000Y-80590000D02*
X81300000Y-87050000D01*
X84570000Y-83820000D02*
G75*
G03*
X84570000Y-83820000I-3270000J0D01*
G01*
%TO.C,C5*%
X111200000Y-105426252D02*
X111200000Y-104903748D01*
X109780000Y-105426252D02*
X109780000Y-104903748D01*
%TO.C,C2*%
X106941252Y-120090000D02*
X106418748Y-120090000D01*
X106941252Y-118670000D02*
X106418748Y-118670000D01*
%TO.C,C1*%
X107390000Y-105671252D02*
X107390000Y-105148748D01*
X105970000Y-105671252D02*
X105970000Y-105148748D01*
%TO.C,L1*%
X114530000Y-116840000D02*
X113260000Y-116840000D01*
X106450000Y-116840000D02*
X107720000Y-116840000D01*
X113260000Y-118060000D02*
X107720000Y-118060000D01*
X113260000Y-115620000D02*
X113260000Y-118060000D01*
X107720000Y-115620000D02*
X113260000Y-115620000D01*
X107720000Y-118060000D02*
X107720000Y-115620000D01*
D11*
%TO.C,IC1*%
X103205000Y-113070000D02*
X104732000Y-113070000D01*
X105082000Y-108038000D02*
X105082000Y-112942000D01*
X108278000Y-108038000D02*
X105082000Y-108038000D01*
X108278000Y-112942000D02*
X108278000Y-108038000D01*
X105082000Y-112942000D02*
X108278000Y-112942000D01*
%TO.C,D2*%
X118110000Y-108742000D02*
X118110000Y-105148000D01*
X118110000Y-116972000D02*
X118110000Y-113378000D01*
X118110000Y-113378000D02*
X119298000Y-112190000D01*
X116922000Y-113378000D02*
X119298000Y-113378000D01*
X116922000Y-108742000D02*
X116922000Y-113378000D01*
X119298000Y-108742000D02*
X116922000Y-108742000D01*
X119298000Y-113378000D02*
X119298000Y-108742000D01*
%TO.C,IC4*%
X77470000Y-114845000D02*
X77470000Y-122680000D01*
X87630000Y-116080000D02*
X87630000Y-122680000D01*
%TO.C,IC3*%
X80516000Y-98465000D02*
X82043000Y-98465000D01*
X82393000Y-93433000D02*
X82393000Y-98337000D01*
X85589000Y-93433000D02*
X82393000Y-93433000D01*
X85589000Y-98337000D02*
X85589000Y-93433000D01*
X82393000Y-98337000D02*
X85589000Y-98337000D01*
D12*
%TO.C,C7*%
X89460000Y-96536252D02*
X89460000Y-96013748D01*
X90880000Y-96536252D02*
X90880000Y-96013748D01*
%TO.C,U2*%
X92130000Y-99590000D02*
X92130000Y-95990000D01*
X92141522Y-95951522D02*
G75*
G02*
X96580000Y-97790000I1838478J-1838478D01*
G01*
X92141522Y-99628478D02*
G75*
G03*
X96580000Y-97790000I1838478J1838478D01*
G01*
%TO.C,R5*%
X84852742Y-112282500D02*
X85327258Y-112282500D01*
X84852742Y-111237500D02*
X85327258Y-111237500D01*
%TO.C,R3*%
X94217258Y-93457500D02*
X93742742Y-93457500D01*
X94217258Y-94502500D02*
X93742742Y-94502500D01*
%TO.C,RG1*%
D13*
X79314523Y-96943333D02*
X78709761Y-96520000D01*
X79314523Y-96217619D02*
X78044523Y-96217619D01*
X78044523Y-96701428D01*
X78105000Y-96822380D01*
X78165476Y-96882857D01*
X78286428Y-96943333D01*
X78467857Y-96943333D01*
X78588809Y-96882857D01*
X78649285Y-96822380D01*
X78709761Y-96701428D01*
X78709761Y-96217619D01*
X78105000Y-98152857D02*
X78044523Y-98031904D01*
X78044523Y-97850476D01*
X78105000Y-97669047D01*
X78225952Y-97548095D01*
X78346904Y-97487619D01*
X78588809Y-97427142D01*
X78770238Y-97427142D01*
X79012142Y-97487619D01*
X79133095Y-97548095D01*
X79254047Y-97669047D01*
X79314523Y-97850476D01*
X79314523Y-97971428D01*
X79254047Y-98152857D01*
X79193571Y-98213333D01*
X78770238Y-98213333D01*
X78770238Y-97971428D01*
X79314523Y-99422857D02*
X79314523Y-98697142D01*
X79314523Y-99060000D02*
X78044523Y-99060000D01*
X78225952Y-98939047D01*
X78346904Y-98818095D01*
X78407380Y-98697142D01*
%TO.C,C10*%
D14*
X104497142Y-94607142D02*
X104544761Y-94559523D01*
X104592380Y-94416666D01*
X104592380Y-94321428D01*
X104544761Y-94178571D01*
X104449523Y-94083333D01*
X104354285Y-94035714D01*
X104163809Y-93988095D01*
X104020952Y-93988095D01*
X103830476Y-94035714D01*
X103735238Y-94083333D01*
X103640000Y-94178571D01*
X103592380Y-94321428D01*
X103592380Y-94416666D01*
X103640000Y-94559523D01*
X103687619Y-94607142D01*
X104592380Y-95559523D02*
X104592380Y-94988095D01*
X104592380Y-95273809D02*
X103592380Y-95273809D01*
X103735238Y-95178571D01*
X103830476Y-95083333D01*
X103878095Y-94988095D01*
X103592380Y-96178571D02*
X103592380Y-96273809D01*
X103640000Y-96369047D01*
X103687619Y-96416666D01*
X103782857Y-96464285D01*
X103973333Y-96511904D01*
X104211428Y-96511904D01*
X104401904Y-96464285D01*
X104497142Y-96416666D01*
X104544761Y-96369047D01*
X104592380Y-96273809D01*
X104592380Y-96178571D01*
X104544761Y-96083333D01*
X104497142Y-96035714D01*
X104401904Y-95988095D01*
X104211428Y-95940476D01*
X103973333Y-95940476D01*
X103782857Y-95988095D01*
X103687619Y-96035714D01*
X103640000Y-96083333D01*
X103592380Y-96178571D01*
%TO.C,C9*%
X100687142Y-83653333D02*
X100734761Y-83605714D01*
X100782380Y-83462857D01*
X100782380Y-83367619D01*
X100734761Y-83224761D01*
X100639523Y-83129523D01*
X100544285Y-83081904D01*
X100353809Y-83034285D01*
X100210952Y-83034285D01*
X100020476Y-83081904D01*
X99925238Y-83129523D01*
X99830000Y-83224761D01*
X99782380Y-83367619D01*
X99782380Y-83462857D01*
X99830000Y-83605714D01*
X99877619Y-83653333D01*
X100782380Y-84129523D02*
X100782380Y-84320000D01*
X100734761Y-84415238D01*
X100687142Y-84462857D01*
X100544285Y-84558095D01*
X100353809Y-84605714D01*
X99972857Y-84605714D01*
X99877619Y-84558095D01*
X99830000Y-84510476D01*
X99782380Y-84415238D01*
X99782380Y-84224761D01*
X99830000Y-84129523D01*
X99877619Y-84081904D01*
X99972857Y-84034285D01*
X100210952Y-84034285D01*
X100306190Y-84081904D01*
X100353809Y-84129523D01*
X100401428Y-84224761D01*
X100401428Y-84415238D01*
X100353809Y-84510476D01*
X100306190Y-84558095D01*
X100210952Y-84605714D01*
%TO.C,C8*%
X105767142Y-95083333D02*
X105814761Y-95035714D01*
X105862380Y-94892857D01*
X105862380Y-94797619D01*
X105814761Y-94654761D01*
X105719523Y-94559523D01*
X105624285Y-94511904D01*
X105433809Y-94464285D01*
X105290952Y-94464285D01*
X105100476Y-94511904D01*
X105005238Y-94559523D01*
X104910000Y-94654761D01*
X104862380Y-94797619D01*
X104862380Y-94892857D01*
X104910000Y-95035714D01*
X104957619Y-95083333D01*
X105290952Y-95654761D02*
X105243333Y-95559523D01*
X105195714Y-95511904D01*
X105100476Y-95464285D01*
X105052857Y-95464285D01*
X104957619Y-95511904D01*
X104910000Y-95559523D01*
X104862380Y-95654761D01*
X104862380Y-95845238D01*
X104910000Y-95940476D01*
X104957619Y-95988095D01*
X105052857Y-96035714D01*
X105100476Y-96035714D01*
X105195714Y-95988095D01*
X105243333Y-95940476D01*
X105290952Y-95845238D01*
X105290952Y-95654761D01*
X105338571Y-95559523D01*
X105386190Y-95511904D01*
X105481428Y-95464285D01*
X105671904Y-95464285D01*
X105767142Y-95511904D01*
X105814761Y-95559523D01*
X105862380Y-95654761D01*
X105862380Y-95845238D01*
X105814761Y-95940476D01*
X105767142Y-95988095D01*
X105671904Y-96035714D01*
X105481428Y-96035714D01*
X105386190Y-95988095D01*
X105338571Y-95940476D01*
X105290952Y-95845238D01*
%TO.C,C11*%
X79382857Y-87987142D02*
X79430476Y-88034761D01*
X79573333Y-88082380D01*
X79668571Y-88082380D01*
X79811428Y-88034761D01*
X79906666Y-87939523D01*
X79954285Y-87844285D01*
X80001904Y-87653809D01*
X80001904Y-87510952D01*
X79954285Y-87320476D01*
X79906666Y-87225238D01*
X79811428Y-87130000D01*
X79668571Y-87082380D01*
X79573333Y-87082380D01*
X79430476Y-87130000D01*
X79382857Y-87177619D01*
X78430476Y-88082380D02*
X79001904Y-88082380D01*
X78716190Y-88082380D02*
X78716190Y-87082380D01*
X78811428Y-87225238D01*
X78906666Y-87320476D01*
X79001904Y-87368095D01*
X77478095Y-88082380D02*
X78049523Y-88082380D01*
X77763809Y-88082380D02*
X77763809Y-87082380D01*
X77859047Y-87225238D01*
X77954285Y-87320476D01*
X78049523Y-87368095D01*
%TO.C,C5*%
X109577142Y-102703333D02*
X109624761Y-102655714D01*
X109672380Y-102512857D01*
X109672380Y-102417619D01*
X109624761Y-102274761D01*
X109529523Y-102179523D01*
X109434285Y-102131904D01*
X109243809Y-102084285D01*
X109100952Y-102084285D01*
X108910476Y-102131904D01*
X108815238Y-102179523D01*
X108720000Y-102274761D01*
X108672380Y-102417619D01*
X108672380Y-102512857D01*
X108720000Y-102655714D01*
X108767619Y-102703333D01*
X108672380Y-103608095D02*
X108672380Y-103131904D01*
X109148571Y-103084285D01*
X109100952Y-103131904D01*
X109053333Y-103227142D01*
X109053333Y-103465238D01*
X109100952Y-103560476D01*
X109148571Y-103608095D01*
X109243809Y-103655714D01*
X109481904Y-103655714D01*
X109577142Y-103608095D01*
X109624761Y-103560476D01*
X109672380Y-103465238D01*
X109672380Y-103227142D01*
X109624761Y-103131904D01*
X109577142Y-103084285D01*
%TO.C,C2*%
X106846666Y-118087142D02*
X106894285Y-118134761D01*
X107037142Y-118182380D01*
X107132380Y-118182380D01*
X107275238Y-118134761D01*
X107370476Y-118039523D01*
X107418095Y-117944285D01*
X107465714Y-117753809D01*
X107465714Y-117610952D01*
X107418095Y-117420476D01*
X107370476Y-117325238D01*
X107275238Y-117230000D01*
X107132380Y-117182380D01*
X107037142Y-117182380D01*
X106894285Y-117230000D01*
X106846666Y-117277619D01*
X106465714Y-117277619D02*
X106418095Y-117230000D01*
X106322857Y-117182380D01*
X106084761Y-117182380D01*
X105989523Y-117230000D01*
X105941904Y-117277619D01*
X105894285Y-117372857D01*
X105894285Y-117468095D01*
X105941904Y-117610952D01*
X106513333Y-118182380D01*
X105894285Y-118182380D01*
%TO.C,C1*%
X107037142Y-101433333D02*
X107084761Y-101385714D01*
X107132380Y-101242857D01*
X107132380Y-101147619D01*
X107084761Y-101004761D01*
X106989523Y-100909523D01*
X106894285Y-100861904D01*
X106703809Y-100814285D01*
X106560952Y-100814285D01*
X106370476Y-100861904D01*
X106275238Y-100909523D01*
X106180000Y-101004761D01*
X106132380Y-101147619D01*
X106132380Y-101242857D01*
X106180000Y-101385714D01*
X106227619Y-101433333D01*
X107132380Y-102385714D02*
X107132380Y-101814285D01*
X107132380Y-102100000D02*
X106132380Y-102100000D01*
X106275238Y-102004761D01*
X106370476Y-101909523D01*
X106418095Y-101814285D01*
%TO.C,L1*%
X110656666Y-119512380D02*
X111132857Y-119512380D01*
X111132857Y-118512380D01*
X109799523Y-119512380D02*
X110370952Y-119512380D01*
X110085238Y-119512380D02*
X110085238Y-118512380D01*
X110180476Y-118655238D01*
X110275714Y-118750476D01*
X110370952Y-118798095D01*
%TO.C,IC1*%
D13*
X107919761Y-111064523D02*
X107919761Y-109794523D01*
X106589285Y-110943571D02*
X106649761Y-111004047D01*
X106831190Y-111064523D01*
X106952142Y-111064523D01*
X107133571Y-111004047D01*
X107254523Y-110883095D01*
X107315000Y-110762142D01*
X107375476Y-110520238D01*
X107375476Y-110338809D01*
X107315000Y-110096904D01*
X107254523Y-109975952D01*
X107133571Y-109855000D01*
X106952142Y-109794523D01*
X106831190Y-109794523D01*
X106649761Y-109855000D01*
X106589285Y-109915476D01*
X105379761Y-111064523D02*
X106105476Y-111064523D01*
X105742619Y-111064523D02*
X105742619Y-109794523D01*
X105863571Y-109975952D01*
X105984523Y-110096904D01*
X106105476Y-110157380D01*
%TO.C,D2*%
X119954523Y-100662619D02*
X118684523Y-100662619D01*
X118684523Y-100965000D01*
X118745000Y-101146428D01*
X118865952Y-101267380D01*
X118986904Y-101327857D01*
X119228809Y-101388333D01*
X119410238Y-101388333D01*
X119652142Y-101327857D01*
X119773095Y-101267380D01*
X119894047Y-101146428D01*
X119954523Y-100965000D01*
X119954523Y-100662619D01*
X118805476Y-101872142D02*
X118745000Y-101932619D01*
X118684523Y-102053571D01*
X118684523Y-102355952D01*
X118745000Y-102476904D01*
X118805476Y-102537380D01*
X118926428Y-102597857D01*
X119047380Y-102597857D01*
X119228809Y-102537380D01*
X119954523Y-101811666D01*
X119954523Y-102597857D01*
%TO.C,IC4*%
X83124523Y-118140238D02*
X81854523Y-118140238D01*
X83003571Y-119470714D02*
X83064047Y-119410238D01*
X83124523Y-119228809D01*
X83124523Y-119107857D01*
X83064047Y-118926428D01*
X82943095Y-118805476D01*
X82822142Y-118745000D01*
X82580238Y-118684523D01*
X82398809Y-118684523D01*
X82156904Y-118745000D01*
X82035952Y-118805476D01*
X81915000Y-118926428D01*
X81854523Y-119107857D01*
X81854523Y-119228809D01*
X81915000Y-119410238D01*
X81975476Y-119470714D01*
X82277857Y-120559285D02*
X83124523Y-120559285D01*
X81794047Y-120256904D02*
X82701190Y-119954523D01*
X82701190Y-120740714D01*
%TO.C,IC3*%
X85230761Y-96459523D02*
X85230761Y-95189523D01*
X83900285Y-96338571D02*
X83960761Y-96399047D01*
X84142190Y-96459523D01*
X84263142Y-96459523D01*
X84444571Y-96399047D01*
X84565523Y-96278095D01*
X84626000Y-96157142D01*
X84686476Y-95915238D01*
X84686476Y-95733809D01*
X84626000Y-95491904D01*
X84565523Y-95370952D01*
X84444571Y-95250000D01*
X84263142Y-95189523D01*
X84142190Y-95189523D01*
X83960761Y-95250000D01*
X83900285Y-95310476D01*
X83476952Y-95189523D02*
X82690761Y-95189523D01*
X83114095Y-95673333D01*
X82932666Y-95673333D01*
X82811714Y-95733809D01*
X82751238Y-95794285D01*
X82690761Y-95915238D01*
X82690761Y-96217619D01*
X82751238Y-96338571D01*
X82811714Y-96399047D01*
X82932666Y-96459523D01*
X83295523Y-96459523D01*
X83416476Y-96399047D01*
X83476952Y-96338571D01*
%TO.C,C7*%
D14*
X91462857Y-96441666D02*
X91415238Y-96489285D01*
X91367619Y-96632142D01*
X91367619Y-96727380D01*
X91415238Y-96870238D01*
X91510476Y-96965476D01*
X91605714Y-97013095D01*
X91796190Y-97060714D01*
X91939047Y-97060714D01*
X92129523Y-97013095D01*
X92224761Y-96965476D01*
X92320000Y-96870238D01*
X92367619Y-96727380D01*
X92367619Y-96632142D01*
X92320000Y-96489285D01*
X92272380Y-96441666D01*
X92367619Y-96108333D02*
X92367619Y-95441666D01*
X91367619Y-95870238D01*
%TO.C,U2*%
X94527619Y-94741904D02*
X93718095Y-94741904D01*
X93622857Y-94694285D01*
X93575238Y-94646666D01*
X93527619Y-94551428D01*
X93527619Y-94360952D01*
X93575238Y-94265714D01*
X93622857Y-94218095D01*
X93718095Y-94170476D01*
X94527619Y-94170476D01*
X94432380Y-93741904D02*
X94480000Y-93694285D01*
X94527619Y-93599047D01*
X94527619Y-93360952D01*
X94480000Y-93265714D01*
X94432380Y-93218095D01*
X94337142Y-93170476D01*
X94241904Y-93170476D01*
X94099047Y-93218095D01*
X93527619Y-93789523D01*
X93527619Y-93170476D01*
%TO.C,R5*%
X85256666Y-113642380D02*
X85590000Y-113166190D01*
X85828095Y-113642380D02*
X85828095Y-112642380D01*
X85447142Y-112642380D01*
X85351904Y-112690000D01*
X85304285Y-112737619D01*
X85256666Y-112832857D01*
X85256666Y-112975714D01*
X85304285Y-113070952D01*
X85351904Y-113118571D01*
X85447142Y-113166190D01*
X85828095Y-113166190D01*
X84351904Y-112642380D02*
X84828095Y-112642380D01*
X84875714Y-113118571D01*
X84828095Y-113070952D01*
X84732857Y-113023333D01*
X84494761Y-113023333D01*
X84399523Y-113070952D01*
X84351904Y-113118571D01*
X84304285Y-113213809D01*
X84304285Y-113451904D01*
X84351904Y-113547142D01*
X84399523Y-113594761D01*
X84494761Y-113642380D01*
X84732857Y-113642380D01*
X84828095Y-113594761D01*
X84875714Y-113547142D01*
%TO.C,R3*%
X91606666Y-93162380D02*
X91940000Y-92686190D01*
X92178095Y-93162380D02*
X92178095Y-92162380D01*
X91797142Y-92162380D01*
X91701904Y-92210000D01*
X91654285Y-92257619D01*
X91606666Y-92352857D01*
X91606666Y-92495714D01*
X91654285Y-92590952D01*
X91701904Y-92638571D01*
X91797142Y-92686190D01*
X92178095Y-92686190D01*
X91273333Y-92162380D02*
X90654285Y-92162380D01*
X90987619Y-92543333D01*
X90844761Y-92543333D01*
X90749523Y-92590952D01*
X90701904Y-92638571D01*
X90654285Y-92733809D01*
X90654285Y-92971904D01*
X90701904Y-93067142D01*
X90749523Y-93114761D01*
X90844761Y-93162380D01*
X91130476Y-93162380D01*
X91225714Y-93114761D01*
X91273333Y-93067142D01*
%TD*%
M02*
