%TF.GenerationSoftware,KiCad,Pcbnew,(5.1.9)-1*%
%TF.CreationDate,2021-05-16T10:50:45-07:00*%
%TF.ProjectId,VacuumSensor,56616375-756d-4536-956e-736f722e6b69,rev?*%
%TF.SameCoordinates,Original*%
%TF.FileFunction,Copper,L1,Top*%
%TF.FilePolarity,Positive*%
%FSLAX46Y46*%
G04 Gerber Fmt 4.6, Leading zero omitted, Abs format (unit mm)*
G04 Created by KiCad (PCBNEW (5.1.9)-1) date 2021-05-16 10:50:45*
%MOMM*%
%LPD*%
G01*
G04 APERTURE LIST*
%TA.AperFunction,ComponentPad*%
%ADD10C,1.260000*%
%TD*%
%TA.AperFunction,ComponentPad*%
%ADD11C,1.600000*%
%TD*%
%TA.AperFunction,ComponentPad*%
%ADD12R,1.600000X1.600000*%
%TD*%
%TA.AperFunction,SMDPad,CuDef*%
%ADD13R,2.000000X2.000000*%
%TD*%
%TA.AperFunction,ComponentPad*%
%ADD14O,1.700000X1.700000*%
%TD*%
%TA.AperFunction,ComponentPad*%
%ADD15R,1.700000X1.700000*%
%TD*%
%TA.AperFunction,ComponentPad*%
%ADD16C,1.575000*%
%TD*%
%TA.AperFunction,ComponentPad*%
%ADD17R,1.575000X1.575000*%
%TD*%
%TA.AperFunction,ComponentPad*%
%ADD18O,1.600000X1.600000*%
%TD*%
%TA.AperFunction,SMDPad,CuDef*%
%ADD19R,1.528000X0.650000*%
%TD*%
%TA.AperFunction,ComponentPad*%
%ADD20C,1.130000*%
%TD*%
%TA.AperFunction,ComponentPad*%
%ADD21R,1.130000X1.130000*%
%TD*%
%TA.AperFunction,ComponentPad*%
%ADD22C,1.365000*%
%TD*%
%TA.AperFunction,ComponentPad*%
%ADD23R,1.365000X1.365000*%
%TD*%
%TA.AperFunction,ComponentPad*%
%ADD24R,1.050000X1.500000*%
%TD*%
%TA.AperFunction,ComponentPad*%
%ADD25O,1.050000X1.500000*%
%TD*%
%TA.AperFunction,ComponentPad*%
%ADD26C,2.600000*%
%TD*%
%TA.AperFunction,ComponentPad*%
%ADD27R,2.600000X2.600000*%
%TD*%
%TA.AperFunction,ViaPad*%
%ADD28C,0.800000*%
%TD*%
%TA.AperFunction,Conductor*%
%ADD29C,0.762000*%
%TD*%
%TA.AperFunction,Conductor*%
%ADD30C,0.250000*%
%TD*%
%TA.AperFunction,Conductor*%
%ADD31C,0.635000*%
%TD*%
%TA.AperFunction,Conductor*%
%ADD32C,0.508000*%
%TD*%
G04 APERTURE END LIST*
D10*
%TO.P,10VSourceAdj1,3*%
%TO.N,GND*%
X95250000Y-103124000D03*
%TO.P,10VSourceAdj1,2*%
%TO.N,Net-(10VSourceAdj1-Pad2)*%
X97790000Y-105664000D03*
%TO.P,10VSourceAdj1,1*%
%TO.N,+10V*%
X100330000Y-103124000D03*
%TD*%
D11*
%TO.P,C5,2*%
%TO.N,GND*%
X120690000Y-104140000D03*
D12*
%TO.P,C5,1*%
%TO.N,+VDC*%
X123190000Y-104140000D03*
%TD*%
D11*
%TO.P,C3,2*%
%TO.N,GND*%
X114260000Y-104140000D03*
D12*
%TO.P,C3,1*%
%TO.N,+10V*%
X111760000Y-104140000D03*
%TD*%
D13*
%TO.P,TP1,1*%
%TO.N,+10V*%
X97790000Y-109220000D03*
%TD*%
D14*
%TO.P,J2,2*%
%TO.N,Net-(IC2-Pad1)*%
X93980000Y-91440000D03*
D15*
%TO.P,J2,1*%
%TO.N,+10V*%
X93980000Y-88900000D03*
%TD*%
D16*
%TO.P,D1,2*%
%TO.N,Net-(D1-Pad2)*%
X130810000Y-88770000D03*
D17*
%TO.P,D1,1*%
%TO.N,+VDC*%
X130810000Y-102870000D03*
%TD*%
D11*
%TO.P,C8,2*%
%TO.N,GND*%
X109760000Y-119380000D03*
D12*
%TO.P,C8,1*%
%TO.N,Net-(C8-Pad1)*%
X111760000Y-119380000D03*
%TD*%
D11*
%TO.P,C6,2*%
%TO.N,GND*%
X127540000Y-109220000D03*
D12*
%TO.P,C6,1*%
%TO.N,Net-(C6-Pad1)*%
X129540000Y-109220000D03*
%TD*%
D18*
%TO.P,L1,2*%
%TO.N,Net-(D2-Pad1)*%
X124460000Y-88900000D03*
D11*
%TO.P,L1,1*%
%TO.N,+10V*%
X114300000Y-88900000D03*
%TD*%
D19*
%TO.P,IC1,8*%
%TO.N,Net-(D2-Pad1)*%
X119551000Y-93345000D03*
%TO.P,IC1,7*%
%TO.N,+VDC*%
X119551000Y-94615000D03*
%TO.P,IC1,6*%
%TO.N,GND*%
X119551000Y-95885000D03*
%TO.P,IC1,5*%
%TO.N,Net-(C4-Pad1)*%
X119551000Y-97155000D03*
%TO.P,IC1,4*%
%TO.N,Net-(10VSourceAdj1-Pad2)*%
X114129000Y-97155000D03*
%TO.P,IC1,3*%
%TO.N,+10V*%
X114129000Y-95885000D03*
%TO.P,IC1,2*%
%TO.N,Net-(C1-Pad1)*%
X114129000Y-94615000D03*
%TO.P,IC1,1*%
%TO.N,Net-(IC1-Pad1)*%
X114129000Y-93345000D03*
%TD*%
D16*
%TO.P,D2,2*%
%TO.N,GND*%
X127000000Y-103000000D03*
D17*
%TO.P,D2,1*%
%TO.N,Net-(D2-Pad1)*%
X127000000Y-88900000D03*
%TD*%
D11*
%TO.P,C4,2*%
%TO.N,GND*%
X106680000Y-106600000D03*
%TO.P,C4,1*%
%TO.N,Net-(C4-Pad1)*%
X106680000Y-101600000D03*
%TD*%
%TO.P,C2,2*%
%TO.N,Net-(10VSourceAdj1-Pad2)*%
X110410000Y-96520000D03*
%TO.P,C2,1*%
%TO.N,+10V*%
X105410000Y-96520000D03*
%TD*%
%TO.P,C1,2*%
%TO.N,GND*%
X100250000Y-96520000D03*
%TO.P,C1,1*%
%TO.N,Net-(C1-Pad1)*%
X95250000Y-96520000D03*
%TD*%
D20*
%TO.P,IC5,8*%
%TO.N,N/C*%
X78740000Y-90490000D03*
%TO.P,IC5,7*%
%TO.N,Net-(C8-Pad1)*%
X81280000Y-90490000D03*
%TO.P,IC5,6*%
%TO.N,Net-(IC5-Pad2)*%
X83820000Y-90490000D03*
%TO.P,IC5,5*%
%TO.N,N/C*%
X86360000Y-90490000D03*
%TO.P,IC5,4*%
%TO.N,GND*%
X86360000Y-82550000D03*
%TO.P,IC5,3*%
%TO.N,Net-(IC3-Pad7)*%
X83820000Y-82550000D03*
%TO.P,IC5,2*%
%TO.N,Net-(IC5-Pad2)*%
X81280000Y-82550000D03*
D21*
%TO.P,IC5,1*%
%TO.N,N/C*%
X78740000Y-82550000D03*
%TD*%
D20*
%TO.P,IC4,8*%
%TO.N,N/C*%
X78740000Y-123350000D03*
%TO.P,IC4,7*%
%TO.N,+10V*%
X81280000Y-123350000D03*
%TO.P,IC4,6*%
%TO.N,Net-(IC3-Pad6)*%
X83820000Y-123350000D03*
%TO.P,IC4,5*%
%TO.N,N/C*%
X86360000Y-123350000D03*
%TO.P,IC4,4*%
%TO.N,GND*%
X86360000Y-115410000D03*
%TO.P,IC4,3*%
%TO.N,Net-(C6-Pad1)*%
X83820000Y-115410000D03*
%TO.P,IC4,2*%
%TO.N,Net-(IC3-Pad6)*%
X81280000Y-115410000D03*
D21*
%TO.P,IC4,1*%
%TO.N,N/C*%
X78740000Y-115410000D03*
%TD*%
D22*
%TO.P,IC2,4*%
%TO.N,Net-(IC2-Pad4)*%
X80130000Y-101600000D03*
%TO.P,IC2,3*%
%TO.N,GND*%
X82630000Y-101600000D03*
%TO.P,IC2,2*%
%TO.N,Net-(IC2-Pad2)*%
X85130000Y-101600000D03*
D23*
%TO.P,IC2,1*%
%TO.N,Net-(IC2-Pad1)*%
X87630000Y-101600000D03*
%TD*%
D10*
%TO.P,GAIN1,1*%
%TO.N,N/C*%
X96520000Y-118110000D03*
%TO.P,GAIN1,2*%
%TO.N,Net-(GAIN1-Pad2)*%
X93980000Y-115570000D03*
%TO.P,GAIN1,3*%
%TO.N,Net-(GAIN1-Pad3)*%
X96520000Y-113030000D03*
%TD*%
D13*
%TO.P,TP5,1*%
%TO.N,Net-(C8-Pad1)*%
X128270000Y-124460000D03*
%TD*%
%TO.P,TP4,1*%
%TO.N,Net-(C6-Pad1)*%
X123190000Y-111760000D03*
%TD*%
%TO.P,TP3,1*%
%TO.N,Net-(GAIN1-Pad2)*%
X102870000Y-118110000D03*
%TD*%
%TO.P,TP2,1*%
%TO.N,Net-(GAIN1-Pad3)*%
X102870000Y-113030000D03*
%TD*%
D24*
%TO.P,U2,1*%
%TO.N,Net-(U2-Pad1)*%
X118110000Y-116840000D03*
D25*
%TO.P,U2,3*%
%TO.N,Net-(C8-Pad1)*%
X120650000Y-116840000D03*
%TO.P,U2,2*%
%TO.N,GND*%
X119380000Y-116840000D03*
%TD*%
D24*
%TO.P,U1,1*%
%TO.N,Net-(U1-Pad1)*%
X116840000Y-110490000D03*
D25*
%TO.P,U1,3*%
%TO.N,Net-(R2-Pad2)*%
X119380000Y-110490000D03*
%TO.P,U1,2*%
%TO.N,GND*%
X118110000Y-110490000D03*
%TD*%
D10*
%TO.P,VoutS1,1*%
%TO.N,Net-(C8-Pad1)*%
X128270000Y-120650000D03*
%TO.P,VoutS1,2*%
%TO.N,Net-(U2-Pad1)*%
X125730000Y-118110000D03*
%TO.P,VoutS1,3*%
%TO.N,GND*%
X128270000Y-115570000D03*
%TD*%
%TO.P,VRef1,1*%
%TO.N,Net-(R2-Pad2)*%
X110490000Y-114808000D03*
%TO.P,VRef1,2*%
%TO.N,Net-(U1-Pad1)*%
X107950000Y-112268000D03*
%TO.P,VRef1,3*%
%TO.N,GND*%
X110490000Y-109728000D03*
%TD*%
%TO.P,R9,2*%
%TO.N,GND*%
%TA.AperFunction,SMDPad,CuDef*%
G36*
G01*
X85935000Y-84815000D02*
X85935000Y-85365000D01*
G75*
G02*
X85735000Y-85565000I-200000J0D01*
G01*
X85335000Y-85565000D01*
G75*
G02*
X85135000Y-85365000I0J200000D01*
G01*
X85135000Y-84815000D01*
G75*
G02*
X85335000Y-84615000I200000J0D01*
G01*
X85735000Y-84615000D01*
G75*
G02*
X85935000Y-84815000I0J-200000D01*
G01*
G37*
%TD.AperFunction*%
%TO.P,R9,1*%
%TO.N,Net-(IC5-Pad2)*%
%TA.AperFunction,SMDPad,CuDef*%
G36*
G01*
X87585000Y-84815000D02*
X87585000Y-85365000D01*
G75*
G02*
X87385000Y-85565000I-200000J0D01*
G01*
X86985000Y-85565000D01*
G75*
G02*
X86785000Y-85365000I0J200000D01*
G01*
X86785000Y-84815000D01*
G75*
G02*
X86985000Y-84615000I200000J0D01*
G01*
X87385000Y-84615000D01*
G75*
G02*
X87585000Y-84815000I0J-200000D01*
G01*
G37*
%TD.AperFunction*%
%TD*%
D26*
%TO.P,J1,3*%
%TO.N,Net-(IC5-Pad2)*%
X99220000Y-87630000D03*
%TO.P,J1,2*%
%TO.N,Net-(D1-Pad2)*%
X104220000Y-87630000D03*
D27*
%TO.P,J1,1*%
%TO.N,GND*%
X109220000Y-87630000D03*
%TD*%
D28*
%TO.N,+VDC*%
X122555000Y-94615000D03*
%TO.N,Net-(10VSourceAdj1-Pad2)*%
X114300000Y-99060000D03*
%TO.N,Net-(IC1-Pad1)*%
X114129000Y-91611000D03*
%TO.N,Net-(C6-Pad1)*%
X117193100Y-103055000D03*
%TO.N,Net-(C8-Pad1)*%
X93026700Y-100962700D03*
%TO.N,Net-(R2-Pad2)*%
X115384500Y-102851700D03*
%TD*%
D29*
%TO.N,GND*%
X95250000Y-101520000D02*
X100250000Y-96520000D01*
D30*
X119551000Y-95885000D02*
X121285000Y-95885000D01*
X121285000Y-95885000D02*
X121920000Y-96520000D01*
X121920000Y-96520000D02*
X121920000Y-102910000D01*
X121920000Y-102910000D02*
X120690000Y-104140000D01*
X86360000Y-82550000D02*
X86360000Y-84265000D01*
X86360000Y-84265000D02*
X85535000Y-85090000D01*
D29*
X95250000Y-103124000D02*
X95250000Y-101520000D01*
X104415001Y-104335001D02*
X106680000Y-106600000D01*
X96461001Y-104335001D02*
X104415001Y-104335001D01*
X95250000Y-103124000D02*
X96461001Y-104335001D01*
D30*
X84154000Y-103124000D02*
X95250000Y-103124000D01*
X82630000Y-101600000D02*
X84154000Y-103124000D01*
%TO.N,Net-(C1-Pad1)*%
X95250000Y-96520000D02*
X97155000Y-94615000D01*
X97155000Y-94615000D02*
X114129000Y-94615000D01*
%TO.N,Net-(GAIN1-Pad2)*%
X102870000Y-118110000D02*
X101544700Y-118110000D01*
X93980000Y-115570000D02*
X99004700Y-115570000D01*
X99004700Y-115570000D02*
X101544700Y-118110000D01*
%TO.N,Net-(GAIN1-Pad3)*%
X96520000Y-113030000D02*
X102870000Y-113030000D01*
%TO.N,Net-(U2-Pad1)*%
X118110000Y-116840000D02*
X118110000Y-117915300D01*
X125730000Y-118110000D02*
X118304700Y-118110000D01*
X118304700Y-118110000D02*
X118110000Y-117915300D01*
%TO.N,+10V*%
X107808300Y-106094400D02*
X107808300Y-107152400D01*
X107808300Y-107152400D02*
X105740700Y-109220000D01*
X105740700Y-109220000D02*
X97790000Y-109220000D01*
X105410000Y-96520000D02*
X106740000Y-97850000D01*
X106740000Y-97850000D02*
X111760000Y-97850000D01*
X81280000Y-123350000D02*
X81280000Y-116680200D01*
X81280000Y-116680200D02*
X88740200Y-109220000D01*
X88740200Y-109220000D02*
X97790000Y-109220000D01*
D31*
X114129000Y-95885000D02*
X116205000Y-95885000D01*
X116205000Y-95885000D02*
X116840000Y-95250000D01*
X116840000Y-95250000D02*
X116840000Y-91440000D01*
X116840000Y-91440000D02*
X114300000Y-88900000D01*
D30*
X111760000Y-104140000D02*
X111760000Y-97850000D01*
X111760000Y-97850000D02*
X113725000Y-95885000D01*
X113725000Y-95885000D02*
X114129000Y-95885000D01*
X104837900Y-103124000D02*
X104996950Y-103283050D01*
X100330000Y-103124000D02*
X104837900Y-103124000D01*
X104996950Y-103283050D02*
X107808300Y-106094400D01*
%TO.N,Net-(C4-Pad1)*%
X106680000Y-101600000D02*
X110345000Y-105265000D01*
X110345000Y-105265000D02*
X112820000Y-105265000D01*
X112820000Y-105265000D02*
X113135000Y-104950000D01*
X113135000Y-104950000D02*
X113135000Y-103571000D01*
X113135000Y-103571000D02*
X119551000Y-97155000D01*
D32*
%TO.N,+VDC*%
X130810000Y-102870000D02*
X128270000Y-105410000D01*
X128270000Y-105410000D02*
X124460000Y-105410000D01*
X124460000Y-105410000D02*
X123190000Y-104140000D01*
X119551000Y-94615000D02*
X122555000Y-94615000D01*
X122555000Y-94615000D02*
X123190000Y-95250000D01*
X123190000Y-95250000D02*
X123190000Y-104140000D01*
D30*
%TO.N,Net-(10VSourceAdj1-Pad2)*%
X114300000Y-99060000D02*
X114300000Y-97326000D01*
X114300000Y-97326000D02*
X114129000Y-97155000D01*
%TO.N,Net-(IC1-Pad1)*%
X114129000Y-93345000D02*
X114129000Y-91611000D01*
%TO.N,Net-(C6-Pad1)*%
X121864700Y-111760000D02*
X121864700Y-107726600D01*
X121864700Y-107726600D02*
X117193100Y-103055000D01*
X123190000Y-111760000D02*
X121864700Y-111760000D01*
X83820000Y-115410000D02*
X84742800Y-114487200D01*
X84742800Y-114487200D02*
X107623400Y-114487200D01*
X107623400Y-114487200D02*
X108391600Y-115255400D01*
X118369300Y-115255400D02*
X121864700Y-111760000D01*
X129540000Y-109220000D02*
X127000000Y-111760000D01*
X127000000Y-111760000D02*
X123190000Y-111760000D01*
%TO.N,Net-(C8-Pad1)*%
X93026700Y-100962700D02*
X82554000Y-90490000D01*
X82554000Y-90490000D02*
X81280000Y-90490000D01*
X111760000Y-119380000D02*
X112885300Y-119380000D01*
X120650000Y-116840000D02*
X120650000Y-115764700D01*
X120650000Y-115764700D02*
X116500600Y-115764700D01*
X116500600Y-115764700D02*
X112885300Y-119380000D01*
X128270000Y-120650000D02*
X128270000Y-124460000D01*
D32*
%TO.N,Net-(D2-Pad1)*%
X119551000Y-93345000D02*
X121285000Y-93345000D01*
X121285000Y-93345000D02*
X124460000Y-90170000D01*
X124460000Y-90170000D02*
X124460000Y-88900000D01*
D30*
%TO.N,Net-(IC5-Pad2)*%
X87185000Y-87630000D02*
X87185000Y-85090000D01*
X99220000Y-87630000D02*
X87185000Y-87630000D01*
X87185000Y-87630000D02*
X86680000Y-87630000D01*
X86680000Y-87630000D02*
X83820000Y-90490000D01*
%TO.N,Net-(R2-Pad2)*%
X119380000Y-110490000D02*
X119380000Y-111565300D01*
X116645300Y-114300000D02*
X119380000Y-111565300D01*
X115384500Y-102851700D02*
X119380000Y-106847200D01*
X119380000Y-106847200D02*
X119380000Y-110490000D01*
X110998000Y-114300000D02*
X110490000Y-114808000D01*
X116645300Y-114300000D02*
X110998000Y-114300000D01*
%TO.N,Net-(U1-Pad1)*%
X115989700Y-110490000D02*
X114719700Y-111760000D01*
X116840000Y-110490000D02*
X115989700Y-110490000D01*
X108458000Y-111760000D02*
X107950000Y-112268000D01*
X114719700Y-111760000D02*
X108458000Y-111760000D01*
%TD*%
M02*
