%TF.GenerationSoftware,KiCad,Pcbnew,(5.1.9)-1*%
%TF.CreationDate,2021-05-25T19:19:13-07:00*%
%TF.ProjectId,VacuumSensor,56616375-756d-4536-956e-736f722e6b69,rev?*%
%TF.SameCoordinates,Original*%
%TF.FileFunction,Legend,Top*%
%TF.FilePolarity,Positive*%
%FSLAX46Y46*%
G04 Gerber Fmt 4.6, Leading zero omitted, Abs format (unit mm)*
G04 Created by KiCad (PCBNEW (5.1.9)-1) date 2021-05-25 19:19:13*
%MOMM*%
%LPD*%
G01*
G04 APERTURE LIST*
%ADD10C,0.150000*%
%ADD11C,0.200000*%
%ADD12C,0.120000*%
%ADD13C,0.100000*%
%ADD14C,0.254000*%
G04 APERTURE END LIST*
D10*
X132532380Y-82716666D02*
X132056190Y-83050000D01*
X132532380Y-83288095D02*
X131532380Y-83288095D01*
X131532380Y-82907142D01*
X131580000Y-82811904D01*
X131627619Y-82764285D01*
X131722857Y-82716666D01*
X131865714Y-82716666D01*
X131960952Y-82764285D01*
X132008571Y-82811904D01*
X132056190Y-82907142D01*
X132056190Y-83288095D01*
X131532380Y-82383333D02*
X132532380Y-81716666D01*
X131532380Y-81716666D02*
X132532380Y-82383333D01*
X131532380Y-88391904D02*
X131532380Y-87820476D01*
X132532380Y-88106190D02*
X131532380Y-88106190D01*
X131532380Y-87582380D02*
X132532380Y-86915714D01*
X131532380Y-86915714D02*
X132532380Y-87582380D01*
X132246666Y-94162380D02*
X132246666Y-93686190D01*
X132532380Y-94257619D02*
X131532380Y-93924285D01*
X132532380Y-93590952D01*
X132484761Y-93305238D02*
X132532380Y-93162380D01*
X132532380Y-92924285D01*
X132484761Y-92829047D01*
X132437142Y-92781428D01*
X132341904Y-92733809D01*
X132246666Y-92733809D01*
X132151428Y-92781428D01*
X132103809Y-92829047D01*
X132056190Y-92924285D01*
X132008571Y-93114761D01*
X131960952Y-93210000D01*
X131913333Y-93257619D01*
X131818095Y-93305238D01*
X131722857Y-93305238D01*
X131627619Y-93257619D01*
X131580000Y-93210000D01*
X131532380Y-93114761D01*
X131532380Y-92876666D01*
X131580000Y-92733809D01*
X132532380Y-92305238D02*
X131532380Y-92305238D01*
X131580000Y-91305238D02*
X131532380Y-91400476D01*
X131532380Y-91543333D01*
X131580000Y-91686190D01*
X131675238Y-91781428D01*
X131770476Y-91829047D01*
X131960952Y-91876666D01*
X132103809Y-91876666D01*
X132294285Y-91829047D01*
X132389523Y-91781428D01*
X132484761Y-91686190D01*
X132532380Y-91543333D01*
X132532380Y-91448095D01*
X132484761Y-91305238D01*
X132437142Y-91257619D01*
X132103809Y-91257619D01*
X132103809Y-91448095D01*
X131532380Y-98742380D02*
X132532380Y-98409047D01*
X131532380Y-98075714D01*
X132151428Y-97742380D02*
X132151428Y-96980476D01*
X132532380Y-97361428D02*
X131770476Y-97361428D01*
X131580000Y-103631904D02*
X131532380Y-103727142D01*
X131532380Y-103870000D01*
X131580000Y-104012857D01*
X131675238Y-104108095D01*
X131770476Y-104155714D01*
X131960952Y-104203333D01*
X132103809Y-104203333D01*
X132294285Y-104155714D01*
X132389523Y-104108095D01*
X132484761Y-104012857D01*
X132532380Y-103870000D01*
X132532380Y-103774761D01*
X132484761Y-103631904D01*
X132437142Y-103584285D01*
X132103809Y-103584285D01*
X132103809Y-103774761D01*
X132532380Y-103155714D02*
X131532380Y-103155714D01*
X132532380Y-102584285D01*
X131532380Y-102584285D01*
X132532380Y-102108095D02*
X131532380Y-102108095D01*
X131532380Y-101870000D01*
X131580000Y-101727142D01*
X131675238Y-101631904D01*
X131770476Y-101584285D01*
X131960952Y-101536666D01*
X132103809Y-101536666D01*
X132294285Y-101584285D01*
X132389523Y-101631904D01*
X132484761Y-101727142D01*
X132532380Y-101870000D01*
X132532380Y-102108095D01*
D11*
%TO.C,RT1*%
X89325000Y-88770000D02*
X89625000Y-88770000D01*
D12*
%TO.C,R6*%
X89132500Y-92712258D02*
X89132500Y-92237742D01*
X90177500Y-92712258D02*
X90177500Y-92237742D01*
D11*
%TO.C,IC5*%
X104830000Y-85130000D02*
X108530000Y-85130000D01*
X108530000Y-85130000D02*
X108530000Y-90130000D01*
X108530000Y-90130000D02*
X104830000Y-90130000D01*
X104830000Y-90130000D02*
X104830000Y-85130000D01*
X103005000Y-84780000D02*
X104480000Y-84780000D01*
D12*
%TO.C,R4*%
X102122500Y-97202258D02*
X102122500Y-96727742D01*
X101077500Y-97202258D02*
X101077500Y-96727742D01*
%TO.C,J3*%
X127410000Y-97870000D02*
G75*
G03*
X127410000Y-97870000I-1680000J0D01*
G01*
X127410000Y-92870000D02*
G75*
G03*
X127410000Y-92870000I-1680000J0D01*
G01*
X127410000Y-87870000D02*
G75*
G03*
X127410000Y-87870000I-1680000J0D01*
G01*
X127410000Y-82870000D02*
G75*
G03*
X127410000Y-82870000I-1680000J0D01*
G01*
X129830000Y-105430000D02*
X129830000Y-80310000D01*
X128330000Y-105430000D02*
X128330000Y-80310000D01*
X123429000Y-105430000D02*
X123429000Y-80310000D01*
X120469000Y-105430000D02*
X120469000Y-80310000D01*
X130390000Y-105430000D02*
X130390000Y-80310000D01*
X120469000Y-105430000D02*
X130390000Y-105430000D01*
X120469000Y-80310000D02*
X130390000Y-80310000D01*
X124661000Y-96595000D02*
X124707000Y-96642000D01*
X126969000Y-98904000D02*
X127004000Y-98939000D01*
X124455000Y-96800000D02*
X124491000Y-96835000D01*
X126753000Y-99097000D02*
X126799000Y-99144000D01*
X124661000Y-91595000D02*
X124707000Y-91642000D01*
X126969000Y-93904000D02*
X127004000Y-93939000D01*
X124455000Y-91800000D02*
X124491000Y-91835000D01*
X126753000Y-94097000D02*
X126799000Y-94144000D01*
X124661000Y-86595000D02*
X124707000Y-86642000D01*
X126969000Y-88904000D02*
X127004000Y-88939000D01*
X124455000Y-86800000D02*
X124491000Y-86835000D01*
X126753000Y-89097000D02*
X126799000Y-89144000D01*
X124661000Y-81595000D02*
X124707000Y-81642000D01*
X126969000Y-83904000D02*
X127004000Y-83939000D01*
X124455000Y-81800000D02*
X124491000Y-81835000D01*
X126753000Y-84097000D02*
X126799000Y-84144000D01*
X129890000Y-105670000D02*
X130630000Y-105670000D01*
X130630000Y-105670000D02*
X130630000Y-105170000D01*
X127410253Y-102841195D02*
G75*
G02*
X127265000Y-103554000I-1680253J-28805D01*
G01*
X126413042Y-104405426D02*
G75*
G02*
X125046000Y-104405000I-683042J1535426D01*
G01*
X124194574Y-103553042D02*
G75*
G02*
X124195000Y-102186000I1535426J683042D01*
G01*
X125046958Y-101334574D02*
G75*
G02*
X126414000Y-101335000I683042J-1535426D01*
G01*
X127264756Y-102186682D02*
G75*
G02*
X127410000Y-102870000I-1534756J-683318D01*
G01*
%TO.C,J1*%
X95310000Y-106740000D02*
X93980000Y-106740000D01*
X95310000Y-105410000D02*
X95310000Y-106740000D01*
X95310000Y-104140000D02*
X92650000Y-104140000D01*
X92650000Y-104140000D02*
X92650000Y-101540000D01*
X95310000Y-104140000D02*
X95310000Y-101540000D01*
X95310000Y-101540000D02*
X92650000Y-101540000D01*
%TO.C,A1*%
X114430000Y-81150000D02*
X96390000Y-81150000D01*
X114430000Y-124590000D02*
X114430000Y-81150000D01*
X96390000Y-124590000D02*
X114430000Y-124590000D01*
X99060000Y-121920000D02*
X96390000Y-121920000D01*
X99060000Y-86360000D02*
X99060000Y-121920000D01*
X99060000Y-86360000D02*
X96390000Y-86360000D01*
X111760000Y-121920000D02*
X114430000Y-121920000D01*
X111760000Y-83820000D02*
X111760000Y-121920000D01*
X111760000Y-83820000D02*
X114430000Y-83820000D01*
X96390000Y-81150000D02*
X96390000Y-83820000D01*
X96390000Y-86360000D02*
X96390000Y-124590000D01*
X99060000Y-83820000D02*
X96390000Y-83820000D01*
X99060000Y-86360000D02*
X99060000Y-83820000D01*
%TO.C,TP1*%
X120720000Y-125660000D02*
X120720000Y-123260000D01*
X120720000Y-123260000D02*
X123120000Y-123260000D01*
X123120000Y-123260000D02*
X123120000Y-125660000D01*
X123120000Y-125660000D02*
X120720000Y-125660000D01*
%TO.C,10VSourceAdj1*%
X109340000Y-121920000D02*
G75*
G03*
X109340000Y-121920000I-3930000J0D01*
G01*
%TO.C,C6*%
X106120000Y-105410000D02*
G75*
G03*
X106120000Y-105410000I-3270000J0D01*
G01*
X102850000Y-102180000D02*
X102850000Y-108640000D01*
X102890000Y-102180000D02*
X102890000Y-108640000D01*
X102930000Y-102180000D02*
X102930000Y-108640000D01*
X102970000Y-102182000D02*
X102970000Y-108638000D01*
X103010000Y-102183000D02*
X103010000Y-108637000D01*
X103050000Y-102186000D02*
X103050000Y-108634000D01*
X103090000Y-102188000D02*
X103090000Y-104370000D01*
X103090000Y-106450000D02*
X103090000Y-108632000D01*
X103130000Y-102192000D02*
X103130000Y-104370000D01*
X103130000Y-106450000D02*
X103130000Y-108628000D01*
X103170000Y-102195000D02*
X103170000Y-104370000D01*
X103170000Y-106450000D02*
X103170000Y-108625000D01*
X103210000Y-102199000D02*
X103210000Y-104370000D01*
X103210000Y-106450000D02*
X103210000Y-108621000D01*
X103250000Y-102204000D02*
X103250000Y-104370000D01*
X103250000Y-106450000D02*
X103250000Y-108616000D01*
X103290000Y-102209000D02*
X103290000Y-104370000D01*
X103290000Y-106450000D02*
X103290000Y-108611000D01*
X103330000Y-102215000D02*
X103330000Y-104370000D01*
X103330000Y-106450000D02*
X103330000Y-108605000D01*
X103370000Y-102221000D02*
X103370000Y-104370000D01*
X103370000Y-106450000D02*
X103370000Y-108599000D01*
X103410000Y-102228000D02*
X103410000Y-104370000D01*
X103410000Y-106450000D02*
X103410000Y-108592000D01*
X103450000Y-102235000D02*
X103450000Y-104370000D01*
X103450000Y-106450000D02*
X103450000Y-108585000D01*
X103490000Y-102243000D02*
X103490000Y-104370000D01*
X103490000Y-106450000D02*
X103490000Y-108577000D01*
X103530000Y-102251000D02*
X103530000Y-104370000D01*
X103530000Y-106450000D02*
X103530000Y-108569000D01*
X103571000Y-102260000D02*
X103571000Y-104370000D01*
X103571000Y-106450000D02*
X103571000Y-108560000D01*
X103611000Y-102269000D02*
X103611000Y-104370000D01*
X103611000Y-106450000D02*
X103611000Y-108551000D01*
X103651000Y-102279000D02*
X103651000Y-104370000D01*
X103651000Y-106450000D02*
X103651000Y-108541000D01*
X103691000Y-102289000D02*
X103691000Y-104370000D01*
X103691000Y-106450000D02*
X103691000Y-108531000D01*
X103731000Y-102300000D02*
X103731000Y-104370000D01*
X103731000Y-106450000D02*
X103731000Y-108520000D01*
X103771000Y-102312000D02*
X103771000Y-104370000D01*
X103771000Y-106450000D02*
X103771000Y-108508000D01*
X103811000Y-102324000D02*
X103811000Y-104370000D01*
X103811000Y-106450000D02*
X103811000Y-108496000D01*
X103851000Y-102336000D02*
X103851000Y-104370000D01*
X103851000Y-106450000D02*
X103851000Y-108484000D01*
X103891000Y-102349000D02*
X103891000Y-104370000D01*
X103891000Y-106450000D02*
X103891000Y-108471000D01*
X103931000Y-102363000D02*
X103931000Y-104370000D01*
X103931000Y-106450000D02*
X103931000Y-108457000D01*
X103971000Y-102377000D02*
X103971000Y-104370000D01*
X103971000Y-106450000D02*
X103971000Y-108443000D01*
X104011000Y-102392000D02*
X104011000Y-104370000D01*
X104011000Y-106450000D02*
X104011000Y-108428000D01*
X104051000Y-102408000D02*
X104051000Y-104370000D01*
X104051000Y-106450000D02*
X104051000Y-108412000D01*
X104091000Y-102424000D02*
X104091000Y-104370000D01*
X104091000Y-106450000D02*
X104091000Y-108396000D01*
X104131000Y-102440000D02*
X104131000Y-104370000D01*
X104131000Y-106450000D02*
X104131000Y-108380000D01*
X104171000Y-102458000D02*
X104171000Y-104370000D01*
X104171000Y-106450000D02*
X104171000Y-108362000D01*
X104211000Y-102476000D02*
X104211000Y-104370000D01*
X104211000Y-106450000D02*
X104211000Y-108344000D01*
X104251000Y-102494000D02*
X104251000Y-104370000D01*
X104251000Y-106450000D02*
X104251000Y-108326000D01*
X104291000Y-102514000D02*
X104291000Y-104370000D01*
X104291000Y-106450000D02*
X104291000Y-108306000D01*
X104331000Y-102534000D02*
X104331000Y-104370000D01*
X104331000Y-106450000D02*
X104331000Y-108286000D01*
X104371000Y-102554000D02*
X104371000Y-104370000D01*
X104371000Y-106450000D02*
X104371000Y-108266000D01*
X104411000Y-102576000D02*
X104411000Y-104370000D01*
X104411000Y-106450000D02*
X104411000Y-108244000D01*
X104451000Y-102598000D02*
X104451000Y-104370000D01*
X104451000Y-106450000D02*
X104451000Y-108222000D01*
X104491000Y-102620000D02*
X104491000Y-104370000D01*
X104491000Y-106450000D02*
X104491000Y-108200000D01*
X104531000Y-102644000D02*
X104531000Y-104370000D01*
X104531000Y-106450000D02*
X104531000Y-108176000D01*
X104571000Y-102668000D02*
X104571000Y-104370000D01*
X104571000Y-106450000D02*
X104571000Y-108152000D01*
X104611000Y-102694000D02*
X104611000Y-104370000D01*
X104611000Y-106450000D02*
X104611000Y-108126000D01*
X104651000Y-102720000D02*
X104651000Y-104370000D01*
X104651000Y-106450000D02*
X104651000Y-108100000D01*
X104691000Y-102746000D02*
X104691000Y-104370000D01*
X104691000Y-106450000D02*
X104691000Y-108074000D01*
X104731000Y-102774000D02*
X104731000Y-104370000D01*
X104731000Y-106450000D02*
X104731000Y-108046000D01*
X104771000Y-102803000D02*
X104771000Y-104370000D01*
X104771000Y-106450000D02*
X104771000Y-108017000D01*
X104811000Y-102832000D02*
X104811000Y-104370000D01*
X104811000Y-106450000D02*
X104811000Y-107988000D01*
X104851000Y-102862000D02*
X104851000Y-104370000D01*
X104851000Y-106450000D02*
X104851000Y-107958000D01*
X104891000Y-102894000D02*
X104891000Y-104370000D01*
X104891000Y-106450000D02*
X104891000Y-107926000D01*
X104931000Y-102926000D02*
X104931000Y-104370000D01*
X104931000Y-106450000D02*
X104931000Y-107894000D01*
X104971000Y-102960000D02*
X104971000Y-104370000D01*
X104971000Y-106450000D02*
X104971000Y-107860000D01*
X105011000Y-102994000D02*
X105011000Y-104370000D01*
X105011000Y-106450000D02*
X105011000Y-107826000D01*
X105051000Y-103030000D02*
X105051000Y-104370000D01*
X105051000Y-106450000D02*
X105051000Y-107790000D01*
X105091000Y-103067000D02*
X105091000Y-104370000D01*
X105091000Y-106450000D02*
X105091000Y-107753000D01*
X105131000Y-103105000D02*
X105131000Y-104370000D01*
X105131000Y-106450000D02*
X105131000Y-107715000D01*
X105171000Y-103145000D02*
X105171000Y-107675000D01*
X105211000Y-103186000D02*
X105211000Y-107634000D01*
X105251000Y-103228000D02*
X105251000Y-107592000D01*
X105291000Y-103273000D02*
X105291000Y-107547000D01*
X105331000Y-103318000D02*
X105331000Y-107502000D01*
X105371000Y-103366000D02*
X105371000Y-107454000D01*
X105411000Y-103415000D02*
X105411000Y-107405000D01*
X105451000Y-103466000D02*
X105451000Y-107354000D01*
X105491000Y-103520000D02*
X105491000Y-107300000D01*
X105531000Y-103576000D02*
X105531000Y-107244000D01*
X105571000Y-103634000D02*
X105571000Y-107186000D01*
X105611000Y-103696000D02*
X105611000Y-107124000D01*
X105651000Y-103760000D02*
X105651000Y-107060000D01*
X105691000Y-103829000D02*
X105691000Y-106991000D01*
X105731000Y-103901000D02*
X105731000Y-106919000D01*
X105771000Y-103978000D02*
X105771000Y-106842000D01*
X105811000Y-104060000D02*
X105811000Y-106760000D01*
X105851000Y-104148000D02*
X105851000Y-106672000D01*
X105891000Y-104245000D02*
X105891000Y-106575000D01*
X105931000Y-104351000D02*
X105931000Y-106469000D01*
X105971000Y-104470000D02*
X105971000Y-106350000D01*
X106011000Y-104608000D02*
X106011000Y-106212000D01*
X106051000Y-104777000D02*
X106051000Y-106043000D01*
X106091000Y-105008000D02*
X106091000Y-105812000D01*
X99349759Y-103571000D02*
X99979759Y-103571000D01*
X99664759Y-103256000D02*
X99664759Y-103886000D01*
%TO.C,C4*%
X111240000Y-100330000D02*
G75*
G03*
X111240000Y-100330000I-3270000J0D01*
G01*
X107970000Y-103560000D02*
X107970000Y-97100000D01*
X107930000Y-103560000D02*
X107930000Y-97100000D01*
X107890000Y-103560000D02*
X107890000Y-97100000D01*
X107850000Y-103558000D02*
X107850000Y-97102000D01*
X107810000Y-103557000D02*
X107810000Y-97103000D01*
X107770000Y-103554000D02*
X107770000Y-97106000D01*
X107730000Y-103552000D02*
X107730000Y-101370000D01*
X107730000Y-99290000D02*
X107730000Y-97108000D01*
X107690000Y-103548000D02*
X107690000Y-101370000D01*
X107690000Y-99290000D02*
X107690000Y-97112000D01*
X107650000Y-103545000D02*
X107650000Y-101370000D01*
X107650000Y-99290000D02*
X107650000Y-97115000D01*
X107610000Y-103541000D02*
X107610000Y-101370000D01*
X107610000Y-99290000D02*
X107610000Y-97119000D01*
X107570000Y-103536000D02*
X107570000Y-101370000D01*
X107570000Y-99290000D02*
X107570000Y-97124000D01*
X107530000Y-103531000D02*
X107530000Y-101370000D01*
X107530000Y-99290000D02*
X107530000Y-97129000D01*
X107490000Y-103525000D02*
X107490000Y-101370000D01*
X107490000Y-99290000D02*
X107490000Y-97135000D01*
X107450000Y-103519000D02*
X107450000Y-101370000D01*
X107450000Y-99290000D02*
X107450000Y-97141000D01*
X107410000Y-103512000D02*
X107410000Y-101370000D01*
X107410000Y-99290000D02*
X107410000Y-97148000D01*
X107370000Y-103505000D02*
X107370000Y-101370000D01*
X107370000Y-99290000D02*
X107370000Y-97155000D01*
X107330000Y-103497000D02*
X107330000Y-101370000D01*
X107330000Y-99290000D02*
X107330000Y-97163000D01*
X107290000Y-103489000D02*
X107290000Y-101370000D01*
X107290000Y-99290000D02*
X107290000Y-97171000D01*
X107249000Y-103480000D02*
X107249000Y-101370000D01*
X107249000Y-99290000D02*
X107249000Y-97180000D01*
X107209000Y-103471000D02*
X107209000Y-101370000D01*
X107209000Y-99290000D02*
X107209000Y-97189000D01*
X107169000Y-103461000D02*
X107169000Y-101370000D01*
X107169000Y-99290000D02*
X107169000Y-97199000D01*
X107129000Y-103451000D02*
X107129000Y-101370000D01*
X107129000Y-99290000D02*
X107129000Y-97209000D01*
X107089000Y-103440000D02*
X107089000Y-101370000D01*
X107089000Y-99290000D02*
X107089000Y-97220000D01*
X107049000Y-103428000D02*
X107049000Y-101370000D01*
X107049000Y-99290000D02*
X107049000Y-97232000D01*
X107009000Y-103416000D02*
X107009000Y-101370000D01*
X107009000Y-99290000D02*
X107009000Y-97244000D01*
X106969000Y-103404000D02*
X106969000Y-101370000D01*
X106969000Y-99290000D02*
X106969000Y-97256000D01*
X106929000Y-103391000D02*
X106929000Y-101370000D01*
X106929000Y-99290000D02*
X106929000Y-97269000D01*
X106889000Y-103377000D02*
X106889000Y-101370000D01*
X106889000Y-99290000D02*
X106889000Y-97283000D01*
X106849000Y-103363000D02*
X106849000Y-101370000D01*
X106849000Y-99290000D02*
X106849000Y-97297000D01*
X106809000Y-103348000D02*
X106809000Y-101370000D01*
X106809000Y-99290000D02*
X106809000Y-97312000D01*
X106769000Y-103332000D02*
X106769000Y-101370000D01*
X106769000Y-99290000D02*
X106769000Y-97328000D01*
X106729000Y-103316000D02*
X106729000Y-101370000D01*
X106729000Y-99290000D02*
X106729000Y-97344000D01*
X106689000Y-103300000D02*
X106689000Y-101370000D01*
X106689000Y-99290000D02*
X106689000Y-97360000D01*
X106649000Y-103282000D02*
X106649000Y-101370000D01*
X106649000Y-99290000D02*
X106649000Y-97378000D01*
X106609000Y-103264000D02*
X106609000Y-101370000D01*
X106609000Y-99290000D02*
X106609000Y-97396000D01*
X106569000Y-103246000D02*
X106569000Y-101370000D01*
X106569000Y-99290000D02*
X106569000Y-97414000D01*
X106529000Y-103226000D02*
X106529000Y-101370000D01*
X106529000Y-99290000D02*
X106529000Y-97434000D01*
X106489000Y-103206000D02*
X106489000Y-101370000D01*
X106489000Y-99290000D02*
X106489000Y-97454000D01*
X106449000Y-103186000D02*
X106449000Y-101370000D01*
X106449000Y-99290000D02*
X106449000Y-97474000D01*
X106409000Y-103164000D02*
X106409000Y-101370000D01*
X106409000Y-99290000D02*
X106409000Y-97496000D01*
X106369000Y-103142000D02*
X106369000Y-101370000D01*
X106369000Y-99290000D02*
X106369000Y-97518000D01*
X106329000Y-103120000D02*
X106329000Y-101370000D01*
X106329000Y-99290000D02*
X106329000Y-97540000D01*
X106289000Y-103096000D02*
X106289000Y-101370000D01*
X106289000Y-99290000D02*
X106289000Y-97564000D01*
X106249000Y-103072000D02*
X106249000Y-101370000D01*
X106249000Y-99290000D02*
X106249000Y-97588000D01*
X106209000Y-103046000D02*
X106209000Y-101370000D01*
X106209000Y-99290000D02*
X106209000Y-97614000D01*
X106169000Y-103020000D02*
X106169000Y-101370000D01*
X106169000Y-99290000D02*
X106169000Y-97640000D01*
X106129000Y-102994000D02*
X106129000Y-101370000D01*
X106129000Y-99290000D02*
X106129000Y-97666000D01*
X106089000Y-102966000D02*
X106089000Y-101370000D01*
X106089000Y-99290000D02*
X106089000Y-97694000D01*
X106049000Y-102937000D02*
X106049000Y-101370000D01*
X106049000Y-99290000D02*
X106049000Y-97723000D01*
X106009000Y-102908000D02*
X106009000Y-101370000D01*
X106009000Y-99290000D02*
X106009000Y-97752000D01*
X105969000Y-102878000D02*
X105969000Y-101370000D01*
X105969000Y-99290000D02*
X105969000Y-97782000D01*
X105929000Y-102846000D02*
X105929000Y-101370000D01*
X105929000Y-99290000D02*
X105929000Y-97814000D01*
X105889000Y-102814000D02*
X105889000Y-101370000D01*
X105889000Y-99290000D02*
X105889000Y-97846000D01*
X105849000Y-102780000D02*
X105849000Y-101370000D01*
X105849000Y-99290000D02*
X105849000Y-97880000D01*
X105809000Y-102746000D02*
X105809000Y-101370000D01*
X105809000Y-99290000D02*
X105809000Y-97914000D01*
X105769000Y-102710000D02*
X105769000Y-101370000D01*
X105769000Y-99290000D02*
X105769000Y-97950000D01*
X105729000Y-102673000D02*
X105729000Y-101370000D01*
X105729000Y-99290000D02*
X105729000Y-97987000D01*
X105689000Y-102635000D02*
X105689000Y-101370000D01*
X105689000Y-99290000D02*
X105689000Y-98025000D01*
X105649000Y-102595000D02*
X105649000Y-98065000D01*
X105609000Y-102554000D02*
X105609000Y-98106000D01*
X105569000Y-102512000D02*
X105569000Y-98148000D01*
X105529000Y-102467000D02*
X105529000Y-98193000D01*
X105489000Y-102422000D02*
X105489000Y-98238000D01*
X105449000Y-102374000D02*
X105449000Y-98286000D01*
X105409000Y-102325000D02*
X105409000Y-98335000D01*
X105369000Y-102274000D02*
X105369000Y-98386000D01*
X105329000Y-102220000D02*
X105329000Y-98440000D01*
X105289000Y-102164000D02*
X105289000Y-98496000D01*
X105249000Y-102106000D02*
X105249000Y-98554000D01*
X105209000Y-102044000D02*
X105209000Y-98616000D01*
X105169000Y-101980000D02*
X105169000Y-98680000D01*
X105129000Y-101911000D02*
X105129000Y-98749000D01*
X105089000Y-101839000D02*
X105089000Y-98821000D01*
X105049000Y-101762000D02*
X105049000Y-98898000D01*
X105009000Y-101680000D02*
X105009000Y-98980000D01*
X104969000Y-101592000D02*
X104969000Y-99068000D01*
X104929000Y-101495000D02*
X104929000Y-99165000D01*
X104889000Y-101389000D02*
X104889000Y-99271000D01*
X104849000Y-101270000D02*
X104849000Y-99390000D01*
X104809000Y-101132000D02*
X104809000Y-99528000D01*
X104769000Y-100963000D02*
X104769000Y-99697000D01*
X104729000Y-100732000D02*
X104729000Y-99928000D01*
X111470241Y-102169000D02*
X110840241Y-102169000D01*
X111155241Y-102484000D02*
X111155241Y-101854000D01*
%TO.C,R1*%
X109457258Y-113777500D02*
X108982742Y-113777500D01*
X109457258Y-114822500D02*
X108982742Y-114822500D01*
%TO.C,TP2*%
X91510000Y-118040000D02*
X91510000Y-115640000D01*
X91510000Y-115640000D02*
X93910000Y-115640000D01*
X93910000Y-115640000D02*
X93910000Y-118040000D01*
X93910000Y-118040000D02*
X91510000Y-118040000D01*
%TO.C,J2*%
X92650000Y-92770000D02*
X95310000Y-92770000D01*
X92650000Y-90170000D02*
X92650000Y-92770000D01*
X95310000Y-90170000D02*
X95310000Y-92770000D01*
X92650000Y-90170000D02*
X95310000Y-90170000D01*
X92650000Y-88900000D02*
X92650000Y-87570000D01*
X92650000Y-87570000D02*
X93980000Y-87570000D01*
D11*
%TO.C,D1*%
X115652000Y-96868000D02*
X115652000Y-92232000D01*
X115652000Y-92232000D02*
X118028000Y-92232000D01*
X118028000Y-92232000D02*
X118028000Y-96868000D01*
X118028000Y-96868000D02*
X115652000Y-96868000D01*
X116840000Y-96868000D02*
X115652000Y-95680000D01*
X116840000Y-100462000D02*
X116840000Y-96868000D01*
X116840000Y-92232000D02*
X116840000Y-88638000D01*
D12*
%TO.C,C3*%
X122375000Y-112745225D02*
X121875000Y-112745225D01*
X122125000Y-112495225D02*
X122125000Y-112995225D01*
X120934000Y-117901000D02*
X120366000Y-117901000D01*
X121168000Y-117861000D02*
X120132000Y-117861000D01*
X121327000Y-117821000D02*
X119973000Y-117821000D01*
X121455000Y-117781000D02*
X119845000Y-117781000D01*
X121565000Y-117741000D02*
X119735000Y-117741000D01*
X121661000Y-117701000D02*
X119639000Y-117701000D01*
X121748000Y-117661000D02*
X119552000Y-117661000D01*
X121828000Y-117621000D02*
X119472000Y-117621000D01*
X121901000Y-117581000D02*
X119399000Y-117581000D01*
X121969000Y-117541000D02*
X119331000Y-117541000D01*
X122033000Y-117501000D02*
X119267000Y-117501000D01*
X122093000Y-117461000D02*
X119207000Y-117461000D01*
X122150000Y-117421000D02*
X119150000Y-117421000D01*
X122204000Y-117381000D02*
X119096000Y-117381000D01*
X122255000Y-117341000D02*
X119045000Y-117341000D01*
X119610000Y-117301000D02*
X118997000Y-117301000D01*
X122303000Y-117301000D02*
X121690000Y-117301000D01*
X119610000Y-117261000D02*
X118951000Y-117261000D01*
X122349000Y-117261000D02*
X121690000Y-117261000D01*
X119610000Y-117221000D02*
X118907000Y-117221000D01*
X122393000Y-117221000D02*
X121690000Y-117221000D01*
X119610000Y-117181000D02*
X118865000Y-117181000D01*
X122435000Y-117181000D02*
X121690000Y-117181000D01*
X119610000Y-117141000D02*
X118824000Y-117141000D01*
X122476000Y-117141000D02*
X121690000Y-117141000D01*
X119610000Y-117101000D02*
X118786000Y-117101000D01*
X122514000Y-117101000D02*
X121690000Y-117101000D01*
X119610000Y-117061000D02*
X118749000Y-117061000D01*
X122551000Y-117061000D02*
X121690000Y-117061000D01*
X119610000Y-117021000D02*
X118713000Y-117021000D01*
X122587000Y-117021000D02*
X121690000Y-117021000D01*
X119610000Y-116981000D02*
X118679000Y-116981000D01*
X122621000Y-116981000D02*
X121690000Y-116981000D01*
X119610000Y-116941000D02*
X118646000Y-116941000D01*
X122654000Y-116941000D02*
X121690000Y-116941000D01*
X119610000Y-116901000D02*
X118615000Y-116901000D01*
X122685000Y-116901000D02*
X121690000Y-116901000D01*
X119610000Y-116861000D02*
X118585000Y-116861000D01*
X122715000Y-116861000D02*
X121690000Y-116861000D01*
X119610000Y-116821000D02*
X118555000Y-116821000D01*
X122745000Y-116821000D02*
X121690000Y-116821000D01*
X119610000Y-116781000D02*
X118528000Y-116781000D01*
X122772000Y-116781000D02*
X121690000Y-116781000D01*
X119610000Y-116741000D02*
X118501000Y-116741000D01*
X122799000Y-116741000D02*
X121690000Y-116741000D01*
X119610000Y-116701000D02*
X118475000Y-116701000D01*
X122825000Y-116701000D02*
X121690000Y-116701000D01*
X119610000Y-116661000D02*
X118450000Y-116661000D01*
X122850000Y-116661000D02*
X121690000Y-116661000D01*
X119610000Y-116621000D02*
X118426000Y-116621000D01*
X122874000Y-116621000D02*
X121690000Y-116621000D01*
X119610000Y-116581000D02*
X118403000Y-116581000D01*
X122897000Y-116581000D02*
X121690000Y-116581000D01*
X119610000Y-116541000D02*
X118382000Y-116541000D01*
X122918000Y-116541000D02*
X121690000Y-116541000D01*
X119610000Y-116501000D02*
X118360000Y-116501000D01*
X122940000Y-116501000D02*
X121690000Y-116501000D01*
X119610000Y-116461000D02*
X118340000Y-116461000D01*
X122960000Y-116461000D02*
X121690000Y-116461000D01*
X119610000Y-116421000D02*
X118321000Y-116421000D01*
X122979000Y-116421000D02*
X121690000Y-116421000D01*
X119610000Y-116381000D02*
X118302000Y-116381000D01*
X122998000Y-116381000D02*
X121690000Y-116381000D01*
X119610000Y-116341000D02*
X118285000Y-116341000D01*
X123015000Y-116341000D02*
X121690000Y-116341000D01*
X119610000Y-116301000D02*
X118268000Y-116301000D01*
X123032000Y-116301000D02*
X121690000Y-116301000D01*
X119610000Y-116261000D02*
X118252000Y-116261000D01*
X123048000Y-116261000D02*
X121690000Y-116261000D01*
X119610000Y-116221000D02*
X118236000Y-116221000D01*
X123064000Y-116221000D02*
X121690000Y-116221000D01*
X119610000Y-116181000D02*
X118222000Y-116181000D01*
X123078000Y-116181000D02*
X121690000Y-116181000D01*
X119610000Y-116141000D02*
X118208000Y-116141000D01*
X123092000Y-116141000D02*
X121690000Y-116141000D01*
X119610000Y-116101000D02*
X118195000Y-116101000D01*
X123105000Y-116101000D02*
X121690000Y-116101000D01*
X119610000Y-116061000D02*
X118182000Y-116061000D01*
X123118000Y-116061000D02*
X121690000Y-116061000D01*
X119610000Y-116021000D02*
X118170000Y-116021000D01*
X123130000Y-116021000D02*
X121690000Y-116021000D01*
X119610000Y-115980000D02*
X118159000Y-115980000D01*
X123141000Y-115980000D02*
X121690000Y-115980000D01*
X119610000Y-115940000D02*
X118149000Y-115940000D01*
X123151000Y-115940000D02*
X121690000Y-115940000D01*
X119610000Y-115900000D02*
X118139000Y-115900000D01*
X123161000Y-115900000D02*
X121690000Y-115900000D01*
X119610000Y-115860000D02*
X118130000Y-115860000D01*
X123170000Y-115860000D02*
X121690000Y-115860000D01*
X119610000Y-115820000D02*
X118122000Y-115820000D01*
X123178000Y-115820000D02*
X121690000Y-115820000D01*
X119610000Y-115780000D02*
X118114000Y-115780000D01*
X123186000Y-115780000D02*
X121690000Y-115780000D01*
X119610000Y-115740000D02*
X118107000Y-115740000D01*
X123193000Y-115740000D02*
X121690000Y-115740000D01*
X119610000Y-115700000D02*
X118100000Y-115700000D01*
X123200000Y-115700000D02*
X121690000Y-115700000D01*
X119610000Y-115660000D02*
X118094000Y-115660000D01*
X123206000Y-115660000D02*
X121690000Y-115660000D01*
X119610000Y-115620000D02*
X118089000Y-115620000D01*
X123211000Y-115620000D02*
X121690000Y-115620000D01*
X119610000Y-115580000D02*
X118085000Y-115580000D01*
X123215000Y-115580000D02*
X121690000Y-115580000D01*
X119610000Y-115540000D02*
X118081000Y-115540000D01*
X123219000Y-115540000D02*
X121690000Y-115540000D01*
X119610000Y-115500000D02*
X118077000Y-115500000D01*
X123223000Y-115500000D02*
X121690000Y-115500000D01*
X119610000Y-115460000D02*
X118074000Y-115460000D01*
X123226000Y-115460000D02*
X121690000Y-115460000D01*
X119610000Y-115420000D02*
X118072000Y-115420000D01*
X123228000Y-115420000D02*
X121690000Y-115420000D01*
X119610000Y-115380000D02*
X118071000Y-115380000D01*
X123229000Y-115380000D02*
X121690000Y-115380000D01*
X123230000Y-115340000D02*
X121690000Y-115340000D01*
X119610000Y-115340000D02*
X118070000Y-115340000D01*
X123230000Y-115300000D02*
X121690000Y-115300000D01*
X119610000Y-115300000D02*
X118070000Y-115300000D01*
X123270000Y-115300000D02*
G75*
G03*
X123270000Y-115300000I-2620000J0D01*
G01*
D13*
%TO.C,IC2*%
X90780000Y-101000000D02*
X90780000Y-101000000D01*
X90680000Y-101000000D02*
X90680000Y-101000000D01*
D11*
X87080000Y-87000000D02*
X87080000Y-100100000D01*
X80680000Y-87000000D02*
X87080000Y-87000000D01*
X80680000Y-100100000D02*
X80680000Y-87000000D01*
X87080000Y-122400000D02*
X87080000Y-109100000D01*
X80680000Y-122400000D02*
X87080000Y-122400000D01*
X80680000Y-109100000D02*
X80680000Y-122400000D01*
X77530000Y-100100000D02*
X77530000Y-109100000D01*
X90230000Y-100100000D02*
X77530000Y-100100000D01*
X90230000Y-109100000D02*
X90230000Y-100100000D01*
X77530000Y-109100000D02*
X90230000Y-109100000D01*
D13*
X90680000Y-101000000D02*
G75*
G02*
X90780000Y-101000000I50000J0D01*
G01*
X90780000Y-101000000D02*
G75*
G02*
X90680000Y-101000000I-50000J0D01*
G01*
D12*
%TO.C,OutAdj1*%
X132200000Y-110490000D02*
G75*
G03*
X132200000Y-110490000I-3930000J0D01*
G01*
%TO.C,U1*%
X122500000Y-111020000D02*
X122500000Y-107420000D01*
X122488478Y-111058478D02*
G75*
G02*
X118050000Y-109220000I-1838478J1838478D01*
G01*
X122488478Y-107381522D02*
G75*
G03*
X118050000Y-109220000I-1838478J-1838478D01*
G01*
%TO.C,5VADJ1*%
X132200000Y-120650000D02*
G75*
G03*
X132200000Y-120650000I-3930000J0D01*
G01*
%TO.C,R2*%
X117077258Y-106157500D02*
X116602742Y-106157500D01*
X117077258Y-107202500D02*
X116602742Y-107202500D01*
%TO.C,RT1*%
D14*
X90049523Y-89465476D02*
X89444761Y-89888809D01*
X90049523Y-90191190D02*
X88779523Y-90191190D01*
X88779523Y-89707380D01*
X88840000Y-89586428D01*
X88900476Y-89525952D01*
X89021428Y-89465476D01*
X89202857Y-89465476D01*
X89323809Y-89525952D01*
X89384285Y-89586428D01*
X89444761Y-89707380D01*
X89444761Y-90191190D01*
X88779523Y-89102619D02*
X88779523Y-88376904D01*
X90049523Y-88739761D02*
X88779523Y-88739761D01*
X90049523Y-87288333D02*
X90049523Y-88014047D01*
X90049523Y-87651190D02*
X88779523Y-87651190D01*
X88960952Y-87772142D01*
X89081904Y-87893095D01*
X89142380Y-88014047D01*
%TO.C,R6*%
D10*
X88677380Y-92641666D02*
X88201190Y-92975000D01*
X88677380Y-93213095D02*
X87677380Y-93213095D01*
X87677380Y-92832142D01*
X87725000Y-92736904D01*
X87772619Y-92689285D01*
X87867857Y-92641666D01*
X88010714Y-92641666D01*
X88105952Y-92689285D01*
X88153571Y-92736904D01*
X88201190Y-92832142D01*
X88201190Y-93213095D01*
X87677380Y-91784523D02*
X87677380Y-91975000D01*
X87725000Y-92070238D01*
X87772619Y-92117857D01*
X87915476Y-92213095D01*
X88105952Y-92260714D01*
X88486904Y-92260714D01*
X88582142Y-92213095D01*
X88629761Y-92165476D01*
X88677380Y-92070238D01*
X88677380Y-91879761D01*
X88629761Y-91784523D01*
X88582142Y-91736904D01*
X88486904Y-91689285D01*
X88248809Y-91689285D01*
X88153571Y-91736904D01*
X88105952Y-91784523D01*
X88058333Y-91879761D01*
X88058333Y-92070238D01*
X88105952Y-92165476D01*
X88153571Y-92213095D01*
X88248809Y-92260714D01*
%TO.C,IC5*%
D14*
X105440238Y-88204523D02*
X105440238Y-86934523D01*
X106770714Y-88083571D02*
X106710238Y-88144047D01*
X106528809Y-88204523D01*
X106407857Y-88204523D01*
X106226428Y-88144047D01*
X106105476Y-88023095D01*
X106045000Y-87902142D01*
X105984523Y-87660238D01*
X105984523Y-87478809D01*
X106045000Y-87236904D01*
X106105476Y-87115952D01*
X106226428Y-86995000D01*
X106407857Y-86934523D01*
X106528809Y-86934523D01*
X106710238Y-86995000D01*
X106770714Y-87055476D01*
X107919761Y-86934523D02*
X107315000Y-86934523D01*
X107254523Y-87539285D01*
X107315000Y-87478809D01*
X107435952Y-87418333D01*
X107738333Y-87418333D01*
X107859285Y-87478809D01*
X107919761Y-87539285D01*
X107980238Y-87660238D01*
X107980238Y-87962619D01*
X107919761Y-88083571D01*
X107859285Y-88144047D01*
X107738333Y-88204523D01*
X107435952Y-88204523D01*
X107315000Y-88144047D01*
X107254523Y-88083571D01*
%TO.C,R4*%
D10*
X100622380Y-97131666D02*
X100146190Y-97465000D01*
X100622380Y-97703095D02*
X99622380Y-97703095D01*
X99622380Y-97322142D01*
X99670000Y-97226904D01*
X99717619Y-97179285D01*
X99812857Y-97131666D01*
X99955714Y-97131666D01*
X100050952Y-97179285D01*
X100098571Y-97226904D01*
X100146190Y-97322142D01*
X100146190Y-97703095D01*
X99955714Y-96274523D02*
X100622380Y-96274523D01*
X99574761Y-96512619D02*
X100289047Y-96750714D01*
X100289047Y-96131666D01*
%TO.C,J3*%
X118922380Y-93203333D02*
X119636666Y-93203333D01*
X119779523Y-93250952D01*
X119874761Y-93346190D01*
X119922380Y-93489047D01*
X119922380Y-93584285D01*
X118922380Y-92822380D02*
X118922380Y-92203333D01*
X119303333Y-92536666D01*
X119303333Y-92393809D01*
X119350952Y-92298571D01*
X119398571Y-92250952D01*
X119493809Y-92203333D01*
X119731904Y-92203333D01*
X119827142Y-92250952D01*
X119874761Y-92298571D01*
X119922380Y-92393809D01*
X119922380Y-92679523D01*
X119874761Y-92774761D01*
X119827142Y-92822380D01*
%TO.C,J1*%
X93646666Y-107192380D02*
X93646666Y-107906666D01*
X93599047Y-108049523D01*
X93503809Y-108144761D01*
X93360952Y-108192380D01*
X93265714Y-108192380D01*
X94646666Y-108192380D02*
X94075238Y-108192380D01*
X94360952Y-108192380D02*
X94360952Y-107192380D01*
X94265714Y-107335238D01*
X94170476Y-107430476D01*
X94075238Y-107478095D01*
%TO.C,A1*%
X104695714Y-82716666D02*
X105171904Y-82716666D01*
X104600476Y-83002380D02*
X104933809Y-82002380D01*
X105267142Y-83002380D01*
X106124285Y-83002380D02*
X105552857Y-83002380D01*
X105838571Y-83002380D02*
X105838571Y-82002380D01*
X105743333Y-82145238D01*
X105648095Y-82240476D01*
X105552857Y-82288095D01*
%TO.C,TP1*%
X119374380Y-125721904D02*
X119374380Y-125150476D01*
X120374380Y-125436190D02*
X119374380Y-125436190D01*
X120374380Y-124817142D02*
X119374380Y-124817142D01*
X119374380Y-124436190D01*
X119422000Y-124340952D01*
X119469619Y-124293333D01*
X119564857Y-124245714D01*
X119707714Y-124245714D01*
X119802952Y-124293333D01*
X119850571Y-124340952D01*
X119898190Y-124436190D01*
X119898190Y-124817142D01*
X120374380Y-123293333D02*
X120374380Y-123864761D01*
X120374380Y-123579047D02*
X119374380Y-123579047D01*
X119517238Y-123674285D01*
X119612476Y-123769523D01*
X119660095Y-123864761D01*
%TO.C,10VSourceAdj1*%
X100782380Y-125411904D02*
X100782380Y-125983333D01*
X100782380Y-125697619D02*
X99782380Y-125697619D01*
X99925238Y-125792857D01*
X100020476Y-125888095D01*
X100068095Y-125983333D01*
X99782380Y-124792857D02*
X99782380Y-124697619D01*
X99830000Y-124602380D01*
X99877619Y-124554761D01*
X99972857Y-124507142D01*
X100163333Y-124459523D01*
X100401428Y-124459523D01*
X100591904Y-124507142D01*
X100687142Y-124554761D01*
X100734761Y-124602380D01*
X100782380Y-124697619D01*
X100782380Y-124792857D01*
X100734761Y-124888095D01*
X100687142Y-124935714D01*
X100591904Y-124983333D01*
X100401428Y-125030952D01*
X100163333Y-125030952D01*
X99972857Y-124983333D01*
X99877619Y-124935714D01*
X99830000Y-124888095D01*
X99782380Y-124792857D01*
X99782380Y-124173809D02*
X100782380Y-123840476D01*
X99782380Y-123507142D01*
X100734761Y-123221428D02*
X100782380Y-123078571D01*
X100782380Y-122840476D01*
X100734761Y-122745238D01*
X100687142Y-122697619D01*
X100591904Y-122650000D01*
X100496666Y-122650000D01*
X100401428Y-122697619D01*
X100353809Y-122745238D01*
X100306190Y-122840476D01*
X100258571Y-123030952D01*
X100210952Y-123126190D01*
X100163333Y-123173809D01*
X100068095Y-123221428D01*
X99972857Y-123221428D01*
X99877619Y-123173809D01*
X99830000Y-123126190D01*
X99782380Y-123030952D01*
X99782380Y-122792857D01*
X99830000Y-122650000D01*
X100782380Y-122078571D02*
X100734761Y-122173809D01*
X100687142Y-122221428D01*
X100591904Y-122269047D01*
X100306190Y-122269047D01*
X100210952Y-122221428D01*
X100163333Y-122173809D01*
X100115714Y-122078571D01*
X100115714Y-121935714D01*
X100163333Y-121840476D01*
X100210952Y-121792857D01*
X100306190Y-121745238D01*
X100591904Y-121745238D01*
X100687142Y-121792857D01*
X100734761Y-121840476D01*
X100782380Y-121935714D01*
X100782380Y-122078571D01*
X100115714Y-120888095D02*
X100782380Y-120888095D01*
X100115714Y-121316666D02*
X100639523Y-121316666D01*
X100734761Y-121269047D01*
X100782380Y-121173809D01*
X100782380Y-121030952D01*
X100734761Y-120935714D01*
X100687142Y-120888095D01*
X100782380Y-120411904D02*
X100115714Y-120411904D01*
X100306190Y-120411904D02*
X100210952Y-120364285D01*
X100163333Y-120316666D01*
X100115714Y-120221428D01*
X100115714Y-120126190D01*
X100734761Y-119364285D02*
X100782380Y-119459523D01*
X100782380Y-119650000D01*
X100734761Y-119745238D01*
X100687142Y-119792857D01*
X100591904Y-119840476D01*
X100306190Y-119840476D01*
X100210952Y-119792857D01*
X100163333Y-119745238D01*
X100115714Y-119650000D01*
X100115714Y-119459523D01*
X100163333Y-119364285D01*
X100734761Y-118554761D02*
X100782380Y-118650000D01*
X100782380Y-118840476D01*
X100734761Y-118935714D01*
X100639523Y-118983333D01*
X100258571Y-118983333D01*
X100163333Y-118935714D01*
X100115714Y-118840476D01*
X100115714Y-118650000D01*
X100163333Y-118554761D01*
X100258571Y-118507142D01*
X100353809Y-118507142D01*
X100449047Y-118983333D01*
X100496666Y-118126190D02*
X100496666Y-117650000D01*
X100782380Y-118221428D02*
X99782380Y-117888095D01*
X100782380Y-117554761D01*
X100782380Y-116792857D02*
X99782380Y-116792857D01*
X100734761Y-116792857D02*
X100782380Y-116888095D01*
X100782380Y-117078571D01*
X100734761Y-117173809D01*
X100687142Y-117221428D01*
X100591904Y-117269047D01*
X100306190Y-117269047D01*
X100210952Y-117221428D01*
X100163333Y-117173809D01*
X100115714Y-117078571D01*
X100115714Y-116888095D01*
X100163333Y-116792857D01*
X100115714Y-116316666D02*
X100972857Y-116316666D01*
X101068095Y-116364285D01*
X101115714Y-116459523D01*
X101115714Y-116507142D01*
X99782380Y-116316666D02*
X99830000Y-116364285D01*
X99877619Y-116316666D01*
X99830000Y-116269047D01*
X99782380Y-116316666D01*
X99877619Y-116316666D01*
X100782380Y-115316666D02*
X100782380Y-115888095D01*
X100782380Y-115602380D02*
X99782380Y-115602380D01*
X99925238Y-115697619D01*
X100020476Y-115792857D01*
X100068095Y-115888095D01*
%TO.C,C6*%
X102683333Y-101367142D02*
X102635714Y-101414761D01*
X102492857Y-101462380D01*
X102397619Y-101462380D01*
X102254761Y-101414761D01*
X102159523Y-101319523D01*
X102111904Y-101224285D01*
X102064285Y-101033809D01*
X102064285Y-100890952D01*
X102111904Y-100700476D01*
X102159523Y-100605238D01*
X102254761Y-100510000D01*
X102397619Y-100462380D01*
X102492857Y-100462380D01*
X102635714Y-100510000D01*
X102683333Y-100557619D01*
X103540476Y-100462380D02*
X103350000Y-100462380D01*
X103254761Y-100510000D01*
X103207142Y-100557619D01*
X103111904Y-100700476D01*
X103064285Y-100890952D01*
X103064285Y-101271904D01*
X103111904Y-101367142D01*
X103159523Y-101414761D01*
X103254761Y-101462380D01*
X103445238Y-101462380D01*
X103540476Y-101414761D01*
X103588095Y-101367142D01*
X103635714Y-101271904D01*
X103635714Y-101033809D01*
X103588095Y-100938571D01*
X103540476Y-100890952D01*
X103445238Y-100843333D01*
X103254761Y-100843333D01*
X103159523Y-100890952D01*
X103111904Y-100938571D01*
X103064285Y-101033809D01*
%TO.C,C4*%
X107803333Y-105087142D02*
X107755714Y-105134761D01*
X107612857Y-105182380D01*
X107517619Y-105182380D01*
X107374761Y-105134761D01*
X107279523Y-105039523D01*
X107231904Y-104944285D01*
X107184285Y-104753809D01*
X107184285Y-104610952D01*
X107231904Y-104420476D01*
X107279523Y-104325238D01*
X107374761Y-104230000D01*
X107517619Y-104182380D01*
X107612857Y-104182380D01*
X107755714Y-104230000D01*
X107803333Y-104277619D01*
X108660476Y-104515714D02*
X108660476Y-105182380D01*
X108422380Y-104134761D02*
X108184285Y-104849047D01*
X108803333Y-104849047D01*
%TO.C,R1*%
X109053333Y-116182380D02*
X108720000Y-115706190D01*
X108481904Y-116182380D02*
X108481904Y-115182380D01*
X108862857Y-115182380D01*
X108958095Y-115230000D01*
X109005714Y-115277619D01*
X109053333Y-115372857D01*
X109053333Y-115515714D01*
X109005714Y-115610952D01*
X108958095Y-115658571D01*
X108862857Y-115706190D01*
X108481904Y-115706190D01*
X110005714Y-116182380D02*
X109434285Y-116182380D01*
X109720000Y-116182380D02*
X109720000Y-115182380D01*
X109624761Y-115325238D01*
X109529523Y-115420476D01*
X109434285Y-115468095D01*
%TO.C,TP2*%
X90164380Y-118101904D02*
X90164380Y-117530476D01*
X91164380Y-117816190D02*
X90164380Y-117816190D01*
X91164380Y-117197142D02*
X90164380Y-117197142D01*
X90164380Y-116816190D01*
X90212000Y-116720952D01*
X90259619Y-116673333D01*
X90354857Y-116625714D01*
X90497714Y-116625714D01*
X90592952Y-116673333D01*
X90640571Y-116720952D01*
X90688190Y-116816190D01*
X90688190Y-117197142D01*
X90259619Y-116244761D02*
X90212000Y-116197142D01*
X90164380Y-116101904D01*
X90164380Y-115863809D01*
X90212000Y-115768571D01*
X90259619Y-115720952D01*
X90354857Y-115673333D01*
X90450095Y-115673333D01*
X90592952Y-115720952D01*
X91164380Y-116292380D01*
X91164380Y-115673333D01*
%TO.C,J2*%
X93646666Y-86022380D02*
X93646666Y-86736666D01*
X93599047Y-86879523D01*
X93503809Y-86974761D01*
X93360952Y-87022380D01*
X93265714Y-87022380D01*
X94075238Y-86117619D02*
X94122857Y-86070000D01*
X94218095Y-86022380D01*
X94456190Y-86022380D01*
X94551428Y-86070000D01*
X94599047Y-86117619D01*
X94646666Y-86212857D01*
X94646666Y-86308095D01*
X94599047Y-86450952D01*
X94027619Y-87022380D01*
X94646666Y-87022380D01*
%TO.C,D1*%
D14*
X119954523Y-96187380D02*
X118684523Y-96187380D01*
X118684523Y-95885000D01*
X118745000Y-95703571D01*
X118865952Y-95582619D01*
X118986904Y-95522142D01*
X119228809Y-95461666D01*
X119410238Y-95461666D01*
X119652142Y-95522142D01*
X119773095Y-95582619D01*
X119894047Y-95703571D01*
X119954523Y-95885000D01*
X119954523Y-96187380D01*
X119954523Y-94252142D02*
X119954523Y-94977857D01*
X119954523Y-94615000D02*
X118684523Y-94615000D01*
X118865952Y-94735952D01*
X118986904Y-94856904D01*
X119047380Y-94977857D01*
%TO.C,C3*%
D10*
X121007142Y-119546666D02*
X121054761Y-119594285D01*
X121102380Y-119737142D01*
X121102380Y-119832380D01*
X121054761Y-119975238D01*
X120959523Y-120070476D01*
X120864285Y-120118095D01*
X120673809Y-120165714D01*
X120530952Y-120165714D01*
X120340476Y-120118095D01*
X120245238Y-120070476D01*
X120150000Y-119975238D01*
X120102380Y-119832380D01*
X120102380Y-119737142D01*
X120150000Y-119594285D01*
X120197619Y-119546666D01*
X120102380Y-119213333D02*
X120102380Y-118594285D01*
X120483333Y-118927619D01*
X120483333Y-118784761D01*
X120530952Y-118689523D01*
X120578571Y-118641904D01*
X120673809Y-118594285D01*
X120911904Y-118594285D01*
X121007142Y-118641904D01*
X121054761Y-118689523D01*
X121102380Y-118784761D01*
X121102380Y-119070476D01*
X121054761Y-119165714D01*
X121007142Y-119213333D01*
%TO.C,IC2*%
D14*
X82640238Y-105274523D02*
X82640238Y-104004523D01*
X83970714Y-105153571D02*
X83910238Y-105214047D01*
X83728809Y-105274523D01*
X83607857Y-105274523D01*
X83426428Y-105214047D01*
X83305476Y-105093095D01*
X83245000Y-104972142D01*
X83184523Y-104730238D01*
X83184523Y-104548809D01*
X83245000Y-104306904D01*
X83305476Y-104185952D01*
X83426428Y-104065000D01*
X83607857Y-104004523D01*
X83728809Y-104004523D01*
X83910238Y-104065000D01*
X83970714Y-104125476D01*
X84454523Y-104125476D02*
X84515000Y-104065000D01*
X84635952Y-104004523D01*
X84938333Y-104004523D01*
X85059285Y-104065000D01*
X85119761Y-104125476D01*
X85180238Y-104246428D01*
X85180238Y-104367380D01*
X85119761Y-104548809D01*
X84394047Y-105274523D01*
X85180238Y-105274523D01*
%TO.C,OutAdj1*%
D10*
X125841428Y-115022380D02*
X126031904Y-115022380D01*
X126127142Y-115070000D01*
X126222380Y-115165238D01*
X126270000Y-115355714D01*
X126270000Y-115689047D01*
X126222380Y-115879523D01*
X126127142Y-115974761D01*
X126031904Y-116022380D01*
X125841428Y-116022380D01*
X125746190Y-115974761D01*
X125650952Y-115879523D01*
X125603333Y-115689047D01*
X125603333Y-115355714D01*
X125650952Y-115165238D01*
X125746190Y-115070000D01*
X125841428Y-115022380D01*
X127127142Y-115355714D02*
X127127142Y-116022380D01*
X126698571Y-115355714D02*
X126698571Y-115879523D01*
X126746190Y-115974761D01*
X126841428Y-116022380D01*
X126984285Y-116022380D01*
X127079523Y-115974761D01*
X127127142Y-115927142D01*
X127460476Y-115355714D02*
X127841428Y-115355714D01*
X127603333Y-115022380D02*
X127603333Y-115879523D01*
X127650952Y-115974761D01*
X127746190Y-116022380D01*
X127841428Y-116022380D01*
X128127142Y-115736666D02*
X128603333Y-115736666D01*
X128031904Y-116022380D02*
X128365238Y-115022380D01*
X128698571Y-116022380D01*
X129460476Y-116022380D02*
X129460476Y-115022380D01*
X129460476Y-115974761D02*
X129365238Y-116022380D01*
X129174761Y-116022380D01*
X129079523Y-115974761D01*
X129031904Y-115927142D01*
X128984285Y-115831904D01*
X128984285Y-115546190D01*
X129031904Y-115450952D01*
X129079523Y-115403333D01*
X129174761Y-115355714D01*
X129365238Y-115355714D01*
X129460476Y-115403333D01*
X129936666Y-115355714D02*
X129936666Y-116212857D01*
X129889047Y-116308095D01*
X129793809Y-116355714D01*
X129746190Y-116355714D01*
X129936666Y-115022380D02*
X129889047Y-115070000D01*
X129936666Y-115117619D01*
X129984285Y-115070000D01*
X129936666Y-115022380D01*
X129936666Y-115117619D01*
X130936666Y-116022380D02*
X130365238Y-116022380D01*
X130650952Y-116022380D02*
X130650952Y-115022380D01*
X130555714Y-115165238D01*
X130460476Y-115260476D01*
X130365238Y-115308095D01*
%TO.C,U1*%
X122642380Y-109981904D02*
X123451904Y-109981904D01*
X123547142Y-109934285D01*
X123594761Y-109886666D01*
X123642380Y-109791428D01*
X123642380Y-109600952D01*
X123594761Y-109505714D01*
X123547142Y-109458095D01*
X123451904Y-109410476D01*
X122642380Y-109410476D01*
X123642380Y-108410476D02*
X123642380Y-108981904D01*
X123642380Y-108696190D02*
X122642380Y-108696190D01*
X122785238Y-108791428D01*
X122880476Y-108886666D01*
X122928095Y-108981904D01*
%TO.C,5VADJ1*%
X122642380Y-121356190D02*
X122642380Y-121832380D01*
X123118571Y-121880000D01*
X123070952Y-121832380D01*
X123023333Y-121737142D01*
X123023333Y-121499047D01*
X123070952Y-121403809D01*
X123118571Y-121356190D01*
X123213809Y-121308571D01*
X123451904Y-121308571D01*
X123547142Y-121356190D01*
X123594761Y-121403809D01*
X123642380Y-121499047D01*
X123642380Y-121737142D01*
X123594761Y-121832380D01*
X123547142Y-121880000D01*
X122642380Y-121022857D02*
X123642380Y-120689523D01*
X122642380Y-120356190D01*
X123356666Y-120070476D02*
X123356666Y-119594285D01*
X123642380Y-120165714D02*
X122642380Y-119832380D01*
X123642380Y-119499047D01*
X123642380Y-119165714D02*
X122642380Y-119165714D01*
X122642380Y-118927619D01*
X122690000Y-118784761D01*
X122785238Y-118689523D01*
X122880476Y-118641904D01*
X123070952Y-118594285D01*
X123213809Y-118594285D01*
X123404285Y-118641904D01*
X123499523Y-118689523D01*
X123594761Y-118784761D01*
X123642380Y-118927619D01*
X123642380Y-119165714D01*
X122642380Y-117880000D02*
X123356666Y-117880000D01*
X123499523Y-117927619D01*
X123594761Y-118022857D01*
X123642380Y-118165714D01*
X123642380Y-118260952D01*
X123642380Y-116880000D02*
X123642380Y-117451428D01*
X123642380Y-117165714D02*
X122642380Y-117165714D01*
X122785238Y-117260952D01*
X122880476Y-117356190D01*
X122928095Y-117451428D01*
%TO.C,R2*%
X116673333Y-105862380D02*
X116340000Y-105386190D01*
X116101904Y-105862380D02*
X116101904Y-104862380D01*
X116482857Y-104862380D01*
X116578095Y-104910000D01*
X116625714Y-104957619D01*
X116673333Y-105052857D01*
X116673333Y-105195714D01*
X116625714Y-105290952D01*
X116578095Y-105338571D01*
X116482857Y-105386190D01*
X116101904Y-105386190D01*
X117054285Y-104957619D02*
X117101904Y-104910000D01*
X117197142Y-104862380D01*
X117435238Y-104862380D01*
X117530476Y-104910000D01*
X117578095Y-104957619D01*
X117625714Y-105052857D01*
X117625714Y-105148095D01*
X117578095Y-105290952D01*
X117006666Y-105862380D01*
X117625714Y-105862380D01*
%TD*%
M02*
