%TF.GenerationSoftware,KiCad,Pcbnew,(5.1.9)-1*%
%TF.CreationDate,2021-05-16T10:50:45-07:00*%
%TF.ProjectId,VacuumSensor,56616375-756d-4536-956e-736f722e6b69,rev?*%
%TF.SameCoordinates,Original*%
%TF.FileFunction,Legend,Top*%
%TF.FilePolarity,Positive*%
%FSLAX46Y46*%
G04 Gerber Fmt 4.6, Leading zero omitted, Abs format (unit mm)*
G04 Created by KiCad (PCBNEW (5.1.9)-1) date 2021-05-16 10:50:45*
%MOMM*%
%LPD*%
G01*
G04 APERTURE LIST*
%ADD10C,0.300000*%
%ADD11C,0.150000*%
%ADD12C,0.120000*%
%ADD13C,0.200000*%
%ADD14C,0.100000*%
%ADD15C,0.254000*%
G04 APERTURE END LIST*
D10*
X93733928Y-123868571D02*
X93921428Y-122368571D01*
X94278571Y-122368571D01*
X94483928Y-122440000D01*
X94608928Y-122582857D01*
X94662499Y-122725714D01*
X94698214Y-123011428D01*
X94671428Y-123225714D01*
X94564285Y-123511428D01*
X94474999Y-123654285D01*
X94314285Y-123797142D01*
X94091071Y-123868571D01*
X93733928Y-123868571D01*
X95814285Y-123797142D02*
X95662499Y-123868571D01*
X95376785Y-123868571D01*
X95242857Y-123797142D01*
X95189285Y-123654285D01*
X95260714Y-123082857D01*
X95349999Y-122940000D01*
X95501785Y-122868571D01*
X95787499Y-122868571D01*
X95921428Y-122940000D01*
X95974999Y-123082857D01*
X95957142Y-123225714D01*
X95224999Y-123368571D01*
X96457142Y-123797142D02*
X96591071Y-123868571D01*
X96876785Y-123868571D01*
X97028571Y-123797142D01*
X97117857Y-123654285D01*
X97126785Y-123582857D01*
X97073214Y-123440000D01*
X96939285Y-123368571D01*
X96724999Y-123368571D01*
X96591071Y-123297142D01*
X96537499Y-123154285D01*
X96546428Y-123082857D01*
X96635714Y-122940000D01*
X96787499Y-122868571D01*
X97001785Y-122868571D01*
X97135714Y-122940000D01*
X97733928Y-123868571D02*
X97858928Y-122868571D01*
X97921428Y-122368571D02*
X97841071Y-122440000D01*
X97903571Y-122511428D01*
X97983928Y-122440000D01*
X97921428Y-122368571D01*
X97903571Y-122511428D01*
X99216071Y-122868571D02*
X99064285Y-124082857D01*
X98975000Y-124225714D01*
X98894642Y-124297142D01*
X98742857Y-124368571D01*
X98528571Y-124368571D01*
X98394642Y-124297142D01*
X99099999Y-123797142D02*
X98948214Y-123868571D01*
X98662499Y-123868571D01*
X98528571Y-123797142D01*
X98466071Y-123725714D01*
X98412499Y-123582857D01*
X98466071Y-123154285D01*
X98555357Y-123011428D01*
X98635714Y-122940000D01*
X98787499Y-122868571D01*
X99073214Y-122868571D01*
X99207142Y-122940000D01*
X99930357Y-122868571D02*
X99805357Y-123868571D01*
X99912499Y-123011428D02*
X99992857Y-122940000D01*
X100144642Y-122868571D01*
X100358928Y-122868571D01*
X100492857Y-122940000D01*
X100546428Y-123082857D01*
X100448214Y-123868571D01*
X101742857Y-123797142D02*
X101591071Y-123868571D01*
X101305357Y-123868571D01*
X101171428Y-123797142D01*
X101117857Y-123654285D01*
X101189285Y-123082857D01*
X101278571Y-122940000D01*
X101430357Y-122868571D01*
X101716071Y-122868571D01*
X101850000Y-122940000D01*
X101903571Y-123082857D01*
X101885714Y-123225714D01*
X101153571Y-123368571D01*
X103091071Y-123868571D02*
X103278571Y-122368571D01*
X103100000Y-123797142D02*
X102948214Y-123868571D01*
X102662499Y-123868571D01*
X102528571Y-123797142D01*
X102466071Y-123725714D01*
X102412499Y-123582857D01*
X102466071Y-123154285D01*
X102555357Y-123011428D01*
X102635714Y-122940000D01*
X102787499Y-122868571D01*
X103073214Y-122868571D01*
X103207142Y-122940000D01*
X104948214Y-123868571D02*
X105135714Y-122368571D01*
X105064285Y-122940000D02*
X105216071Y-122868571D01*
X105501785Y-122868571D01*
X105635714Y-122940000D01*
X105698214Y-123011428D01*
X105751785Y-123154285D01*
X105698214Y-123582857D01*
X105608928Y-123725714D01*
X105528571Y-123797142D01*
X105376785Y-123868571D01*
X105091071Y-123868571D01*
X104957142Y-123797142D01*
X106287499Y-122868571D02*
X106519642Y-123868571D01*
X107001785Y-122868571D02*
X106519642Y-123868571D01*
X106332142Y-124225714D01*
X106251785Y-124297142D01*
X106099999Y-124368571D01*
X108564285Y-122368571D02*
X109421428Y-122368571D01*
X108805357Y-123868571D02*
X108992857Y-122368571D01*
X110349999Y-122368571D02*
X110216071Y-123440000D01*
X110117857Y-123654285D01*
X109957142Y-123797142D01*
X109733928Y-123868571D01*
X109591071Y-123868571D01*
X111591071Y-123868571D02*
X110876785Y-123868571D01*
X111064285Y-122368571D01*
X112064285Y-122368571D02*
X112921428Y-122368571D01*
X112305357Y-123868571D02*
X112492857Y-122368571D01*
X113233928Y-123868571D02*
X113421428Y-122368571D01*
X113787499Y-123440000D01*
X114421428Y-122368571D01*
X114233928Y-123868571D01*
X85802857Y-124908571D02*
X86731428Y-124908571D01*
X86231428Y-125480000D01*
X86445714Y-125480000D01*
X86588571Y-125551428D01*
X86660000Y-125622857D01*
X86731428Y-125765714D01*
X86731428Y-126122857D01*
X86660000Y-126265714D01*
X86588571Y-126337142D01*
X86445714Y-126408571D01*
X86017142Y-126408571D01*
X85874285Y-126337142D01*
X85802857Y-126265714D01*
X87660000Y-124908571D02*
X87802857Y-124908571D01*
X87945714Y-124980000D01*
X88017142Y-125051428D01*
X88088571Y-125194285D01*
X88160000Y-125480000D01*
X88160000Y-125837142D01*
X88088571Y-126122857D01*
X88017142Y-126265714D01*
X87945714Y-126337142D01*
X87802857Y-126408571D01*
X87660000Y-126408571D01*
X87517142Y-126337142D01*
X87445714Y-126265714D01*
X87374285Y-126122857D01*
X87302857Y-125837142D01*
X87302857Y-125480000D01*
X87374285Y-125194285D01*
X87445714Y-125051428D01*
X87517142Y-124980000D01*
X87660000Y-124908571D01*
X88802857Y-125408571D02*
X88802857Y-126908571D01*
X88802857Y-125480000D02*
X88945714Y-125408571D01*
X89231428Y-125408571D01*
X89374285Y-125480000D01*
X89445714Y-125551428D01*
X89517142Y-125694285D01*
X89517142Y-126122857D01*
X89445714Y-126265714D01*
X89374285Y-126337142D01*
X89231428Y-126408571D01*
X88945714Y-126408571D01*
X88802857Y-126337142D01*
X90088571Y-126337142D02*
X90231428Y-126408571D01*
X90517142Y-126408571D01*
X90660000Y-126337142D01*
X90731428Y-126194285D01*
X90731428Y-126122857D01*
X90660000Y-125980000D01*
X90517142Y-125908571D01*
X90302857Y-125908571D01*
X90160000Y-125837142D01*
X90088571Y-125694285D01*
X90088571Y-125622857D01*
X90160000Y-125480000D01*
X90302857Y-125408571D01*
X90517142Y-125408571D01*
X90660000Y-125480000D01*
X91374285Y-126408571D02*
X91374285Y-125408571D01*
X91374285Y-124908571D02*
X91302857Y-124980000D01*
X91374285Y-125051428D01*
X91445714Y-124980000D01*
X91374285Y-124908571D01*
X91374285Y-125051428D01*
X93231428Y-125837142D02*
X94374285Y-125837142D01*
X93802857Y-126408571D02*
X93802857Y-125265714D01*
X96160000Y-124837142D02*
X94874285Y-126765714D01*
X96660000Y-125837142D02*
X97802857Y-125837142D01*
X99588571Y-126337142D02*
X99802857Y-126408571D01*
X100160000Y-126408571D01*
X100302857Y-126337142D01*
X100374285Y-126265714D01*
X100445714Y-126122857D01*
X100445714Y-125980000D01*
X100374285Y-125837142D01*
X100302857Y-125765714D01*
X100160000Y-125694285D01*
X99874285Y-125622857D01*
X99731428Y-125551428D01*
X99660000Y-125480000D01*
X99588571Y-125337142D01*
X99588571Y-125194285D01*
X99660000Y-125051428D01*
X99731428Y-124980000D01*
X99874285Y-124908571D01*
X100231428Y-124908571D01*
X100445714Y-124980000D01*
X101660000Y-126337142D02*
X101517142Y-126408571D01*
X101231428Y-126408571D01*
X101088571Y-126337142D01*
X101017142Y-126194285D01*
X101017142Y-125622857D01*
X101088571Y-125480000D01*
X101231428Y-125408571D01*
X101517142Y-125408571D01*
X101660000Y-125480000D01*
X101731428Y-125622857D01*
X101731428Y-125765714D01*
X101017142Y-125908571D01*
X102374285Y-125408571D02*
X102374285Y-126408571D01*
X102374285Y-125551428D02*
X102445714Y-125480000D01*
X102588571Y-125408571D01*
X102802857Y-125408571D01*
X102945714Y-125480000D01*
X103017142Y-125622857D01*
X103017142Y-126408571D01*
X103660000Y-126337142D02*
X103802857Y-126408571D01*
X104088571Y-126408571D01*
X104231428Y-126337142D01*
X104302857Y-126194285D01*
X104302857Y-126122857D01*
X104231428Y-125980000D01*
X104088571Y-125908571D01*
X103874285Y-125908571D01*
X103731428Y-125837142D01*
X103660000Y-125694285D01*
X103660000Y-125622857D01*
X103731428Y-125480000D01*
X103874285Y-125408571D01*
X104088571Y-125408571D01*
X104231428Y-125480000D01*
X105160000Y-126408571D02*
X105017142Y-126337142D01*
X104945714Y-126265714D01*
X104874285Y-126122857D01*
X104874285Y-125694285D01*
X104945714Y-125551428D01*
X105017142Y-125480000D01*
X105160000Y-125408571D01*
X105374285Y-125408571D01*
X105517142Y-125480000D01*
X105588571Y-125551428D01*
X105660000Y-125694285D01*
X105660000Y-126122857D01*
X105588571Y-126265714D01*
X105517142Y-126337142D01*
X105374285Y-126408571D01*
X105160000Y-126408571D01*
X106302857Y-126408571D02*
X106302857Y-125408571D01*
X106302857Y-125694285D02*
X106374285Y-125551428D01*
X106445714Y-125480000D01*
X106588571Y-125408571D01*
X106731428Y-125408571D01*
X108231428Y-125408571D02*
X108588571Y-126408571D01*
X108945714Y-125408571D01*
X110088571Y-126337142D02*
X109945714Y-126408571D01*
X109660000Y-126408571D01*
X109517142Y-126337142D01*
X109445714Y-126194285D01*
X109445714Y-125622857D01*
X109517142Y-125480000D01*
X109660000Y-125408571D01*
X109945714Y-125408571D01*
X110088571Y-125480000D01*
X110160000Y-125622857D01*
X110160000Y-125765714D01*
X109445714Y-125908571D01*
X110802857Y-126408571D02*
X110802857Y-125408571D01*
X110802857Y-125694285D02*
X110874285Y-125551428D01*
X110945714Y-125480000D01*
X111088571Y-125408571D01*
X111231428Y-125408571D01*
X111731428Y-126265714D02*
X111802857Y-126337142D01*
X111731428Y-126408571D01*
X111660000Y-126337142D01*
X111731428Y-126265714D01*
X111731428Y-126408571D01*
X114374285Y-126408571D02*
X113517142Y-126408571D01*
X113945714Y-126408571D02*
X113945714Y-124908571D01*
X113802857Y-125122857D01*
X113660000Y-125265714D01*
X113517142Y-125337142D01*
X115017142Y-126265714D02*
X115088571Y-126337142D01*
X115017142Y-126408571D01*
X114945714Y-126337142D01*
X115017142Y-126265714D01*
X115017142Y-126408571D01*
X116017142Y-124908571D02*
X116160000Y-124908571D01*
X116302857Y-124980000D01*
X116374285Y-125051428D01*
X116445714Y-125194285D01*
X116517142Y-125480000D01*
X116517142Y-125837142D01*
X116445714Y-126122857D01*
X116374285Y-126265714D01*
X116302857Y-126337142D01*
X116160000Y-126408571D01*
X116017142Y-126408571D01*
X115874285Y-126337142D01*
X115802857Y-126265714D01*
X115731428Y-126122857D01*
X115660000Y-125837142D01*
X115660000Y-125480000D01*
X115731428Y-125194285D01*
X115802857Y-125051428D01*
X115874285Y-124980000D01*
X116017142Y-124908571D01*
X117945714Y-126408571D02*
X117088571Y-126408571D01*
X117517142Y-126408571D02*
X117517142Y-124908571D01*
X117374285Y-125122857D01*
X117231428Y-125265714D01*
X117088571Y-125337142D01*
X120445714Y-124908571D02*
X119731428Y-124908571D01*
X119660000Y-125622857D01*
X119731428Y-125551428D01*
X119874285Y-125480000D01*
X120231428Y-125480000D01*
X120374285Y-125551428D01*
X120445714Y-125622857D01*
X120517142Y-125765714D01*
X120517142Y-126122857D01*
X120445714Y-126265714D01*
X120374285Y-126337142D01*
X120231428Y-126408571D01*
X119874285Y-126408571D01*
X119731428Y-126337142D01*
X119660000Y-126265714D01*
X122231428Y-124837142D02*
X120945714Y-126765714D01*
X122660000Y-125051428D02*
X122731428Y-124980000D01*
X122874285Y-124908571D01*
X123231428Y-124908571D01*
X123374285Y-124980000D01*
X123445714Y-125051428D01*
X123517142Y-125194285D01*
X123517142Y-125337142D01*
X123445714Y-125551428D01*
X122588571Y-126408571D01*
X123517142Y-126408571D01*
X124945714Y-126408571D02*
X124088571Y-126408571D01*
X124517142Y-126408571D02*
X124517142Y-124908571D01*
X124374285Y-125122857D01*
X124231428Y-125265714D01*
X124088571Y-125337142D01*
D11*
X100083809Y-80875238D02*
X99940952Y-80827619D01*
X99702857Y-80827619D01*
X99607619Y-80875238D01*
X99560000Y-80922857D01*
X99512380Y-81018095D01*
X99512380Y-81113333D01*
X99560000Y-81208571D01*
X99607619Y-81256190D01*
X99702857Y-81303809D01*
X99893333Y-81351428D01*
X99988571Y-81399047D01*
X100036190Y-81446666D01*
X100083809Y-81541904D01*
X100083809Y-81637142D01*
X100036190Y-81732380D01*
X99988571Y-81780000D01*
X99893333Y-81827619D01*
X99655238Y-81827619D01*
X99512380Y-81780000D01*
X99083809Y-80827619D02*
X99083809Y-81827619D01*
X98083809Y-81780000D02*
X98179047Y-81827619D01*
X98321904Y-81827619D01*
X98464761Y-81780000D01*
X98560000Y-81684761D01*
X98607619Y-81589523D01*
X98655238Y-81399047D01*
X98655238Y-81256190D01*
X98607619Y-81065714D01*
X98560000Y-80970476D01*
X98464761Y-80875238D01*
X98321904Y-80827619D01*
X98226666Y-80827619D01*
X98083809Y-80875238D01*
X98036190Y-80922857D01*
X98036190Y-81256190D01*
X98226666Y-81256190D01*
X105092380Y-81827619D02*
X104759047Y-80827619D01*
X104425714Y-81827619D01*
X104092380Y-81208571D02*
X103330476Y-81208571D01*
X103711428Y-80827619D02*
X103711428Y-81589523D01*
X109981904Y-81780000D02*
X110077142Y-81827619D01*
X110220000Y-81827619D01*
X110362857Y-81780000D01*
X110458095Y-81684761D01*
X110505714Y-81589523D01*
X110553333Y-81399047D01*
X110553333Y-81256190D01*
X110505714Y-81065714D01*
X110458095Y-80970476D01*
X110362857Y-80875238D01*
X110220000Y-80827619D01*
X110124761Y-80827619D01*
X109981904Y-80875238D01*
X109934285Y-80922857D01*
X109934285Y-81256190D01*
X110124761Y-81256190D01*
X109505714Y-80827619D02*
X109505714Y-81827619D01*
X108934285Y-80827619D01*
X108934285Y-81827619D01*
X108458095Y-80827619D02*
X108458095Y-81827619D01*
X108220000Y-81827619D01*
X108077142Y-81780000D01*
X107981904Y-81684761D01*
X107934285Y-81589523D01*
X107886666Y-81399047D01*
X107886666Y-81256190D01*
X107934285Y-81065714D01*
X107981904Y-80970476D01*
X108077142Y-80875238D01*
X108220000Y-80827619D01*
X108458095Y-80827619D01*
D12*
%TO.C,10VSourceAdj1*%
X101720000Y-103124000D02*
G75*
G03*
X101720000Y-103124000I-3930000J0D01*
G01*
%TO.C,C5*%
X125125241Y-106294000D02*
X125125241Y-105664000D01*
X125440241Y-105979000D02*
X124810241Y-105979000D01*
X118699000Y-104542000D02*
X118699000Y-103738000D01*
X118739000Y-104773000D02*
X118739000Y-103507000D01*
X118779000Y-104942000D02*
X118779000Y-103338000D01*
X118819000Y-105080000D02*
X118819000Y-103200000D01*
X118859000Y-105199000D02*
X118859000Y-103081000D01*
X118899000Y-105305000D02*
X118899000Y-102975000D01*
X118939000Y-105402000D02*
X118939000Y-102878000D01*
X118979000Y-105490000D02*
X118979000Y-102790000D01*
X119019000Y-105572000D02*
X119019000Y-102708000D01*
X119059000Y-105649000D02*
X119059000Y-102631000D01*
X119099000Y-105721000D02*
X119099000Y-102559000D01*
X119139000Y-105790000D02*
X119139000Y-102490000D01*
X119179000Y-105854000D02*
X119179000Y-102426000D01*
X119219000Y-105916000D02*
X119219000Y-102364000D01*
X119259000Y-105974000D02*
X119259000Y-102306000D01*
X119299000Y-106030000D02*
X119299000Y-102250000D01*
X119339000Y-106084000D02*
X119339000Y-102196000D01*
X119379000Y-106135000D02*
X119379000Y-102145000D01*
X119419000Y-106184000D02*
X119419000Y-102096000D01*
X119459000Y-106232000D02*
X119459000Y-102048000D01*
X119499000Y-106277000D02*
X119499000Y-102003000D01*
X119539000Y-106322000D02*
X119539000Y-101958000D01*
X119579000Y-106364000D02*
X119579000Y-101916000D01*
X119619000Y-106405000D02*
X119619000Y-101875000D01*
X119659000Y-103100000D02*
X119659000Y-101835000D01*
X119659000Y-106445000D02*
X119659000Y-105180000D01*
X119699000Y-103100000D02*
X119699000Y-101797000D01*
X119699000Y-106483000D02*
X119699000Y-105180000D01*
X119739000Y-103100000D02*
X119739000Y-101760000D01*
X119739000Y-106520000D02*
X119739000Y-105180000D01*
X119779000Y-103100000D02*
X119779000Y-101724000D01*
X119779000Y-106556000D02*
X119779000Y-105180000D01*
X119819000Y-103100000D02*
X119819000Y-101690000D01*
X119819000Y-106590000D02*
X119819000Y-105180000D01*
X119859000Y-103100000D02*
X119859000Y-101656000D01*
X119859000Y-106624000D02*
X119859000Y-105180000D01*
X119899000Y-103100000D02*
X119899000Y-101624000D01*
X119899000Y-106656000D02*
X119899000Y-105180000D01*
X119939000Y-103100000D02*
X119939000Y-101592000D01*
X119939000Y-106688000D02*
X119939000Y-105180000D01*
X119979000Y-103100000D02*
X119979000Y-101562000D01*
X119979000Y-106718000D02*
X119979000Y-105180000D01*
X120019000Y-103100000D02*
X120019000Y-101533000D01*
X120019000Y-106747000D02*
X120019000Y-105180000D01*
X120059000Y-103100000D02*
X120059000Y-101504000D01*
X120059000Y-106776000D02*
X120059000Y-105180000D01*
X120099000Y-103100000D02*
X120099000Y-101476000D01*
X120099000Y-106804000D02*
X120099000Y-105180000D01*
X120139000Y-103100000D02*
X120139000Y-101450000D01*
X120139000Y-106830000D02*
X120139000Y-105180000D01*
X120179000Y-103100000D02*
X120179000Y-101424000D01*
X120179000Y-106856000D02*
X120179000Y-105180000D01*
X120219000Y-103100000D02*
X120219000Y-101398000D01*
X120219000Y-106882000D02*
X120219000Y-105180000D01*
X120259000Y-103100000D02*
X120259000Y-101374000D01*
X120259000Y-106906000D02*
X120259000Y-105180000D01*
X120299000Y-103100000D02*
X120299000Y-101350000D01*
X120299000Y-106930000D02*
X120299000Y-105180000D01*
X120339000Y-103100000D02*
X120339000Y-101328000D01*
X120339000Y-106952000D02*
X120339000Y-105180000D01*
X120379000Y-103100000D02*
X120379000Y-101306000D01*
X120379000Y-106974000D02*
X120379000Y-105180000D01*
X120419000Y-103100000D02*
X120419000Y-101284000D01*
X120419000Y-106996000D02*
X120419000Y-105180000D01*
X120459000Y-103100000D02*
X120459000Y-101264000D01*
X120459000Y-107016000D02*
X120459000Y-105180000D01*
X120499000Y-103100000D02*
X120499000Y-101244000D01*
X120499000Y-107036000D02*
X120499000Y-105180000D01*
X120539000Y-103100000D02*
X120539000Y-101224000D01*
X120539000Y-107056000D02*
X120539000Y-105180000D01*
X120579000Y-103100000D02*
X120579000Y-101206000D01*
X120579000Y-107074000D02*
X120579000Y-105180000D01*
X120619000Y-103100000D02*
X120619000Y-101188000D01*
X120619000Y-107092000D02*
X120619000Y-105180000D01*
X120659000Y-103100000D02*
X120659000Y-101170000D01*
X120659000Y-107110000D02*
X120659000Y-105180000D01*
X120699000Y-103100000D02*
X120699000Y-101154000D01*
X120699000Y-107126000D02*
X120699000Y-105180000D01*
X120739000Y-103100000D02*
X120739000Y-101138000D01*
X120739000Y-107142000D02*
X120739000Y-105180000D01*
X120779000Y-103100000D02*
X120779000Y-101122000D01*
X120779000Y-107158000D02*
X120779000Y-105180000D01*
X120819000Y-103100000D02*
X120819000Y-101107000D01*
X120819000Y-107173000D02*
X120819000Y-105180000D01*
X120859000Y-103100000D02*
X120859000Y-101093000D01*
X120859000Y-107187000D02*
X120859000Y-105180000D01*
X120899000Y-103100000D02*
X120899000Y-101079000D01*
X120899000Y-107201000D02*
X120899000Y-105180000D01*
X120939000Y-103100000D02*
X120939000Y-101066000D01*
X120939000Y-107214000D02*
X120939000Y-105180000D01*
X120979000Y-103100000D02*
X120979000Y-101054000D01*
X120979000Y-107226000D02*
X120979000Y-105180000D01*
X121019000Y-103100000D02*
X121019000Y-101042000D01*
X121019000Y-107238000D02*
X121019000Y-105180000D01*
X121059000Y-103100000D02*
X121059000Y-101030000D01*
X121059000Y-107250000D02*
X121059000Y-105180000D01*
X121099000Y-103100000D02*
X121099000Y-101019000D01*
X121099000Y-107261000D02*
X121099000Y-105180000D01*
X121139000Y-103100000D02*
X121139000Y-101009000D01*
X121139000Y-107271000D02*
X121139000Y-105180000D01*
X121179000Y-103100000D02*
X121179000Y-100999000D01*
X121179000Y-107281000D02*
X121179000Y-105180000D01*
X121219000Y-103100000D02*
X121219000Y-100990000D01*
X121219000Y-107290000D02*
X121219000Y-105180000D01*
X121260000Y-103100000D02*
X121260000Y-100981000D01*
X121260000Y-107299000D02*
X121260000Y-105180000D01*
X121300000Y-103100000D02*
X121300000Y-100973000D01*
X121300000Y-107307000D02*
X121300000Y-105180000D01*
X121340000Y-103100000D02*
X121340000Y-100965000D01*
X121340000Y-107315000D02*
X121340000Y-105180000D01*
X121380000Y-103100000D02*
X121380000Y-100958000D01*
X121380000Y-107322000D02*
X121380000Y-105180000D01*
X121420000Y-103100000D02*
X121420000Y-100951000D01*
X121420000Y-107329000D02*
X121420000Y-105180000D01*
X121460000Y-103100000D02*
X121460000Y-100945000D01*
X121460000Y-107335000D02*
X121460000Y-105180000D01*
X121500000Y-103100000D02*
X121500000Y-100939000D01*
X121500000Y-107341000D02*
X121500000Y-105180000D01*
X121540000Y-103100000D02*
X121540000Y-100934000D01*
X121540000Y-107346000D02*
X121540000Y-105180000D01*
X121580000Y-103100000D02*
X121580000Y-100929000D01*
X121580000Y-107351000D02*
X121580000Y-105180000D01*
X121620000Y-103100000D02*
X121620000Y-100925000D01*
X121620000Y-107355000D02*
X121620000Y-105180000D01*
X121660000Y-103100000D02*
X121660000Y-100922000D01*
X121660000Y-107358000D02*
X121660000Y-105180000D01*
X121700000Y-103100000D02*
X121700000Y-100918000D01*
X121700000Y-107362000D02*
X121700000Y-105180000D01*
X121740000Y-107364000D02*
X121740000Y-100916000D01*
X121780000Y-107367000D02*
X121780000Y-100913000D01*
X121820000Y-107368000D02*
X121820000Y-100912000D01*
X121860000Y-107370000D02*
X121860000Y-100910000D01*
X121900000Y-107370000D02*
X121900000Y-100910000D01*
X121940000Y-107370000D02*
X121940000Y-100910000D01*
X125210000Y-104140000D02*
G75*
G03*
X125210000Y-104140000I-3270000J0D01*
G01*
%TO.C,C3*%
X109824759Y-101986000D02*
X109824759Y-102616000D01*
X109509759Y-102301000D02*
X110139759Y-102301000D01*
X116251000Y-103738000D02*
X116251000Y-104542000D01*
X116211000Y-103507000D02*
X116211000Y-104773000D01*
X116171000Y-103338000D02*
X116171000Y-104942000D01*
X116131000Y-103200000D02*
X116131000Y-105080000D01*
X116091000Y-103081000D02*
X116091000Y-105199000D01*
X116051000Y-102975000D02*
X116051000Y-105305000D01*
X116011000Y-102878000D02*
X116011000Y-105402000D01*
X115971000Y-102790000D02*
X115971000Y-105490000D01*
X115931000Y-102708000D02*
X115931000Y-105572000D01*
X115891000Y-102631000D02*
X115891000Y-105649000D01*
X115851000Y-102559000D02*
X115851000Y-105721000D01*
X115811000Y-102490000D02*
X115811000Y-105790000D01*
X115771000Y-102426000D02*
X115771000Y-105854000D01*
X115731000Y-102364000D02*
X115731000Y-105916000D01*
X115691000Y-102306000D02*
X115691000Y-105974000D01*
X115651000Y-102250000D02*
X115651000Y-106030000D01*
X115611000Y-102196000D02*
X115611000Y-106084000D01*
X115571000Y-102145000D02*
X115571000Y-106135000D01*
X115531000Y-102096000D02*
X115531000Y-106184000D01*
X115491000Y-102048000D02*
X115491000Y-106232000D01*
X115451000Y-102003000D02*
X115451000Y-106277000D01*
X115411000Y-101958000D02*
X115411000Y-106322000D01*
X115371000Y-101916000D02*
X115371000Y-106364000D01*
X115331000Y-101875000D02*
X115331000Y-106405000D01*
X115291000Y-105180000D02*
X115291000Y-106445000D01*
X115291000Y-101835000D02*
X115291000Y-103100000D01*
X115251000Y-105180000D02*
X115251000Y-106483000D01*
X115251000Y-101797000D02*
X115251000Y-103100000D01*
X115211000Y-105180000D02*
X115211000Y-106520000D01*
X115211000Y-101760000D02*
X115211000Y-103100000D01*
X115171000Y-105180000D02*
X115171000Y-106556000D01*
X115171000Y-101724000D02*
X115171000Y-103100000D01*
X115131000Y-105180000D02*
X115131000Y-106590000D01*
X115131000Y-101690000D02*
X115131000Y-103100000D01*
X115091000Y-105180000D02*
X115091000Y-106624000D01*
X115091000Y-101656000D02*
X115091000Y-103100000D01*
X115051000Y-105180000D02*
X115051000Y-106656000D01*
X115051000Y-101624000D02*
X115051000Y-103100000D01*
X115011000Y-105180000D02*
X115011000Y-106688000D01*
X115011000Y-101592000D02*
X115011000Y-103100000D01*
X114971000Y-105180000D02*
X114971000Y-106718000D01*
X114971000Y-101562000D02*
X114971000Y-103100000D01*
X114931000Y-105180000D02*
X114931000Y-106747000D01*
X114931000Y-101533000D02*
X114931000Y-103100000D01*
X114891000Y-105180000D02*
X114891000Y-106776000D01*
X114891000Y-101504000D02*
X114891000Y-103100000D01*
X114851000Y-105180000D02*
X114851000Y-106804000D01*
X114851000Y-101476000D02*
X114851000Y-103100000D01*
X114811000Y-105180000D02*
X114811000Y-106830000D01*
X114811000Y-101450000D02*
X114811000Y-103100000D01*
X114771000Y-105180000D02*
X114771000Y-106856000D01*
X114771000Y-101424000D02*
X114771000Y-103100000D01*
X114731000Y-105180000D02*
X114731000Y-106882000D01*
X114731000Y-101398000D02*
X114731000Y-103100000D01*
X114691000Y-105180000D02*
X114691000Y-106906000D01*
X114691000Y-101374000D02*
X114691000Y-103100000D01*
X114651000Y-105180000D02*
X114651000Y-106930000D01*
X114651000Y-101350000D02*
X114651000Y-103100000D01*
X114611000Y-105180000D02*
X114611000Y-106952000D01*
X114611000Y-101328000D02*
X114611000Y-103100000D01*
X114571000Y-105180000D02*
X114571000Y-106974000D01*
X114571000Y-101306000D02*
X114571000Y-103100000D01*
X114531000Y-105180000D02*
X114531000Y-106996000D01*
X114531000Y-101284000D02*
X114531000Y-103100000D01*
X114491000Y-105180000D02*
X114491000Y-107016000D01*
X114491000Y-101264000D02*
X114491000Y-103100000D01*
X114451000Y-105180000D02*
X114451000Y-107036000D01*
X114451000Y-101244000D02*
X114451000Y-103100000D01*
X114411000Y-105180000D02*
X114411000Y-107056000D01*
X114411000Y-101224000D02*
X114411000Y-103100000D01*
X114371000Y-105180000D02*
X114371000Y-107074000D01*
X114371000Y-101206000D02*
X114371000Y-103100000D01*
X114331000Y-105180000D02*
X114331000Y-107092000D01*
X114331000Y-101188000D02*
X114331000Y-103100000D01*
X114291000Y-105180000D02*
X114291000Y-107110000D01*
X114291000Y-101170000D02*
X114291000Y-103100000D01*
X114251000Y-105180000D02*
X114251000Y-107126000D01*
X114251000Y-101154000D02*
X114251000Y-103100000D01*
X114211000Y-105180000D02*
X114211000Y-107142000D01*
X114211000Y-101138000D02*
X114211000Y-103100000D01*
X114171000Y-105180000D02*
X114171000Y-107158000D01*
X114171000Y-101122000D02*
X114171000Y-103100000D01*
X114131000Y-105180000D02*
X114131000Y-107173000D01*
X114131000Y-101107000D02*
X114131000Y-103100000D01*
X114091000Y-105180000D02*
X114091000Y-107187000D01*
X114091000Y-101093000D02*
X114091000Y-103100000D01*
X114051000Y-105180000D02*
X114051000Y-107201000D01*
X114051000Y-101079000D02*
X114051000Y-103100000D01*
X114011000Y-105180000D02*
X114011000Y-107214000D01*
X114011000Y-101066000D02*
X114011000Y-103100000D01*
X113971000Y-105180000D02*
X113971000Y-107226000D01*
X113971000Y-101054000D02*
X113971000Y-103100000D01*
X113931000Y-105180000D02*
X113931000Y-107238000D01*
X113931000Y-101042000D02*
X113931000Y-103100000D01*
X113891000Y-105180000D02*
X113891000Y-107250000D01*
X113891000Y-101030000D02*
X113891000Y-103100000D01*
X113851000Y-105180000D02*
X113851000Y-107261000D01*
X113851000Y-101019000D02*
X113851000Y-103100000D01*
X113811000Y-105180000D02*
X113811000Y-107271000D01*
X113811000Y-101009000D02*
X113811000Y-103100000D01*
X113771000Y-105180000D02*
X113771000Y-107281000D01*
X113771000Y-100999000D02*
X113771000Y-103100000D01*
X113731000Y-105180000D02*
X113731000Y-107290000D01*
X113731000Y-100990000D02*
X113731000Y-103100000D01*
X113690000Y-105180000D02*
X113690000Y-107299000D01*
X113690000Y-100981000D02*
X113690000Y-103100000D01*
X113650000Y-105180000D02*
X113650000Y-107307000D01*
X113650000Y-100973000D02*
X113650000Y-103100000D01*
X113610000Y-105180000D02*
X113610000Y-107315000D01*
X113610000Y-100965000D02*
X113610000Y-103100000D01*
X113570000Y-105180000D02*
X113570000Y-107322000D01*
X113570000Y-100958000D02*
X113570000Y-103100000D01*
X113530000Y-105180000D02*
X113530000Y-107329000D01*
X113530000Y-100951000D02*
X113530000Y-103100000D01*
X113490000Y-105180000D02*
X113490000Y-107335000D01*
X113490000Y-100945000D02*
X113490000Y-103100000D01*
X113450000Y-105180000D02*
X113450000Y-107341000D01*
X113450000Y-100939000D02*
X113450000Y-103100000D01*
X113410000Y-105180000D02*
X113410000Y-107346000D01*
X113410000Y-100934000D02*
X113410000Y-103100000D01*
X113370000Y-105180000D02*
X113370000Y-107351000D01*
X113370000Y-100929000D02*
X113370000Y-103100000D01*
X113330000Y-105180000D02*
X113330000Y-107355000D01*
X113330000Y-100925000D02*
X113330000Y-103100000D01*
X113290000Y-105180000D02*
X113290000Y-107358000D01*
X113290000Y-100922000D02*
X113290000Y-103100000D01*
X113250000Y-105180000D02*
X113250000Y-107362000D01*
X113250000Y-100918000D02*
X113250000Y-103100000D01*
X113210000Y-100916000D02*
X113210000Y-107364000D01*
X113170000Y-100913000D02*
X113170000Y-107367000D01*
X113130000Y-100912000D02*
X113130000Y-107368000D01*
X113090000Y-100910000D02*
X113090000Y-107370000D01*
X113050000Y-100910000D02*
X113050000Y-107370000D01*
X113010000Y-100910000D02*
X113010000Y-107370000D01*
X116280000Y-104140000D02*
G75*
G03*
X116280000Y-104140000I-3270000J0D01*
G01*
%TO.C,TP1*%
X98990000Y-110420000D02*
X96590000Y-110420000D01*
X98990000Y-108020000D02*
X98990000Y-110420000D01*
X96590000Y-108020000D02*
X98990000Y-108020000D01*
X96590000Y-110420000D02*
X96590000Y-108020000D01*
%TO.C,J2*%
X92650000Y-92770000D02*
X95310000Y-92770000D01*
X92650000Y-90170000D02*
X92650000Y-92770000D01*
X95310000Y-90170000D02*
X95310000Y-92770000D01*
X92650000Y-90170000D02*
X95310000Y-90170000D01*
X92650000Y-88900000D02*
X92650000Y-87570000D01*
X92650000Y-87570000D02*
X93980000Y-87570000D01*
D13*
%TO.C,D1*%
X129622000Y-98138000D02*
X129622000Y-93502000D01*
X129622000Y-93502000D02*
X131998000Y-93502000D01*
X131998000Y-93502000D02*
X131998000Y-98138000D01*
X131998000Y-98138000D02*
X129622000Y-98138000D01*
X130810000Y-98138000D02*
X129622000Y-96950000D01*
X130810000Y-101732000D02*
X130810000Y-98138000D01*
X130810000Y-93502000D02*
X130810000Y-89908000D01*
D12*
%TO.C,C8*%
X113380000Y-119380000D02*
G75*
G03*
X113380000Y-119380000I-2620000J0D01*
G01*
X110760000Y-118340000D02*
X110760000Y-116800000D01*
X110760000Y-121960000D02*
X110760000Y-120420000D01*
X110720000Y-118340000D02*
X110720000Y-116800000D01*
X110720000Y-121960000D02*
X110720000Y-120420000D01*
X110680000Y-121959000D02*
X110680000Y-120420000D01*
X110680000Y-118340000D02*
X110680000Y-116801000D01*
X110640000Y-121958000D02*
X110640000Y-120420000D01*
X110640000Y-118340000D02*
X110640000Y-116802000D01*
X110600000Y-121956000D02*
X110600000Y-120420000D01*
X110600000Y-118340000D02*
X110600000Y-116804000D01*
X110560000Y-121953000D02*
X110560000Y-120420000D01*
X110560000Y-118340000D02*
X110560000Y-116807000D01*
X110520000Y-121949000D02*
X110520000Y-120420000D01*
X110520000Y-118340000D02*
X110520000Y-116811000D01*
X110480000Y-121945000D02*
X110480000Y-120420000D01*
X110480000Y-118340000D02*
X110480000Y-116815000D01*
X110440000Y-121941000D02*
X110440000Y-120420000D01*
X110440000Y-118340000D02*
X110440000Y-116819000D01*
X110400000Y-121936000D02*
X110400000Y-120420000D01*
X110400000Y-118340000D02*
X110400000Y-116824000D01*
X110360000Y-121930000D02*
X110360000Y-120420000D01*
X110360000Y-118340000D02*
X110360000Y-116830000D01*
X110320000Y-121923000D02*
X110320000Y-120420000D01*
X110320000Y-118340000D02*
X110320000Y-116837000D01*
X110280000Y-121916000D02*
X110280000Y-120420000D01*
X110280000Y-118340000D02*
X110280000Y-116844000D01*
X110240000Y-121908000D02*
X110240000Y-120420000D01*
X110240000Y-118340000D02*
X110240000Y-116852000D01*
X110200000Y-121900000D02*
X110200000Y-120420000D01*
X110200000Y-118340000D02*
X110200000Y-116860000D01*
X110160000Y-121891000D02*
X110160000Y-120420000D01*
X110160000Y-118340000D02*
X110160000Y-116869000D01*
X110120000Y-121881000D02*
X110120000Y-120420000D01*
X110120000Y-118340000D02*
X110120000Y-116879000D01*
X110080000Y-121871000D02*
X110080000Y-120420000D01*
X110080000Y-118340000D02*
X110080000Y-116889000D01*
X110039000Y-121860000D02*
X110039000Y-120420000D01*
X110039000Y-118340000D02*
X110039000Y-116900000D01*
X109999000Y-121848000D02*
X109999000Y-120420000D01*
X109999000Y-118340000D02*
X109999000Y-116912000D01*
X109959000Y-121835000D02*
X109959000Y-120420000D01*
X109959000Y-118340000D02*
X109959000Y-116925000D01*
X109919000Y-121822000D02*
X109919000Y-120420000D01*
X109919000Y-118340000D02*
X109919000Y-116938000D01*
X109879000Y-121808000D02*
X109879000Y-120420000D01*
X109879000Y-118340000D02*
X109879000Y-116952000D01*
X109839000Y-121794000D02*
X109839000Y-120420000D01*
X109839000Y-118340000D02*
X109839000Y-116966000D01*
X109799000Y-121778000D02*
X109799000Y-120420000D01*
X109799000Y-118340000D02*
X109799000Y-116982000D01*
X109759000Y-121762000D02*
X109759000Y-120420000D01*
X109759000Y-118340000D02*
X109759000Y-116998000D01*
X109719000Y-121745000D02*
X109719000Y-120420000D01*
X109719000Y-118340000D02*
X109719000Y-117015000D01*
X109679000Y-121728000D02*
X109679000Y-120420000D01*
X109679000Y-118340000D02*
X109679000Y-117032000D01*
X109639000Y-121709000D02*
X109639000Y-120420000D01*
X109639000Y-118340000D02*
X109639000Y-117051000D01*
X109599000Y-121690000D02*
X109599000Y-120420000D01*
X109599000Y-118340000D02*
X109599000Y-117070000D01*
X109559000Y-121670000D02*
X109559000Y-120420000D01*
X109559000Y-118340000D02*
X109559000Y-117090000D01*
X109519000Y-121648000D02*
X109519000Y-120420000D01*
X109519000Y-118340000D02*
X109519000Y-117112000D01*
X109479000Y-121627000D02*
X109479000Y-120420000D01*
X109479000Y-118340000D02*
X109479000Y-117133000D01*
X109439000Y-121604000D02*
X109439000Y-120420000D01*
X109439000Y-118340000D02*
X109439000Y-117156000D01*
X109399000Y-121580000D02*
X109399000Y-120420000D01*
X109399000Y-118340000D02*
X109399000Y-117180000D01*
X109359000Y-121555000D02*
X109359000Y-120420000D01*
X109359000Y-118340000D02*
X109359000Y-117205000D01*
X109319000Y-121529000D02*
X109319000Y-120420000D01*
X109319000Y-118340000D02*
X109319000Y-117231000D01*
X109279000Y-121502000D02*
X109279000Y-120420000D01*
X109279000Y-118340000D02*
X109279000Y-117258000D01*
X109239000Y-121475000D02*
X109239000Y-120420000D01*
X109239000Y-118340000D02*
X109239000Y-117285000D01*
X109199000Y-121445000D02*
X109199000Y-120420000D01*
X109199000Y-118340000D02*
X109199000Y-117315000D01*
X109159000Y-121415000D02*
X109159000Y-120420000D01*
X109159000Y-118340000D02*
X109159000Y-117345000D01*
X109119000Y-121384000D02*
X109119000Y-120420000D01*
X109119000Y-118340000D02*
X109119000Y-117376000D01*
X109079000Y-121351000D02*
X109079000Y-120420000D01*
X109079000Y-118340000D02*
X109079000Y-117409000D01*
X109039000Y-121317000D02*
X109039000Y-120420000D01*
X109039000Y-118340000D02*
X109039000Y-117443000D01*
X108999000Y-121281000D02*
X108999000Y-120420000D01*
X108999000Y-118340000D02*
X108999000Y-117479000D01*
X108959000Y-121244000D02*
X108959000Y-120420000D01*
X108959000Y-118340000D02*
X108959000Y-117516000D01*
X108919000Y-121206000D02*
X108919000Y-120420000D01*
X108919000Y-118340000D02*
X108919000Y-117554000D01*
X108879000Y-121165000D02*
X108879000Y-120420000D01*
X108879000Y-118340000D02*
X108879000Y-117595000D01*
X108839000Y-121123000D02*
X108839000Y-120420000D01*
X108839000Y-118340000D02*
X108839000Y-117637000D01*
X108799000Y-121079000D02*
X108799000Y-120420000D01*
X108799000Y-118340000D02*
X108799000Y-117681000D01*
X108759000Y-121033000D02*
X108759000Y-120420000D01*
X108759000Y-118340000D02*
X108759000Y-117727000D01*
X108719000Y-120985000D02*
X108719000Y-117775000D01*
X108679000Y-120934000D02*
X108679000Y-117826000D01*
X108639000Y-120880000D02*
X108639000Y-117880000D01*
X108599000Y-120823000D02*
X108599000Y-117937000D01*
X108559000Y-120763000D02*
X108559000Y-117997000D01*
X108519000Y-120699000D02*
X108519000Y-118061000D01*
X108479000Y-120631000D02*
X108479000Y-118129000D01*
X108439000Y-120558000D02*
X108439000Y-118202000D01*
X108399000Y-120478000D02*
X108399000Y-118282000D01*
X108359000Y-120391000D02*
X108359000Y-118369000D01*
X108319000Y-120295000D02*
X108319000Y-118465000D01*
X108279000Y-120185000D02*
X108279000Y-118575000D01*
X108239000Y-120057000D02*
X108239000Y-118703000D01*
X108199000Y-119898000D02*
X108199000Y-118862000D01*
X108159000Y-119664000D02*
X108159000Y-119096000D01*
X113564775Y-120855000D02*
X113064775Y-120855000D01*
X113314775Y-121105000D02*
X113314775Y-120605000D01*
%TO.C,C6*%
X131160000Y-109220000D02*
G75*
G03*
X131160000Y-109220000I-2620000J0D01*
G01*
X128540000Y-108180000D02*
X128540000Y-106640000D01*
X128540000Y-111800000D02*
X128540000Y-110260000D01*
X128500000Y-108180000D02*
X128500000Y-106640000D01*
X128500000Y-111800000D02*
X128500000Y-110260000D01*
X128460000Y-111799000D02*
X128460000Y-110260000D01*
X128460000Y-108180000D02*
X128460000Y-106641000D01*
X128420000Y-111798000D02*
X128420000Y-110260000D01*
X128420000Y-108180000D02*
X128420000Y-106642000D01*
X128380000Y-111796000D02*
X128380000Y-110260000D01*
X128380000Y-108180000D02*
X128380000Y-106644000D01*
X128340000Y-111793000D02*
X128340000Y-110260000D01*
X128340000Y-108180000D02*
X128340000Y-106647000D01*
X128300000Y-111789000D02*
X128300000Y-110260000D01*
X128300000Y-108180000D02*
X128300000Y-106651000D01*
X128260000Y-111785000D02*
X128260000Y-110260000D01*
X128260000Y-108180000D02*
X128260000Y-106655000D01*
X128220000Y-111781000D02*
X128220000Y-110260000D01*
X128220000Y-108180000D02*
X128220000Y-106659000D01*
X128180000Y-111776000D02*
X128180000Y-110260000D01*
X128180000Y-108180000D02*
X128180000Y-106664000D01*
X128140000Y-111770000D02*
X128140000Y-110260000D01*
X128140000Y-108180000D02*
X128140000Y-106670000D01*
X128100000Y-111763000D02*
X128100000Y-110260000D01*
X128100000Y-108180000D02*
X128100000Y-106677000D01*
X128060000Y-111756000D02*
X128060000Y-110260000D01*
X128060000Y-108180000D02*
X128060000Y-106684000D01*
X128020000Y-111748000D02*
X128020000Y-110260000D01*
X128020000Y-108180000D02*
X128020000Y-106692000D01*
X127980000Y-111740000D02*
X127980000Y-110260000D01*
X127980000Y-108180000D02*
X127980000Y-106700000D01*
X127940000Y-111731000D02*
X127940000Y-110260000D01*
X127940000Y-108180000D02*
X127940000Y-106709000D01*
X127900000Y-111721000D02*
X127900000Y-110260000D01*
X127900000Y-108180000D02*
X127900000Y-106719000D01*
X127860000Y-111711000D02*
X127860000Y-110260000D01*
X127860000Y-108180000D02*
X127860000Y-106729000D01*
X127819000Y-111700000D02*
X127819000Y-110260000D01*
X127819000Y-108180000D02*
X127819000Y-106740000D01*
X127779000Y-111688000D02*
X127779000Y-110260000D01*
X127779000Y-108180000D02*
X127779000Y-106752000D01*
X127739000Y-111675000D02*
X127739000Y-110260000D01*
X127739000Y-108180000D02*
X127739000Y-106765000D01*
X127699000Y-111662000D02*
X127699000Y-110260000D01*
X127699000Y-108180000D02*
X127699000Y-106778000D01*
X127659000Y-111648000D02*
X127659000Y-110260000D01*
X127659000Y-108180000D02*
X127659000Y-106792000D01*
X127619000Y-111634000D02*
X127619000Y-110260000D01*
X127619000Y-108180000D02*
X127619000Y-106806000D01*
X127579000Y-111618000D02*
X127579000Y-110260000D01*
X127579000Y-108180000D02*
X127579000Y-106822000D01*
X127539000Y-111602000D02*
X127539000Y-110260000D01*
X127539000Y-108180000D02*
X127539000Y-106838000D01*
X127499000Y-111585000D02*
X127499000Y-110260000D01*
X127499000Y-108180000D02*
X127499000Y-106855000D01*
X127459000Y-111568000D02*
X127459000Y-110260000D01*
X127459000Y-108180000D02*
X127459000Y-106872000D01*
X127419000Y-111549000D02*
X127419000Y-110260000D01*
X127419000Y-108180000D02*
X127419000Y-106891000D01*
X127379000Y-111530000D02*
X127379000Y-110260000D01*
X127379000Y-108180000D02*
X127379000Y-106910000D01*
X127339000Y-111510000D02*
X127339000Y-110260000D01*
X127339000Y-108180000D02*
X127339000Y-106930000D01*
X127299000Y-111488000D02*
X127299000Y-110260000D01*
X127299000Y-108180000D02*
X127299000Y-106952000D01*
X127259000Y-111467000D02*
X127259000Y-110260000D01*
X127259000Y-108180000D02*
X127259000Y-106973000D01*
X127219000Y-111444000D02*
X127219000Y-110260000D01*
X127219000Y-108180000D02*
X127219000Y-106996000D01*
X127179000Y-111420000D02*
X127179000Y-110260000D01*
X127179000Y-108180000D02*
X127179000Y-107020000D01*
X127139000Y-111395000D02*
X127139000Y-110260000D01*
X127139000Y-108180000D02*
X127139000Y-107045000D01*
X127099000Y-111369000D02*
X127099000Y-110260000D01*
X127099000Y-108180000D02*
X127099000Y-107071000D01*
X127059000Y-111342000D02*
X127059000Y-110260000D01*
X127059000Y-108180000D02*
X127059000Y-107098000D01*
X127019000Y-111315000D02*
X127019000Y-110260000D01*
X127019000Y-108180000D02*
X127019000Y-107125000D01*
X126979000Y-111285000D02*
X126979000Y-110260000D01*
X126979000Y-108180000D02*
X126979000Y-107155000D01*
X126939000Y-111255000D02*
X126939000Y-110260000D01*
X126939000Y-108180000D02*
X126939000Y-107185000D01*
X126899000Y-111224000D02*
X126899000Y-110260000D01*
X126899000Y-108180000D02*
X126899000Y-107216000D01*
X126859000Y-111191000D02*
X126859000Y-110260000D01*
X126859000Y-108180000D02*
X126859000Y-107249000D01*
X126819000Y-111157000D02*
X126819000Y-110260000D01*
X126819000Y-108180000D02*
X126819000Y-107283000D01*
X126779000Y-111121000D02*
X126779000Y-110260000D01*
X126779000Y-108180000D02*
X126779000Y-107319000D01*
X126739000Y-111084000D02*
X126739000Y-110260000D01*
X126739000Y-108180000D02*
X126739000Y-107356000D01*
X126699000Y-111046000D02*
X126699000Y-110260000D01*
X126699000Y-108180000D02*
X126699000Y-107394000D01*
X126659000Y-111005000D02*
X126659000Y-110260000D01*
X126659000Y-108180000D02*
X126659000Y-107435000D01*
X126619000Y-110963000D02*
X126619000Y-110260000D01*
X126619000Y-108180000D02*
X126619000Y-107477000D01*
X126579000Y-110919000D02*
X126579000Y-110260000D01*
X126579000Y-108180000D02*
X126579000Y-107521000D01*
X126539000Y-110873000D02*
X126539000Y-110260000D01*
X126539000Y-108180000D02*
X126539000Y-107567000D01*
X126499000Y-110825000D02*
X126499000Y-107615000D01*
X126459000Y-110774000D02*
X126459000Y-107666000D01*
X126419000Y-110720000D02*
X126419000Y-107720000D01*
X126379000Y-110663000D02*
X126379000Y-107777000D01*
X126339000Y-110603000D02*
X126339000Y-107837000D01*
X126299000Y-110539000D02*
X126299000Y-107901000D01*
X126259000Y-110471000D02*
X126259000Y-107969000D01*
X126219000Y-110398000D02*
X126219000Y-108042000D01*
X126179000Y-110318000D02*
X126179000Y-108122000D01*
X126139000Y-110231000D02*
X126139000Y-108209000D01*
X126099000Y-110135000D02*
X126099000Y-108305000D01*
X126059000Y-110025000D02*
X126059000Y-108415000D01*
X126019000Y-109897000D02*
X126019000Y-108543000D01*
X125979000Y-109738000D02*
X125979000Y-108702000D01*
X125939000Y-109504000D02*
X125939000Y-108936000D01*
X131344775Y-110695000D02*
X130844775Y-110695000D01*
X131094775Y-110945000D02*
X131094775Y-110445000D01*
%TO.C,L1*%
X116610000Y-87680000D02*
X116610000Y-90120000D01*
X116610000Y-90120000D02*
X122150000Y-90120000D01*
X122150000Y-90120000D02*
X122150000Y-87680000D01*
X122150000Y-87680000D02*
X116610000Y-87680000D01*
X115340000Y-88900000D02*
X116610000Y-88900000D01*
X123420000Y-88900000D02*
X122150000Y-88900000D01*
D13*
%TO.C,IC1*%
X115242000Y-92798000D02*
X118438000Y-92798000D01*
X118438000Y-92798000D02*
X118438000Y-97702000D01*
X118438000Y-97702000D02*
X115242000Y-97702000D01*
X115242000Y-97702000D02*
X115242000Y-92798000D01*
X113365000Y-92670000D02*
X114892000Y-92670000D01*
%TO.C,D2*%
X128188000Y-93632000D02*
X128188000Y-98268000D01*
X128188000Y-98268000D02*
X125812000Y-98268000D01*
X125812000Y-98268000D02*
X125812000Y-93632000D01*
X125812000Y-93632000D02*
X128188000Y-93632000D01*
X127000000Y-93632000D02*
X128188000Y-94820000D01*
X127000000Y-90038000D02*
X127000000Y-93632000D01*
X127000000Y-98268000D02*
X127000000Y-101862000D01*
D12*
%TO.C,C4*%
X109001000Y-100230000D02*
X109001000Y-107970000D01*
X104359000Y-100230000D02*
X104359000Y-107970000D01*
X109001000Y-100230000D02*
X104359000Y-100230000D01*
X109001000Y-107970000D02*
X104359000Y-107970000D01*
%TO.C,C2*%
X104040000Y-94199000D02*
X111780000Y-94199000D01*
X104040000Y-98841000D02*
X111780000Y-98841000D01*
X104040000Y-94199000D02*
X104040000Y-98841000D01*
X111780000Y-94199000D02*
X111780000Y-98841000D01*
%TO.C,C1*%
X93880000Y-94199000D02*
X101620000Y-94199000D01*
X93880000Y-98841000D02*
X101620000Y-98841000D01*
X93880000Y-94199000D02*
X93880000Y-98841000D01*
X101620000Y-94199000D02*
X101620000Y-98841000D01*
D14*
%TO.C,IC2*%
X90780000Y-101000000D02*
X90780000Y-101000000D01*
X90680000Y-101000000D02*
X90680000Y-101000000D01*
D13*
X87080000Y-87000000D02*
X87080000Y-100100000D01*
X80680000Y-87000000D02*
X87080000Y-87000000D01*
X80680000Y-100100000D02*
X80680000Y-87000000D01*
X87080000Y-122400000D02*
X87080000Y-109100000D01*
X80680000Y-122400000D02*
X87080000Y-122400000D01*
X80680000Y-109100000D02*
X80680000Y-122400000D01*
X77530000Y-100100000D02*
X77530000Y-109100000D01*
X90230000Y-100100000D02*
X77530000Y-100100000D01*
X90230000Y-109100000D02*
X90230000Y-100100000D01*
X77530000Y-109100000D02*
X90230000Y-109100000D01*
D14*
X90680000Y-101000000D02*
G75*
G02*
X90780000Y-101000000I50000J0D01*
G01*
X90780000Y-101000000D02*
G75*
G02*
X90680000Y-101000000I-50000J0D01*
G01*
D12*
%TO.C,GAIN1*%
X100450000Y-115570000D02*
G75*
G03*
X100450000Y-115570000I-3930000J0D01*
G01*
%TO.C,TP5*%
X127070000Y-123260000D02*
X129470000Y-123260000D01*
X127070000Y-125660000D02*
X127070000Y-123260000D01*
X129470000Y-125660000D02*
X127070000Y-125660000D01*
X129470000Y-123260000D02*
X129470000Y-125660000D01*
%TO.C,TP4*%
X121990000Y-110560000D02*
X124390000Y-110560000D01*
X121990000Y-112960000D02*
X121990000Y-110560000D01*
X124390000Y-112960000D02*
X121990000Y-112960000D01*
X124390000Y-110560000D02*
X124390000Y-112960000D01*
%TO.C,TP3*%
X101670000Y-116910000D02*
X104070000Y-116910000D01*
X101670000Y-119310000D02*
X101670000Y-116910000D01*
X104070000Y-119310000D02*
X101670000Y-119310000D01*
X104070000Y-116910000D02*
X104070000Y-119310000D01*
%TO.C,TP2*%
X101670000Y-111830000D02*
X104070000Y-111830000D01*
X101670000Y-114230000D02*
X101670000Y-111830000D01*
X104070000Y-114230000D02*
X101670000Y-114230000D01*
X104070000Y-111830000D02*
X104070000Y-114230000D01*
%TO.C,U2*%
X117580000Y-118690000D02*
X121180000Y-118690000D01*
X121218478Y-118678478D02*
G75*
G03*
X119380000Y-114240000I-1838478J1838478D01*
G01*
X117541522Y-118678478D02*
G75*
G02*
X119380000Y-114240000I1838478J1838478D01*
G01*
%TO.C,U1*%
X116310000Y-112340000D02*
X119910000Y-112340000D01*
X119948478Y-112328478D02*
G75*
G03*
X118110000Y-107890000I-1838478J1838478D01*
G01*
X116271522Y-112328478D02*
G75*
G02*
X118110000Y-107890000I1838478J1838478D01*
G01*
%TO.C,VoutS1*%
X132200000Y-118110000D02*
G75*
G03*
X132200000Y-118110000I-3930000J0D01*
G01*
%TO.C,VRef1*%
X114420000Y-112268000D02*
G75*
G03*
X114420000Y-112268000I-3930000J0D01*
G01*
%TO.C,R9*%
X86597258Y-85612500D02*
X86122742Y-85612500D01*
X86597258Y-84567500D02*
X86122742Y-84567500D01*
%TO.C,J1*%
X105900000Y-87630000D02*
G75*
G03*
X105900000Y-87630000I-1680000J0D01*
G01*
X100900000Y-87630000D02*
G75*
G03*
X100900000Y-87630000I-1680000J0D01*
G01*
X111780000Y-83530000D02*
X96660000Y-83530000D01*
X111780000Y-85030000D02*
X96660000Y-85030000D01*
X111780000Y-89931000D02*
X96660000Y-89931000D01*
X111780000Y-92891000D02*
X96660000Y-92891000D01*
X111780000Y-82970000D02*
X96660000Y-82970000D01*
X111780000Y-92891000D02*
X111780000Y-82970000D01*
X96660000Y-92891000D02*
X96660000Y-82970000D01*
X102945000Y-88699000D02*
X102992000Y-88653000D01*
X105254000Y-86391000D02*
X105289000Y-86356000D01*
X103150000Y-88905000D02*
X103185000Y-88869000D01*
X105447000Y-86607000D02*
X105494000Y-86561000D01*
X97945000Y-88699000D02*
X97992000Y-88653000D01*
X100254000Y-86391000D02*
X100289000Y-86356000D01*
X98150000Y-88905000D02*
X98185000Y-88869000D01*
X100447000Y-86607000D02*
X100494000Y-86561000D01*
X112020000Y-83470000D02*
X112020000Y-82730000D01*
X112020000Y-82730000D02*
X111520000Y-82730000D01*
X109191195Y-85949747D02*
G75*
G02*
X109904000Y-86095000I28805J-1680253D01*
G01*
X110755426Y-86946958D02*
G75*
G02*
X110755000Y-88314000I-1535426J-683042D01*
G01*
X109903042Y-89165426D02*
G75*
G02*
X108536000Y-89165000I-683042J1535426D01*
G01*
X107684574Y-88313042D02*
G75*
G02*
X107685000Y-86946000I1535426J683042D01*
G01*
X108536682Y-86095244D02*
G75*
G02*
X109220000Y-85950000I683318J-1534756D01*
G01*
%TO.C,10VSourceAdj1*%
D11*
X93182380Y-107885904D02*
X93182380Y-108457333D01*
X93182380Y-108171619D02*
X92182380Y-108171619D01*
X92325238Y-108266857D01*
X92420476Y-108362095D01*
X92468095Y-108457333D01*
X92182380Y-107266857D02*
X92182380Y-107171619D01*
X92230000Y-107076380D01*
X92277619Y-107028761D01*
X92372857Y-106981142D01*
X92563333Y-106933523D01*
X92801428Y-106933523D01*
X92991904Y-106981142D01*
X93087142Y-107028761D01*
X93134761Y-107076380D01*
X93182380Y-107171619D01*
X93182380Y-107266857D01*
X93134761Y-107362095D01*
X93087142Y-107409714D01*
X92991904Y-107457333D01*
X92801428Y-107504952D01*
X92563333Y-107504952D01*
X92372857Y-107457333D01*
X92277619Y-107409714D01*
X92230000Y-107362095D01*
X92182380Y-107266857D01*
X92182380Y-106647809D02*
X93182380Y-106314476D01*
X92182380Y-105981142D01*
X93134761Y-105695428D02*
X93182380Y-105552571D01*
X93182380Y-105314476D01*
X93134761Y-105219238D01*
X93087142Y-105171619D01*
X92991904Y-105124000D01*
X92896666Y-105124000D01*
X92801428Y-105171619D01*
X92753809Y-105219238D01*
X92706190Y-105314476D01*
X92658571Y-105504952D01*
X92610952Y-105600190D01*
X92563333Y-105647809D01*
X92468095Y-105695428D01*
X92372857Y-105695428D01*
X92277619Y-105647809D01*
X92230000Y-105600190D01*
X92182380Y-105504952D01*
X92182380Y-105266857D01*
X92230000Y-105124000D01*
X93182380Y-104552571D02*
X93134761Y-104647809D01*
X93087142Y-104695428D01*
X92991904Y-104743047D01*
X92706190Y-104743047D01*
X92610952Y-104695428D01*
X92563333Y-104647809D01*
X92515714Y-104552571D01*
X92515714Y-104409714D01*
X92563333Y-104314476D01*
X92610952Y-104266857D01*
X92706190Y-104219238D01*
X92991904Y-104219238D01*
X93087142Y-104266857D01*
X93134761Y-104314476D01*
X93182380Y-104409714D01*
X93182380Y-104552571D01*
X92515714Y-103362095D02*
X93182380Y-103362095D01*
X92515714Y-103790666D02*
X93039523Y-103790666D01*
X93134761Y-103743047D01*
X93182380Y-103647809D01*
X93182380Y-103504952D01*
X93134761Y-103409714D01*
X93087142Y-103362095D01*
X93182380Y-102885904D02*
X92515714Y-102885904D01*
X92706190Y-102885904D02*
X92610952Y-102838285D01*
X92563333Y-102790666D01*
X92515714Y-102695428D01*
X92515714Y-102600190D01*
X93134761Y-101838285D02*
X93182380Y-101933523D01*
X93182380Y-102124000D01*
X93134761Y-102219238D01*
X93087142Y-102266857D01*
X92991904Y-102314476D01*
X92706190Y-102314476D01*
X92610952Y-102266857D01*
X92563333Y-102219238D01*
X92515714Y-102124000D01*
X92515714Y-101933523D01*
X92563333Y-101838285D01*
X93134761Y-101028761D02*
X93182380Y-101124000D01*
X93182380Y-101314476D01*
X93134761Y-101409714D01*
X93039523Y-101457333D01*
X92658571Y-101457333D01*
X92563333Y-101409714D01*
X92515714Y-101314476D01*
X92515714Y-101124000D01*
X92563333Y-101028761D01*
X92658571Y-100981142D01*
X92753809Y-100981142D01*
X92849047Y-101457333D01*
X92896666Y-100600190D02*
X92896666Y-100124000D01*
X93182380Y-100695428D02*
X92182380Y-100362095D01*
X93182380Y-100028761D01*
X93182380Y-99266857D02*
X92182380Y-99266857D01*
X93134761Y-99266857D02*
X93182380Y-99362095D01*
X93182380Y-99552571D01*
X93134761Y-99647809D01*
X93087142Y-99695428D01*
X92991904Y-99743047D01*
X92706190Y-99743047D01*
X92610952Y-99695428D01*
X92563333Y-99647809D01*
X92515714Y-99552571D01*
X92515714Y-99362095D01*
X92563333Y-99266857D01*
X92515714Y-98790666D02*
X93372857Y-98790666D01*
X93468095Y-98838285D01*
X93515714Y-98933523D01*
X93515714Y-98981142D01*
X92182380Y-98790666D02*
X92230000Y-98838285D01*
X92277619Y-98790666D01*
X92230000Y-98743047D01*
X92182380Y-98790666D01*
X92277619Y-98790666D01*
X93182380Y-97790666D02*
X93182380Y-98362095D01*
X93182380Y-98076380D02*
X92182380Y-98076380D01*
X92325238Y-98171619D01*
X92420476Y-98266857D01*
X92468095Y-98362095D01*
%TO.C,C5*%
X121773333Y-108897142D02*
X121725714Y-108944761D01*
X121582857Y-108992380D01*
X121487619Y-108992380D01*
X121344761Y-108944761D01*
X121249523Y-108849523D01*
X121201904Y-108754285D01*
X121154285Y-108563809D01*
X121154285Y-108420952D01*
X121201904Y-108230476D01*
X121249523Y-108135238D01*
X121344761Y-108040000D01*
X121487619Y-107992380D01*
X121582857Y-107992380D01*
X121725714Y-108040000D01*
X121773333Y-108087619D01*
X122678095Y-107992380D02*
X122201904Y-107992380D01*
X122154285Y-108468571D01*
X122201904Y-108420952D01*
X122297142Y-108373333D01*
X122535238Y-108373333D01*
X122630476Y-108420952D01*
X122678095Y-108468571D01*
X122725714Y-108563809D01*
X122725714Y-108801904D01*
X122678095Y-108897142D01*
X122630476Y-108944761D01*
X122535238Y-108992380D01*
X122297142Y-108992380D01*
X122201904Y-108944761D01*
X122154285Y-108897142D01*
%TO.C,C3*%
X112843333Y-100097142D02*
X112795714Y-100144761D01*
X112652857Y-100192380D01*
X112557619Y-100192380D01*
X112414761Y-100144761D01*
X112319523Y-100049523D01*
X112271904Y-99954285D01*
X112224285Y-99763809D01*
X112224285Y-99620952D01*
X112271904Y-99430476D01*
X112319523Y-99335238D01*
X112414761Y-99240000D01*
X112557619Y-99192380D01*
X112652857Y-99192380D01*
X112795714Y-99240000D01*
X112843333Y-99287619D01*
X113176666Y-99192380D02*
X113795714Y-99192380D01*
X113462380Y-99573333D01*
X113605238Y-99573333D01*
X113700476Y-99620952D01*
X113748095Y-99668571D01*
X113795714Y-99763809D01*
X113795714Y-100001904D01*
X113748095Y-100097142D01*
X113700476Y-100144761D01*
X113605238Y-100192380D01*
X113319523Y-100192380D01*
X113224285Y-100144761D01*
X113176666Y-100097142D01*
%TO.C,TP1*%
X95244380Y-110481904D02*
X95244380Y-109910476D01*
X96244380Y-110196190D02*
X95244380Y-110196190D01*
X96244380Y-109577142D02*
X95244380Y-109577142D01*
X95244380Y-109196190D01*
X95292000Y-109100952D01*
X95339619Y-109053333D01*
X95434857Y-109005714D01*
X95577714Y-109005714D01*
X95672952Y-109053333D01*
X95720571Y-109100952D01*
X95768190Y-109196190D01*
X95768190Y-109577142D01*
X96244380Y-108053333D02*
X96244380Y-108624761D01*
X96244380Y-108339047D02*
X95244380Y-108339047D01*
X95387238Y-108434285D01*
X95482476Y-108529523D01*
X95530095Y-108624761D01*
%TO.C,J2*%
X93646666Y-86022380D02*
X93646666Y-86736666D01*
X93599047Y-86879523D01*
X93503809Y-86974761D01*
X93360952Y-87022380D01*
X93265714Y-87022380D01*
X94075238Y-86117619D02*
X94122857Y-86070000D01*
X94218095Y-86022380D01*
X94456190Y-86022380D01*
X94551428Y-86070000D01*
X94599047Y-86117619D01*
X94646666Y-86212857D01*
X94646666Y-86308095D01*
X94599047Y-86450952D01*
X94027619Y-87022380D01*
X94646666Y-87022380D01*
%TO.C,D1*%
D15*
X131384523Y-106347380D02*
X130114523Y-106347380D01*
X130114523Y-106045000D01*
X130175000Y-105863571D01*
X130295952Y-105742619D01*
X130416904Y-105682142D01*
X130658809Y-105621666D01*
X130840238Y-105621666D01*
X131082142Y-105682142D01*
X131203095Y-105742619D01*
X131324047Y-105863571D01*
X131384523Y-106045000D01*
X131384523Y-106347380D01*
X131384523Y-104412142D02*
X131384523Y-105137857D01*
X131384523Y-104775000D02*
X130114523Y-104775000D01*
X130295952Y-104895952D01*
X130416904Y-105016904D01*
X130477380Y-105137857D01*
%TO.C,C8*%
D11*
X114133333Y-119737142D02*
X114085714Y-119784761D01*
X113942857Y-119832380D01*
X113847619Y-119832380D01*
X113704761Y-119784761D01*
X113609523Y-119689523D01*
X113561904Y-119594285D01*
X113514285Y-119403809D01*
X113514285Y-119260952D01*
X113561904Y-119070476D01*
X113609523Y-118975238D01*
X113704761Y-118880000D01*
X113847619Y-118832380D01*
X113942857Y-118832380D01*
X114085714Y-118880000D01*
X114133333Y-118927619D01*
X114704761Y-119260952D02*
X114609523Y-119213333D01*
X114561904Y-119165714D01*
X114514285Y-119070476D01*
X114514285Y-119022857D01*
X114561904Y-118927619D01*
X114609523Y-118880000D01*
X114704761Y-118832380D01*
X114895238Y-118832380D01*
X114990476Y-118880000D01*
X115038095Y-118927619D01*
X115085714Y-119022857D01*
X115085714Y-119070476D01*
X115038095Y-119165714D01*
X114990476Y-119213333D01*
X114895238Y-119260952D01*
X114704761Y-119260952D01*
X114609523Y-119308571D01*
X114561904Y-119356190D01*
X114514285Y-119451428D01*
X114514285Y-119641904D01*
X114561904Y-119737142D01*
X114609523Y-119784761D01*
X114704761Y-119832380D01*
X114895238Y-119832380D01*
X114990476Y-119784761D01*
X115038095Y-119737142D01*
X115085714Y-119641904D01*
X115085714Y-119451428D01*
X115038095Y-119356190D01*
X114990476Y-119308571D01*
X114895238Y-119260952D01*
%TO.C,C6*%
X124293333Y-109577142D02*
X124245714Y-109624761D01*
X124102857Y-109672380D01*
X124007619Y-109672380D01*
X123864761Y-109624761D01*
X123769523Y-109529523D01*
X123721904Y-109434285D01*
X123674285Y-109243809D01*
X123674285Y-109100952D01*
X123721904Y-108910476D01*
X123769523Y-108815238D01*
X123864761Y-108720000D01*
X124007619Y-108672380D01*
X124102857Y-108672380D01*
X124245714Y-108720000D01*
X124293333Y-108767619D01*
X125150476Y-108672380D02*
X124960000Y-108672380D01*
X124864761Y-108720000D01*
X124817142Y-108767619D01*
X124721904Y-108910476D01*
X124674285Y-109100952D01*
X124674285Y-109481904D01*
X124721904Y-109577142D01*
X124769523Y-109624761D01*
X124864761Y-109672380D01*
X125055238Y-109672380D01*
X125150476Y-109624761D01*
X125198095Y-109577142D01*
X125245714Y-109481904D01*
X125245714Y-109243809D01*
X125198095Y-109148571D01*
X125150476Y-109100952D01*
X125055238Y-109053333D01*
X124864761Y-109053333D01*
X124769523Y-109100952D01*
X124721904Y-109148571D01*
X124674285Y-109243809D01*
%TO.C,L1*%
X119213333Y-87132380D02*
X118737142Y-87132380D01*
X118737142Y-86132380D01*
X120070476Y-87132380D02*
X119499047Y-87132380D01*
X119784761Y-87132380D02*
X119784761Y-86132380D01*
X119689523Y-86275238D01*
X119594285Y-86370476D01*
X119499047Y-86418095D01*
%TO.C,IC1*%
D15*
X115600238Y-95824523D02*
X115600238Y-94554523D01*
X116930714Y-95703571D02*
X116870238Y-95764047D01*
X116688809Y-95824523D01*
X116567857Y-95824523D01*
X116386428Y-95764047D01*
X116265476Y-95643095D01*
X116205000Y-95522142D01*
X116144523Y-95280238D01*
X116144523Y-95098809D01*
X116205000Y-94856904D01*
X116265476Y-94735952D01*
X116386428Y-94615000D01*
X116567857Y-94554523D01*
X116688809Y-94554523D01*
X116870238Y-94615000D01*
X116930714Y-94675476D01*
X118140238Y-95824523D02*
X117414523Y-95824523D01*
X117777380Y-95824523D02*
X117777380Y-94554523D01*
X117656428Y-94735952D01*
X117535476Y-94856904D01*
X117414523Y-94917380D01*
%TO.C,D2*%
X127574523Y-106347380D02*
X126304523Y-106347380D01*
X126304523Y-106045000D01*
X126365000Y-105863571D01*
X126485952Y-105742619D01*
X126606904Y-105682142D01*
X126848809Y-105621666D01*
X127030238Y-105621666D01*
X127272142Y-105682142D01*
X127393095Y-105742619D01*
X127514047Y-105863571D01*
X127574523Y-106045000D01*
X127574523Y-106347380D01*
X126425476Y-105137857D02*
X126365000Y-105077380D01*
X126304523Y-104956428D01*
X126304523Y-104654047D01*
X126365000Y-104533095D01*
X126425476Y-104472619D01*
X126546428Y-104412142D01*
X126667380Y-104412142D01*
X126848809Y-104472619D01*
X127574523Y-105198333D01*
X127574523Y-104412142D01*
%TO.C,C4*%
D11*
X103227142Y-104306666D02*
X103274761Y-104354285D01*
X103322380Y-104497142D01*
X103322380Y-104592380D01*
X103274761Y-104735238D01*
X103179523Y-104830476D01*
X103084285Y-104878095D01*
X102893809Y-104925714D01*
X102750952Y-104925714D01*
X102560476Y-104878095D01*
X102465238Y-104830476D01*
X102370000Y-104735238D01*
X102322380Y-104592380D01*
X102322380Y-104497142D01*
X102370000Y-104354285D01*
X102417619Y-104306666D01*
X102655714Y-103449523D02*
X103322380Y-103449523D01*
X102274761Y-103687619D02*
X102989047Y-103925714D01*
X102989047Y-103306666D01*
%TO.C,C2*%
X102703333Y-96877142D02*
X102655714Y-96924761D01*
X102512857Y-96972380D01*
X102417619Y-96972380D01*
X102274761Y-96924761D01*
X102179523Y-96829523D01*
X102131904Y-96734285D01*
X102084285Y-96543809D01*
X102084285Y-96400952D01*
X102131904Y-96210476D01*
X102179523Y-96115238D01*
X102274761Y-96020000D01*
X102417619Y-95972380D01*
X102512857Y-95972380D01*
X102655714Y-96020000D01*
X102703333Y-96067619D01*
X103084285Y-96067619D02*
X103131904Y-96020000D01*
X103227142Y-95972380D01*
X103465238Y-95972380D01*
X103560476Y-96020000D01*
X103608095Y-96067619D01*
X103655714Y-96162857D01*
X103655714Y-96258095D01*
X103608095Y-96400952D01*
X103036666Y-96972380D01*
X103655714Y-96972380D01*
%TO.C,C1*%
X92543333Y-96877142D02*
X92495714Y-96924761D01*
X92352857Y-96972380D01*
X92257619Y-96972380D01*
X92114761Y-96924761D01*
X92019523Y-96829523D01*
X91971904Y-96734285D01*
X91924285Y-96543809D01*
X91924285Y-96400952D01*
X91971904Y-96210476D01*
X92019523Y-96115238D01*
X92114761Y-96020000D01*
X92257619Y-95972380D01*
X92352857Y-95972380D01*
X92495714Y-96020000D01*
X92543333Y-96067619D01*
X93495714Y-96972380D02*
X92924285Y-96972380D01*
X93210000Y-96972380D02*
X93210000Y-95972380D01*
X93114761Y-96115238D01*
X93019523Y-96210476D01*
X92924285Y-96258095D01*
%TO.C,IC2*%
D15*
X82640238Y-105274523D02*
X82640238Y-104004523D01*
X83970714Y-105153571D02*
X83910238Y-105214047D01*
X83728809Y-105274523D01*
X83607857Y-105274523D01*
X83426428Y-105214047D01*
X83305476Y-105093095D01*
X83245000Y-104972142D01*
X83184523Y-104730238D01*
X83184523Y-104548809D01*
X83245000Y-104306904D01*
X83305476Y-104185952D01*
X83426428Y-104065000D01*
X83607857Y-104004523D01*
X83728809Y-104004523D01*
X83910238Y-104065000D01*
X83970714Y-104125476D01*
X84454523Y-104125476D02*
X84515000Y-104065000D01*
X84635952Y-104004523D01*
X84938333Y-104004523D01*
X85059285Y-104065000D01*
X85119761Y-104125476D01*
X85180238Y-104246428D01*
X85180238Y-104367380D01*
X85119761Y-104548809D01*
X84394047Y-105274523D01*
X85180238Y-105274523D01*
%TO.C,GAIN1*%
D11*
X95115238Y-120150000D02*
X95020000Y-120102380D01*
X94877142Y-120102380D01*
X94734285Y-120150000D01*
X94639047Y-120245238D01*
X94591428Y-120340476D01*
X94543809Y-120530952D01*
X94543809Y-120673809D01*
X94591428Y-120864285D01*
X94639047Y-120959523D01*
X94734285Y-121054761D01*
X94877142Y-121102380D01*
X94972380Y-121102380D01*
X95115238Y-121054761D01*
X95162857Y-121007142D01*
X95162857Y-120673809D01*
X94972380Y-120673809D01*
X95543809Y-120816666D02*
X96020000Y-120816666D01*
X95448571Y-121102380D02*
X95781904Y-120102380D01*
X96115238Y-121102380D01*
X96448571Y-121102380D02*
X96448571Y-120102380D01*
X96924761Y-121102380D02*
X96924761Y-120102380D01*
X97496190Y-121102380D01*
X97496190Y-120102380D01*
X98496190Y-121102380D02*
X97924761Y-121102380D01*
X98210476Y-121102380D02*
X98210476Y-120102380D01*
X98115238Y-120245238D01*
X98020000Y-120340476D01*
X97924761Y-120388095D01*
%TO.C,TP5*%
X129720380Y-125721904D02*
X129720380Y-125150476D01*
X130720380Y-125436190D02*
X129720380Y-125436190D01*
X130720380Y-124817142D02*
X129720380Y-124817142D01*
X129720380Y-124436190D01*
X129768000Y-124340952D01*
X129815619Y-124293333D01*
X129910857Y-124245714D01*
X130053714Y-124245714D01*
X130148952Y-124293333D01*
X130196571Y-124340952D01*
X130244190Y-124436190D01*
X130244190Y-124817142D01*
X129720380Y-123340952D02*
X129720380Y-123817142D01*
X130196571Y-123864761D01*
X130148952Y-123817142D01*
X130101333Y-123721904D01*
X130101333Y-123483809D01*
X130148952Y-123388571D01*
X130196571Y-123340952D01*
X130291809Y-123293333D01*
X130529904Y-123293333D01*
X130625142Y-123340952D01*
X130672761Y-123388571D01*
X130720380Y-123483809D01*
X130720380Y-123721904D01*
X130672761Y-123817142D01*
X130625142Y-123864761D01*
%TO.C,TP4*%
X124640380Y-113021904D02*
X124640380Y-112450476D01*
X125640380Y-112736190D02*
X124640380Y-112736190D01*
X125640380Y-112117142D02*
X124640380Y-112117142D01*
X124640380Y-111736190D01*
X124688000Y-111640952D01*
X124735619Y-111593333D01*
X124830857Y-111545714D01*
X124973714Y-111545714D01*
X125068952Y-111593333D01*
X125116571Y-111640952D01*
X125164190Y-111736190D01*
X125164190Y-112117142D01*
X124973714Y-110688571D02*
X125640380Y-110688571D01*
X124592761Y-110926666D02*
X125307047Y-111164761D01*
X125307047Y-110545714D01*
%TO.C,TP3*%
X104320380Y-119371904D02*
X104320380Y-118800476D01*
X105320380Y-119086190D02*
X104320380Y-119086190D01*
X105320380Y-118467142D02*
X104320380Y-118467142D01*
X104320380Y-118086190D01*
X104368000Y-117990952D01*
X104415619Y-117943333D01*
X104510857Y-117895714D01*
X104653714Y-117895714D01*
X104748952Y-117943333D01*
X104796571Y-117990952D01*
X104844190Y-118086190D01*
X104844190Y-118467142D01*
X104320380Y-117562380D02*
X104320380Y-116943333D01*
X104701333Y-117276666D01*
X104701333Y-117133809D01*
X104748952Y-117038571D01*
X104796571Y-116990952D01*
X104891809Y-116943333D01*
X105129904Y-116943333D01*
X105225142Y-116990952D01*
X105272761Y-117038571D01*
X105320380Y-117133809D01*
X105320380Y-117419523D01*
X105272761Y-117514761D01*
X105225142Y-117562380D01*
%TO.C,TP2*%
X101608095Y-109942380D02*
X102179523Y-109942380D01*
X101893809Y-110942380D02*
X101893809Y-109942380D01*
X102512857Y-110942380D02*
X102512857Y-109942380D01*
X102893809Y-109942380D01*
X102989047Y-109990000D01*
X103036666Y-110037619D01*
X103084285Y-110132857D01*
X103084285Y-110275714D01*
X103036666Y-110370952D01*
X102989047Y-110418571D01*
X102893809Y-110466190D01*
X102512857Y-110466190D01*
X103465238Y-110037619D02*
X103512857Y-109990000D01*
X103608095Y-109942380D01*
X103846190Y-109942380D01*
X103941428Y-109990000D01*
X103989047Y-110037619D01*
X104036666Y-110132857D01*
X104036666Y-110228095D01*
X103989047Y-110370952D01*
X103417619Y-110942380D01*
X104036666Y-110942380D01*
%TO.C,U2*%
X122428095Y-116292380D02*
X122428095Y-117101904D01*
X122475714Y-117197142D01*
X122523333Y-117244761D01*
X122618571Y-117292380D01*
X122809047Y-117292380D01*
X122904285Y-117244761D01*
X122951904Y-117197142D01*
X122999523Y-117101904D01*
X122999523Y-116292380D01*
X123428095Y-116387619D02*
X123475714Y-116340000D01*
X123570952Y-116292380D01*
X123809047Y-116292380D01*
X123904285Y-116340000D01*
X123951904Y-116387619D01*
X123999523Y-116482857D01*
X123999523Y-116578095D01*
X123951904Y-116720952D01*
X123380476Y-117292380D01*
X123999523Y-117292380D01*
%TO.C,U1*%
X117348095Y-112482380D02*
X117348095Y-113291904D01*
X117395714Y-113387142D01*
X117443333Y-113434761D01*
X117538571Y-113482380D01*
X117729047Y-113482380D01*
X117824285Y-113434761D01*
X117871904Y-113387142D01*
X117919523Y-113291904D01*
X117919523Y-112482380D01*
X118919523Y-113482380D02*
X118348095Y-113482380D01*
X118633809Y-113482380D02*
X118633809Y-112482380D01*
X118538571Y-112625238D01*
X118443333Y-112720476D01*
X118348095Y-112768095D01*
%TO.C,VoutS1*%
X125793809Y-112502380D02*
X126127142Y-113502380D01*
X126460476Y-112502380D01*
X126936666Y-113502380D02*
X126841428Y-113454761D01*
X126793809Y-113407142D01*
X126746190Y-113311904D01*
X126746190Y-113026190D01*
X126793809Y-112930952D01*
X126841428Y-112883333D01*
X126936666Y-112835714D01*
X127079523Y-112835714D01*
X127174761Y-112883333D01*
X127222380Y-112930952D01*
X127270000Y-113026190D01*
X127270000Y-113311904D01*
X127222380Y-113407142D01*
X127174761Y-113454761D01*
X127079523Y-113502380D01*
X126936666Y-113502380D01*
X128127142Y-112835714D02*
X128127142Y-113502380D01*
X127698571Y-112835714D02*
X127698571Y-113359523D01*
X127746190Y-113454761D01*
X127841428Y-113502380D01*
X127984285Y-113502380D01*
X128079523Y-113454761D01*
X128127142Y-113407142D01*
X128460476Y-112835714D02*
X128841428Y-112835714D01*
X128603333Y-112502380D02*
X128603333Y-113359523D01*
X128650952Y-113454761D01*
X128746190Y-113502380D01*
X128841428Y-113502380D01*
X129127142Y-113454761D02*
X129270000Y-113502380D01*
X129508095Y-113502380D01*
X129603333Y-113454761D01*
X129650952Y-113407142D01*
X129698571Y-113311904D01*
X129698571Y-113216666D01*
X129650952Y-113121428D01*
X129603333Y-113073809D01*
X129508095Y-113026190D01*
X129317619Y-112978571D01*
X129222380Y-112930952D01*
X129174761Y-112883333D01*
X129127142Y-112788095D01*
X129127142Y-112692857D01*
X129174761Y-112597619D01*
X129222380Y-112550000D01*
X129317619Y-112502380D01*
X129555714Y-112502380D01*
X129698571Y-112550000D01*
X130650952Y-113502380D02*
X130079523Y-113502380D01*
X130365238Y-113502380D02*
X130365238Y-112502380D01*
X130270000Y-112645238D01*
X130174761Y-112740476D01*
X130079523Y-112788095D01*
%TO.C,VRef1*%
X104862380Y-112513809D02*
X105862380Y-112180476D01*
X104862380Y-111847142D01*
X105862380Y-110942380D02*
X105386190Y-111275714D01*
X105862380Y-111513809D02*
X104862380Y-111513809D01*
X104862380Y-111132857D01*
X104910000Y-111037619D01*
X104957619Y-110990000D01*
X105052857Y-110942380D01*
X105195714Y-110942380D01*
X105290952Y-110990000D01*
X105338571Y-111037619D01*
X105386190Y-111132857D01*
X105386190Y-111513809D01*
X105814761Y-110132857D02*
X105862380Y-110228095D01*
X105862380Y-110418571D01*
X105814761Y-110513809D01*
X105719523Y-110561428D01*
X105338571Y-110561428D01*
X105243333Y-110513809D01*
X105195714Y-110418571D01*
X105195714Y-110228095D01*
X105243333Y-110132857D01*
X105338571Y-110085238D01*
X105433809Y-110085238D01*
X105529047Y-110561428D01*
X105195714Y-109799523D02*
X105195714Y-109418571D01*
X105862380Y-109656666D02*
X105005238Y-109656666D01*
X104910000Y-109609047D01*
X104862380Y-109513809D01*
X104862380Y-109418571D01*
X105862380Y-108561428D02*
X105862380Y-109132857D01*
X105862380Y-108847142D02*
X104862380Y-108847142D01*
X105005238Y-108942380D01*
X105100476Y-109037619D01*
X105148095Y-109132857D01*
%TO.C,R9*%
X86193333Y-86972380D02*
X85860000Y-86496190D01*
X85621904Y-86972380D02*
X85621904Y-85972380D01*
X86002857Y-85972380D01*
X86098095Y-86020000D01*
X86145714Y-86067619D01*
X86193333Y-86162857D01*
X86193333Y-86305714D01*
X86145714Y-86400952D01*
X86098095Y-86448571D01*
X86002857Y-86496190D01*
X85621904Y-86496190D01*
X86669523Y-86972380D02*
X86860000Y-86972380D01*
X86955238Y-86924761D01*
X87002857Y-86877142D01*
X87098095Y-86734285D01*
X87145714Y-86543809D01*
X87145714Y-86162857D01*
X87098095Y-86067619D01*
X87050476Y-86020000D01*
X86955238Y-85972380D01*
X86764761Y-85972380D01*
X86669523Y-86020000D01*
X86621904Y-86067619D01*
X86574285Y-86162857D01*
X86574285Y-86400952D01*
X86621904Y-86496190D01*
X86669523Y-86543809D01*
X86764761Y-86591428D01*
X86955238Y-86591428D01*
X87050476Y-86543809D01*
X87098095Y-86496190D01*
X87145714Y-86400952D01*
%TO.C,J1*%
X101266666Y-90892380D02*
X101266666Y-91606666D01*
X101219047Y-91749523D01*
X101123809Y-91844761D01*
X100980952Y-91892380D01*
X100885714Y-91892380D01*
X102266666Y-91892380D02*
X101695238Y-91892380D01*
X101980952Y-91892380D02*
X101980952Y-90892380D01*
X101885714Y-91035238D01*
X101790476Y-91130476D01*
X101695238Y-91178095D01*
%TD*%
M02*
