%TF.GenerationSoftware,KiCad,Pcbnew,(5.1.9)-1*%
%TF.CreationDate,2021-05-16T10:50:45-07:00*%
%TF.ProjectId,VacuumSensor,56616375-756d-4536-956e-736f722e6b69,rev?*%
%TF.SameCoordinates,Original*%
%TF.FileFunction,Copper,L2,Bot*%
%TF.FilePolarity,Positive*%
%FSLAX46Y46*%
G04 Gerber Fmt 4.6, Leading zero omitted, Abs format (unit mm)*
G04 Created by KiCad (PCBNEW (5.1.9)-1) date 2021-05-16 10:50:45*
%MOMM*%
%LPD*%
G01*
G04 APERTURE LIST*
%TA.AperFunction,ComponentPad*%
%ADD10C,1.260000*%
%TD*%
%TA.AperFunction,ComponentPad*%
%ADD11C,1.600000*%
%TD*%
%TA.AperFunction,ComponentPad*%
%ADD12R,1.600000X1.600000*%
%TD*%
%TA.AperFunction,ComponentPad*%
%ADD13O,1.700000X1.700000*%
%TD*%
%TA.AperFunction,ComponentPad*%
%ADD14R,1.700000X1.700000*%
%TD*%
%TA.AperFunction,ComponentPad*%
%ADD15C,1.575000*%
%TD*%
%TA.AperFunction,ComponentPad*%
%ADD16R,1.575000X1.575000*%
%TD*%
%TA.AperFunction,ComponentPad*%
%ADD17O,1.600000X1.600000*%
%TD*%
%TA.AperFunction,ComponentPad*%
%ADD18C,1.130000*%
%TD*%
%TA.AperFunction,ComponentPad*%
%ADD19R,1.130000X1.130000*%
%TD*%
%TA.AperFunction,SMDPad,CuDef*%
%ADD20R,1.528000X0.650000*%
%TD*%
%TA.AperFunction,ComponentPad*%
%ADD21C,1.365000*%
%TD*%
%TA.AperFunction,ComponentPad*%
%ADD22R,1.365000X1.365000*%
%TD*%
%TA.AperFunction,ComponentPad*%
%ADD23R,1.050000X1.500000*%
%TD*%
%TA.AperFunction,ComponentPad*%
%ADD24O,1.050000X1.500000*%
%TD*%
%TA.AperFunction,ComponentPad*%
%ADD25C,2.600000*%
%TD*%
%TA.AperFunction,ComponentPad*%
%ADD26R,2.600000X2.600000*%
%TD*%
%TA.AperFunction,ViaPad*%
%ADD27C,0.800000*%
%TD*%
%TA.AperFunction,Conductor*%
%ADD28C,0.250000*%
%TD*%
%TA.AperFunction,Conductor*%
%ADD29C,0.762000*%
%TD*%
%TA.AperFunction,Conductor*%
%ADD30C,0.508000*%
%TD*%
G04 APERTURE END LIST*
D10*
%TO.P,10VSourceAdj1,3*%
%TO.N,GND*%
X95250000Y-103124000D03*
%TO.P,10VSourceAdj1,2*%
%TO.N,Net-(10VSourceAdj1-Pad2)*%
X97790000Y-105664000D03*
%TO.P,10VSourceAdj1,1*%
%TO.N,+10V*%
X100330000Y-103124000D03*
%TD*%
D11*
%TO.P,C5,2*%
%TO.N,GND*%
X120690000Y-104140000D03*
D12*
%TO.P,C5,1*%
%TO.N,+VDC*%
X123190000Y-104140000D03*
%TD*%
D11*
%TO.P,C3,2*%
%TO.N,GND*%
X114260000Y-104140000D03*
D12*
%TO.P,C3,1*%
%TO.N,+10V*%
X111760000Y-104140000D03*
%TD*%
%TO.P,R1,2*%
%TO.N,Net-(IC1-Pad1)*%
%TA.AperFunction,SMDPad,CuDef*%
G36*
G01*
X118955000Y-91165000D02*
X118955000Y-91715000D01*
G75*
G02*
X118755000Y-91915000I-200000J0D01*
G01*
X118355000Y-91915000D01*
G75*
G02*
X118155000Y-91715000I0J200000D01*
G01*
X118155000Y-91165000D01*
G75*
G02*
X118355000Y-90965000I200000J0D01*
G01*
X118755000Y-90965000D01*
G75*
G02*
X118955000Y-91165000I0J-200000D01*
G01*
G37*
%TD.AperFunction*%
%TO.P,R1,1*%
%TO.N,+VDC*%
%TA.AperFunction,SMDPad,CuDef*%
G36*
G01*
X120605000Y-91165000D02*
X120605000Y-91715000D01*
G75*
G02*
X120405000Y-91915000I-200000J0D01*
G01*
X120005000Y-91915000D01*
G75*
G02*
X119805000Y-91715000I0J200000D01*
G01*
X119805000Y-91165000D01*
G75*
G02*
X120005000Y-90965000I200000J0D01*
G01*
X120405000Y-90965000D01*
G75*
G02*
X120605000Y-91165000I0J-200000D01*
G01*
G37*
%TD.AperFunction*%
%TD*%
D13*
%TO.P,J2,2*%
%TO.N,Net-(IC2-Pad1)*%
X93980000Y-91440000D03*
D14*
%TO.P,J2,1*%
%TO.N,+10V*%
X93980000Y-88900000D03*
%TD*%
D15*
%TO.P,D1,2*%
%TO.N,Net-(D1-Pad2)*%
X130810000Y-88770000D03*
D16*
%TO.P,D1,1*%
%TO.N,+VDC*%
X130810000Y-102870000D03*
%TD*%
D11*
%TO.P,C8,2*%
%TO.N,GND*%
X109760000Y-119380000D03*
D12*
%TO.P,C8,1*%
%TO.N,Net-(C8-Pad1)*%
X111760000Y-119380000D03*
%TD*%
D11*
%TO.P,C6,2*%
%TO.N,GND*%
X127540000Y-109220000D03*
D12*
%TO.P,C6,1*%
%TO.N,Net-(C6-Pad1)*%
X129540000Y-109220000D03*
%TD*%
D17*
%TO.P,L1,2*%
%TO.N,Net-(D2-Pad1)*%
X124460000Y-88900000D03*
D11*
%TO.P,L1,1*%
%TO.N,+10V*%
X114300000Y-88900000D03*
%TD*%
D15*
%TO.P,D2,2*%
%TO.N,GND*%
X127000000Y-103000000D03*
D16*
%TO.P,D2,1*%
%TO.N,Net-(D2-Pad1)*%
X127000000Y-88900000D03*
%TD*%
D11*
%TO.P,C4,2*%
%TO.N,GND*%
X106680000Y-106600000D03*
%TO.P,C4,1*%
%TO.N,Net-(C4-Pad1)*%
X106680000Y-101600000D03*
%TD*%
%TO.P,C2,2*%
%TO.N,Net-(10VSourceAdj1-Pad2)*%
X110410000Y-96520000D03*
%TO.P,C2,1*%
%TO.N,+10V*%
X105410000Y-96520000D03*
%TD*%
%TO.P,C1,2*%
%TO.N,GND*%
X100250000Y-96520000D03*
%TO.P,C1,1*%
%TO.N,Net-(C1-Pad1)*%
X95250000Y-96520000D03*
%TD*%
D18*
%TO.P,IC5,8*%
%TO.N,N/C*%
X78740000Y-90490000D03*
%TO.P,IC5,7*%
%TO.N,Net-(C8-Pad1)*%
X81280000Y-90490000D03*
%TO.P,IC5,6*%
%TO.N,Net-(IC5-Pad2)*%
X83820000Y-90490000D03*
%TO.P,IC5,5*%
%TO.N,N/C*%
X86360000Y-90490000D03*
%TO.P,IC5,4*%
%TO.N,GND*%
X86360000Y-82550000D03*
%TO.P,IC5,3*%
%TO.N,Net-(IC3-Pad7)*%
X83820000Y-82550000D03*
%TO.P,IC5,2*%
%TO.N,Net-(IC5-Pad2)*%
X81280000Y-82550000D03*
D19*
%TO.P,IC5,1*%
%TO.N,N/C*%
X78740000Y-82550000D03*
%TD*%
D18*
%TO.P,IC4,8*%
%TO.N,N/C*%
X78740000Y-123350000D03*
%TO.P,IC4,7*%
%TO.N,+10V*%
X81280000Y-123350000D03*
%TO.P,IC4,6*%
%TO.N,Net-(IC3-Pad6)*%
X83820000Y-123350000D03*
%TO.P,IC4,5*%
%TO.N,N/C*%
X86360000Y-123350000D03*
%TO.P,IC4,4*%
%TO.N,GND*%
X86360000Y-115410000D03*
%TO.P,IC4,3*%
%TO.N,Net-(C6-Pad1)*%
X83820000Y-115410000D03*
%TO.P,IC4,2*%
%TO.N,Net-(IC3-Pad6)*%
X81280000Y-115410000D03*
D19*
%TO.P,IC4,1*%
%TO.N,N/C*%
X78740000Y-115410000D03*
%TD*%
D20*
%TO.P,IC3,8*%
%TO.N,+10V*%
X86702000Y-97790000D03*
%TO.P,IC3,7*%
%TO.N,Net-(IC3-Pad7)*%
X86702000Y-96520000D03*
%TO.P,IC3,6*%
%TO.N,Net-(IC3-Pad6)*%
X86702000Y-95250000D03*
%TO.P,IC3,5*%
%TO.N,GND*%
X86702000Y-93980000D03*
%TO.P,IC3,4*%
%TO.N,Net-(IC2-Pad2)*%
X81280000Y-93980000D03*
%TO.P,IC3,3*%
%TO.N,Net-(GAIN1-Pad3)*%
X81280000Y-95250000D03*
%TO.P,IC3,2*%
%TO.N,Net-(GAIN1-Pad2)*%
X81280000Y-96520000D03*
%TO.P,IC3,1*%
%TO.N,Net-(IC2-Pad4)*%
X81280000Y-97790000D03*
%TD*%
D21*
%TO.P,IC2,4*%
%TO.N,Net-(IC2-Pad4)*%
X80130000Y-101600000D03*
%TO.P,IC2,3*%
%TO.N,GND*%
X82630000Y-101600000D03*
%TO.P,IC2,2*%
%TO.N,Net-(IC2-Pad2)*%
X85130000Y-101600000D03*
D22*
%TO.P,IC2,1*%
%TO.N,Net-(IC2-Pad1)*%
X87630000Y-101600000D03*
%TD*%
D10*
%TO.P,GAIN1,1*%
%TO.N,N/C*%
X96520000Y-118110000D03*
%TO.P,GAIN1,2*%
%TO.N,Net-(GAIN1-Pad2)*%
X93980000Y-115570000D03*
%TO.P,GAIN1,3*%
%TO.N,Net-(GAIN1-Pad3)*%
X96520000Y-113030000D03*
%TD*%
%TO.P,C7,2*%
%TO.N,GND*%
%TA.AperFunction,SMDPad,CuDef*%
G36*
G01*
X90620001Y-95825000D02*
X89719999Y-95825000D01*
G75*
G02*
X89470000Y-95575001I0J249999D01*
G01*
X89470000Y-94924999D01*
G75*
G02*
X89719999Y-94675000I249999J0D01*
G01*
X90620001Y-94675000D01*
G75*
G02*
X90870000Y-94924999I0J-249999D01*
G01*
X90870000Y-95575001D01*
G75*
G02*
X90620001Y-95825000I-249999J0D01*
G01*
G37*
%TD.AperFunction*%
%TO.P,C7,1*%
%TO.N,+10V*%
%TA.AperFunction,SMDPad,CuDef*%
G36*
G01*
X90620001Y-97875000D02*
X89719999Y-97875000D01*
G75*
G02*
X89470000Y-97625001I0J249999D01*
G01*
X89470000Y-96974999D01*
G75*
G02*
X89719999Y-96725000I249999J0D01*
G01*
X90620001Y-96725000D01*
G75*
G02*
X90870000Y-96974999I0J-249999D01*
G01*
X90870000Y-97625001D01*
G75*
G02*
X90620001Y-97875000I-249999J0D01*
G01*
G37*
%TD.AperFunction*%
%TD*%
%TO.P,R7,2*%
%TO.N,GND*%
%TA.AperFunction,SMDPad,CuDef*%
G36*
G01*
X102445000Y-108945000D02*
X102445000Y-109495000D01*
G75*
G02*
X102245000Y-109695000I-200000J0D01*
G01*
X101845000Y-109695000D01*
G75*
G02*
X101645000Y-109495000I0J200000D01*
G01*
X101645000Y-108945000D01*
G75*
G02*
X101845000Y-108745000I200000J0D01*
G01*
X102245000Y-108745000D01*
G75*
G02*
X102445000Y-108945000I0J-200000D01*
G01*
G37*
%TD.AperFunction*%
%TO.P,R7,1*%
%TO.N,Net-(C8-Pad1)*%
%TA.AperFunction,SMDPad,CuDef*%
G36*
G01*
X104095000Y-108945000D02*
X104095000Y-109495000D01*
G75*
G02*
X103895000Y-109695000I-200000J0D01*
G01*
X103495000Y-109695000D01*
G75*
G02*
X103295000Y-109495000I0J200000D01*
G01*
X103295000Y-108945000D01*
G75*
G02*
X103495000Y-108745000I200000J0D01*
G01*
X103895000Y-108745000D01*
G75*
G02*
X104095000Y-108945000I0J-200000D01*
G01*
G37*
%TD.AperFunction*%
%TD*%
D23*
%TO.P,U2,1*%
%TO.N,Net-(U2-Pad1)*%
X118110000Y-116840000D03*
D24*
%TO.P,U2,3*%
%TO.N,Net-(C8-Pad1)*%
X120650000Y-116840000D03*
%TO.P,U2,2*%
%TO.N,GND*%
X119380000Y-116840000D03*
%TD*%
D23*
%TO.P,U1,1*%
%TO.N,Net-(U1-Pad1)*%
X116840000Y-110490000D03*
D24*
%TO.P,U1,3*%
%TO.N,Net-(R2-Pad2)*%
X119380000Y-110490000D03*
%TO.P,U1,2*%
%TO.N,GND*%
X118110000Y-110490000D03*
%TD*%
D10*
%TO.P,VoutS1,1*%
%TO.N,Net-(C8-Pad1)*%
X128270000Y-120650000D03*
%TO.P,VoutS1,2*%
%TO.N,Net-(U2-Pad1)*%
X125730000Y-118110000D03*
%TO.P,VoutS1,3*%
%TO.N,GND*%
X128270000Y-115570000D03*
%TD*%
%TO.P,VRef1,1*%
%TO.N,Net-(R2-Pad2)*%
X110490000Y-114808000D03*
%TO.P,VRef1,2*%
%TO.N,Net-(U1-Pad1)*%
X107950000Y-112268000D03*
%TO.P,VRef1,3*%
%TO.N,GND*%
X110490000Y-109728000D03*
%TD*%
%TO.P,R8,2*%
%TO.N,GND*%
%TA.AperFunction,SMDPad,CuDef*%
G36*
G01*
X85515000Y-112035000D02*
X85515000Y-111485000D01*
G75*
G02*
X85715000Y-111285000I200000J0D01*
G01*
X86115000Y-111285000D01*
G75*
G02*
X86315000Y-111485000I0J-200000D01*
G01*
X86315000Y-112035000D01*
G75*
G02*
X86115000Y-112235000I-200000J0D01*
G01*
X85715000Y-112235000D01*
G75*
G02*
X85515000Y-112035000I0J200000D01*
G01*
G37*
%TD.AperFunction*%
%TO.P,R8,1*%
%TO.N,Net-(IC3-Pad6)*%
%TA.AperFunction,SMDPad,CuDef*%
G36*
G01*
X83865000Y-112035000D02*
X83865000Y-111485000D01*
G75*
G02*
X84065000Y-111285000I200000J0D01*
G01*
X84465000Y-111285000D01*
G75*
G02*
X84665000Y-111485000I0J-200000D01*
G01*
X84665000Y-112035000D01*
G75*
G02*
X84465000Y-112235000I-200000J0D01*
G01*
X84065000Y-112235000D01*
G75*
G02*
X83865000Y-112035000I0J200000D01*
G01*
G37*
%TD.AperFunction*%
%TD*%
%TO.P,R6,2*%
%TO.N,Net-(C8-Pad1)*%
%TA.AperFunction,SMDPad,CuDef*%
G36*
G01*
X105810000Y-103865000D02*
X105810000Y-104415000D01*
G75*
G02*
X105610000Y-104615000I-200000J0D01*
G01*
X105210000Y-104615000D01*
G75*
G02*
X105010000Y-104415000I0J200000D01*
G01*
X105010000Y-103865000D01*
G75*
G02*
X105210000Y-103665000I200000J0D01*
G01*
X105610000Y-103665000D01*
G75*
G02*
X105810000Y-103865000I0J-200000D01*
G01*
G37*
%TD.AperFunction*%
%TO.P,R6,1*%
%TO.N,+10V*%
%TA.AperFunction,SMDPad,CuDef*%
G36*
G01*
X107460000Y-103865000D02*
X107460000Y-104415000D01*
G75*
G02*
X107260000Y-104615000I-200000J0D01*
G01*
X106860000Y-104615000D01*
G75*
G02*
X106660000Y-104415000I0J200000D01*
G01*
X106660000Y-103865000D01*
G75*
G02*
X106860000Y-103665000I200000J0D01*
G01*
X107260000Y-103665000D01*
G75*
G02*
X107460000Y-103865000I0J-200000D01*
G01*
G37*
%TD.AperFunction*%
%TD*%
%TO.P,R5,2*%
%TO.N,GND*%
%TA.AperFunction,SMDPad,CuDef*%
G36*
G01*
X90445000Y-91460000D02*
X89895000Y-91460000D01*
G75*
G02*
X89695000Y-91260000I0J200000D01*
G01*
X89695000Y-90860000D01*
G75*
G02*
X89895000Y-90660000I200000J0D01*
G01*
X90445000Y-90660000D01*
G75*
G02*
X90645000Y-90860000I0J-200000D01*
G01*
X90645000Y-91260000D01*
G75*
G02*
X90445000Y-91460000I-200000J0D01*
G01*
G37*
%TD.AperFunction*%
%TO.P,R5,1*%
%TO.N,Net-(IC3-Pad7)*%
%TA.AperFunction,SMDPad,CuDef*%
G36*
G01*
X90445000Y-93110000D02*
X89895000Y-93110000D01*
G75*
G02*
X89695000Y-92910000I0J200000D01*
G01*
X89695000Y-92510000D01*
G75*
G02*
X89895000Y-92310000I200000J0D01*
G01*
X90445000Y-92310000D01*
G75*
G02*
X90645000Y-92510000I0J-200000D01*
G01*
X90645000Y-92910000D01*
G75*
G02*
X90445000Y-93110000I-200000J0D01*
G01*
G37*
%TD.AperFunction*%
%TD*%
%TO.P,R4,2*%
%TO.N,GND*%
%TA.AperFunction,SMDPad,CuDef*%
G36*
G01*
X117265000Y-104415000D02*
X117265000Y-103865000D01*
G75*
G02*
X117465000Y-103665000I200000J0D01*
G01*
X117865000Y-103665000D01*
G75*
G02*
X118065000Y-103865000I0J-200000D01*
G01*
X118065000Y-104415000D01*
G75*
G02*
X117865000Y-104615000I-200000J0D01*
G01*
X117465000Y-104615000D01*
G75*
G02*
X117265000Y-104415000I0J200000D01*
G01*
G37*
%TD.AperFunction*%
%TO.P,R4,1*%
%TO.N,Net-(C6-Pad1)*%
%TA.AperFunction,SMDPad,CuDef*%
G36*
G01*
X115615000Y-104415000D02*
X115615000Y-103865000D01*
G75*
G02*
X115815000Y-103665000I200000J0D01*
G01*
X116215000Y-103665000D01*
G75*
G02*
X116415000Y-103865000I0J-200000D01*
G01*
X116415000Y-104415000D01*
G75*
G02*
X116215000Y-104615000I-200000J0D01*
G01*
X115815000Y-104615000D01*
G75*
G02*
X115615000Y-104415000I0J200000D01*
G01*
G37*
%TD.AperFunction*%
%TD*%
%TO.P,R3,2*%
%TO.N,Net-(C6-Pad1)*%
%TA.AperFunction,SMDPad,CuDef*%
G36*
G01*
X117265000Y-101875000D02*
X117265000Y-101325000D01*
G75*
G02*
X117465000Y-101125000I200000J0D01*
G01*
X117865000Y-101125000D01*
G75*
G02*
X118065000Y-101325000I0J-200000D01*
G01*
X118065000Y-101875000D01*
G75*
G02*
X117865000Y-102075000I-200000J0D01*
G01*
X117465000Y-102075000D01*
G75*
G02*
X117265000Y-101875000I0J200000D01*
G01*
G37*
%TD.AperFunction*%
%TO.P,R3,1*%
%TO.N,Net-(R2-Pad2)*%
%TA.AperFunction,SMDPad,CuDef*%
G36*
G01*
X115615000Y-101875000D02*
X115615000Y-101325000D01*
G75*
G02*
X115815000Y-101125000I200000J0D01*
G01*
X116215000Y-101125000D01*
G75*
G02*
X116415000Y-101325000I0J-200000D01*
G01*
X116415000Y-101875000D01*
G75*
G02*
X116215000Y-102075000I-200000J0D01*
G01*
X115815000Y-102075000D01*
G75*
G02*
X115615000Y-101875000I0J200000D01*
G01*
G37*
%TD.AperFunction*%
%TD*%
%TO.P,R2,2*%
%TO.N,Net-(R2-Pad2)*%
%TA.AperFunction,SMDPad,CuDef*%
G36*
G01*
X116415000Y-98785000D02*
X116415000Y-99335000D01*
G75*
G02*
X116215000Y-99535000I-200000J0D01*
G01*
X115815000Y-99535000D01*
G75*
G02*
X115615000Y-99335000I0J200000D01*
G01*
X115615000Y-98785000D01*
G75*
G02*
X115815000Y-98585000I200000J0D01*
G01*
X116215000Y-98585000D01*
G75*
G02*
X116415000Y-98785000I0J-200000D01*
G01*
G37*
%TD.AperFunction*%
%TO.P,R2,1*%
%TO.N,+10V*%
%TA.AperFunction,SMDPad,CuDef*%
G36*
G01*
X118065000Y-98785000D02*
X118065000Y-99335000D01*
G75*
G02*
X117865000Y-99535000I-200000J0D01*
G01*
X117465000Y-99535000D01*
G75*
G02*
X117265000Y-99335000I0J200000D01*
G01*
X117265000Y-98785000D01*
G75*
G02*
X117465000Y-98585000I200000J0D01*
G01*
X117865000Y-98585000D01*
G75*
G02*
X118065000Y-98785000I0J-200000D01*
G01*
G37*
%TD.AperFunction*%
%TD*%
D25*
%TO.P,J1,3*%
%TO.N,Net-(IC5-Pad2)*%
X99220000Y-87630000D03*
%TO.P,J1,2*%
%TO.N,Net-(D1-Pad2)*%
X104220000Y-87630000D03*
D26*
%TO.P,J1,1*%
%TO.N,GND*%
X109220000Y-87630000D03*
%TD*%
D27*
%TO.N,+VDC*%
X122555000Y-94615000D03*
%TO.N,Net-(10VSourceAdj1-Pad2)*%
X114300000Y-99060000D03*
%TO.N,Net-(IC1-Pad1)*%
X114129000Y-91611000D03*
%TO.N,Net-(C6-Pad1)*%
X117193100Y-103055000D03*
%TO.N,Net-(C8-Pad1)*%
X93026700Y-100962700D03*
%TO.N,Net-(R2-Pad2)*%
X115384500Y-102851700D03*
%TD*%
D28*
%TO.N,GND*%
X109760000Y-119380000D02*
X109760000Y-117083000D01*
X109760000Y-117083000D02*
X111462400Y-115380600D01*
X111462400Y-115380600D02*
X111462400Y-110192400D01*
X106680000Y-106600000D02*
X104665000Y-106600000D01*
X104665000Y-106600000D02*
X102045000Y-109220000D01*
X118110000Y-110490000D02*
X118110000Y-112766300D01*
X118110000Y-112766300D02*
X119380000Y-114036300D01*
X119380000Y-114036300D02*
X119380000Y-116840000D01*
D29*
X118110000Y-107990000D02*
X118110000Y-110490000D01*
X118110000Y-104585000D02*
X117665000Y-104140000D01*
X118110000Y-107990000D02*
X118110000Y-104585000D01*
D28*
X118555000Y-104140000D02*
X118110000Y-104585000D01*
D29*
X120690000Y-104140000D02*
X118555000Y-104140000D01*
X118555000Y-104140000D02*
X118110000Y-104140000D01*
D28*
X85915000Y-111760000D02*
X82630000Y-108475000D01*
X82630000Y-108475000D02*
X82630000Y-101600000D01*
X86360000Y-115410000D02*
X85915000Y-114965000D01*
X85915000Y-114965000D02*
X85915000Y-111760000D01*
X86360000Y-82550000D02*
X85464000Y-81654000D01*
X85464000Y-81654000D02*
X83435300Y-81654000D01*
X83435300Y-81654000D02*
X82910700Y-82178600D01*
X82910700Y-82178600D02*
X82910700Y-88299900D01*
X82910700Y-88299900D02*
X85612700Y-91001900D01*
X85612700Y-91001900D02*
X85612700Y-93980000D01*
X85612700Y-93980000D02*
X86702000Y-93980000D01*
X101720000Y-95050000D02*
X101720000Y-94431000D01*
X101720000Y-94431000D02*
X93883800Y-86594800D01*
X93883800Y-86594800D02*
X90404800Y-86594800D01*
X90404800Y-86594800D02*
X86360000Y-82550000D01*
D29*
X118110000Y-107990000D02*
X126310000Y-107990000D01*
X126310000Y-107990000D02*
X127540000Y-109220000D01*
X114260000Y-104140000D02*
X114260000Y-105450000D01*
X120650000Y-97790000D02*
X121790000Y-97790000D01*
X121790000Y-97790000D02*
X127000000Y-103000000D01*
X109220000Y-87630000D02*
X109220000Y-89692000D01*
X109220000Y-89692000D02*
X117318000Y-97790000D01*
X117318000Y-97790000D02*
X120650000Y-97790000D01*
X120650000Y-97790000D02*
X120650000Y-104100000D01*
X120650000Y-104100000D02*
X120690000Y-104140000D01*
D28*
X128270000Y-115570000D02*
X128270000Y-109950000D01*
X128270000Y-109950000D02*
X127540000Y-109220000D01*
X90170000Y-95250000D02*
X89368800Y-94448800D01*
X89368800Y-94448800D02*
X89368800Y-93980000D01*
D29*
X109220000Y-87630000D02*
X109140000Y-87630000D01*
X109140000Y-87630000D02*
X101720000Y-95050000D01*
X101720000Y-95050000D02*
X100250000Y-96520000D01*
D28*
X89368800Y-93980000D02*
X86702000Y-93980000D01*
X89368800Y-93980000D02*
X89368800Y-91861200D01*
X89368800Y-91861200D02*
X90170000Y-91060000D01*
X110954400Y-110192400D02*
X110490000Y-109728000D01*
X111462400Y-110192400D02*
X110954400Y-110192400D01*
X112248000Y-107970000D02*
X118090000Y-107970000D01*
X110490000Y-109728000D02*
X112248000Y-107970000D01*
D29*
X118090000Y-107970000D02*
X118110000Y-107990000D01*
X114260000Y-104140000D02*
X118090000Y-107970000D01*
D28*
%TO.N,Net-(GAIN1-Pad2)*%
X81280000Y-96520000D02*
X82369300Y-96520000D01*
X93980000Y-115570000D02*
X83654700Y-105244700D01*
X83654700Y-105244700D02*
X83654700Y-97805400D01*
X83654700Y-97805400D02*
X82369300Y-96520000D01*
%TO.N,Net-(GAIN1-Pad3)*%
X81280000Y-95250000D02*
X82369300Y-95250000D01*
X82369300Y-95250000D02*
X84105100Y-96985800D01*
X84105100Y-96985800D02*
X84105100Y-102013400D01*
X84105100Y-102013400D02*
X95121700Y-113030000D01*
X95121700Y-113030000D02*
X96520000Y-113030000D01*
%TO.N,+10V*%
X93980000Y-89777700D02*
X93980000Y-90075300D01*
X93980000Y-88900000D02*
X93980000Y-89777700D01*
X90170000Y-97300000D02*
X90451000Y-97300000D01*
X90451000Y-97300000D02*
X92171500Y-95579500D01*
X92171500Y-95579500D02*
X92171500Y-91586200D01*
X92171500Y-91586200D02*
X93980000Y-89777700D01*
X87791300Y-97790000D02*
X88281300Y-97300000D01*
X88281300Y-97300000D02*
X90170000Y-97300000D01*
X102022700Y-99907300D02*
X105410000Y-96520000D01*
X102022700Y-99907300D02*
X97469600Y-95354300D01*
X97469600Y-95354300D02*
X97469600Y-93197600D01*
X97469600Y-93197600D02*
X94347300Y-90075300D01*
X94347300Y-90075300D02*
X93980000Y-90075300D01*
X86702000Y-97790000D02*
X87791300Y-97790000D01*
X111760000Y-104140000D02*
X107060000Y-104140000D01*
X117665000Y-99060000D02*
X117265000Y-99060000D01*
X117265000Y-99060000D02*
X112185000Y-104140000D01*
X112185000Y-104140000D02*
X111760000Y-104140000D01*
X100944400Y-102509600D02*
X100330000Y-103124000D01*
X100944400Y-100985600D02*
X100944400Y-102509600D01*
X102022700Y-99907300D02*
X100944400Y-100985600D01*
D30*
%TO.N,+VDC*%
X122555000Y-94615000D02*
X122555000Y-93345000D01*
X122555000Y-93345000D02*
X120650000Y-91440000D01*
X120650000Y-91440000D02*
X120205000Y-91440000D01*
D28*
%TO.N,Net-(10VSourceAdj1-Pad2)*%
X110410000Y-96520000D02*
X111760000Y-96520000D01*
X111760000Y-96520000D02*
X114300000Y-99060000D01*
X99203402Y-105664000D02*
X97790000Y-105664000D01*
X108093000Y-96774402D02*
X99203402Y-105664000D01*
X110155598Y-96774402D02*
X110410000Y-96520000D01*
X108093000Y-96774402D02*
X110155598Y-96774402D01*
%TO.N,Net-(IC1-Pad1)*%
X114129000Y-91611000D02*
X118384000Y-91611000D01*
X118384000Y-91611000D02*
X118555000Y-91440000D01*
%TO.N,Net-(C6-Pad1)*%
X117193100Y-102071900D02*
X117193100Y-103055000D01*
X117193100Y-102071900D02*
X117665000Y-101600000D01*
X116015000Y-104140000D02*
X116015000Y-103250000D01*
X116015000Y-103250000D02*
X117193100Y-102071900D01*
%TO.N,Net-(C8-Pad1)*%
X105410000Y-104140000D02*
X100608600Y-108941400D01*
X100608600Y-108941400D02*
X100608600Y-109024300D01*
X100608600Y-109024300D02*
X101612400Y-110028100D01*
X101612400Y-110028100D02*
X102886900Y-110028100D01*
X102886900Y-110028100D02*
X103695000Y-109220000D01*
X111760000Y-119380000D02*
X110623400Y-120516600D01*
X110623400Y-120516600D02*
X109275300Y-120516600D01*
X109275300Y-120516600D02*
X102886900Y-114128200D01*
X102886900Y-114128200D02*
X102886900Y-110028100D01*
X120650000Y-116840000D02*
X121500300Y-116840000D01*
X121500300Y-116840000D02*
X125310300Y-120650000D01*
X125310300Y-120650000D02*
X128270000Y-120650000D01*
X99886000Y-108941400D02*
X100608600Y-108941400D01*
X99653998Y-108941400D02*
X99886000Y-108941400D01*
X93026700Y-102314102D02*
X99653998Y-108941400D01*
X93026700Y-100962700D02*
X93026700Y-102314102D01*
D30*
%TO.N,Net-(D1-Pad2)*%
X104220000Y-87630000D02*
X108030000Y-83820000D01*
X108030000Y-83820000D02*
X110490000Y-83820000D01*
X110490000Y-83820000D02*
X113030000Y-86360000D01*
X113030000Y-86360000D02*
X128400000Y-86360000D01*
X128400000Y-86360000D02*
X130810000Y-88770000D01*
%TO.N,Net-(D2-Pad1)*%
X127000000Y-88900000D02*
X124460000Y-88900000D01*
D28*
%TO.N,Net-(IC2-Pad4)*%
X80130000Y-101600000D02*
X80130000Y-97850700D01*
X80130000Y-97850700D02*
X80190700Y-97790000D01*
X80190700Y-97790000D02*
X81280000Y-97790000D01*
%TO.N,Net-(IC2-Pad2)*%
X85130000Y-101600000D02*
X85130000Y-96740700D01*
X85130000Y-96740700D02*
X82369300Y-93980000D01*
X82369300Y-93980000D02*
X81280000Y-93980000D01*
%TO.N,Net-(IC2-Pad1)*%
X87630000Y-101600000D02*
X87630000Y-100592000D01*
X87630000Y-100592000D02*
X88511800Y-100592000D01*
X88511800Y-100592000D02*
X93980000Y-95124000D01*
X93980000Y-95124000D02*
X93980000Y-91440000D01*
%TO.N,Net-(IC3-Pad7)*%
X83820000Y-82550000D02*
X90971100Y-89701100D01*
X90971100Y-89701100D02*
X90971100Y-91908900D01*
X90971100Y-91908900D02*
X90170000Y-92710000D01*
X86702000Y-96520000D02*
X87791300Y-96520000D01*
X87791300Y-96520000D02*
X88036300Y-96275000D01*
X88036300Y-96275000D02*
X90807300Y-96275000D01*
X90807300Y-96275000D02*
X91209400Y-95872900D01*
X91209400Y-95872900D02*
X91209400Y-93749400D01*
X91209400Y-93749400D02*
X90170000Y-92710000D01*
%TO.N,Net-(IC3-Pad6)*%
X84265000Y-111760000D02*
X84265000Y-112425000D01*
X84265000Y-112425000D02*
X81280000Y-115410000D01*
X86702000Y-95250000D02*
X84444700Y-95250000D01*
X84444700Y-95250000D02*
X82517000Y-93322300D01*
X82517000Y-93322300D02*
X80360600Y-93322300D01*
X80360600Y-93322300D02*
X79099100Y-94583800D01*
X79099100Y-94583800D02*
X79099100Y-106594000D01*
X79099100Y-106594000D02*
X84265000Y-111760000D01*
X83820000Y-123350000D02*
X83820000Y-117950000D01*
X83820000Y-117950000D02*
X81280000Y-115410000D01*
%TO.N,Net-(IC5-Pad2)*%
X83820000Y-90490000D02*
X81280000Y-87950000D01*
X81280000Y-87950000D02*
X81280000Y-82550000D01*
%TO.N,Net-(R2-Pad2)*%
X116015000Y-101600000D02*
X115384500Y-102230500D01*
X115384500Y-102230500D02*
X115384500Y-102851700D01*
X108957000Y-113275000D02*
X110490000Y-114808000D01*
X106290300Y-104615400D02*
X108957000Y-107282100D01*
X108957000Y-107282100D02*
X108957000Y-113275000D01*
X106290300Y-103581300D02*
X106290300Y-104615400D01*
X109634700Y-100236900D02*
X106290300Y-103581300D01*
X114838100Y-100236900D02*
X109634700Y-100236900D01*
X116015000Y-99060000D02*
X114838100Y-100236900D01*
%TD*%
M02*
