%TF.GenerationSoftware,KiCad,Pcbnew,(5.1.9)-1*%
%TF.CreationDate,2021-05-25T19:19:14-07:00*%
%TF.ProjectId,VacuumSensor,56616375-756d-4536-956e-736f722e6b69,rev?*%
%TF.SameCoordinates,Original*%
%TF.FileFunction,Soldermask,Top*%
%TF.FilePolarity,Negative*%
%FSLAX46Y46*%
G04 Gerber Fmt 4.6, Leading zero omitted, Abs format (unit mm)*
G04 Created by KiCad (PCBNEW (5.1.9)-1) date 2021-05-25 19:19:14*
%MOMM*%
%LPD*%
G01*
G04 APERTURE LIST*
%ADD10R,0.600000X0.550000*%
%ADD11C,1.200000*%
%ADD12R,1.475000X0.450000*%
%ADD13R,1.200000X1.200000*%
%ADD14C,2.600000*%
%ADD15R,2.600000X2.600000*%
%ADD16R,1.700000X1.700000*%
%ADD17O,1.700000X1.700000*%
%ADD18R,1.600000X1.600000*%
%ADD19C,1.600000*%
%ADD20O,1.600000X1.600000*%
%ADD21R,2.000000X2.000000*%
%ADD22C,1.260000*%
%ADD23C,1.575000*%
%ADD24R,1.575000X1.575000*%
%ADD25R,1.130000X1.130000*%
%ADD26C,1.130000*%
%ADD27C,1.365000*%
%ADD28R,1.365000X1.365000*%
%ADD29R,1.500000X1.050000*%
%ADD30O,1.500000X1.050000*%
G04 APERTURE END LIST*
D10*
%TO.C,RT1*%
X89475000Y-88120000D03*
X89475000Y-89420000D03*
%TD*%
D11*
%TO.C,RG1*%
X78740000Y-113290000D03*
X78740000Y-97790000D03*
%TD*%
%TO.C,R6*%
G36*
G01*
X89930000Y-92050000D02*
X89380000Y-92050000D01*
G75*
G02*
X89180000Y-91850000I0J200000D01*
G01*
X89180000Y-91450000D01*
G75*
G02*
X89380000Y-91250000I200000J0D01*
G01*
X89930000Y-91250000D01*
G75*
G02*
X90130000Y-91450000I0J-200000D01*
G01*
X90130000Y-91850000D01*
G75*
G02*
X89930000Y-92050000I-200000J0D01*
G01*
G37*
G36*
G01*
X89930000Y-93700000D02*
X89380000Y-93700000D01*
G75*
G02*
X89180000Y-93500000I0J200000D01*
G01*
X89180000Y-93100000D01*
G75*
G02*
X89380000Y-92900000I200000J0D01*
G01*
X89930000Y-92900000D01*
G75*
G02*
X90130000Y-93100000I0J-200000D01*
G01*
X90130000Y-93500000D01*
G75*
G02*
X89930000Y-93700000I-200000J0D01*
G01*
G37*
%TD*%
D12*
%TO.C,IC5*%
X109618000Y-85355000D03*
X109618000Y-86005000D03*
X109618000Y-86655000D03*
X109618000Y-87305000D03*
X109618000Y-87955000D03*
X109618000Y-88605000D03*
X109618000Y-89255000D03*
X109618000Y-89905000D03*
X103742000Y-89905000D03*
X103742000Y-89255000D03*
X103742000Y-88605000D03*
X103742000Y-87955000D03*
X103742000Y-87305000D03*
X103742000Y-86655000D03*
X103742000Y-86005000D03*
X103742000Y-85355000D03*
%TD*%
D13*
%TO.C,C10*%
X101600000Y-91440000D03*
D11*
X101600000Y-92940000D03*
%TD*%
D13*
%TO.C,C9*%
X101600000Y-86360000D03*
D11*
X101600000Y-87860000D03*
%TD*%
D13*
%TO.C,C8*%
X107950000Y-92710000D03*
D11*
X107950000Y-94210000D03*
%TD*%
%TO.C,R4*%
G36*
G01*
X101875000Y-98190000D02*
X101325000Y-98190000D01*
G75*
G02*
X101125000Y-97990000I0J200000D01*
G01*
X101125000Y-97590000D01*
G75*
G02*
X101325000Y-97390000I200000J0D01*
G01*
X101875000Y-97390000D01*
G75*
G02*
X102075000Y-97590000I0J-200000D01*
G01*
X102075000Y-97990000D01*
G75*
G02*
X101875000Y-98190000I-200000J0D01*
G01*
G37*
G36*
G01*
X101875000Y-96540000D02*
X101325000Y-96540000D01*
G75*
G02*
X101125000Y-96340000I0J200000D01*
G01*
X101125000Y-95940000D01*
G75*
G02*
X101325000Y-95740000I200000J0D01*
G01*
X101875000Y-95740000D01*
G75*
G02*
X102075000Y-95940000I0J-200000D01*
G01*
X102075000Y-96340000D01*
G75*
G02*
X101875000Y-96540000I-200000J0D01*
G01*
G37*
%TD*%
D14*
%TO.C,J3*%
X125730000Y-82870000D03*
X125730000Y-87870000D03*
X125730000Y-92870000D03*
X125730000Y-97870000D03*
D15*
X125730000Y-102870000D03*
%TD*%
D16*
%TO.C,J1*%
X93980000Y-105410000D03*
D17*
X93980000Y-102870000D03*
%TD*%
D18*
%TO.C,C11*%
X82550000Y-83820000D03*
D19*
X80050000Y-83820000D03*
%TD*%
D18*
%TO.C,A1*%
X97790000Y-85090000D03*
D20*
X113030000Y-118110000D03*
X97790000Y-87630000D03*
X113030000Y-115570000D03*
X97790000Y-90170000D03*
X113030000Y-113030000D03*
X97790000Y-92710000D03*
X113030000Y-110490000D03*
X97790000Y-95250000D03*
X113030000Y-107950000D03*
X97790000Y-97790000D03*
X113030000Y-105410000D03*
X97790000Y-100330000D03*
X113030000Y-102870000D03*
X97790000Y-102870000D03*
X113030000Y-100330000D03*
X97790000Y-105410000D03*
X113030000Y-97790000D03*
X97790000Y-107950000D03*
X113030000Y-95250000D03*
X97790000Y-110490000D03*
X113030000Y-92710000D03*
X97790000Y-113030000D03*
X113030000Y-90170000D03*
X97790000Y-115570000D03*
X113030000Y-87630000D03*
X97790000Y-118110000D03*
X113030000Y-85090000D03*
X97790000Y-120650000D03*
X113030000Y-120650000D03*
%TD*%
D21*
%TO.C,TP1*%
X121920000Y-124460000D03*
%TD*%
D22*
%TO.C,10VSourceAdj1*%
X107950000Y-121920000D03*
X105410000Y-124460000D03*
X102870000Y-121920000D03*
%TD*%
D18*
%TO.C,C6*%
X101600000Y-105410000D03*
D19*
X104100000Y-105410000D03*
%TD*%
D18*
%TO.C,C4*%
X109220000Y-100330000D03*
D19*
X106720000Y-100330000D03*
%TD*%
%TO.C,R1*%
G36*
G01*
X110445000Y-114025000D02*
X110445000Y-114575000D01*
G75*
G02*
X110245000Y-114775000I-200000J0D01*
G01*
X109845000Y-114775000D01*
G75*
G02*
X109645000Y-114575000I0J200000D01*
G01*
X109645000Y-114025000D01*
G75*
G02*
X109845000Y-113825000I200000J0D01*
G01*
X110245000Y-113825000D01*
G75*
G02*
X110445000Y-114025000I0J-200000D01*
G01*
G37*
G36*
G01*
X108795000Y-114025000D02*
X108795000Y-114575000D01*
G75*
G02*
X108595000Y-114775000I-200000J0D01*
G01*
X108195000Y-114775000D01*
G75*
G02*
X107995000Y-114575000I0J200000D01*
G01*
X107995000Y-114025000D01*
G75*
G02*
X108195000Y-113825000I200000J0D01*
G01*
X108595000Y-113825000D01*
G75*
G02*
X108795000Y-114025000I0J-200000D01*
G01*
G37*
%TD*%
D21*
%TO.C,TP2*%
X92710000Y-116840000D03*
%TD*%
D17*
%TO.C,J2*%
X93980000Y-91440000D03*
D16*
X93980000Y-88900000D03*
%TD*%
D23*
%TO.C,D1*%
X116840000Y-87500000D03*
D24*
X116840000Y-101600000D03*
%TD*%
D18*
%TO.C,C3*%
X120650000Y-114300000D03*
D19*
X120650000Y-116300000D03*
%TD*%
%TO.C,L1*%
X105410000Y-116840000D03*
D20*
X115570000Y-116840000D03*
%TD*%
D24*
%TO.C,D2*%
X118110000Y-118110000D03*
D23*
X118110000Y-104010000D03*
%TD*%
D25*
%TO.C,IC4*%
X78740000Y-115410000D03*
D26*
X81280000Y-115410000D03*
X83820000Y-115410000D03*
X86360000Y-115410000D03*
X86360000Y-123350000D03*
X83820000Y-123350000D03*
X81280000Y-123350000D03*
X78740000Y-123350000D03*
%TD*%
D27*
%TO.C,IC2*%
X80130000Y-101600000D03*
X82630000Y-101600000D03*
X85130000Y-101600000D03*
D28*
X87630000Y-101600000D03*
%TD*%
D22*
%TO.C,OutAdj1*%
X128270000Y-113030000D03*
X125730000Y-110490000D03*
X128270000Y-107950000D03*
%TD*%
D29*
%TO.C,U2*%
X93980000Y-99060000D03*
D30*
X93980000Y-96520000D03*
X93980000Y-97790000D03*
%TD*%
%TO.C,U1*%
X120650000Y-109220000D03*
X120650000Y-107950000D03*
D29*
X120650000Y-110490000D03*
%TD*%
D22*
%TO.C,5VADJ1*%
X128270000Y-118110000D03*
X125730000Y-120650000D03*
X128270000Y-123190000D03*
%TD*%
%TO.C,R2*%
G36*
G01*
X118065000Y-106405000D02*
X118065000Y-106955000D01*
G75*
G02*
X117865000Y-107155000I-200000J0D01*
G01*
X117465000Y-107155000D01*
G75*
G02*
X117265000Y-106955000I0J200000D01*
G01*
X117265000Y-106405000D01*
G75*
G02*
X117465000Y-106205000I200000J0D01*
G01*
X117865000Y-106205000D01*
G75*
G02*
X118065000Y-106405000I0J-200000D01*
G01*
G37*
G36*
G01*
X116415000Y-106405000D02*
X116415000Y-106955000D01*
G75*
G02*
X116215000Y-107155000I-200000J0D01*
G01*
X115815000Y-107155000D01*
G75*
G02*
X115615000Y-106955000I0J200000D01*
G01*
X115615000Y-106405000D01*
G75*
G02*
X115815000Y-106205000I200000J0D01*
G01*
X116215000Y-106205000D01*
G75*
G02*
X116415000Y-106405000I0J-200000D01*
G01*
G37*
%TD*%
M02*
