%TF.GenerationSoftware,KiCad,Pcbnew,(5.1.9)-1*%
%TF.CreationDate,2021-05-25T19:19:13-07:00*%
%TF.ProjectId,VacuumSensor,56616375-756d-4536-956e-736f722e6b69,rev?*%
%TF.SameCoordinates,Original*%
%TF.FileFunction,Copper,L2,Bot*%
%TF.FilePolarity,Positive*%
%FSLAX46Y46*%
G04 Gerber Fmt 4.6, Leading zero omitted, Abs format (unit mm)*
G04 Created by KiCad (PCBNEW (5.1.9)-1) date 2021-05-25 19:19:13*
%MOMM*%
%LPD*%
G01*
G04 APERTURE LIST*
%TA.AperFunction,ComponentPad*%
%ADD10C,1.200000*%
%TD*%
%TA.AperFunction,ComponentPad*%
%ADD11R,1.200000X1.200000*%
%TD*%
%TA.AperFunction,ComponentPad*%
%ADD12C,2.600000*%
%TD*%
%TA.AperFunction,ComponentPad*%
%ADD13R,2.600000X2.600000*%
%TD*%
%TA.AperFunction,ComponentPad*%
%ADD14R,1.700000X1.700000*%
%TD*%
%TA.AperFunction,ComponentPad*%
%ADD15O,1.700000X1.700000*%
%TD*%
%TA.AperFunction,ComponentPad*%
%ADD16R,1.600000X1.600000*%
%TD*%
%TA.AperFunction,ComponentPad*%
%ADD17C,1.600000*%
%TD*%
%TA.AperFunction,ComponentPad*%
%ADD18O,1.600000X1.600000*%
%TD*%
%TA.AperFunction,ComponentPad*%
%ADD19C,1.260000*%
%TD*%
%TA.AperFunction,ComponentPad*%
%ADD20C,1.575000*%
%TD*%
%TA.AperFunction,ComponentPad*%
%ADD21R,1.575000X1.575000*%
%TD*%
%TA.AperFunction,SMDPad,CuDef*%
%ADD22R,1.528000X0.650000*%
%TD*%
%TA.AperFunction,ComponentPad*%
%ADD23R,1.130000X1.130000*%
%TD*%
%TA.AperFunction,ComponentPad*%
%ADD24C,1.130000*%
%TD*%
%TA.AperFunction,ComponentPad*%
%ADD25C,1.365000*%
%TD*%
%TA.AperFunction,ComponentPad*%
%ADD26R,1.365000X1.365000*%
%TD*%
%TA.AperFunction,ComponentPad*%
%ADD27R,1.500000X1.050000*%
%TD*%
%TA.AperFunction,ComponentPad*%
%ADD28O,1.500000X1.050000*%
%TD*%
%TA.AperFunction,ViaPad*%
%ADD29C,0.800000*%
%TD*%
%TA.AperFunction,Conductor*%
%ADD30C,0.508000*%
%TD*%
%TA.AperFunction,Conductor*%
%ADD31C,0.250000*%
%TD*%
%TA.AperFunction,Conductor*%
%ADD32C,0.762000*%
%TD*%
G04 APERTURE END LIST*
D10*
%TO.P,RG1,2*%
%TO.N,Net-(IC3-Pad2)*%
X78740000Y-113290000D03*
%TO.P,RG1,1*%
%TO.N,Net-(IC3-Pad3)*%
X78740000Y-97790000D03*
%TD*%
D11*
%TO.P,C10,1*%
%TO.N,Net-(C10-Pad1)*%
X101600000Y-91440000D03*
D10*
%TO.P,C10,2*%
%TO.N,Net-(C10-Pad2)*%
X101600000Y-92940000D03*
%TD*%
D11*
%TO.P,C9,1*%
%TO.N,Net-(C9-Pad1)*%
X101600000Y-86360000D03*
D10*
%TO.P,C9,2*%
%TO.N,Net-(C9-Pad2)*%
X101600000Y-87860000D03*
%TD*%
D11*
%TO.P,C8,1*%
%TO.N,Net-(C8-Pad1)*%
X107950000Y-92710000D03*
D10*
%TO.P,C8,2*%
%TO.N,Net-(C8-Pad2)*%
X107950000Y-94210000D03*
%TD*%
D12*
%TO.P,J3,5*%
%TO.N,Net-(IC5-Pad9)*%
X125730000Y-82870000D03*
%TO.P,J3,4*%
%TO.N,Net-(IC5-Pad13)*%
X125730000Y-87870000D03*
%TO.P,J3,3*%
%TO.N,Net-(J3-Pad3)*%
X125730000Y-92870000D03*
%TO.P,J3,2*%
%TO.N,Net-(D1-Pad2)*%
X125730000Y-97870000D03*
D13*
%TO.P,J3,1*%
%TO.N,GND*%
X125730000Y-102870000D03*
%TD*%
D14*
%TO.P,J1,1*%
%TO.N,Net-(A1-Pad27)*%
X93980000Y-105410000D03*
D15*
%TO.P,J1,2*%
%TO.N,Net-(A1-Pad6)*%
X93980000Y-102870000D03*
%TD*%
D16*
%TO.P,C11,1*%
%TO.N,Net-(A1-Pad27)*%
X82550000Y-83820000D03*
D17*
%TO.P,C11,2*%
%TO.N,GND*%
X80050000Y-83820000D03*
%TD*%
%TO.P,C5,2*%
%TO.N,GND*%
%TA.AperFunction,SMDPad,CuDef*%
G36*
G01*
X110940001Y-104715000D02*
X110039999Y-104715000D01*
G75*
G02*
X109790000Y-104465001I0J249999D01*
G01*
X109790000Y-103814999D01*
G75*
G02*
X110039999Y-103565000I249999J0D01*
G01*
X110940001Y-103565000D01*
G75*
G02*
X111190000Y-103814999I0J-249999D01*
G01*
X111190000Y-104465001D01*
G75*
G02*
X110940001Y-104715000I-249999J0D01*
G01*
G37*
%TD.AperFunction*%
%TO.P,C5,1*%
%TO.N,Net-(C5-Pad1)*%
%TA.AperFunction,SMDPad,CuDef*%
G36*
G01*
X110940001Y-106765000D02*
X110039999Y-106765000D01*
G75*
G02*
X109790000Y-106515001I0J249999D01*
G01*
X109790000Y-105864999D01*
G75*
G02*
X110039999Y-105615000I249999J0D01*
G01*
X110940001Y-105615000D01*
G75*
G02*
X111190000Y-105864999I0J-249999D01*
G01*
X111190000Y-106515001D01*
G75*
G02*
X110940001Y-106765000I-249999J0D01*
G01*
G37*
%TD.AperFunction*%
%TD*%
%TO.P,C2,1*%
%TO.N,+10V*%
%TA.AperFunction,SMDPad,CuDef*%
G36*
G01*
X108280000Y-118929999D02*
X108280000Y-119830001D01*
G75*
G02*
X108030001Y-120080000I-249999J0D01*
G01*
X107379999Y-120080000D01*
G75*
G02*
X107130000Y-119830001I0J249999D01*
G01*
X107130000Y-118929999D01*
G75*
G02*
X107379999Y-118680000I249999J0D01*
G01*
X108030001Y-118680000D01*
G75*
G02*
X108280000Y-118929999I0J-249999D01*
G01*
G37*
%TD.AperFunction*%
%TO.P,C2,2*%
%TO.N,Net-(10VSourceAdj1-Pad2)*%
%TA.AperFunction,SMDPad,CuDef*%
G36*
G01*
X106230000Y-118929999D02*
X106230000Y-119830001D01*
G75*
G02*
X105980001Y-120080000I-249999J0D01*
G01*
X105329999Y-120080000D01*
G75*
G02*
X105080000Y-119830001I0J249999D01*
G01*
X105080000Y-118929999D01*
G75*
G02*
X105329999Y-118680000I249999J0D01*
G01*
X105980001Y-118680000D01*
G75*
G02*
X106230000Y-118929999I0J-249999D01*
G01*
G37*
%TD.AperFunction*%
%TD*%
%TO.P,C1,2*%
%TO.N,GND*%
%TA.AperFunction,SMDPad,CuDef*%
G36*
G01*
X107130001Y-104960000D02*
X106229999Y-104960000D01*
G75*
G02*
X105980000Y-104710001I0J249999D01*
G01*
X105980000Y-104059999D01*
G75*
G02*
X106229999Y-103810000I249999J0D01*
G01*
X107130001Y-103810000D01*
G75*
G02*
X107380000Y-104059999I0J-249999D01*
G01*
X107380000Y-104710001D01*
G75*
G02*
X107130001Y-104960000I-249999J0D01*
G01*
G37*
%TD.AperFunction*%
%TO.P,C1,1*%
%TO.N,Net-(C1-Pad1)*%
%TA.AperFunction,SMDPad,CuDef*%
G36*
G01*
X107130001Y-107010000D02*
X106229999Y-107010000D01*
G75*
G02*
X105980000Y-106760001I0J249999D01*
G01*
X105980000Y-106109999D01*
G75*
G02*
X106229999Y-105860000I249999J0D01*
G01*
X107130001Y-105860000D01*
G75*
G02*
X107380000Y-106109999I0J-249999D01*
G01*
X107380000Y-106760001D01*
G75*
G02*
X107130001Y-107010000I-249999J0D01*
G01*
G37*
%TD.AperFunction*%
%TD*%
D16*
%TO.P,A1,1*%
%TO.N,Net-(A1-Pad1)*%
X97790000Y-85090000D03*
D18*
%TO.P,A1,17*%
%TO.N,N/C*%
X113030000Y-118110000D03*
%TO.P,A1,2*%
%TO.N,Net-(A1-Pad2)*%
X97790000Y-87630000D03*
%TO.P,A1,18*%
%TO.N,N/C*%
X113030000Y-115570000D03*
%TO.P,A1,3*%
X97790000Y-90170000D03*
%TO.P,A1,19*%
%TO.N,Net-(A1-Pad19)*%
X113030000Y-113030000D03*
%TO.P,A1,4*%
%TO.N,GND*%
X97790000Y-92710000D03*
%TO.P,A1,20*%
%TO.N,Net-(A1-Pad20)*%
X113030000Y-110490000D03*
%TO.P,A1,5*%
%TO.N,N/C*%
X97790000Y-95250000D03*
%TO.P,A1,21*%
%TO.N,Net-(A1-Pad21)*%
X113030000Y-107950000D03*
%TO.P,A1,6*%
%TO.N,Net-(A1-Pad6)*%
X97790000Y-97790000D03*
%TO.P,A1,22*%
%TO.N,N/C*%
X113030000Y-105410000D03*
%TO.P,A1,7*%
X97790000Y-100330000D03*
%TO.P,A1,23*%
X113030000Y-102870000D03*
%TO.P,A1,8*%
X97790000Y-102870000D03*
%TO.P,A1,24*%
X113030000Y-100330000D03*
%TO.P,A1,9*%
X97790000Y-105410000D03*
%TO.P,A1,25*%
X113030000Y-97790000D03*
%TO.P,A1,10*%
X97790000Y-107950000D03*
%TO.P,A1,26*%
X113030000Y-95250000D03*
%TO.P,A1,11*%
X97790000Y-110490000D03*
%TO.P,A1,27*%
%TO.N,Net-(A1-Pad27)*%
X113030000Y-92710000D03*
%TO.P,A1,12*%
%TO.N,N/C*%
X97790000Y-113030000D03*
%TO.P,A1,28*%
X113030000Y-90170000D03*
%TO.P,A1,13*%
X97790000Y-115570000D03*
%TO.P,A1,29*%
%TO.N,GND*%
X113030000Y-87630000D03*
%TO.P,A1,14*%
%TO.N,N/C*%
X97790000Y-118110000D03*
%TO.P,A1,30*%
%TO.N,+10V*%
X113030000Y-85090000D03*
%TO.P,A1,15*%
%TO.N,N/C*%
X97790000Y-120650000D03*
%TO.P,A1,16*%
X113030000Y-120650000D03*
%TD*%
D19*
%TO.P,10VSourceAdj1,1*%
%TO.N,+10V*%
X107950000Y-121920000D03*
%TO.P,10VSourceAdj1,2*%
%TO.N,Net-(10VSourceAdj1-Pad2)*%
X105410000Y-124460000D03*
%TO.P,10VSourceAdj1,3*%
%TO.N,GND*%
X102870000Y-121920000D03*
%TD*%
D16*
%TO.P,C6,1*%
%TO.N,+VDC*%
X101600000Y-105410000D03*
D17*
%TO.P,C6,2*%
%TO.N,GND*%
X104100000Y-105410000D03*
%TD*%
D16*
%TO.P,C4,1*%
%TO.N,+10V*%
X109220000Y-100330000D03*
D17*
%TO.P,C4,2*%
%TO.N,GND*%
X106720000Y-100330000D03*
%TD*%
D15*
%TO.P,J2,2*%
%TO.N,Net-(IC2-Pad1)*%
X93980000Y-91440000D03*
D14*
%TO.P,J2,1*%
%TO.N,+10V*%
X93980000Y-88900000D03*
%TD*%
D20*
%TO.P,D1,2*%
%TO.N,Net-(D1-Pad2)*%
X116840000Y-87500000D03*
D21*
%TO.P,D1,1*%
%TO.N,+VDC*%
X116840000Y-101600000D03*
%TD*%
D16*
%TO.P,C3,1*%
%TO.N,+5V*%
X120650000Y-114300000D03*
D17*
%TO.P,C3,2*%
%TO.N,GND*%
X120650000Y-116300000D03*
%TD*%
%TO.P,L1,1*%
%TO.N,+10V*%
X105410000Y-116840000D03*
D18*
%TO.P,L1,2*%
%TO.N,Net-(D2-Pad1)*%
X115570000Y-116840000D03*
%TD*%
D22*
%TO.P,IC1,1*%
%TO.N,Net-(IC1-Pad1)*%
X103969000Y-112395000D03*
%TO.P,IC1,2*%
%TO.N,Net-(C1-Pad1)*%
X103969000Y-111125000D03*
%TO.P,IC1,3*%
%TO.N,+10V*%
X103969000Y-109855000D03*
%TO.P,IC1,4*%
%TO.N,Net-(10VSourceAdj1-Pad2)*%
X103969000Y-108585000D03*
%TO.P,IC1,5*%
%TO.N,Net-(C5-Pad1)*%
X109391000Y-108585000D03*
%TO.P,IC1,6*%
%TO.N,GND*%
X109391000Y-109855000D03*
%TO.P,IC1,7*%
%TO.N,+VDC*%
X109391000Y-111125000D03*
%TO.P,IC1,8*%
%TO.N,Net-(D2-Pad1)*%
X109391000Y-112395000D03*
%TD*%
D21*
%TO.P,D2,1*%
%TO.N,Net-(D2-Pad1)*%
X118110000Y-118110000D03*
D20*
%TO.P,D2,2*%
%TO.N,GND*%
X118110000Y-104010000D03*
%TD*%
D23*
%TO.P,IC4,1*%
%TO.N,N/C*%
X78740000Y-115410000D03*
D24*
%TO.P,IC4,2*%
%TO.N,Net-(A1-Pad20)*%
X81280000Y-115410000D03*
%TO.P,IC4,3*%
%TO.N,Net-(IC4-Pad3)*%
X83820000Y-115410000D03*
%TO.P,IC4,4*%
%TO.N,GND*%
X86360000Y-115410000D03*
%TO.P,IC4,5*%
%TO.N,N/C*%
X86360000Y-123350000D03*
%TO.P,IC4,6*%
%TO.N,Net-(A1-Pad20)*%
X83820000Y-123350000D03*
%TO.P,IC4,7*%
%TO.N,+5V*%
X81280000Y-123350000D03*
%TO.P,IC4,8*%
%TO.N,N/C*%
X78740000Y-123350000D03*
%TD*%
D22*
%TO.P,IC3,8*%
%TO.N,+5V*%
X86702000Y-97790000D03*
%TO.P,IC3,7*%
%TO.N,Net-(A1-Pad19)*%
X86702000Y-96520000D03*
%TO.P,IC3,6*%
%TO.N,Net-(A1-Pad20)*%
X86702000Y-95250000D03*
%TO.P,IC3,5*%
%TO.N,GND*%
X86702000Y-93980000D03*
%TO.P,IC3,4*%
%TO.N,Net-(IC2-Pad2)*%
X81280000Y-93980000D03*
%TO.P,IC3,3*%
%TO.N,Net-(IC3-Pad3)*%
X81280000Y-95250000D03*
%TO.P,IC3,2*%
%TO.N,Net-(IC3-Pad2)*%
X81280000Y-96520000D03*
%TO.P,IC3,1*%
%TO.N,Net-(IC2-Pad4)*%
X81280000Y-97790000D03*
%TD*%
D25*
%TO.P,IC2,4*%
%TO.N,Net-(IC2-Pad4)*%
X80130000Y-101600000D03*
%TO.P,IC2,3*%
%TO.N,GND*%
X82630000Y-101600000D03*
%TO.P,IC2,2*%
%TO.N,Net-(IC2-Pad2)*%
X85130000Y-101600000D03*
D26*
%TO.P,IC2,1*%
%TO.N,Net-(IC2-Pad1)*%
X87630000Y-101600000D03*
%TD*%
D19*
%TO.P,OutAdj1,1*%
%TO.N,Net-(A1-Pad19)*%
X128270000Y-113030000D03*
%TO.P,OutAdj1,2*%
%TO.N,Net-(J3-Pad3)*%
X125730000Y-110490000D03*
%TO.P,OutAdj1,3*%
%TO.N,GND*%
X128270000Y-107950000D03*
%TD*%
%TO.P,C7,2*%
%TO.N,GND*%
%TA.AperFunction,SMDPad,CuDef*%
G36*
G01*
X90620001Y-95825000D02*
X89719999Y-95825000D01*
G75*
G02*
X89470000Y-95575001I0J249999D01*
G01*
X89470000Y-94924999D01*
G75*
G02*
X89719999Y-94675000I249999J0D01*
G01*
X90620001Y-94675000D01*
G75*
G02*
X90870000Y-94924999I0J-249999D01*
G01*
X90870000Y-95575001D01*
G75*
G02*
X90620001Y-95825000I-249999J0D01*
G01*
G37*
%TD.AperFunction*%
%TO.P,C7,1*%
%TO.N,+5V*%
%TA.AperFunction,SMDPad,CuDef*%
G36*
G01*
X90620001Y-97875000D02*
X89719999Y-97875000D01*
G75*
G02*
X89470000Y-97625001I0J249999D01*
G01*
X89470000Y-96974999D01*
G75*
G02*
X89719999Y-96725000I249999J0D01*
G01*
X90620001Y-96725000D01*
G75*
G02*
X90870000Y-96974999I0J-249999D01*
G01*
X90870000Y-97625001D01*
G75*
G02*
X90620001Y-97875000I-249999J0D01*
G01*
G37*
%TD.AperFunction*%
%TD*%
D27*
%TO.P,U2,1*%
%TO.N,Net-(IC4-Pad3)*%
X93980000Y-99060000D03*
D28*
%TO.P,U2,3*%
X93980000Y-96520000D03*
%TO.P,U2,2*%
%TO.N,GND*%
X93980000Y-97790000D03*
%TD*%
%TO.P,U1,2*%
%TO.N,GND*%
X120650000Y-109220000D03*
%TO.P,U1,3*%
%TO.N,+5V*%
X120650000Y-107950000D03*
D27*
%TO.P,U1,1*%
%TO.N,Net-(5VADJ1-Pad2)*%
X120650000Y-110490000D03*
%TD*%
D19*
%TO.P,5VADJ1,3*%
%TO.N,GND*%
X128270000Y-118110000D03*
%TO.P,5VADJ1,2*%
%TO.N,Net-(5VADJ1-Pad2)*%
X125730000Y-120650000D03*
%TO.P,5VADJ1,1*%
%TO.N,+5V*%
X128270000Y-123190000D03*
%TD*%
%TO.P,R5,2*%
%TO.N,GND*%
%TA.AperFunction,SMDPad,CuDef*%
G36*
G01*
X85515000Y-112035000D02*
X85515000Y-111485000D01*
G75*
G02*
X85715000Y-111285000I200000J0D01*
G01*
X86115000Y-111285000D01*
G75*
G02*
X86315000Y-111485000I0J-200000D01*
G01*
X86315000Y-112035000D01*
G75*
G02*
X86115000Y-112235000I-200000J0D01*
G01*
X85715000Y-112235000D01*
G75*
G02*
X85515000Y-112035000I0J200000D01*
G01*
G37*
%TD.AperFunction*%
%TO.P,R5,1*%
%TO.N,Net-(A1-Pad20)*%
%TA.AperFunction,SMDPad,CuDef*%
G36*
G01*
X83865000Y-112035000D02*
X83865000Y-111485000D01*
G75*
G02*
X84065000Y-111285000I200000J0D01*
G01*
X84465000Y-111285000D01*
G75*
G02*
X84665000Y-111485000I0J-200000D01*
G01*
X84665000Y-112035000D01*
G75*
G02*
X84465000Y-112235000I-200000J0D01*
G01*
X84065000Y-112235000D01*
G75*
G02*
X83865000Y-112035000I0J200000D01*
G01*
G37*
%TD.AperFunction*%
%TD*%
%TO.P,R3,2*%
%TO.N,Net-(IC4-Pad3)*%
%TA.AperFunction,SMDPad,CuDef*%
G36*
G01*
X93555000Y-93705000D02*
X93555000Y-94255000D01*
G75*
G02*
X93355000Y-94455000I-200000J0D01*
G01*
X92955000Y-94455000D01*
G75*
G02*
X92755000Y-94255000I0J200000D01*
G01*
X92755000Y-93705000D01*
G75*
G02*
X92955000Y-93505000I200000J0D01*
G01*
X93355000Y-93505000D01*
G75*
G02*
X93555000Y-93705000I0J-200000D01*
G01*
G37*
%TD.AperFunction*%
%TO.P,R3,1*%
%TO.N,+10V*%
%TA.AperFunction,SMDPad,CuDef*%
G36*
G01*
X95205000Y-93705000D02*
X95205000Y-94255000D01*
G75*
G02*
X95005000Y-94455000I-200000J0D01*
G01*
X94605000Y-94455000D01*
G75*
G02*
X94405000Y-94255000I0J200000D01*
G01*
X94405000Y-93705000D01*
G75*
G02*
X94605000Y-93505000I200000J0D01*
G01*
X95005000Y-93505000D01*
G75*
G02*
X95205000Y-93705000I0J-200000D01*
G01*
G37*
%TD.AperFunction*%
%TD*%
D29*
%TO.N,+10V*%
X101600000Y-110490000D03*
X92710000Y-114300000D03*
X104140000Y-100453000D03*
X115570000Y-105410000D03*
%TO.N,+VDC*%
X106680000Y-110490000D03*
X111760000Y-111760000D03*
%TO.N,Net-(IC1-Pad1)*%
X105410000Y-114300000D03*
%TO.N,Net-(C10-Pad1)*%
X105087000Y-88236800D03*
%TO.N,Net-(A1-Pad21)*%
X100031300Y-98669500D03*
X95779100Y-91935800D03*
%TD*%
D30*
%TO.N,GND*%
X108173000Y-101823000D02*
X110490000Y-104140000D01*
X108173000Y-101783000D02*
X108173000Y-101823000D01*
X80050000Y-83820000D02*
X80050000Y-87328000D01*
X80050000Y-87328000D02*
X86702000Y-93980000D01*
D31*
X106680000Y-104385000D02*
X105125000Y-104385000D01*
X105125000Y-104385000D02*
X104100000Y-105410000D01*
X110490000Y-104140000D02*
X110490000Y-104100000D01*
X110490000Y-104100000D02*
X108173000Y-101783000D01*
D30*
X85915000Y-111760000D02*
X85915000Y-104885000D01*
X85915000Y-104885000D02*
X82630000Y-101600000D01*
X85915000Y-111760000D02*
X85915000Y-114965000D01*
X85915000Y-114965000D02*
X86360000Y-115410000D01*
X108173000Y-101823000D02*
X108173000Y-109273000D01*
X108173000Y-109273000D02*
X108755000Y-109855000D01*
X108755000Y-109855000D02*
X109391000Y-109855000D01*
X106720000Y-100330000D02*
X108173000Y-101783000D01*
X86702000Y-93980000D02*
X88900000Y-93980000D01*
X88900000Y-93980000D02*
X90170000Y-95250000D01*
X108173000Y-101783000D02*
X108173000Y-101823000D01*
D31*
X108173000Y-101783000D02*
X106720000Y-100330000D01*
%TO.N,Net-(C1-Pad1)*%
X106680000Y-106435000D02*
X106680000Y-109428000D01*
X106680000Y-109428000D02*
X104983000Y-111125000D01*
X104983000Y-111125000D02*
X103969000Y-111125000D01*
D30*
%TO.N,+10V*%
X92301000Y-93119000D02*
X92301000Y-90579000D01*
X92301000Y-90579000D02*
X93980000Y-88900000D01*
X92710000Y-114300000D02*
X92301000Y-113891000D01*
X92301000Y-113891000D02*
X92301000Y-93119000D01*
X107705000Y-119380000D02*
X107705000Y-121675000D01*
X107705000Y-121675000D02*
X107950000Y-121920000D01*
X107705000Y-119380000D02*
X107705000Y-119135000D01*
X107705000Y-119135000D02*
X105410000Y-116840000D01*
X103969000Y-109855000D02*
X102235000Y-109855000D01*
X102235000Y-109855000D02*
X101600000Y-110490000D01*
X94805000Y-93980000D02*
X93876000Y-93051000D01*
X93876000Y-93051000D02*
X92369000Y-93051000D01*
X92369000Y-93051000D02*
X92301000Y-93119000D01*
D31*
X113030000Y-85090000D02*
X111905000Y-83965000D01*
X111905000Y-83965000D02*
X96730000Y-83965000D01*
X96730000Y-83965000D02*
X93980000Y-86715000D01*
X93980000Y-86715000D02*
X93980000Y-88900000D01*
D30*
X109220000Y-100330000D02*
X107966000Y-99076000D01*
X107966000Y-99076000D02*
X105517000Y-99076000D01*
X105517000Y-99076000D02*
X104140000Y-100453000D01*
X109220000Y-100330000D02*
X109220000Y-100916000D01*
X109220000Y-100916000D02*
X112460000Y-104156000D01*
X112460000Y-104156000D02*
X114316000Y-104156000D01*
X114316000Y-104156000D02*
X115570000Y-105410000D01*
%TO.N,+VDC*%
X109391000Y-111125000D02*
X110405000Y-111125000D01*
X110405000Y-111125000D02*
X111040000Y-111760000D01*
X111040000Y-111760000D02*
X111760000Y-111760000D01*
X106680000Y-110490000D02*
X107315000Y-111125000D01*
X107315000Y-111125000D02*
X109391000Y-111125000D01*
X111760000Y-111760000D02*
X115570000Y-111760000D01*
X115570000Y-111760000D02*
X116840000Y-110490000D01*
X116840000Y-110490000D02*
X116840000Y-101600000D01*
D31*
%TO.N,Net-(10VSourceAdj1-Pad2)*%
X105655000Y-119380000D02*
X105655000Y-124215000D01*
X105655000Y-124215000D02*
X105410000Y-124460000D01*
X103969000Y-108585000D02*
X100965000Y-108585000D01*
X100965000Y-108585000D02*
X100330000Y-109220000D01*
X100330000Y-109220000D02*
X100330000Y-114055000D01*
X100330000Y-114055000D02*
X105655000Y-119380000D01*
%TO.N,Net-(IC1-Pad1)*%
X103969000Y-112395000D02*
X103969000Y-112859000D01*
X103969000Y-112859000D02*
X105410000Y-114300000D01*
D32*
%TO.N,Net-(D1-Pad2)*%
X125730000Y-97870000D02*
X116840000Y-88980000D01*
X116840000Y-88980000D02*
X116840000Y-87500000D01*
D30*
%TO.N,Net-(D2-Pad1)*%
X109391000Y-112395000D02*
X107315000Y-112395000D01*
X107315000Y-112395000D02*
X106680000Y-113030000D01*
X106680000Y-113030000D02*
X106680000Y-115570000D01*
X106680000Y-115570000D02*
X107950000Y-116840000D01*
X107950000Y-116840000D02*
X115570000Y-116840000D01*
X115570000Y-116840000D02*
X116840000Y-116840000D01*
X116840000Y-116840000D02*
X118110000Y-118110000D01*
D31*
%TO.N,Net-(IC2-Pad4)*%
X80130000Y-101600000D02*
X80130000Y-97850700D01*
X80130000Y-97850700D02*
X80190700Y-97790000D01*
X80190700Y-97790000D02*
X81280000Y-97790000D01*
%TO.N,Net-(IC2-Pad2)*%
X85130000Y-101600000D02*
X85130000Y-96740700D01*
X85130000Y-96740700D02*
X82369300Y-93980000D01*
X82369300Y-93980000D02*
X81280000Y-93980000D01*
%TO.N,+5V*%
X86702000Y-97790000D02*
X89680000Y-97790000D01*
X89680000Y-97790000D02*
X90170000Y-97300000D01*
X81280000Y-123350000D02*
X90170000Y-114460000D01*
X90170000Y-114460000D02*
X90170000Y-97300000D01*
X128270000Y-123190000D02*
X126899000Y-123190000D01*
X126899000Y-123190000D02*
X122842000Y-119133000D01*
X122842000Y-119133000D02*
X122842000Y-116492000D01*
X122842000Y-116492000D02*
X120650000Y-114300000D01*
X90170000Y-114460000D02*
X90170000Y-114706000D01*
X90170000Y-114706000D02*
X101363000Y-125898000D01*
X101363000Y-125898000D02*
X116076000Y-125898000D01*
X116076000Y-125898000D02*
X122842000Y-119133000D01*
%TO.N,Net-(C5-Pad1)*%
X109391000Y-108585000D02*
X109391000Y-107289000D01*
X109391000Y-107289000D02*
X110490000Y-106190000D01*
D30*
%TO.N,Net-(IC4-Pad3)*%
X93155000Y-93980000D02*
X93155000Y-95695000D01*
X93155000Y-95695000D02*
X93980000Y-96520000D01*
X93980000Y-96520000D02*
X94319500Y-96520000D01*
X94319500Y-96520000D02*
X95184000Y-97384500D01*
X95184000Y-97384500D02*
X95184000Y-98195500D01*
X95184000Y-98195500D02*
X94319500Y-99060000D01*
X94319500Y-99060000D02*
X93980000Y-99060000D01*
D31*
%TO.N,Net-(5VADJ1-Pad2)*%
X125730000Y-120650000D02*
X125730000Y-117111000D01*
X125730000Y-117111000D02*
X129265000Y-113576000D01*
X129265000Y-113576000D02*
X129265000Y-112635000D01*
X129265000Y-112635000D02*
X128643000Y-112013000D01*
X128643000Y-112013000D02*
X121322000Y-112013000D01*
X121322000Y-112013000D02*
X120650000Y-111340000D01*
X120650000Y-111340000D02*
X120650000Y-110490000D01*
%TO.N,Net-(A1-Pad27)*%
X113030000Y-92710000D02*
X110800000Y-92710000D01*
X110800000Y-92710000D02*
X99275100Y-104235000D01*
X99275100Y-104235000D02*
X96330600Y-104235000D01*
X96330600Y-104235000D02*
X95155300Y-105410000D01*
X95155300Y-105410000D02*
X93980000Y-105410000D01*
%TO.N,Net-(A1-Pad6)*%
X97790000Y-97790000D02*
X97790000Y-98915300D01*
X97790000Y-98915300D02*
X96759400Y-98915300D01*
X96759400Y-98915300D02*
X93980000Y-101695000D01*
X93980000Y-101695000D02*
X93980000Y-102870000D01*
D30*
%TO.N,Net-(A1-Pad20)*%
X84265000Y-111760000D02*
X84265000Y-112425000D01*
X84265000Y-112425000D02*
X82322500Y-114368000D01*
X82322500Y-114368000D02*
X81280000Y-115410000D01*
D31*
X82322500Y-114368000D02*
X78407200Y-114368000D01*
X78407200Y-114368000D02*
X77790900Y-113751000D01*
X77790900Y-113751000D02*
X77790900Y-95849900D01*
X77790900Y-95849900D02*
X80314200Y-93326600D01*
X80314200Y-93326600D02*
X83171500Y-93326600D01*
X83171500Y-93326600D02*
X85094900Y-95250000D01*
X85094900Y-95250000D02*
X86702000Y-95250000D01*
%TO.N,Net-(A1-Pad19)*%
X86702000Y-96520000D02*
X87791300Y-96520000D01*
X87791300Y-96520000D02*
X87913800Y-96397500D01*
X87913800Y-96397500D02*
X90876400Y-96397500D01*
X90876400Y-96397500D02*
X91302100Y-96823200D01*
X91302100Y-96823200D02*
X91302100Y-113992000D01*
X91302100Y-113992000D02*
X96689600Y-119380000D01*
X96689600Y-119380000D02*
X98161300Y-119380000D01*
X98161300Y-119380000D02*
X104229000Y-125448000D01*
X104229000Y-125448000D02*
X109825000Y-125448000D01*
X109825000Y-125448000D02*
X116037000Y-119236000D01*
X116037000Y-119236000D02*
X119026000Y-119236000D01*
X119026000Y-119236000D02*
X119234000Y-119028000D01*
X119234000Y-119028000D02*
X119234000Y-113030000D01*
X128270000Y-113030000D02*
X119234000Y-113030000D01*
X119234000Y-113030000D02*
X113030000Y-113030000D01*
%TO.N,Net-(C10-Pad1)*%
X101600000Y-91440000D02*
X102525000Y-91440000D01*
X102525000Y-91440000D02*
X102525000Y-90798100D01*
X102525000Y-90798100D02*
X105087000Y-88236800D01*
%TO.N,Net-(IC3-Pad3)*%
X78740000Y-97790000D02*
X78740000Y-96520000D01*
X78740000Y-96520000D02*
X80010000Y-95250000D01*
X80010000Y-95250000D02*
X81280000Y-95250000D01*
%TO.N,Net-(IC3-Pad2)*%
X78740000Y-113290000D02*
X78740000Y-101532000D01*
X78740000Y-101532000D02*
X79680000Y-100592000D01*
X79680000Y-100592000D02*
X79680000Y-96850000D01*
X79680000Y-96850000D02*
X80010000Y-96520000D01*
X80010000Y-96520000D02*
X81280000Y-96520000D01*
%TO.N,Net-(A1-Pad21)*%
X100031300Y-98669500D02*
X100031300Y-95853900D01*
X100031300Y-95853900D02*
X98157400Y-93980000D01*
X98157400Y-93980000D02*
X97399400Y-93980000D01*
X97399400Y-93980000D02*
X95779100Y-92359700D01*
X95779100Y-92359700D02*
X95779100Y-91935800D01*
%TD*%
M02*
