M48
; DRILL file {KiCad (5.1.9)-1} date 05/25/21 19:19:16
; FORMAT={-:-/ absolute / inch / decimal}
; #@! TF.CreationDate,2021-05-25T19:19:16-07:00
; #@! TF.GenerationSoftware,Kicad,Pcbnew,(5.1.9)-1
; #@! TF.FileFunction,Plated,1,2,PTH
FMAT,2
INCH
T1C0.0157
T2C0.0236
T3C0.0276
T4C0.0287
T5C0.0295
T6C0.0315
T7C0.0331
T8C0.0394
T9C0.0413
T10C0.0512
%
G90
G05
T1
X3.65Y-4.5
X3.7708Y-3.6195
X3.9382Y-3.8846
X4.0Y-4.35
X4.1Y-3.9548
X4.1373Y-3.4739
X4.15Y-4.5
X4.2Y-4.35
X4.4Y-4.4
X4.55Y-4.15
T2
X4.0Y-3.4
X4.0Y-3.4591
X4.0Y-3.6
X4.0Y-3.6591
X4.25Y-3.65
X4.25Y-3.7091
T3
X4.05Y-4.8
X4.15Y-4.9
X4.25Y-4.8
X4.95Y-4.35
X4.95Y-4.75
X5.05Y-4.25
X5.05Y-4.45
X5.05Y-4.65
X5.05Y-4.85
T4
X3.1Y-4.5437
X3.1Y-4.8563
X3.2Y-4.5437
X3.2Y-4.8563
X3.3Y-4.5437
X3.3Y-4.8563
X3.4Y-4.5437
X3.4Y-4.8563
T5
X3.7Y-3.8
X3.7Y-3.85
X3.7Y-3.9
X4.75Y-4.25
X4.75Y-4.3
X4.75Y-4.35
T6
X3.1Y-3.85
X3.1Y-4.4602
X3.1516Y-3.3
X3.25Y-3.3
X4.0Y-4.15
X4.0984Y-4.15
X4.15Y-4.6
X4.2016Y-3.95
X4.3Y-3.95
X4.55Y-4.6
X4.75Y-4.5
X4.75Y-4.5787
T7
X3.1547Y-4.0
X3.2531Y-4.0
X3.3516Y-4.0
X3.45Y-4.0
T8
X3.7Y-3.5
X3.7Y-3.6
X3.7Y-4.05
X3.7Y-4.15
X3.85Y-3.35
X3.85Y-3.45
X3.85Y-3.55
X3.85Y-3.65
X3.85Y-3.75
X3.85Y-3.85
X3.85Y-3.95
X3.85Y-4.05
X3.85Y-4.15
X3.85Y-4.25
X3.85Y-4.35
X3.85Y-4.45
X3.85Y-4.55
X3.85Y-4.65
X3.85Y-4.75
X4.45Y-3.35
X4.45Y-3.45
X4.45Y-3.55
X4.45Y-3.65
X4.45Y-3.75
X4.45Y-3.85
X4.45Y-3.95
X4.45Y-4.05
X4.45Y-4.15
X4.45Y-4.25
X4.45Y-4.35
X4.45Y-4.45
X4.45Y-4.55
X4.45Y-4.65
X4.45Y-4.75
T9
X4.6Y-3.4449
X4.6Y-4.0
X4.65Y-4.0949
X4.65Y-4.65
T10
X4.95Y-3.2626
X4.95Y-3.4594
X4.95Y-3.6563
X4.95Y-3.8531
X4.95Y-4.05
T0
M30
