%TF.GenerationSoftware,KiCad,Pcbnew,(5.1.9)-1*%
%TF.CreationDate,2021-05-16T10:50:46-07:00*%
%TF.ProjectId,VacuumSensor,56616375-756d-4536-956e-736f722e6b69,rev?*%
%TF.SameCoordinates,Original*%
%TF.FileFunction,Soldermask,Bot*%
%TF.FilePolarity,Negative*%
%FSLAX46Y46*%
G04 Gerber Fmt 4.6, Leading zero omitted, Abs format (unit mm)*
G04 Created by KiCad (PCBNEW (5.1.9)-1) date 2021-05-16 10:50:46*
%MOMM*%
%LPD*%
G01*
G04 APERTURE LIST*
%ADD10C,1.260000*%
%ADD11C,1.600000*%
%ADD12R,1.600000X1.600000*%
%ADD13O,1.700000X1.700000*%
%ADD14R,1.700000X1.700000*%
%ADD15C,1.575000*%
%ADD16R,1.575000X1.575000*%
%ADD17O,1.600000X1.600000*%
%ADD18C,1.130000*%
%ADD19R,1.130000X1.130000*%
%ADD20R,1.528000X0.650000*%
%ADD21C,1.365000*%
%ADD22R,1.365000X1.365000*%
%ADD23R,1.050000X1.500000*%
%ADD24O,1.050000X1.500000*%
%ADD25C,2.600000*%
%ADD26R,2.600000X2.600000*%
G04 APERTURE END LIST*
D10*
%TO.C,10VSourceAdj1*%
X95250000Y-103124000D03*
X97790000Y-105664000D03*
X100330000Y-103124000D03*
%TD*%
D11*
%TO.C,C5*%
X120690000Y-104140000D03*
D12*
X123190000Y-104140000D03*
%TD*%
D11*
%TO.C,C3*%
X114260000Y-104140000D03*
D12*
X111760000Y-104140000D03*
%TD*%
%TO.C,R1*%
G36*
G01*
X118955000Y-91165000D02*
X118955000Y-91715000D01*
G75*
G02*
X118755000Y-91915000I-200000J0D01*
G01*
X118355000Y-91915000D01*
G75*
G02*
X118155000Y-91715000I0J200000D01*
G01*
X118155000Y-91165000D01*
G75*
G02*
X118355000Y-90965000I200000J0D01*
G01*
X118755000Y-90965000D01*
G75*
G02*
X118955000Y-91165000I0J-200000D01*
G01*
G37*
G36*
G01*
X120605000Y-91165000D02*
X120605000Y-91715000D01*
G75*
G02*
X120405000Y-91915000I-200000J0D01*
G01*
X120005000Y-91915000D01*
G75*
G02*
X119805000Y-91715000I0J200000D01*
G01*
X119805000Y-91165000D01*
G75*
G02*
X120005000Y-90965000I200000J0D01*
G01*
X120405000Y-90965000D01*
G75*
G02*
X120605000Y-91165000I0J-200000D01*
G01*
G37*
%TD*%
D13*
%TO.C,J2*%
X93980000Y-91440000D03*
D14*
X93980000Y-88900000D03*
%TD*%
D15*
%TO.C,D1*%
X130810000Y-88770000D03*
D16*
X130810000Y-102870000D03*
%TD*%
D11*
%TO.C,C8*%
X109760000Y-119380000D03*
D12*
X111760000Y-119380000D03*
%TD*%
D11*
%TO.C,C6*%
X127540000Y-109220000D03*
D12*
X129540000Y-109220000D03*
%TD*%
D17*
%TO.C,L1*%
X124460000Y-88900000D03*
D11*
X114300000Y-88900000D03*
%TD*%
D15*
%TO.C,D2*%
X127000000Y-103000000D03*
D16*
X127000000Y-88900000D03*
%TD*%
D11*
%TO.C,C4*%
X106680000Y-106600000D03*
X106680000Y-101600000D03*
%TD*%
%TO.C,C2*%
X110410000Y-96520000D03*
X105410000Y-96520000D03*
%TD*%
%TO.C,C1*%
X100250000Y-96520000D03*
X95250000Y-96520000D03*
%TD*%
D18*
%TO.C,IC5*%
X78740000Y-90490000D03*
X81280000Y-90490000D03*
X83820000Y-90490000D03*
X86360000Y-90490000D03*
X86360000Y-82550000D03*
X83820000Y-82550000D03*
X81280000Y-82550000D03*
D19*
X78740000Y-82550000D03*
%TD*%
D18*
%TO.C,IC4*%
X78740000Y-123350000D03*
X81280000Y-123350000D03*
X83820000Y-123350000D03*
X86360000Y-123350000D03*
X86360000Y-115410000D03*
X83820000Y-115410000D03*
X81280000Y-115410000D03*
D19*
X78740000Y-115410000D03*
%TD*%
D20*
%TO.C,IC3*%
X86702000Y-97790000D03*
X86702000Y-96520000D03*
X86702000Y-95250000D03*
X86702000Y-93980000D03*
X81280000Y-93980000D03*
X81280000Y-95250000D03*
X81280000Y-96520000D03*
X81280000Y-97790000D03*
%TD*%
D21*
%TO.C,IC2*%
X80130000Y-101600000D03*
X82630000Y-101600000D03*
X85130000Y-101600000D03*
D22*
X87630000Y-101600000D03*
%TD*%
D10*
%TO.C,GAIN1*%
X96520000Y-118110000D03*
X93980000Y-115570000D03*
X96520000Y-113030000D03*
%TD*%
%TO.C,C7*%
G36*
G01*
X90620001Y-95825000D02*
X89719999Y-95825000D01*
G75*
G02*
X89470000Y-95575001I0J249999D01*
G01*
X89470000Y-94924999D01*
G75*
G02*
X89719999Y-94675000I249999J0D01*
G01*
X90620001Y-94675000D01*
G75*
G02*
X90870000Y-94924999I0J-249999D01*
G01*
X90870000Y-95575001D01*
G75*
G02*
X90620001Y-95825000I-249999J0D01*
G01*
G37*
G36*
G01*
X90620001Y-97875000D02*
X89719999Y-97875000D01*
G75*
G02*
X89470000Y-97625001I0J249999D01*
G01*
X89470000Y-96974999D01*
G75*
G02*
X89719999Y-96725000I249999J0D01*
G01*
X90620001Y-96725000D01*
G75*
G02*
X90870000Y-96974999I0J-249999D01*
G01*
X90870000Y-97625001D01*
G75*
G02*
X90620001Y-97875000I-249999J0D01*
G01*
G37*
%TD*%
%TO.C,R7*%
G36*
G01*
X102445000Y-108945000D02*
X102445000Y-109495000D01*
G75*
G02*
X102245000Y-109695000I-200000J0D01*
G01*
X101845000Y-109695000D01*
G75*
G02*
X101645000Y-109495000I0J200000D01*
G01*
X101645000Y-108945000D01*
G75*
G02*
X101845000Y-108745000I200000J0D01*
G01*
X102245000Y-108745000D01*
G75*
G02*
X102445000Y-108945000I0J-200000D01*
G01*
G37*
G36*
G01*
X104095000Y-108945000D02*
X104095000Y-109495000D01*
G75*
G02*
X103895000Y-109695000I-200000J0D01*
G01*
X103495000Y-109695000D01*
G75*
G02*
X103295000Y-109495000I0J200000D01*
G01*
X103295000Y-108945000D01*
G75*
G02*
X103495000Y-108745000I200000J0D01*
G01*
X103895000Y-108745000D01*
G75*
G02*
X104095000Y-108945000I0J-200000D01*
G01*
G37*
%TD*%
D23*
%TO.C,U2*%
X118110000Y-116840000D03*
D24*
X120650000Y-116840000D03*
X119380000Y-116840000D03*
%TD*%
D23*
%TO.C,U1*%
X116840000Y-110490000D03*
D24*
X119380000Y-110490000D03*
X118110000Y-110490000D03*
%TD*%
D10*
%TO.C,VoutS1*%
X128270000Y-120650000D03*
X125730000Y-118110000D03*
X128270000Y-115570000D03*
%TD*%
%TO.C,VRef1*%
X110490000Y-114808000D03*
X107950000Y-112268000D03*
X110490000Y-109728000D03*
%TD*%
%TO.C,R8*%
G36*
G01*
X85515000Y-112035000D02*
X85515000Y-111485000D01*
G75*
G02*
X85715000Y-111285000I200000J0D01*
G01*
X86115000Y-111285000D01*
G75*
G02*
X86315000Y-111485000I0J-200000D01*
G01*
X86315000Y-112035000D01*
G75*
G02*
X86115000Y-112235000I-200000J0D01*
G01*
X85715000Y-112235000D01*
G75*
G02*
X85515000Y-112035000I0J200000D01*
G01*
G37*
G36*
G01*
X83865000Y-112035000D02*
X83865000Y-111485000D01*
G75*
G02*
X84065000Y-111285000I200000J0D01*
G01*
X84465000Y-111285000D01*
G75*
G02*
X84665000Y-111485000I0J-200000D01*
G01*
X84665000Y-112035000D01*
G75*
G02*
X84465000Y-112235000I-200000J0D01*
G01*
X84065000Y-112235000D01*
G75*
G02*
X83865000Y-112035000I0J200000D01*
G01*
G37*
%TD*%
%TO.C,R6*%
G36*
G01*
X105810000Y-103865000D02*
X105810000Y-104415000D01*
G75*
G02*
X105610000Y-104615000I-200000J0D01*
G01*
X105210000Y-104615000D01*
G75*
G02*
X105010000Y-104415000I0J200000D01*
G01*
X105010000Y-103865000D01*
G75*
G02*
X105210000Y-103665000I200000J0D01*
G01*
X105610000Y-103665000D01*
G75*
G02*
X105810000Y-103865000I0J-200000D01*
G01*
G37*
G36*
G01*
X107460000Y-103865000D02*
X107460000Y-104415000D01*
G75*
G02*
X107260000Y-104615000I-200000J0D01*
G01*
X106860000Y-104615000D01*
G75*
G02*
X106660000Y-104415000I0J200000D01*
G01*
X106660000Y-103865000D01*
G75*
G02*
X106860000Y-103665000I200000J0D01*
G01*
X107260000Y-103665000D01*
G75*
G02*
X107460000Y-103865000I0J-200000D01*
G01*
G37*
%TD*%
%TO.C,R5*%
G36*
G01*
X90445000Y-91460000D02*
X89895000Y-91460000D01*
G75*
G02*
X89695000Y-91260000I0J200000D01*
G01*
X89695000Y-90860000D01*
G75*
G02*
X89895000Y-90660000I200000J0D01*
G01*
X90445000Y-90660000D01*
G75*
G02*
X90645000Y-90860000I0J-200000D01*
G01*
X90645000Y-91260000D01*
G75*
G02*
X90445000Y-91460000I-200000J0D01*
G01*
G37*
G36*
G01*
X90445000Y-93110000D02*
X89895000Y-93110000D01*
G75*
G02*
X89695000Y-92910000I0J200000D01*
G01*
X89695000Y-92510000D01*
G75*
G02*
X89895000Y-92310000I200000J0D01*
G01*
X90445000Y-92310000D01*
G75*
G02*
X90645000Y-92510000I0J-200000D01*
G01*
X90645000Y-92910000D01*
G75*
G02*
X90445000Y-93110000I-200000J0D01*
G01*
G37*
%TD*%
%TO.C,R4*%
G36*
G01*
X117265000Y-104415000D02*
X117265000Y-103865000D01*
G75*
G02*
X117465000Y-103665000I200000J0D01*
G01*
X117865000Y-103665000D01*
G75*
G02*
X118065000Y-103865000I0J-200000D01*
G01*
X118065000Y-104415000D01*
G75*
G02*
X117865000Y-104615000I-200000J0D01*
G01*
X117465000Y-104615000D01*
G75*
G02*
X117265000Y-104415000I0J200000D01*
G01*
G37*
G36*
G01*
X115615000Y-104415000D02*
X115615000Y-103865000D01*
G75*
G02*
X115815000Y-103665000I200000J0D01*
G01*
X116215000Y-103665000D01*
G75*
G02*
X116415000Y-103865000I0J-200000D01*
G01*
X116415000Y-104415000D01*
G75*
G02*
X116215000Y-104615000I-200000J0D01*
G01*
X115815000Y-104615000D01*
G75*
G02*
X115615000Y-104415000I0J200000D01*
G01*
G37*
%TD*%
%TO.C,R3*%
G36*
G01*
X117265000Y-101875000D02*
X117265000Y-101325000D01*
G75*
G02*
X117465000Y-101125000I200000J0D01*
G01*
X117865000Y-101125000D01*
G75*
G02*
X118065000Y-101325000I0J-200000D01*
G01*
X118065000Y-101875000D01*
G75*
G02*
X117865000Y-102075000I-200000J0D01*
G01*
X117465000Y-102075000D01*
G75*
G02*
X117265000Y-101875000I0J200000D01*
G01*
G37*
G36*
G01*
X115615000Y-101875000D02*
X115615000Y-101325000D01*
G75*
G02*
X115815000Y-101125000I200000J0D01*
G01*
X116215000Y-101125000D01*
G75*
G02*
X116415000Y-101325000I0J-200000D01*
G01*
X116415000Y-101875000D01*
G75*
G02*
X116215000Y-102075000I-200000J0D01*
G01*
X115815000Y-102075000D01*
G75*
G02*
X115615000Y-101875000I0J200000D01*
G01*
G37*
%TD*%
%TO.C,R2*%
G36*
G01*
X116415000Y-98785000D02*
X116415000Y-99335000D01*
G75*
G02*
X116215000Y-99535000I-200000J0D01*
G01*
X115815000Y-99535000D01*
G75*
G02*
X115615000Y-99335000I0J200000D01*
G01*
X115615000Y-98785000D01*
G75*
G02*
X115815000Y-98585000I200000J0D01*
G01*
X116215000Y-98585000D01*
G75*
G02*
X116415000Y-98785000I0J-200000D01*
G01*
G37*
G36*
G01*
X118065000Y-98785000D02*
X118065000Y-99335000D01*
G75*
G02*
X117865000Y-99535000I-200000J0D01*
G01*
X117465000Y-99535000D01*
G75*
G02*
X117265000Y-99335000I0J200000D01*
G01*
X117265000Y-98785000D01*
G75*
G02*
X117465000Y-98585000I200000J0D01*
G01*
X117865000Y-98585000D01*
G75*
G02*
X118065000Y-98785000I0J-200000D01*
G01*
G37*
%TD*%
D25*
%TO.C,J1*%
X99220000Y-87630000D03*
X104220000Y-87630000D03*
D26*
X109220000Y-87630000D03*
%TD*%
M02*
