%TF.GenerationSoftware,KiCad,Pcbnew,(5.1.9)-1*%
%TF.CreationDate,2021-05-16T10:50:46-07:00*%
%TF.ProjectId,VacuumSensor,56616375-756d-4536-956e-736f722e6b69,rev?*%
%TF.SameCoordinates,Original*%
%TF.FileFunction,Legend,Bot*%
%TF.FilePolarity,Positive*%
%FSLAX46Y46*%
G04 Gerber Fmt 4.6, Leading zero omitted, Abs format (unit mm)*
G04 Created by KiCad (PCBNEW (5.1.9)-1) date 2021-05-16 10:50:46*
%MOMM*%
%LPD*%
G01*
G04 APERTURE LIST*
%ADD10C,0.300000*%
%ADD11C,0.120000*%
%ADD12C,0.200000*%
%ADD13C,0.150000*%
%ADD14C,0.254000*%
G04 APERTURE END LIST*
D10*
X78267142Y-80601428D02*
X78267142Y-82101428D01*
X78910000Y-80601428D02*
X78910000Y-81387142D01*
X78838571Y-81530000D01*
X78695714Y-81601428D01*
X78481428Y-81601428D01*
X78338571Y-81530000D01*
X78267142Y-81458571D01*
X79410000Y-81601428D02*
X79981428Y-81601428D01*
X79624285Y-82101428D02*
X79624285Y-80815714D01*
X79695714Y-80672857D01*
X79838571Y-80601428D01*
X79981428Y-80601428D01*
X80267142Y-81601428D02*
X80838571Y-81601428D01*
X80481428Y-82101428D02*
X80481428Y-80815714D01*
X80552857Y-80672857D01*
X80695714Y-80601428D01*
X80838571Y-80601428D01*
X81338571Y-81601428D02*
X81338571Y-80101428D01*
X81338571Y-81530000D02*
X81481428Y-81601428D01*
X81767142Y-81601428D01*
X81910000Y-81530000D01*
X81981428Y-81458571D01*
X82052857Y-81315714D01*
X82052857Y-80887142D01*
X81981428Y-80744285D01*
X81910000Y-80672857D01*
X81767142Y-80601428D01*
X81481428Y-80601428D01*
X81338571Y-80672857D01*
X82624285Y-80672857D02*
X82767142Y-80601428D01*
X83052857Y-80601428D01*
X83195714Y-80672857D01*
X83267142Y-80815714D01*
X83267142Y-80887142D01*
X83195714Y-81030000D01*
X83052857Y-81101428D01*
X82838571Y-81101428D01*
X82695714Y-81172857D01*
X82624285Y-81315714D01*
X82624285Y-81387142D01*
X82695714Y-81530000D01*
X82838571Y-81601428D01*
X83052857Y-81601428D01*
X83195714Y-81530000D01*
X83910000Y-80744285D02*
X83981428Y-80672857D01*
X83910000Y-80601428D01*
X83838571Y-80672857D01*
X83910000Y-80744285D01*
X83910000Y-80601428D01*
X83910000Y-81530000D02*
X83981428Y-81458571D01*
X83910000Y-81387142D01*
X83838571Y-81458571D01*
X83910000Y-81530000D01*
X83910000Y-81387142D01*
X85695714Y-82172857D02*
X84410000Y-80244285D01*
X87267142Y-82172857D02*
X85981428Y-80244285D01*
X88410000Y-81601428D02*
X88410000Y-80387142D01*
X88338571Y-80244285D01*
X88267142Y-80172857D01*
X88124285Y-80101428D01*
X87910000Y-80101428D01*
X87767142Y-80172857D01*
X88410000Y-80672857D02*
X88267142Y-80601428D01*
X87981428Y-80601428D01*
X87838571Y-80672857D01*
X87767142Y-80744285D01*
X87695714Y-80887142D01*
X87695714Y-81315714D01*
X87767142Y-81458571D01*
X87838571Y-81530000D01*
X87981428Y-81601428D01*
X88267142Y-81601428D01*
X88410000Y-81530000D01*
X89124285Y-80601428D02*
X89124285Y-81601428D01*
X89124285Y-82101428D02*
X89052857Y-82030000D01*
X89124285Y-81958571D01*
X89195714Y-82030000D01*
X89124285Y-82101428D01*
X89124285Y-81958571D01*
X89624285Y-81601428D02*
X90195714Y-81601428D01*
X89838571Y-82101428D02*
X89838571Y-80815714D01*
X89910000Y-80672857D01*
X90052857Y-80601428D01*
X90195714Y-80601428D01*
X90695714Y-80601428D02*
X90695714Y-82101428D01*
X91338571Y-80601428D02*
X91338571Y-81387142D01*
X91267142Y-81530000D01*
X91124285Y-81601428D01*
X90910000Y-81601428D01*
X90767142Y-81530000D01*
X90695714Y-81458571D01*
X92695714Y-81601428D02*
X92695714Y-80601428D01*
X92052857Y-81601428D02*
X92052857Y-80815714D01*
X92124285Y-80672857D01*
X92267142Y-80601428D01*
X92481428Y-80601428D01*
X92624285Y-80672857D01*
X92695714Y-80744285D01*
X93410000Y-80601428D02*
X93410000Y-82101428D01*
X93410000Y-81530000D02*
X93552857Y-81601428D01*
X93838571Y-81601428D01*
X93981428Y-81530000D01*
X94052857Y-81458571D01*
X94124285Y-81315714D01*
X94124285Y-80887142D01*
X94052857Y-80744285D01*
X93981428Y-80672857D01*
X93838571Y-80601428D01*
X93552857Y-80601428D01*
X93410000Y-80672857D01*
X94767142Y-80744285D02*
X94838571Y-80672857D01*
X94767142Y-80601428D01*
X94695714Y-80672857D01*
X94767142Y-80744285D01*
X94767142Y-80601428D01*
X96124285Y-80672857D02*
X95981428Y-80601428D01*
X95695714Y-80601428D01*
X95552857Y-80672857D01*
X95481428Y-80744285D01*
X95410000Y-80887142D01*
X95410000Y-81315714D01*
X95481428Y-81458571D01*
X95552857Y-81530000D01*
X95695714Y-81601428D01*
X95981428Y-81601428D01*
X96124285Y-81530000D01*
X96981428Y-80601428D02*
X96838571Y-80672857D01*
X96767142Y-80744285D01*
X96695714Y-80887142D01*
X96695714Y-81315714D01*
X96767142Y-81458571D01*
X96838571Y-81530000D01*
X96981428Y-81601428D01*
X97195714Y-81601428D01*
X97338571Y-81530000D01*
X97410000Y-81458571D01*
X97481428Y-81315714D01*
X97481428Y-80887142D01*
X97410000Y-80744285D01*
X97338571Y-80672857D01*
X97195714Y-80601428D01*
X96981428Y-80601428D01*
X98124285Y-80601428D02*
X98124285Y-81601428D01*
X98124285Y-81458571D02*
X98195714Y-81530000D01*
X98338571Y-81601428D01*
X98552857Y-81601428D01*
X98695714Y-81530000D01*
X98767142Y-81387142D01*
X98767142Y-80601428D01*
X98767142Y-81387142D02*
X98838571Y-81530000D01*
X98981428Y-81601428D01*
X99195714Y-81601428D01*
X99338571Y-81530000D01*
X99410000Y-81387142D01*
X99410000Y-80601428D01*
X101195714Y-82172857D02*
X99910000Y-80244285D01*
X101481428Y-82101428D02*
X102338571Y-82101428D01*
X101910000Y-80601428D02*
X101910000Y-82101428D01*
X103267142Y-82101428D02*
X103267142Y-81030000D01*
X103195714Y-80815714D01*
X103052857Y-80672857D01*
X102838571Y-80601428D01*
X102695714Y-80601428D01*
X104695714Y-80601428D02*
X103981428Y-80601428D01*
X103981428Y-82101428D01*
X104981428Y-82101428D02*
X105838571Y-82101428D01*
X105410000Y-80601428D02*
X105410000Y-82101428D01*
X106338571Y-80601428D02*
X106338571Y-82101428D01*
X106838571Y-81030000D01*
X107338571Y-82101428D01*
X107338571Y-80601428D01*
X109124285Y-82172857D02*
X107838571Y-80244285D01*
X109410000Y-82101428D02*
X109910000Y-80601428D01*
X110410000Y-82101428D01*
X111552857Y-80601428D02*
X111552857Y-81387142D01*
X111481428Y-81530000D01*
X111338571Y-81601428D01*
X111052857Y-81601428D01*
X110910000Y-81530000D01*
X111552857Y-80672857D02*
X111410000Y-80601428D01*
X111052857Y-80601428D01*
X110910000Y-80672857D01*
X110838571Y-80815714D01*
X110838571Y-80958571D01*
X110910000Y-81101428D01*
X111052857Y-81172857D01*
X111410000Y-81172857D01*
X111552857Y-81244285D01*
X112910000Y-80672857D02*
X112767142Y-80601428D01*
X112481428Y-80601428D01*
X112338571Y-80672857D01*
X112267142Y-80744285D01*
X112195714Y-80887142D01*
X112195714Y-81315714D01*
X112267142Y-81458571D01*
X112338571Y-81530000D01*
X112481428Y-81601428D01*
X112767142Y-81601428D01*
X112910000Y-81530000D01*
X114195714Y-81601428D02*
X114195714Y-80601428D01*
X113552857Y-81601428D02*
X113552857Y-80815714D01*
X113624285Y-80672857D01*
X113767142Y-80601428D01*
X113981428Y-80601428D01*
X114124285Y-80672857D01*
X114195714Y-80744285D01*
X115552857Y-81601428D02*
X115552857Y-80601428D01*
X114910000Y-81601428D02*
X114910000Y-80815714D01*
X114981428Y-80672857D01*
X115124285Y-80601428D01*
X115338571Y-80601428D01*
X115481428Y-80672857D01*
X115552857Y-80744285D01*
X116267142Y-80601428D02*
X116267142Y-81601428D01*
X116267142Y-81458571D02*
X116338571Y-81530000D01*
X116481428Y-81601428D01*
X116695714Y-81601428D01*
X116838571Y-81530000D01*
X116910000Y-81387142D01*
X116910000Y-80601428D01*
X116910000Y-81387142D02*
X116981428Y-81530000D01*
X117124285Y-81601428D01*
X117338571Y-81601428D01*
X117481428Y-81530000D01*
X117552857Y-81387142D01*
X117552857Y-80601428D01*
X118195714Y-80672857D02*
X118410000Y-80601428D01*
X118767142Y-80601428D01*
X118910000Y-80672857D01*
X118981428Y-80744285D01*
X119052857Y-80887142D01*
X119052857Y-81030000D01*
X118981428Y-81172857D01*
X118910000Y-81244285D01*
X118767142Y-81315714D01*
X118481428Y-81387142D01*
X118338571Y-81458571D01*
X118267142Y-81530000D01*
X118195714Y-81672857D01*
X118195714Y-81815714D01*
X118267142Y-81958571D01*
X118338571Y-82030000D01*
X118481428Y-82101428D01*
X118838571Y-82101428D01*
X119052857Y-82030000D01*
X120267142Y-80672857D02*
X120124285Y-80601428D01*
X119838571Y-80601428D01*
X119695714Y-80672857D01*
X119624285Y-80815714D01*
X119624285Y-81387142D01*
X119695714Y-81530000D01*
X119838571Y-81601428D01*
X120124285Y-81601428D01*
X120267142Y-81530000D01*
X120338571Y-81387142D01*
X120338571Y-81244285D01*
X119624285Y-81101428D01*
X120981428Y-81601428D02*
X120981428Y-80601428D01*
X120981428Y-81458571D02*
X121052857Y-81530000D01*
X121195714Y-81601428D01*
X121410000Y-81601428D01*
X121552857Y-81530000D01*
X121624285Y-81387142D01*
X121624285Y-80601428D01*
X122267142Y-80672857D02*
X122410000Y-80601428D01*
X122695714Y-80601428D01*
X122838571Y-80672857D01*
X122910000Y-80815714D01*
X122910000Y-80887142D01*
X122838571Y-81030000D01*
X122695714Y-81101428D01*
X122481428Y-81101428D01*
X122338571Y-81172857D01*
X122267142Y-81315714D01*
X122267142Y-81387142D01*
X122338571Y-81530000D01*
X122481428Y-81601428D01*
X122695714Y-81601428D01*
X122838571Y-81530000D01*
X123767142Y-80601428D02*
X123624285Y-80672857D01*
X123552857Y-80744285D01*
X123481428Y-80887142D01*
X123481428Y-81315714D01*
X123552857Y-81458571D01*
X123624285Y-81530000D01*
X123767142Y-81601428D01*
X123981428Y-81601428D01*
X124124285Y-81530000D01*
X124195714Y-81458571D01*
X124267142Y-81315714D01*
X124267142Y-80887142D01*
X124195714Y-80744285D01*
X124124285Y-80672857D01*
X123981428Y-80601428D01*
X123767142Y-80601428D01*
X124910000Y-80601428D02*
X124910000Y-81601428D01*
X124910000Y-81315714D02*
X124981428Y-81458571D01*
X125052857Y-81530000D01*
X125195714Y-81601428D01*
X125338571Y-81601428D01*
X125838571Y-80601428D02*
X125838571Y-82101428D01*
X126195714Y-82101428D01*
X126410000Y-82030000D01*
X126552857Y-81887142D01*
X126624285Y-81744285D01*
X126695714Y-81458571D01*
X126695714Y-81244285D01*
X126624285Y-80958571D01*
X126552857Y-80815714D01*
X126410000Y-80672857D01*
X126195714Y-80601428D01*
X125838571Y-80601428D01*
X127910000Y-80672857D02*
X127767142Y-80601428D01*
X127481428Y-80601428D01*
X127338571Y-80672857D01*
X127267142Y-80815714D01*
X127267142Y-81387142D01*
X127338571Y-81530000D01*
X127481428Y-81601428D01*
X127767142Y-81601428D01*
X127910000Y-81530000D01*
X127981428Y-81387142D01*
X127981428Y-81244285D01*
X127267142Y-81101428D01*
X128552857Y-80672857D02*
X128695714Y-80601428D01*
X128981428Y-80601428D01*
X129124285Y-80672857D01*
X129195714Y-80815714D01*
X129195714Y-80887142D01*
X129124285Y-81030000D01*
X128981428Y-81101428D01*
X128767142Y-81101428D01*
X128624285Y-81172857D01*
X128552857Y-81315714D01*
X128552857Y-81387142D01*
X128624285Y-81530000D01*
X128767142Y-81601428D01*
X128981428Y-81601428D01*
X129124285Y-81530000D01*
X129838571Y-80601428D02*
X129838571Y-81601428D01*
X129838571Y-82101428D02*
X129767142Y-82030000D01*
X129838571Y-81958571D01*
X129910000Y-82030000D01*
X129838571Y-82101428D01*
X129838571Y-81958571D01*
X131195714Y-81601428D02*
X131195714Y-80387142D01*
X131124285Y-80244285D01*
X131052857Y-80172857D01*
X130910000Y-80101428D01*
X130695714Y-80101428D01*
X130552857Y-80172857D01*
X131195714Y-80672857D02*
X131052857Y-80601428D01*
X130767142Y-80601428D01*
X130624285Y-80672857D01*
X130552857Y-80744285D01*
X130481428Y-80887142D01*
X130481428Y-81315714D01*
X130552857Y-81458571D01*
X130624285Y-81530000D01*
X130767142Y-81601428D01*
X131052857Y-81601428D01*
X131195714Y-81530000D01*
X131910000Y-81601428D02*
X131910000Y-80601428D01*
X131910000Y-81458571D02*
X131981428Y-81530000D01*
X132124285Y-81601428D01*
X132338571Y-81601428D01*
X132481428Y-81530000D01*
X132552857Y-81387142D01*
X132552857Y-80601428D01*
D11*
%TO.C,R1*%
X119617258Y-90917500D02*
X119142742Y-90917500D01*
X119617258Y-91962500D02*
X119142742Y-91962500D01*
D12*
%TO.C,IC5*%
X87630000Y-83220000D02*
X87630000Y-89820000D01*
X77470000Y-81985000D02*
X77470000Y-89820000D01*
%TO.C,IC4*%
X87630000Y-116080000D02*
X87630000Y-122680000D01*
X77470000Y-114845000D02*
X77470000Y-122680000D01*
%TO.C,IC3*%
X80516000Y-98465000D02*
X82043000Y-98465000D01*
X82393000Y-93433000D02*
X82393000Y-98337000D01*
X85589000Y-93433000D02*
X82393000Y-93433000D01*
X85589000Y-98337000D02*
X85589000Y-93433000D01*
X82393000Y-98337000D02*
X85589000Y-98337000D01*
D11*
%TO.C,C7*%
X89460000Y-96536252D02*
X89460000Y-96013748D01*
X90880000Y-96536252D02*
X90880000Y-96013748D01*
%TO.C,R7*%
X103107258Y-108697500D02*
X102632742Y-108697500D01*
X103107258Y-109742500D02*
X102632742Y-109742500D01*
%TO.C,R8*%
X84852742Y-112282500D02*
X85327258Y-112282500D01*
X84852742Y-111237500D02*
X85327258Y-111237500D01*
%TO.C,R6*%
X106472258Y-103617500D02*
X105997742Y-103617500D01*
X106472258Y-104662500D02*
X105997742Y-104662500D01*
%TO.C,R5*%
X90692500Y-92122258D02*
X90692500Y-91647742D01*
X89647500Y-92122258D02*
X89647500Y-91647742D01*
%TO.C,R4*%
X116602742Y-104662500D02*
X117077258Y-104662500D01*
X116602742Y-103617500D02*
X117077258Y-103617500D01*
%TO.C,R3*%
X116602742Y-102122500D02*
X117077258Y-102122500D01*
X116602742Y-101077500D02*
X117077258Y-101077500D01*
%TO.C,R2*%
X117077258Y-98537500D02*
X116602742Y-98537500D01*
X117077258Y-99582500D02*
X116602742Y-99582500D01*
%TO.C,R1*%
D13*
X119546666Y-90462380D02*
X119880000Y-89986190D01*
X120118095Y-90462380D02*
X120118095Y-89462380D01*
X119737142Y-89462380D01*
X119641904Y-89510000D01*
X119594285Y-89557619D01*
X119546666Y-89652857D01*
X119546666Y-89795714D01*
X119594285Y-89890952D01*
X119641904Y-89938571D01*
X119737142Y-89986190D01*
X120118095Y-89986190D01*
X118594285Y-90462380D02*
X119165714Y-90462380D01*
X118880000Y-90462380D02*
X118880000Y-89462380D01*
X118975238Y-89605238D01*
X119070476Y-89700476D01*
X119165714Y-89748095D01*
%TO.C,IC5*%
D14*
X83124523Y-85280238D02*
X81854523Y-85280238D01*
X83003571Y-86610714D02*
X83064047Y-86550238D01*
X83124523Y-86368809D01*
X83124523Y-86247857D01*
X83064047Y-86066428D01*
X82943095Y-85945476D01*
X82822142Y-85885000D01*
X82580238Y-85824523D01*
X82398809Y-85824523D01*
X82156904Y-85885000D01*
X82035952Y-85945476D01*
X81915000Y-86066428D01*
X81854523Y-86247857D01*
X81854523Y-86368809D01*
X81915000Y-86550238D01*
X81975476Y-86610714D01*
X81854523Y-87759761D02*
X81854523Y-87155000D01*
X82459285Y-87094523D01*
X82398809Y-87155000D01*
X82338333Y-87275952D01*
X82338333Y-87578333D01*
X82398809Y-87699285D01*
X82459285Y-87759761D01*
X82580238Y-87820238D01*
X82882619Y-87820238D01*
X83003571Y-87759761D01*
X83064047Y-87699285D01*
X83124523Y-87578333D01*
X83124523Y-87275952D01*
X83064047Y-87155000D01*
X83003571Y-87094523D01*
%TO.C,IC4*%
X83124523Y-118140238D02*
X81854523Y-118140238D01*
X83003571Y-119470714D02*
X83064047Y-119410238D01*
X83124523Y-119228809D01*
X83124523Y-119107857D01*
X83064047Y-118926428D01*
X82943095Y-118805476D01*
X82822142Y-118745000D01*
X82580238Y-118684523D01*
X82398809Y-118684523D01*
X82156904Y-118745000D01*
X82035952Y-118805476D01*
X81915000Y-118926428D01*
X81854523Y-119107857D01*
X81854523Y-119228809D01*
X81915000Y-119410238D01*
X81975476Y-119470714D01*
X82277857Y-120559285D02*
X83124523Y-120559285D01*
X81794047Y-120256904D02*
X82701190Y-119954523D01*
X82701190Y-120740714D01*
%TO.C,IC3*%
X85230761Y-96459523D02*
X85230761Y-95189523D01*
X83900285Y-96338571D02*
X83960761Y-96399047D01*
X84142190Y-96459523D01*
X84263142Y-96459523D01*
X84444571Y-96399047D01*
X84565523Y-96278095D01*
X84626000Y-96157142D01*
X84686476Y-95915238D01*
X84686476Y-95733809D01*
X84626000Y-95491904D01*
X84565523Y-95370952D01*
X84444571Y-95250000D01*
X84263142Y-95189523D01*
X84142190Y-95189523D01*
X83960761Y-95250000D01*
X83900285Y-95310476D01*
X83476952Y-95189523D02*
X82690761Y-95189523D01*
X83114095Y-95673333D01*
X82932666Y-95673333D01*
X82811714Y-95733809D01*
X82751238Y-95794285D01*
X82690761Y-95915238D01*
X82690761Y-96217619D01*
X82751238Y-96338571D01*
X82811714Y-96399047D01*
X82932666Y-96459523D01*
X83295523Y-96459523D01*
X83416476Y-96399047D01*
X83476952Y-96338571D01*
%TO.C,C7*%
D13*
X91462857Y-96441666D02*
X91415238Y-96489285D01*
X91367619Y-96632142D01*
X91367619Y-96727380D01*
X91415238Y-96870238D01*
X91510476Y-96965476D01*
X91605714Y-97013095D01*
X91796190Y-97060714D01*
X91939047Y-97060714D01*
X92129523Y-97013095D01*
X92224761Y-96965476D01*
X92320000Y-96870238D01*
X92367619Y-96727380D01*
X92367619Y-96632142D01*
X92320000Y-96489285D01*
X92272380Y-96441666D01*
X92367619Y-96108333D02*
X92367619Y-95441666D01*
X91367619Y-95870238D01*
%TO.C,R7*%
X103036666Y-108242380D02*
X103370000Y-107766190D01*
X103608095Y-108242380D02*
X103608095Y-107242380D01*
X103227142Y-107242380D01*
X103131904Y-107290000D01*
X103084285Y-107337619D01*
X103036666Y-107432857D01*
X103036666Y-107575714D01*
X103084285Y-107670952D01*
X103131904Y-107718571D01*
X103227142Y-107766190D01*
X103608095Y-107766190D01*
X102703333Y-107242380D02*
X102036666Y-107242380D01*
X102465238Y-108242380D01*
%TO.C,R8*%
X85256666Y-113642380D02*
X85590000Y-113166190D01*
X85828095Y-113642380D02*
X85828095Y-112642380D01*
X85447142Y-112642380D01*
X85351904Y-112690000D01*
X85304285Y-112737619D01*
X85256666Y-112832857D01*
X85256666Y-112975714D01*
X85304285Y-113070952D01*
X85351904Y-113118571D01*
X85447142Y-113166190D01*
X85828095Y-113166190D01*
X84685238Y-113070952D02*
X84780476Y-113023333D01*
X84828095Y-112975714D01*
X84875714Y-112880476D01*
X84875714Y-112832857D01*
X84828095Y-112737619D01*
X84780476Y-112690000D01*
X84685238Y-112642380D01*
X84494761Y-112642380D01*
X84399523Y-112690000D01*
X84351904Y-112737619D01*
X84304285Y-112832857D01*
X84304285Y-112880476D01*
X84351904Y-112975714D01*
X84399523Y-113023333D01*
X84494761Y-113070952D01*
X84685238Y-113070952D01*
X84780476Y-113118571D01*
X84828095Y-113166190D01*
X84875714Y-113261428D01*
X84875714Y-113451904D01*
X84828095Y-113547142D01*
X84780476Y-113594761D01*
X84685238Y-113642380D01*
X84494761Y-113642380D01*
X84399523Y-113594761D01*
X84351904Y-113547142D01*
X84304285Y-113451904D01*
X84304285Y-113261428D01*
X84351904Y-113166190D01*
X84399523Y-113118571D01*
X84494761Y-113070952D01*
%TO.C,R6*%
X109386666Y-104592380D02*
X109720000Y-104116190D01*
X109958095Y-104592380D02*
X109958095Y-103592380D01*
X109577142Y-103592380D01*
X109481904Y-103640000D01*
X109434285Y-103687619D01*
X109386666Y-103782857D01*
X109386666Y-103925714D01*
X109434285Y-104020952D01*
X109481904Y-104068571D01*
X109577142Y-104116190D01*
X109958095Y-104116190D01*
X108529523Y-103592380D02*
X108720000Y-103592380D01*
X108815238Y-103640000D01*
X108862857Y-103687619D01*
X108958095Y-103830476D01*
X109005714Y-104020952D01*
X109005714Y-104401904D01*
X108958095Y-104497142D01*
X108910476Y-104544761D01*
X108815238Y-104592380D01*
X108624761Y-104592380D01*
X108529523Y-104544761D01*
X108481904Y-104497142D01*
X108434285Y-104401904D01*
X108434285Y-104163809D01*
X108481904Y-104068571D01*
X108529523Y-104020952D01*
X108624761Y-103973333D01*
X108815238Y-103973333D01*
X108910476Y-104020952D01*
X108958095Y-104068571D01*
X109005714Y-104163809D01*
%TO.C,R5*%
X92052380Y-91718333D02*
X91576190Y-91385000D01*
X92052380Y-91146904D02*
X91052380Y-91146904D01*
X91052380Y-91527857D01*
X91100000Y-91623095D01*
X91147619Y-91670714D01*
X91242857Y-91718333D01*
X91385714Y-91718333D01*
X91480952Y-91670714D01*
X91528571Y-91623095D01*
X91576190Y-91527857D01*
X91576190Y-91146904D01*
X91052380Y-92623095D02*
X91052380Y-92146904D01*
X91528571Y-92099285D01*
X91480952Y-92146904D01*
X91433333Y-92242142D01*
X91433333Y-92480238D01*
X91480952Y-92575476D01*
X91528571Y-92623095D01*
X91623809Y-92670714D01*
X91861904Y-92670714D01*
X91957142Y-92623095D01*
X92004761Y-92575476D01*
X92052380Y-92480238D01*
X92052380Y-92242142D01*
X92004761Y-92146904D01*
X91957142Y-92099285D01*
%TO.C,R4*%
X117006666Y-106022380D02*
X117340000Y-105546190D01*
X117578095Y-106022380D02*
X117578095Y-105022380D01*
X117197142Y-105022380D01*
X117101904Y-105070000D01*
X117054285Y-105117619D01*
X117006666Y-105212857D01*
X117006666Y-105355714D01*
X117054285Y-105450952D01*
X117101904Y-105498571D01*
X117197142Y-105546190D01*
X117578095Y-105546190D01*
X116149523Y-105355714D02*
X116149523Y-106022380D01*
X116387619Y-104974761D02*
X116625714Y-105689047D01*
X116006666Y-105689047D01*
%TO.C,R3*%
X117006666Y-103482380D02*
X117340000Y-103006190D01*
X117578095Y-103482380D02*
X117578095Y-102482380D01*
X117197142Y-102482380D01*
X117101904Y-102530000D01*
X117054285Y-102577619D01*
X117006666Y-102672857D01*
X117006666Y-102815714D01*
X117054285Y-102910952D01*
X117101904Y-102958571D01*
X117197142Y-103006190D01*
X117578095Y-103006190D01*
X116673333Y-102482380D02*
X116054285Y-102482380D01*
X116387619Y-102863333D01*
X116244761Y-102863333D01*
X116149523Y-102910952D01*
X116101904Y-102958571D01*
X116054285Y-103053809D01*
X116054285Y-103291904D01*
X116101904Y-103387142D01*
X116149523Y-103434761D01*
X116244761Y-103482380D01*
X116530476Y-103482380D01*
X116625714Y-103434761D01*
X116673333Y-103387142D01*
%TO.C,R2*%
X117006666Y-100782380D02*
X117340000Y-100306190D01*
X117578095Y-100782380D02*
X117578095Y-99782380D01*
X117197142Y-99782380D01*
X117101904Y-99830000D01*
X117054285Y-99877619D01*
X117006666Y-99972857D01*
X117006666Y-100115714D01*
X117054285Y-100210952D01*
X117101904Y-100258571D01*
X117197142Y-100306190D01*
X117578095Y-100306190D01*
X116625714Y-99877619D02*
X116578095Y-99830000D01*
X116482857Y-99782380D01*
X116244761Y-99782380D01*
X116149523Y-99830000D01*
X116101904Y-99877619D01*
X116054285Y-99972857D01*
X116054285Y-100068095D01*
X116101904Y-100210952D01*
X116673333Y-100782380D01*
X116054285Y-100782380D01*
%TD*%
M02*
