M48
; DRILL file {KiCad (5.1.9)-1} date 05/16/21 10:50:35
; FORMAT={-:-/ absolute / inch / decimal}
; #@! TF.CreationDate,2021-05-16T10:50:35-07:00
; #@! TF.GenerationSoftware,Kicad,Pcbnew,(5.1.9)-1
; #@! TF.FileFunction,Plated,1,2,PTH
FMAT,2
INCH
T1C0.0157
T2C0.0276
T3C0.0287
T4C0.0295
T5C0.0315
T6C0.0331
T7C0.0394
T8C0.0413
T9C0.0512
%
G90
G05
T1
X3.6625Y-3.9749
X4.4933Y-3.6067
X4.5Y-3.9
X4.5427Y-4.0493
X4.6139Y-4.0573
X4.825Y-3.725
T2
X3.7Y-4.55
X3.75Y-4.06
X3.8Y-4.45
X3.8Y-4.65
X3.85Y-4.16
X3.95Y-4.06
X4.25Y-4.42
X4.35Y-4.32
X4.35Y-4.52
X4.95Y-4.65
X5.05Y-4.55
X5.05Y-4.75
T3
X3.1Y-3.25
X3.1Y-3.5626
X3.1Y-4.5437
X3.1Y-4.8563
X3.2Y-3.25
X3.2Y-3.5626
X3.2Y-4.5437
X3.2Y-4.8563
X3.3Y-3.25
X3.3Y-3.5626
X3.3Y-4.5437
X3.3Y-4.8563
X3.4Y-3.25
X3.4Y-3.5626
X3.4Y-4.5437
X3.4Y-4.8563
T4
X4.6Y-4.35
X4.65Y-4.35
X4.65Y-4.6
X4.7Y-4.35
X4.7Y-4.6
X4.75Y-4.6
T5
X3.75Y-3.8
X3.9469Y-3.8
X4.15Y-3.8
X4.2Y-4.0
X4.2Y-4.1969
X4.3213Y-4.7
X4.3469Y-3.8
X4.4Y-4.1
X4.4Y-4.7
X4.4984Y-4.1
X4.5Y-3.5
X4.7516Y-4.1
X4.85Y-4.1
X4.9Y-3.5
X5.0213Y-4.3
X5.1Y-4.3
T6
X3.1547Y-4.0
X3.2531Y-4.0
X3.3516Y-4.0
X3.45Y-4.0
T7
X3.7Y-3.5
X3.7Y-3.6
T8
X5.0Y-3.5
X5.0Y-4.0551
X5.15Y-3.4949
X5.15Y-4.05
T9
X3.9063Y-3.45
X4.1031Y-3.45
X4.3Y-3.45
T0
M30
