%TF.GenerationSoftware,KiCad,Pcbnew,(5.1.9)-1*%
%TF.CreationDate,2021-05-16T10:50:45-07:00*%
%TF.ProjectId,VacuumSensor,56616375-756d-4536-956e-736f722e6b69,rev?*%
%TF.SameCoordinates,Original*%
%TF.FileFunction,Paste,Bot*%
%TF.FilePolarity,Positive*%
%FSLAX46Y46*%
G04 Gerber Fmt 4.6, Leading zero omitted, Abs format (unit mm)*
G04 Created by KiCad (PCBNEW (5.1.9)-1) date 2021-05-16 10:50:45*
%MOMM*%
%LPD*%
G01*
G04 APERTURE LIST*
%ADD10R,1.528000X0.650000*%
G04 APERTURE END LIST*
%TO.C,R1*%
G36*
G01*
X118955000Y-91165000D02*
X118955000Y-91715000D01*
G75*
G02*
X118755000Y-91915000I-200000J0D01*
G01*
X118355000Y-91915000D01*
G75*
G02*
X118155000Y-91715000I0J200000D01*
G01*
X118155000Y-91165000D01*
G75*
G02*
X118355000Y-90965000I200000J0D01*
G01*
X118755000Y-90965000D01*
G75*
G02*
X118955000Y-91165000I0J-200000D01*
G01*
G37*
G36*
G01*
X120605000Y-91165000D02*
X120605000Y-91715000D01*
G75*
G02*
X120405000Y-91915000I-200000J0D01*
G01*
X120005000Y-91915000D01*
G75*
G02*
X119805000Y-91715000I0J200000D01*
G01*
X119805000Y-91165000D01*
G75*
G02*
X120005000Y-90965000I200000J0D01*
G01*
X120405000Y-90965000D01*
G75*
G02*
X120605000Y-91165000I0J-200000D01*
G01*
G37*
%TD*%
D10*
%TO.C,IC3*%
X86702000Y-97790000D03*
X86702000Y-96520000D03*
X86702000Y-95250000D03*
X86702000Y-93980000D03*
X81280000Y-93980000D03*
X81280000Y-95250000D03*
X81280000Y-96520000D03*
X81280000Y-97790000D03*
%TD*%
%TO.C,C7*%
G36*
G01*
X90620001Y-95825000D02*
X89719999Y-95825000D01*
G75*
G02*
X89470000Y-95575001I0J249999D01*
G01*
X89470000Y-94924999D01*
G75*
G02*
X89719999Y-94675000I249999J0D01*
G01*
X90620001Y-94675000D01*
G75*
G02*
X90870000Y-94924999I0J-249999D01*
G01*
X90870000Y-95575001D01*
G75*
G02*
X90620001Y-95825000I-249999J0D01*
G01*
G37*
G36*
G01*
X90620001Y-97875000D02*
X89719999Y-97875000D01*
G75*
G02*
X89470000Y-97625001I0J249999D01*
G01*
X89470000Y-96974999D01*
G75*
G02*
X89719999Y-96725000I249999J0D01*
G01*
X90620001Y-96725000D01*
G75*
G02*
X90870000Y-96974999I0J-249999D01*
G01*
X90870000Y-97625001D01*
G75*
G02*
X90620001Y-97875000I-249999J0D01*
G01*
G37*
%TD*%
%TO.C,R7*%
G36*
G01*
X102445000Y-108945000D02*
X102445000Y-109495000D01*
G75*
G02*
X102245000Y-109695000I-200000J0D01*
G01*
X101845000Y-109695000D01*
G75*
G02*
X101645000Y-109495000I0J200000D01*
G01*
X101645000Y-108945000D01*
G75*
G02*
X101845000Y-108745000I200000J0D01*
G01*
X102245000Y-108745000D01*
G75*
G02*
X102445000Y-108945000I0J-200000D01*
G01*
G37*
G36*
G01*
X104095000Y-108945000D02*
X104095000Y-109495000D01*
G75*
G02*
X103895000Y-109695000I-200000J0D01*
G01*
X103495000Y-109695000D01*
G75*
G02*
X103295000Y-109495000I0J200000D01*
G01*
X103295000Y-108945000D01*
G75*
G02*
X103495000Y-108745000I200000J0D01*
G01*
X103895000Y-108745000D01*
G75*
G02*
X104095000Y-108945000I0J-200000D01*
G01*
G37*
%TD*%
%TO.C,R8*%
G36*
G01*
X85515000Y-112035000D02*
X85515000Y-111485000D01*
G75*
G02*
X85715000Y-111285000I200000J0D01*
G01*
X86115000Y-111285000D01*
G75*
G02*
X86315000Y-111485000I0J-200000D01*
G01*
X86315000Y-112035000D01*
G75*
G02*
X86115000Y-112235000I-200000J0D01*
G01*
X85715000Y-112235000D01*
G75*
G02*
X85515000Y-112035000I0J200000D01*
G01*
G37*
G36*
G01*
X83865000Y-112035000D02*
X83865000Y-111485000D01*
G75*
G02*
X84065000Y-111285000I200000J0D01*
G01*
X84465000Y-111285000D01*
G75*
G02*
X84665000Y-111485000I0J-200000D01*
G01*
X84665000Y-112035000D01*
G75*
G02*
X84465000Y-112235000I-200000J0D01*
G01*
X84065000Y-112235000D01*
G75*
G02*
X83865000Y-112035000I0J200000D01*
G01*
G37*
%TD*%
%TO.C,R6*%
G36*
G01*
X105810000Y-103865000D02*
X105810000Y-104415000D01*
G75*
G02*
X105610000Y-104615000I-200000J0D01*
G01*
X105210000Y-104615000D01*
G75*
G02*
X105010000Y-104415000I0J200000D01*
G01*
X105010000Y-103865000D01*
G75*
G02*
X105210000Y-103665000I200000J0D01*
G01*
X105610000Y-103665000D01*
G75*
G02*
X105810000Y-103865000I0J-200000D01*
G01*
G37*
G36*
G01*
X107460000Y-103865000D02*
X107460000Y-104415000D01*
G75*
G02*
X107260000Y-104615000I-200000J0D01*
G01*
X106860000Y-104615000D01*
G75*
G02*
X106660000Y-104415000I0J200000D01*
G01*
X106660000Y-103865000D01*
G75*
G02*
X106860000Y-103665000I200000J0D01*
G01*
X107260000Y-103665000D01*
G75*
G02*
X107460000Y-103865000I0J-200000D01*
G01*
G37*
%TD*%
%TO.C,R5*%
G36*
G01*
X90445000Y-91460000D02*
X89895000Y-91460000D01*
G75*
G02*
X89695000Y-91260000I0J200000D01*
G01*
X89695000Y-90860000D01*
G75*
G02*
X89895000Y-90660000I200000J0D01*
G01*
X90445000Y-90660000D01*
G75*
G02*
X90645000Y-90860000I0J-200000D01*
G01*
X90645000Y-91260000D01*
G75*
G02*
X90445000Y-91460000I-200000J0D01*
G01*
G37*
G36*
G01*
X90445000Y-93110000D02*
X89895000Y-93110000D01*
G75*
G02*
X89695000Y-92910000I0J200000D01*
G01*
X89695000Y-92510000D01*
G75*
G02*
X89895000Y-92310000I200000J0D01*
G01*
X90445000Y-92310000D01*
G75*
G02*
X90645000Y-92510000I0J-200000D01*
G01*
X90645000Y-92910000D01*
G75*
G02*
X90445000Y-93110000I-200000J0D01*
G01*
G37*
%TD*%
%TO.C,R4*%
G36*
G01*
X117265000Y-104415000D02*
X117265000Y-103865000D01*
G75*
G02*
X117465000Y-103665000I200000J0D01*
G01*
X117865000Y-103665000D01*
G75*
G02*
X118065000Y-103865000I0J-200000D01*
G01*
X118065000Y-104415000D01*
G75*
G02*
X117865000Y-104615000I-200000J0D01*
G01*
X117465000Y-104615000D01*
G75*
G02*
X117265000Y-104415000I0J200000D01*
G01*
G37*
G36*
G01*
X115615000Y-104415000D02*
X115615000Y-103865000D01*
G75*
G02*
X115815000Y-103665000I200000J0D01*
G01*
X116215000Y-103665000D01*
G75*
G02*
X116415000Y-103865000I0J-200000D01*
G01*
X116415000Y-104415000D01*
G75*
G02*
X116215000Y-104615000I-200000J0D01*
G01*
X115815000Y-104615000D01*
G75*
G02*
X115615000Y-104415000I0J200000D01*
G01*
G37*
%TD*%
%TO.C,R3*%
G36*
G01*
X117265000Y-101875000D02*
X117265000Y-101325000D01*
G75*
G02*
X117465000Y-101125000I200000J0D01*
G01*
X117865000Y-101125000D01*
G75*
G02*
X118065000Y-101325000I0J-200000D01*
G01*
X118065000Y-101875000D01*
G75*
G02*
X117865000Y-102075000I-200000J0D01*
G01*
X117465000Y-102075000D01*
G75*
G02*
X117265000Y-101875000I0J200000D01*
G01*
G37*
G36*
G01*
X115615000Y-101875000D02*
X115615000Y-101325000D01*
G75*
G02*
X115815000Y-101125000I200000J0D01*
G01*
X116215000Y-101125000D01*
G75*
G02*
X116415000Y-101325000I0J-200000D01*
G01*
X116415000Y-101875000D01*
G75*
G02*
X116215000Y-102075000I-200000J0D01*
G01*
X115815000Y-102075000D01*
G75*
G02*
X115615000Y-101875000I0J200000D01*
G01*
G37*
%TD*%
%TO.C,R2*%
G36*
G01*
X116415000Y-98785000D02*
X116415000Y-99335000D01*
G75*
G02*
X116215000Y-99535000I-200000J0D01*
G01*
X115815000Y-99535000D01*
G75*
G02*
X115615000Y-99335000I0J200000D01*
G01*
X115615000Y-98785000D01*
G75*
G02*
X115815000Y-98585000I200000J0D01*
G01*
X116215000Y-98585000D01*
G75*
G02*
X116415000Y-98785000I0J-200000D01*
G01*
G37*
G36*
G01*
X118065000Y-98785000D02*
X118065000Y-99335000D01*
G75*
G02*
X117865000Y-99535000I-200000J0D01*
G01*
X117465000Y-99535000D01*
G75*
G02*
X117265000Y-99335000I0J200000D01*
G01*
X117265000Y-98785000D01*
G75*
G02*
X117465000Y-98585000I200000J0D01*
G01*
X117865000Y-98585000D01*
G75*
G02*
X118065000Y-98785000I0J-200000D01*
G01*
G37*
%TD*%
M02*
