%TF.GenerationSoftware,KiCad,Pcbnew,(6.0.0)*%
%TF.CreationDate,2022-02-17T20:09:26-08:00*%
%TF.ProjectId,AMS-Vacuum-Sensor,414d532d-5661-4637-9575-6d2d53656e73,rev?*%
%TF.SameCoordinates,Original*%
%TF.FileFunction,Legend,Bot*%
%TF.FilePolarity,Positive*%
%FSLAX46Y46*%
G04 Gerber Fmt 4.6, Leading zero omitted, Abs format (unit mm)*
G04 Created by KiCad (PCBNEW (6.0.0)) date 2022-02-17 20:09:26*
%MOMM*%
%LPD*%
G01*
G04 APERTURE LIST*
%ADD10C,0.300000*%
%ADD11C,0.254000*%
%ADD12C,0.200000*%
G04 APERTURE END LIST*
D10*
X131136102Y-78705812D02*
X130636102Y-80205812D01*
X130136102Y-78705812D01*
X129064673Y-80134383D02*
X129207531Y-80205812D01*
X129493245Y-80205812D01*
X129636102Y-80134383D01*
X129707531Y-79991526D01*
X129707531Y-79420098D01*
X129636102Y-79277241D01*
X129493245Y-79205812D01*
X129207531Y-79205812D01*
X129064673Y-79277241D01*
X128993245Y-79420098D01*
X128993245Y-79562955D01*
X129707531Y-79705812D01*
X128350388Y-80205812D02*
X128350388Y-79205812D01*
X128350388Y-79491526D02*
X128278959Y-79348669D01*
X128207531Y-79277241D01*
X128064673Y-79205812D01*
X127921816Y-79205812D01*
X127493245Y-80134383D02*
X127350388Y-80205812D01*
X127064673Y-80205812D01*
X126921816Y-80134383D01*
X126850388Y-79991526D01*
X126850388Y-79920098D01*
X126921816Y-79777241D01*
X127064673Y-79705812D01*
X127278959Y-79705812D01*
X127421816Y-79634383D01*
X127493245Y-79491526D01*
X127493245Y-79420098D01*
X127421816Y-79277241D01*
X127278959Y-79205812D01*
X127064673Y-79205812D01*
X126921816Y-79277241D01*
X126207531Y-80062955D02*
X126136102Y-80134383D01*
X126207531Y-80205812D01*
X126278959Y-80134383D01*
X126207531Y-80062955D01*
X126207531Y-80205812D01*
X123564673Y-80205812D02*
X124421816Y-80205812D01*
X123993245Y-80205812D02*
X123993245Y-78705812D01*
X124136102Y-78920098D01*
X124278959Y-79062955D01*
X124421816Y-79134383D01*
X122921816Y-80062955D02*
X122850388Y-80134383D01*
X122921816Y-80205812D01*
X122993245Y-80134383D01*
X122921816Y-80062955D01*
X122921816Y-80205812D01*
X121921816Y-78705812D02*
X121778959Y-78705812D01*
X121636102Y-78777241D01*
X121564673Y-78848669D01*
X121493245Y-78991526D01*
X121421816Y-79277241D01*
X121421816Y-79634383D01*
X121493245Y-79920098D01*
X121564673Y-80062955D01*
X121636102Y-80134383D01*
X121778959Y-80205812D01*
X121921816Y-80205812D01*
X122064673Y-80134383D01*
X122136102Y-80062955D01*
X122207531Y-79920098D01*
X122278959Y-79634383D01*
X122278959Y-79277241D01*
X122207531Y-78991526D01*
X122136102Y-78848669D01*
X122064673Y-78777241D01*
X121921816Y-78705812D01*
D11*
%TO.C,R2*%
X129201605Y-94624381D02*
X128596843Y-94201048D01*
X129201605Y-93898667D02*
X127931605Y-93898667D01*
X127931605Y-94382476D01*
X127992082Y-94503428D01*
X128052558Y-94563905D01*
X128173510Y-94624381D01*
X128354939Y-94624381D01*
X128475891Y-94563905D01*
X128536367Y-94503428D01*
X128596843Y-94382476D01*
X128596843Y-93898667D01*
X128052558Y-95108190D02*
X127992082Y-95168667D01*
X127931605Y-95289619D01*
X127931605Y-95592000D01*
X127992082Y-95712952D01*
X128052558Y-95773428D01*
X128173510Y-95833905D01*
X128294462Y-95833905D01*
X128475891Y-95773428D01*
X129201605Y-95047714D01*
X129201605Y-95833905D01*
%TO.C,IC4*%
X121695111Y-99321112D02*
X120425111Y-99321112D01*
X121574159Y-100651588D02*
X121634635Y-100591112D01*
X121695111Y-100409683D01*
X121695111Y-100288731D01*
X121634635Y-100107302D01*
X121513683Y-99986350D01*
X121392730Y-99925874D01*
X121150826Y-99865397D01*
X120969397Y-99865397D01*
X120727492Y-99925874D01*
X120606540Y-99986350D01*
X120485588Y-100107302D01*
X120425111Y-100288731D01*
X120425111Y-100409683D01*
X120485588Y-100591112D01*
X120546064Y-100651588D01*
X120848445Y-101740159D02*
X121695111Y-101740159D01*
X120364635Y-101437778D02*
X121271778Y-101135397D01*
X121271778Y-101921588D01*
%TO.C,IC3*%
X114504296Y-99347219D02*
X113234296Y-99347219D01*
X114383344Y-100677695D02*
X114443820Y-100617219D01*
X114504296Y-100435790D01*
X114504296Y-100314838D01*
X114443820Y-100133409D01*
X114322868Y-100012457D01*
X114201915Y-99951981D01*
X113960011Y-99891504D01*
X113778582Y-99891504D01*
X113536677Y-99951981D01*
X113415725Y-100012457D01*
X113294773Y-100133409D01*
X113234296Y-100314838D01*
X113234296Y-100435790D01*
X113294773Y-100617219D01*
X113355249Y-100677695D01*
X113234296Y-101101028D02*
X113234296Y-101887219D01*
X113718106Y-101463885D01*
X113718106Y-101645314D01*
X113778582Y-101766266D01*
X113839058Y-101826742D01*
X113960011Y-101887219D01*
X114262392Y-101887219D01*
X114383344Y-101826742D01*
X114443820Y-101766266D01*
X114504296Y-101645314D01*
X114504296Y-101282457D01*
X114443820Y-101161504D01*
X114383344Y-101101028D01*
%TO.C,R1*%
X106376714Y-94317532D02*
X105771952Y-93894199D01*
X106376714Y-93591818D02*
X105106714Y-93591818D01*
X105106714Y-94075627D01*
X105167191Y-94196579D01*
X105227667Y-94257056D01*
X105348619Y-94317532D01*
X105530048Y-94317532D01*
X105651000Y-94257056D01*
X105711476Y-94196579D01*
X105771952Y-94075627D01*
X105771952Y-93591818D01*
X106376714Y-95527056D02*
X106376714Y-94801341D01*
X106376714Y-95164199D02*
X105106714Y-95164199D01*
X105288143Y-95043246D01*
X105409095Y-94922294D01*
X105469571Y-94801341D01*
D12*
%TO.C,R2*%
X132538728Y-98198483D02*
X132538728Y-91898483D01*
X132538728Y-91898483D02*
X130238728Y-91898483D01*
X131388728Y-98198483D02*
X131388728Y-101848483D01*
X130238728Y-98198483D02*
X132538728Y-98198483D01*
X131388728Y-88248483D02*
X131388728Y-91898483D01*
X130238728Y-91898483D02*
X130238728Y-98198483D01*
%TO.C,IC4*%
X127419951Y-102105601D02*
X127419951Y-98909601D01*
X127419951Y-98909601D02*
X122515951Y-98909601D01*
X122515951Y-98909601D02*
X122515951Y-102105601D01*
X122515951Y-102105601D02*
X127419951Y-102105601D01*
X122387951Y-97032601D02*
X122387951Y-98559601D01*
%TO.C,IC3*%
X107624949Y-98909601D02*
X107624949Y-102105601D01*
X112528949Y-98909601D02*
X107624949Y-98909601D01*
X112528949Y-102105601D02*
X112528949Y-98909601D01*
X107624949Y-102105601D02*
X112528949Y-102105601D01*
X107496949Y-97032601D02*
X107496949Y-98559601D01*
%TO.C,R1*%
X102339017Y-98198483D02*
X104639017Y-98198483D01*
X103489017Y-88248483D02*
X103489017Y-91898483D01*
X104639017Y-98198483D02*
X104639017Y-91898483D01*
X103489017Y-98198483D02*
X103489017Y-101848483D01*
X104639017Y-91898483D02*
X102339017Y-91898483D01*
X102339017Y-91898483D02*
X102339017Y-98198483D01*
%TD*%
M02*
